<svg width="343" height="301" viewBox="0 0 343 301" fill="none" xmlns="http://www.w3.org/2000/svg">
<g clip-path="url(#clip0_4795_35659)">
<path d="M330.001 189.006H12.9994C6.02916 189.006 0.378662 194.142 0.378662 200.479V261.782C0.378662 268.118 6.02916 273.255 12.9994 273.255H330.001C336.971 273.255 342.621 268.118 342.621 261.782V200.479C342.621 194.142 336.971 189.006 330.001 189.006Z" fill="#ECF3FF"/>
<path d="M330.001 100.541H12.9994C6.02916 100.541 0.378662 105.677 0.378662 112.013V173.317C0.378662 179.653 6.02916 184.79 12.9994 184.79H330.001C336.971 184.79 342.621 179.653 342.621 173.317V112.013C342.621 105.677 336.971 100.541 330.001 100.541Z" fill="#DDE9FE"/>
<path d="M330.001 12.0752H12.9994C6.02916 12.0752 0.378662 17.2118 0.378662 23.5481V84.8514C0.378662 91.1876 6.02916 96.3242 12.9994 96.3242H330.001C336.971 96.3242 342.621 91.1876 342.621 84.8514V23.5481C342.621 17.2118 336.971 12.0752 330.001 12.0752Z" fill="#C2D8FE"/>
<path d="M36.9367 286.525C36.8946 286.104 36.6948 285.789 36.3583 285.56C36.0112 285.33 35.5484 285.215 34.9595 285.215C34.5598 285.215 34.2233 285.263 33.9498 285.368C33.6764 285.473 33.466 285.607 33.3188 285.789C33.1715 285.971 33.0979 286.171 33.0979 286.401C33.0979 286.592 33.14 286.755 33.2346 286.898C33.3293 287.041 33.466 287.156 33.6343 287.261C33.8026 287.366 34.0024 287.453 34.2233 287.529C34.4441 287.605 34.686 287.663 34.9384 287.72L35.9796 287.95C36.4845 288.055 36.9472 288.189 37.3784 288.361C37.8097 288.533 38.1672 288.743 38.4828 288.992C38.7878 289.24 39.0297 289.537 39.2084 289.881C39.3767 290.225 39.4714 290.608 39.4714 291.047C39.4714 291.698 39.2926 292.252 38.935 292.721C38.5774 293.189 38.0621 293.562 37.389 293.82C36.7159 294.078 35.906 294.212 34.97 294.212C34.0339 294.212 33.2136 294.078 32.5195 293.82C31.8253 293.562 31.2889 293.17 30.8998 292.654C30.5107 292.137 30.3108 291.506 30.2898 290.741H32.6667C32.6983 291.095 32.8034 291.392 33.0033 291.621C33.2031 291.86 33.466 292.032 33.8026 292.156C34.1391 292.271 34.5177 292.338 34.9384 292.338C35.3591 292.338 35.7167 292.281 36.0217 292.176C36.3267 292.061 36.5686 291.908 36.7369 291.717C36.9052 291.525 36.9893 291.296 36.9893 291.038C36.9893 290.799 36.9157 290.598 36.7579 290.445C36.6002 290.292 36.3793 290.149 36.0848 290.034C35.7903 289.919 35.4327 289.814 35.0121 289.728L33.75 289.441C32.7719 289.221 31.9936 288.887 31.4362 288.428C30.8788 287.969 30.5843 287.347 30.5948 286.563C30.5948 285.923 30.7841 285.368 31.1627 284.89C31.5414 284.412 32.0672 284.039 32.7298 283.772C33.3924 283.504 34.1496 283.37 35.0015 283.37C35.8534 283.37 36.6212 283.504 37.2628 283.772C37.9043 284.039 38.4091 284.412 38.7667 284.89C39.1243 285.368 39.3136 285.923 39.3241 286.554H36.9683L36.9367 286.525Z" fill="#58595B"/>
<path d="M46.0761 283.485V294.04H43.6256V285.607H43.5625L40.9016 287.118V285.139L43.7728 283.485H46.0761Z" fill="#58595B"/>
<path d="M62.8828 301H13.4516C6.03692 301 0 295.512 0 288.772C0 282.032 6.03692 276.544 13.4516 276.544H62.8828C70.2975 276.544 76.3344 282.032 76.3344 288.772C76.3344 295.512 70.2975 301 62.8828 301ZM13.4516 277.232C6.44709 277.232 0.757244 282.404 0.757244 288.772C0.757244 295.139 6.44709 300.312 13.4516 300.312H62.8828C69.8873 300.312 75.5772 295.139 75.5772 288.772C75.5772 282.404 69.8873 277.232 62.8828 277.232H13.4516Z" fill="#808285"/>
<path d="M124.703 286.525C124.661 286.104 124.461 285.789 124.125 285.56C123.778 285.33 123.315 285.215 122.726 285.215C122.326 285.215 121.99 285.263 121.716 285.368C121.443 285.473 121.233 285.607 121.085 285.789C120.938 285.971 120.865 286.171 120.865 286.401C120.865 286.592 120.907 286.755 121.001 286.898C121.096 287.041 121.233 287.156 121.401 287.261C121.569 287.366 121.769 287.453 121.99 287.529C122.211 287.605 122.453 287.663 122.705 287.72L123.746 287.95C124.251 288.055 124.714 288.189 125.145 288.361C125.576 288.533 125.934 288.743 126.249 288.992C126.554 289.24 126.796 289.537 126.975 289.881C127.143 290.225 127.238 290.608 127.238 291.047C127.238 291.698 127.059 292.252 126.702 292.721C126.344 293.189 125.829 293.562 125.156 293.82C124.482 294.078 123.673 294.212 122.737 294.212C121.801 294.212 120.98 294.078 120.286 293.82C119.592 293.562 119.056 293.17 118.666 292.654C118.277 292.137 118.077 291.506 118.056 290.741H120.433C120.465 291.095 120.57 291.392 120.77 291.621C120.97 291.86 121.233 292.032 121.569 292.156C121.906 292.271 122.284 292.338 122.705 292.338C123.126 292.338 123.483 292.281 123.788 292.176C124.093 292.061 124.335 291.908 124.503 291.717C124.672 291.525 124.756 291.296 124.756 291.038C124.756 290.799 124.682 290.598 124.525 290.445C124.367 290.292 124.146 290.149 123.851 290.034C123.557 289.919 123.199 289.814 122.779 289.728L121.517 289.441C120.538 289.221 119.76 288.887 119.203 288.428C118.645 287.969 118.351 287.347 118.361 286.563C118.361 285.923 118.551 285.368 118.929 284.89C119.308 284.412 119.834 284.039 120.496 283.772C121.159 283.504 121.916 283.37 122.768 283.37C123.62 283.37 124.388 283.504 125.029 283.772C125.671 284.039 126.176 284.412 126.533 284.89C126.891 285.368 127.08 285.923 127.091 286.554H124.735L124.703 286.525Z" fill="#58595B"/>
<path d="M128.795 294.04V292.434L132.928 288.954C133.275 288.648 133.58 288.37 133.811 288.122C134.043 287.873 134.232 287.634 134.358 287.395C134.484 287.156 134.548 286.898 134.548 286.621C134.548 286.315 134.474 286.047 134.316 285.818C134.158 285.588 133.948 285.416 133.685 285.301C133.422 285.177 133.117 285.12 132.77 285.12C132.423 285.12 132.108 285.187 131.845 285.321C131.582 285.454 131.371 285.636 131.235 285.885C131.087 286.124 131.024 286.42 131.024 286.755H128.689C128.689 286.066 128.858 285.464 129.205 284.957C129.552 284.451 130.036 284.059 130.656 283.781C131.277 283.504 131.992 283.361 132.802 283.361C133.612 283.361 134.358 283.494 134.979 283.762C135.599 284.03 136.073 284.393 136.42 284.871C136.767 285.349 136.935 285.885 136.935 286.487C136.935 286.888 136.851 287.28 136.672 287.663C136.493 288.045 136.199 288.485 135.757 288.954C135.315 289.422 134.705 289.996 133.906 290.655L132.213 292.166V292.243H137.093V294.069H128.816L128.795 294.04Z" fill="#58595B"/>
<path d="M151.775 301H102.344C94.929 301 88.8921 295.512 88.8921 288.772C88.8921 282.032 94.929 276.544 102.344 276.544H151.775C159.19 276.544 165.227 282.032 165.227 288.772C165.227 295.512 159.19 301 151.775 301ZM102.344 277.232C95.3392 277.232 89.6493 282.404 89.6493 288.772C89.6493 295.139 95.3497 300.312 102.344 300.312H151.775C158.779 300.312 164.469 295.139 164.469 288.772C164.469 282.404 158.769 277.232 151.775 277.232H102.344Z" fill="#808285"/>
<path d="M213.627 286.525C213.585 286.104 213.385 285.789 213.048 285.56C212.701 285.33 212.239 285.215 211.65 285.215C211.25 285.215 210.913 285.263 210.64 285.368C210.367 285.473 210.156 285.607 210.009 285.789C209.862 285.971 209.788 286.171 209.788 286.401C209.788 286.592 209.83 286.755 209.925 286.898C210.019 287.041 210.156 287.156 210.324 287.261C210.493 287.366 210.693 287.453 210.913 287.529C211.134 287.605 211.376 287.663 211.629 287.72L212.67 287.95C213.175 288.055 213.637 288.189 214.069 288.361C214.5 288.533 214.857 288.743 215.173 288.992C215.478 289.24 215.72 289.537 215.899 289.881C216.067 290.225 216.162 290.608 216.162 291.047C216.162 291.698 215.983 292.252 215.625 292.721C215.268 293.189 214.752 293.562 214.079 293.82C213.406 294.078 212.596 294.212 211.66 294.212C210.724 294.212 209.904 294.078 209.21 293.82C208.515 293.562 207.979 293.17 207.59 292.654C207.201 292.137 207.001 291.506 206.98 290.741H209.357C209.388 291.095 209.494 291.392 209.693 291.621C209.893 291.86 210.156 292.032 210.493 292.156C210.829 292.271 211.208 292.338 211.629 292.338C212.049 292.338 212.407 292.281 212.712 292.176C213.017 292.061 213.259 291.908 213.427 291.717C213.595 291.525 213.679 291.296 213.679 291.038C213.679 290.799 213.606 290.598 213.448 290.445C213.29 290.292 213.069 290.149 212.775 290.034C212.481 289.919 212.123 289.814 211.702 289.728L210.44 289.441C209.462 289.221 208.684 288.887 208.126 288.428C207.569 287.969 207.274 287.347 207.285 286.563C207.285 285.923 207.474 285.368 207.853 284.89C208.232 284.412 208.757 284.039 209.42 283.772C210.083 283.504 210.84 283.37 211.692 283.37C212.544 283.37 213.311 283.504 213.953 283.772C214.594 284.039 215.099 284.412 215.457 284.89C215.814 285.368 216.004 285.923 216.014 286.554H213.658L213.627 286.525Z" fill="#58595B"/>
<path d="M222.009 294.193C221.157 294.193 220.411 294.059 219.748 293.791C219.085 293.524 218.57 293.16 218.192 292.692C217.813 292.223 217.613 291.678 217.603 291.066H220.074C220.085 291.325 220.179 291.554 220.358 291.745C220.526 291.937 220.758 292.089 221.042 292.195C221.326 292.3 221.652 292.357 222.009 292.357C222.367 292.357 222.714 292.3 222.998 292.176C223.282 292.051 223.513 291.889 223.671 291.678C223.829 291.468 223.913 291.219 223.913 290.942C223.913 290.665 223.829 290.407 223.65 290.196C223.482 289.977 223.229 289.804 222.914 289.68C222.598 289.556 222.22 289.499 221.778 289.499H220.695V287.864H221.778C222.146 287.864 222.472 287.806 222.767 287.692C223.061 287.577 223.271 287.414 223.429 287.204C223.587 286.994 223.671 286.755 223.671 286.477C223.671 286.2 223.597 285.98 223.461 285.779C223.324 285.579 223.135 285.426 222.882 285.311C222.63 285.196 222.346 285.139 222.02 285.139C221.694 285.139 221.378 285.196 221.105 285.301C220.831 285.407 220.61 285.56 220.442 285.76C220.274 285.961 220.19 286.191 220.179 286.458H217.823C217.834 285.846 218.023 285.311 218.391 284.852C218.759 284.384 219.264 284.02 219.895 283.762C220.526 283.504 221.231 283.37 222.03 283.37C222.83 283.37 223.534 283.504 224.134 283.772C224.733 284.039 225.207 284.393 225.533 284.842C225.859 285.292 226.037 285.799 226.027 286.353C226.027 286.946 225.827 287.433 225.427 287.835C225.028 288.237 224.491 288.485 223.839 288.59V288.676C224.691 288.772 225.343 289.049 225.796 289.479C226.248 289.91 226.469 290.464 226.458 291.124C226.458 291.726 226.269 292.262 225.89 292.73C225.501 293.199 224.975 293.562 224.302 293.83C223.629 294.097 222.861 294.231 221.988 294.231L222.009 294.193Z" fill="#58595B"/>
<path d="M240.93 301H191.498C184.084 301 178.047 295.512 178.047 288.772C178.047 282.032 184.084 276.544 191.498 276.544H240.93C248.344 276.544 254.381 282.032 254.381 288.772C254.381 295.512 248.344 301 240.93 301ZM191.498 277.232C184.494 277.232 178.804 282.404 178.804 288.772C178.804 295.139 184.504 300.312 191.498 300.312H240.93C247.934 300.312 253.624 295.139 253.624 288.772C253.624 282.404 247.924 277.232 240.93 277.232H191.498Z" fill="#808285"/>
<path d="M302.098 286.525C302.056 286.104 301.856 285.789 301.52 285.56C301.173 285.33 300.71 285.215 300.121 285.215C299.721 285.215 299.385 285.263 299.111 285.368C298.838 285.473 298.628 285.607 298.48 285.789C298.333 285.971 298.26 286.171 298.26 286.401C298.26 286.592 298.302 286.755 298.396 286.898C298.491 287.041 298.628 287.156 298.796 287.261C298.964 287.366 299.164 287.453 299.385 287.529C299.606 287.605 299.848 287.663 300.1 287.72L301.141 287.95C301.646 288.055 302.109 288.189 302.54 288.361C302.971 288.533 303.329 288.743 303.644 288.992C303.949 289.24 304.191 289.537 304.37 289.881C304.538 290.225 304.633 290.608 304.633 291.047C304.633 291.698 304.454 292.252 304.097 292.721C303.739 293.189 303.224 293.562 302.551 293.82C301.877 294.078 301.068 294.212 300.132 294.212C299.196 294.212 298.375 294.078 297.681 293.82C296.987 293.562 296.451 293.17 296.061 292.654C295.672 292.137 295.472 291.506 295.451 290.741H297.828C297.86 291.095 297.965 291.392 298.165 291.621C298.365 291.86 298.628 292.032 298.964 292.156C299.301 292.271 299.679 292.338 300.1 292.338C300.521 292.338 300.878 292.281 301.183 292.176C301.488 292.061 301.73 291.908 301.898 291.717C302.067 291.525 302.151 291.296 302.151 291.038C302.151 290.799 302.077 290.598 301.92 290.445C301.762 290.292 301.541 290.149 301.246 290.034C300.952 289.919 300.594 289.814 300.174 289.728L298.912 289.441C297.933 289.221 297.155 288.887 296.598 288.428C296.04 287.969 295.746 287.347 295.756 286.563C295.756 285.923 295.946 285.368 296.324 284.89C296.703 284.412 297.229 284.039 297.891 283.772C298.554 283.504 299.311 283.37 300.163 283.37C301.015 283.37 301.783 283.504 302.424 283.772C303.066 284.039 303.571 284.412 303.928 284.89C304.286 285.368 304.475 285.923 304.486 286.554H302.13L302.098 286.525Z" fill="#58595B"/>
<path d="M306.011 292.185V290.426L310.859 283.485H312.521V285.913H311.532L308.472 290.311V290.397H315.361V292.185H306H306.011ZM311.574 294.04V291.65L311.616 290.875V283.494H313.92V294.049H311.574V294.04Z" fill="#58595B"/>
<path d="M329.548 301H280.117C272.702 301 266.666 295.512 266.666 288.772C266.666 282.032 272.702 276.544 280.117 276.544H329.548C336.963 276.544 343 282.032 343 288.772C343 295.512 336.963 301 329.548 301ZM280.117 277.232C273.113 277.232 267.423 282.404 267.423 288.772C267.423 295.139 273.113 300.312 280.117 300.312H329.548C336.553 300.312 342.243 295.139 342.243 288.772C342.243 282.404 336.553 277.232 329.548 277.232H280.117Z" fill="#808285"/>
<path d="M82.8657 298.227H82.3608V300.656H82.8657V298.227Z" fill="#A7A9AC"/>
<path d="M82.8657 293.418H82.3608V288.609H82.8657V293.418ZM82.8657 283.8H82.3608V278.991H82.8657V283.8ZM82.8657 274.182H82.3608V269.373H82.8657V274.182ZM82.8657 264.564H82.3608V259.755H82.8657V264.564ZM82.8657 254.946H82.3608V250.137H82.8657V254.946ZM82.8657 245.328H82.3608V240.519H82.8657V245.328ZM82.8657 235.71H82.3608V230.901H82.8657V235.71ZM82.8657 226.092H82.3608V221.283H82.8657V226.092ZM82.8657 216.483H82.3608V211.674H82.8657V216.483ZM82.8657 206.856H82.3608V202.047H82.8657V206.856ZM82.8657 197.247H82.3608V192.438H82.8657V197.247ZM82.8657 187.629H82.3608V182.82H82.8657V187.629ZM82.8657 178.011H82.3608V173.202H82.8657V178.011ZM82.8657 168.393H82.3608V163.584H82.8657V168.393ZM82.8657 158.775H82.3608V153.966H82.8657V158.775ZM82.8657 149.157H82.3608V144.348H82.8657V149.157ZM82.8657 139.539H82.3608V134.73H82.8657V139.539ZM82.8657 129.921H82.3608V125.112H82.8657V129.921ZM82.8657 120.303H82.3608V115.494H82.8657V120.303ZM82.8657 110.684H82.3608V105.875H82.8657V110.684ZM82.8657 101.066H82.3608V96.2574H82.8657V101.066ZM82.8657 91.4483H82.3608V86.6393H82.8657V91.4483ZM82.8657 81.8303H82.3608V77.0212H82.8657V81.8303ZM82.8657 72.2122H82.3608V67.4031H82.8657V72.2122ZM82.8657 62.5941H82.3608V57.7851H82.8657V62.5941ZM82.8657 52.976H82.3608V48.167H82.8657V52.976ZM82.8657 43.3579H82.3608V38.5489H82.8657V43.3579ZM82.8657 33.7399H82.3608V28.9308H82.8657V33.7399ZM82.8657 24.1218H82.3608V19.3127H82.8657V24.1218Z" fill="#A7A9AC"/>
<path d="M82.8657 12.0752H82.3608V14.5036H82.8657V12.0752Z" fill="#A7A9AC"/>
<path d="M171.758 298.227H171.253V300.656H171.758V298.227Z" fill="#A7A9AC"/>
<path d="M171.758 293.418H171.253V288.609H171.758V293.418ZM171.758 283.8H171.253V278.991H171.758V283.8ZM171.758 274.182H171.253V269.373H171.758V274.182ZM171.758 264.564H171.253V259.755H171.758V264.564ZM171.758 254.946H171.253V250.137H171.758V254.946ZM171.758 245.328H171.253V240.519H171.758V245.328ZM171.758 235.71H171.253V230.901H171.758V235.71ZM171.758 226.092H171.253V221.283H171.758V226.092ZM171.758 216.483H171.253V211.674H171.758V216.483ZM171.758 206.856H171.253V202.047H171.758V206.856ZM171.758 197.247H171.253V192.438H171.758V197.247ZM171.758 187.629H171.253V182.82H171.758V187.629ZM171.758 178.011H171.253V173.202H171.758V178.011ZM171.758 168.393H171.253V163.584H171.758V168.393ZM171.758 158.775H171.253V153.966H171.758V158.775ZM171.758 149.157H171.253V144.348H171.758V149.157ZM171.758 139.539H171.253V134.73H171.758V139.539ZM171.758 129.921H171.253V125.112H171.758V129.921ZM171.758 120.303H171.253V115.494H171.758V120.303ZM171.758 110.684H171.253V105.875H171.758V110.684ZM171.758 101.066H171.253V96.2574H171.758V101.066ZM171.758 91.4483H171.253V86.6393H171.758V91.4483ZM171.758 81.8303H171.253V77.0212H171.758V81.8303ZM171.758 72.2122H171.253V67.4031H171.758V72.2122ZM171.758 62.5941H171.253V57.7851H171.758V62.5941ZM171.758 52.976H171.253V48.167H171.758V52.976ZM171.758 43.3579H171.253V38.5489H171.758V43.3579ZM171.758 33.7399H171.253V28.9308H171.758V33.7399ZM171.758 24.1218H171.253V19.3127H171.758V24.1218Z" fill="#A7A9AC"/>
<path d="M171.758 12.0752H171.253V14.5036H171.758V12.0752Z" fill="#A7A9AC"/>
<path d="M261.186 298.227H260.681V300.656H261.186V298.227Z" fill="#A7A9AC"/>
<path d="M261.186 293.418H260.681V288.609H261.186V293.418ZM261.186 283.8H260.681V278.991H261.186V283.8ZM261.186 274.182H260.681V269.373H261.186V274.182ZM261.186 264.564H260.681V259.755H261.186V264.564ZM261.186 254.946H260.681V250.137H261.186V254.946ZM261.186 245.328H260.681V240.519H261.186V245.328ZM261.186 235.71H260.681V230.901H261.186V235.71ZM261.186 226.092H260.681V221.283H261.186V226.092ZM261.186 216.483H260.681V211.674H261.186V216.483ZM261.186 206.856H260.681V202.047H261.186V206.856ZM261.186 197.247H260.681V192.438H261.186V197.247ZM261.186 187.629H260.681V182.82H261.186V187.629ZM261.186 178.011H260.681V173.202H261.186V178.011ZM261.186 168.393H260.681V163.584H261.186V168.393ZM261.186 158.775H260.681V153.966H261.186V158.775ZM261.186 149.157H260.681V144.348H261.186V149.157ZM261.186 139.539H260.681V134.73H261.186V139.539ZM261.186 129.921H260.681V125.112H261.186V129.921ZM261.186 120.303H260.681V115.494H261.186V120.303ZM261.186 110.684H260.681V105.875H261.186V110.684ZM261.186 101.066H260.681V96.2574H261.186V101.066ZM261.186 91.4483H260.681V86.6393H261.186V91.4483ZM261.186 81.8303H260.681V77.0212H261.186V81.8303ZM261.186 72.2122H260.681V67.4031H261.186V72.2122ZM261.186 62.5941H260.681V57.7851H261.186V62.5941ZM261.186 52.976H260.681V48.167H261.186V52.976ZM261.186 43.3579H260.681V38.5489H261.186V43.3579ZM261.186 33.7399H260.681V28.9308H261.186V33.7399ZM261.186 24.1218H260.681V19.3127H261.186V24.1218Z" fill="#A7A9AC"/>
<path d="M261.186 12.0752H260.681V14.5036H261.186V12.0752Z" fill="#A7A9AC"/>
<path d="M15.1764 236.408H12.5471L16.5542 225.853H19.7199L23.727 236.408H21.0977L18.1949 228.262H18.1002L15.187 236.408H15.1764ZM15.0082 232.258H21.2239V233.999H15.0082V232.258Z" fill="#58595B"/>
<path d="M29.5537 225.853V236.408H27.1031V227.975H27.04L24.3792 229.486V227.507L27.2504 225.853H29.5537Z" fill="#58595B"/>
<path d="M15.1764 148.019H12.5471L16.5542 137.464H19.7199L23.727 148.019H21.0977L18.1949 139.873H18.1002L15.187 148.019H15.1764ZM15.0082 143.87H21.2239V145.61H15.0082V143.87Z" fill="#58595B"/>
<path d="M25.0417 148.019V146.413L29.175 142.933C29.5221 142.627 29.8271 142.349 30.0584 142.101C30.2898 141.852 30.4791 141.613 30.6053 141.374C30.7315 141.135 30.7946 140.877 30.7946 140.6C30.7946 140.294 30.721 140.026 30.5633 139.797C30.4055 139.567 30.1952 139.395 29.9322 139.28C29.6693 139.156 29.3643 139.099 29.0172 139.099C28.6702 139.099 28.3546 139.166 28.0917 139.3C27.8288 139.433 27.6184 139.615 27.4817 139.864C27.3345 140.103 27.2714 140.399 27.2714 140.734H24.9365C24.9365 140.045 25.1048 139.443 25.4519 138.936C25.7989 138.43 26.2827 138.038 26.9033 137.76C27.5238 137.483 28.239 137.34 29.0488 137.34C29.8586 137.34 30.6053 137.473 31.2259 137.741C31.8464 138.009 32.3197 138.372 32.6667 138.85C33.0138 139.328 33.1821 139.864 33.1821 140.466C33.1821 140.868 33.0979 141.259 32.9191 141.642C32.7403 142.024 32.4459 142.464 32.0041 142.933C31.5624 143.401 30.9524 143.975 30.1531 144.634L28.4598 146.145V146.222H33.3398V148.048H25.0627L25.0417 148.019Z" fill="#58595B"/>
<path d="M15.1764 59.4771H12.5471L16.5542 48.9221H19.7199L23.727 59.4771H21.0977L18.1949 51.3314H18.1002L15.187 59.4771H15.1764ZM15.0082 55.3374H21.2239V57.0774H15.0082V55.3374Z" fill="#58595B"/>
<path d="M29.3328 59.6301C28.4809 59.6301 27.7341 59.4963 27.0715 59.2286C26.409 58.9609 25.8936 58.5975 25.515 58.1291C25.1364 57.6606 24.9365 57.1156 24.926 56.5037H27.3976C27.4081 56.7619 27.5028 56.9913 27.6816 57.1826C27.8498 57.3738 28.0812 57.5267 28.3652 57.6319C28.6491 57.7371 28.9752 57.7944 29.3328 57.7944C29.6904 57.7944 30.0374 57.7371 30.3214 57.6128C30.6054 57.4885 30.8367 57.326 30.9945 57.1156C31.1523 56.9053 31.2364 56.6567 31.2364 56.3795C31.2364 56.1022 31.1523 55.8441 30.9735 55.6337C30.8052 55.4138 30.5528 55.2417 30.2373 55.1174C29.9217 54.9932 29.5431 54.9358 29.1014 54.9358H28.0181V53.3009H29.1014C29.4695 53.3009 29.7955 53.2435 30.09 53.1288C30.3845 53.0141 30.5948 52.8516 30.7526 52.6412C30.9104 52.4309 30.9945 52.1919 30.9945 51.9146C30.9945 51.6373 30.9209 51.4174 30.7842 51.2167C30.6474 51.0159 30.4581 50.8629 30.2057 50.7482C29.9533 50.6335 29.6693 50.5761 29.3433 50.5761C29.0172 50.5761 28.7017 50.6335 28.4283 50.7386C28.1548 50.8438 27.934 50.9968 27.7657 51.1976C27.5974 51.3983 27.5133 51.6278 27.5028 51.8955H25.1469C25.1574 51.2836 25.3467 50.7482 25.7148 50.2893C26.0829 49.8208 26.5878 49.4575 27.2188 49.1994C27.8498 48.9412 28.5545 48.8074 29.3538 48.8074C30.1531 48.8074 30.8578 48.9412 31.4573 49.2089C32.0567 49.4766 32.53 49.8304 32.8561 50.2797C33.1821 50.7291 33.3609 51.2358 33.3504 51.7903C33.3504 52.3831 33.1505 52.8707 32.7509 53.2722C32.3512 53.6738 31.8148 53.9224 31.1628 54.0275V54.1136C32.0147 54.2092 32.6667 54.4864 33.119 54.9167C33.5712 55.3469 33.7921 55.9014 33.7816 56.5611C33.7816 57.1634 33.5923 57.6988 33.2136 58.1673C32.8245 58.6358 32.2986 58.9991 31.6255 59.2668C30.9524 59.5345 30.1847 59.6683 29.3117 59.6683L29.3328 59.6301Z" fill="#58595B"/>
<path d="M332.728 21.8683L12.1892 261.983L12.8246 262.684L333.364 22.5693L332.728 21.8683Z" fill="#4585E6"/>
<path d="M333.061 26.9612L332.073 26.8465L332.714 22.4103L327.802 22.1426L327.866 21.2344L333.85 21.5594L333.061 26.9612Z" fill="#4585E6"/>
<path d="M12.5365 273.255C19.1466 273.255 24.5052 268.384 24.5052 262.375C24.5052 256.366 19.1466 251.495 12.5365 251.495C5.92642 251.495 0.567871 256.366 0.567871 262.375C0.567871 268.384 5.92642 273.255 12.5365 273.255Z" fill="#005CE6"/>
<path d="M7.65649 267.652V257.097H10.107V261.753H10.2648L14.4401 257.097H17.385L13.0729 261.82L17.4376 267.652H14.5032L11.327 263.312L10.1175 264.65V267.652H7.66701H7.65649Z" fill="white"/>
<path d="M67.0159 202.745H41.6693C37.5046 202.745 34.1284 205.814 34.1284 209.6C34.1284 213.386 37.5046 216.455 41.6693 216.455H67.0159C71.1807 216.455 74.5568 213.386 74.5568 209.6C74.5568 205.814 71.1807 202.745 67.0159 202.745Z" fill="#FDC144"/>
<path d="M67.0265 216.512H41.6799C37.494 216.512 34.0864 213.414 34.0864 209.609C34.0864 205.804 37.494 202.706 41.6799 202.706H67.0265C71.2124 202.706 74.62 205.804 74.62 209.609C74.62 213.414 71.2124 216.512 67.0265 216.512ZM41.6694 202.802C37.5466 202.802 34.1916 205.852 34.1916 209.6C34.1916 213.347 37.5466 216.397 41.6694 216.397H67.016C71.1388 216.397 74.4938 213.347 74.4938 209.6C74.4938 205.852 71.1388 202.802 67.016 202.802H41.6694Z" fill="#F7941D"/>
<path d="M47.2752 207.075V212.353H46.4653L43.51 208.481H43.4574V212.353H42.5845V207.075H43.3943L46.3497 210.948H46.4022V207.075H47.2647H47.2752Z" fill="black"/>
<path d="M50.3568 212.439C49.9256 212.439 49.5575 212.353 49.2525 212.191C48.9475 212.028 48.7056 211.789 48.5373 211.483C48.3691 211.177 48.2849 210.823 48.2849 210.412C48.2849 210.001 48.3691 209.647 48.5373 209.341C48.7056 209.036 48.937 208.787 49.242 208.615C49.547 208.443 49.8941 208.357 50.3042 208.357C50.5461 208.357 50.788 208.395 51.0194 208.471C51.2508 208.548 51.4611 208.663 51.6399 208.816C51.8187 208.978 51.966 209.179 52.0711 209.427C52.1763 209.676 52.2289 209.982 52.2289 210.345V210.623H48.7687V210.049H51.398C51.398 209.848 51.356 209.667 51.2613 209.504C51.1666 209.351 51.0404 209.227 50.8827 209.131C50.7144 209.036 50.5251 208.997 50.3042 208.997C50.0623 208.997 49.8625 209.055 49.6837 209.16C49.5049 209.265 49.3682 209.399 49.2735 209.571C49.1789 209.743 49.1263 209.925 49.1263 210.125V210.575C49.1263 210.842 49.1789 211.062 49.2841 211.254C49.3892 211.445 49.5365 211.579 49.7153 211.674C49.8941 211.77 50.1149 211.818 50.3673 211.818C50.5251 211.818 50.6723 211.799 50.8091 211.751C50.9458 211.703 51.051 211.646 51.1561 211.56C51.2508 211.473 51.3244 211.368 51.377 211.244L52.1763 211.378C52.1132 211.588 51.9975 211.779 51.8292 211.942C51.661 212.104 51.4611 212.229 51.2087 212.315C50.9563 212.401 50.6829 212.449 50.3568 212.449V212.439Z" fill="black"/>
<path d="M54.101 212.353L52.8179 208.395H53.6908L54.5427 211.301H54.5848L55.4367 208.395H56.3096L57.1615 211.292H57.2036L58.0555 208.395H58.9284L57.6453 212.353H56.7829L55.8994 209.494H55.8363L54.9529 212.353H54.0905H54.101Z" fill="black"/>
<path d="M61.484 212.439C61.0528 212.439 60.6847 212.353 60.3797 212.191C60.0747 212.028 59.8328 211.789 59.6645 211.483C59.4962 211.177 59.4121 210.823 59.4121 210.412C59.4121 210.001 59.4962 209.647 59.6645 209.341C59.8328 209.036 60.0642 208.787 60.3692 208.615C60.6742 208.443 61.0213 208.357 61.4314 208.357C61.6733 208.357 61.9152 208.395 62.1466 208.471C62.378 208.548 62.5883 208.663 62.7671 208.816C62.9459 208.978 63.0932 209.179 63.1983 209.427C63.3035 209.676 63.3561 209.982 63.3561 210.345V210.623H59.8959V210.049H62.5252C62.5252 209.848 62.4832 209.667 62.3885 209.504C62.2938 209.351 62.1676 209.227 62.0099 209.131C61.8416 209.036 61.6523 208.997 61.4314 208.997C61.1895 208.997 60.9897 209.055 60.8109 209.16C60.6321 209.265 60.4954 209.399 60.4007 209.571C60.3061 209.743 60.2535 209.925 60.2535 210.125V210.575C60.2535 210.842 60.3061 211.062 60.4112 211.254C60.5164 211.445 60.6637 211.579 60.8425 211.674C61.0212 211.77 61.2421 211.818 61.4945 211.818C61.6523 211.818 61.7995 211.799 61.9363 211.751C62.073 211.703 62.1782 211.646 62.2833 211.56C62.378 211.473 62.4516 211.368 62.5042 211.244L63.3035 211.378C63.2404 211.588 63.1247 211.779 62.9564 211.942C62.7882 212.104 62.5883 212.229 62.3359 212.315C62.0835 212.401 61.81 212.449 61.484 212.449V212.439Z" fill="black"/>
<path d="M64.3028 212.353V208.395H65.1231V209.026H65.1652C65.2493 208.815 65.386 208.643 65.5859 208.519C65.7857 208.395 66.0171 208.337 66.2695 208.337C66.3221 208.337 66.3852 208.337 66.4588 208.337C66.5324 208.337 66.585 208.337 66.6271 208.347V209.083C66.6271 209.083 66.5324 209.064 66.4483 209.054C66.3641 209.045 66.2695 209.035 66.1853 209.035C65.9855 209.035 65.8067 209.074 65.649 209.15C65.4912 209.227 65.365 209.332 65.2809 209.466C65.1862 209.599 65.1441 209.752 65.1441 209.924V212.343H64.2922L64.3028 212.353Z" fill="black"/>
<path d="M165.595 104.642H140.248C136.083 104.642 132.707 107.711 132.707 111.497C132.707 115.283 136.083 118.352 140.248 118.352H165.595C169.759 118.352 173.135 115.283 173.135 111.497C173.135 107.711 169.759 104.642 165.595 104.642Z" fill="#FDC144"/>
<path d="M165.605 118.4H140.259C136.073 118.4 132.665 115.302 132.665 111.497C132.665 107.692 136.073 104.594 140.259 104.594H165.605C169.791 104.594 173.199 107.692 173.199 111.497C173.199 115.302 169.791 118.4 165.605 118.4ZM140.248 104.69C136.125 104.69 132.77 107.74 132.77 111.488C132.77 115.235 136.125 118.285 140.248 118.285H165.595C169.717 118.285 173.072 115.235 173.072 111.488C173.072 107.74 169.717 104.69 165.595 104.69H140.248Z" fill="#F7941D"/>
<path d="M145.854 108.973V114.251H145.044L142.089 110.379H142.036V114.251H141.163V108.973H141.973L144.928 112.845H144.981V108.973H145.843H145.854Z" fill="black"/>
<path d="M148.935 114.327C148.504 114.327 148.136 114.241 147.831 114.078C147.526 113.916 147.284 113.677 147.116 113.371C146.948 113.065 146.864 112.711 146.864 112.3C146.864 111.889 146.948 111.535 147.116 111.229C147.284 110.923 147.516 110.675 147.821 110.503C148.126 110.331 148.473 110.245 148.883 110.245C149.125 110.245 149.367 110.283 149.598 110.359C149.829 110.436 150.04 110.551 150.219 110.704C150.397 110.866 150.545 111.067 150.65 111.315C150.755 111.564 150.808 111.87 150.808 112.233V112.511H147.347V111.937H149.977C149.977 111.736 149.935 111.554 149.84 111.392C149.745 111.239 149.619 111.115 149.461 111.019C149.293 110.923 149.104 110.885 148.883 110.885C148.641 110.885 148.441 110.943 148.262 111.048C148.084 111.153 147.947 111.287 147.852 111.459C147.757 111.631 147.705 111.813 147.705 112.013V112.463C147.705 112.73 147.757 112.95 147.863 113.142C147.968 113.333 148.115 113.467 148.294 113.562C148.473 113.658 148.694 113.706 148.946 113.706C149.104 113.706 149.251 113.686 149.388 113.639C149.524 113.591 149.63 113.534 149.735 113.447C149.829 113.361 149.903 113.256 149.956 113.132L150.755 113.266C150.692 113.476 150.576 113.667 150.408 113.83C150.24 113.992 150.04 114.117 149.787 114.203C149.535 114.289 149.261 114.337 148.935 114.337V114.327Z" fill="black"/>
<path d="M152.68 114.251L151.396 110.292H152.269L153.121 113.199H153.163L154.015 110.292H154.888L155.74 113.189H155.782L156.634 110.292H157.507L156.224 114.251H155.361L154.478 111.392H154.415L153.531 114.251H152.669H152.68Z" fill="black"/>
<path d="M160.063 114.327C159.631 114.327 159.263 114.241 158.958 114.078C158.653 113.916 158.411 113.677 158.243 113.371C158.075 113.065 157.991 112.711 157.991 112.3C157.991 111.889 158.075 111.535 158.243 111.229C158.411 110.923 158.643 110.675 158.948 110.503C159.253 110.331 159.6 110.245 160.01 110.245C160.252 110.245 160.494 110.283 160.725 110.359C160.957 110.436 161.167 110.551 161.346 110.704C161.525 110.866 161.672 111.067 161.777 111.315C161.882 111.564 161.935 111.87 161.935 112.233V112.511H158.475V111.937H161.104C161.104 111.736 161.062 111.554 160.967 111.392C160.872 111.239 160.746 111.115 160.588 111.019C160.42 110.923 160.231 110.885 160.01 110.885C159.768 110.885 159.568 110.943 159.39 111.048C159.211 111.153 159.074 111.287 158.979 111.459C158.885 111.631 158.832 111.813 158.832 112.013V112.463C158.832 112.73 158.885 112.95 158.99 113.142C159.095 113.333 159.242 113.467 159.421 113.562C159.6 113.658 159.821 113.706 160.073 113.706C160.231 113.706 160.378 113.686 160.515 113.639C160.652 113.591 160.757 113.534 160.862 113.447C160.957 113.361 161.03 113.256 161.083 113.132L161.882 113.266C161.819 113.476 161.703 113.667 161.535 113.83C161.367 113.992 161.167 114.117 160.915 114.203C160.662 114.289 160.389 114.337 160.063 114.337V114.327Z" fill="black"/>
<path d="M162.881 114.251V110.292H163.702V110.923H163.744C163.828 110.713 163.965 110.541 164.164 110.417C164.364 110.292 164.596 110.235 164.848 110.235C164.901 110.235 164.964 110.235 165.037 110.235C165.111 110.235 165.164 110.235 165.206 110.245V110.981C165.206 110.981 165.111 110.962 165.027 110.952C164.943 110.943 164.848 110.933 164.764 110.933C164.564 110.933 164.385 110.971 164.228 111.048C164.07 111.124 163.944 111.229 163.859 111.363C163.765 111.497 163.723 111.65 163.723 111.822V114.241H162.871L162.881 114.251Z" fill="black"/>
<path d="M259.198 118.094H233.852C229.687 118.094 226.311 121.163 226.311 124.949C226.311 128.735 229.687 131.804 233.852 131.804H259.198C263.363 131.804 266.739 128.735 266.739 124.949C266.739 121.163 263.363 118.094 259.198 118.094Z" fill="#FDC144"/>
<path d="M259.198 131.861H233.852C229.666 131.861 226.258 128.764 226.258 124.958C226.258 121.153 229.666 118.056 233.852 118.056H259.198C263.384 118.056 266.792 121.153 266.792 124.958C266.792 128.764 263.384 131.861 259.198 131.861ZM233.852 118.151C229.729 118.151 226.374 121.201 226.374 124.949C226.374 128.697 229.729 131.747 233.852 131.747H259.198C263.321 131.747 266.676 128.697 266.676 124.949C266.676 121.201 263.321 118.151 259.198 118.151H233.852Z" fill="#F7941D"/>
<path d="M239.447 122.425V127.702H238.637L235.682 123.83H235.629V127.702H234.756V122.425H235.566L238.522 126.297H238.574V122.425H239.437H239.447Z" fill="black"/>
<path d="M242.539 127.788C242.108 127.788 241.74 127.702 241.435 127.54C241.13 127.377 240.888 127.138 240.72 126.832C240.551 126.526 240.467 126.173 240.467 125.762C240.467 125.35 240.551 124.997 240.72 124.691C240.888 124.385 241.119 124.136 241.424 123.964C241.729 123.792 242.076 123.706 242.487 123.706C242.728 123.706 242.97 123.744 243.202 123.821C243.433 123.897 243.643 124.012 243.822 124.165C244.001 124.327 244.148 124.528 244.254 124.777C244.359 125.025 244.411 125.331 244.411 125.695V125.972H240.951V125.398H243.58C243.58 125.198 243.538 125.016 243.444 124.853C243.349 124.7 243.223 124.576 243.065 124.48C242.897 124.385 242.707 124.347 242.487 124.347C242.245 124.347 242.045 124.404 241.866 124.509C241.687 124.614 241.551 124.748 241.456 124.92C241.361 125.092 241.309 125.274 241.309 125.475V125.924C241.309 126.192 241.361 126.412 241.466 126.603C241.572 126.794 241.719 126.928 241.898 127.024C242.076 127.119 242.297 127.167 242.55 127.167C242.707 127.167 242.855 127.148 242.991 127.1C243.128 127.052 243.233 126.995 243.338 126.909C243.433 126.823 243.507 126.718 243.559 126.593L244.359 126.727C244.296 126.938 244.18 127.129 244.012 127.291C243.843 127.454 243.643 127.578 243.391 127.664C243.139 127.75 242.865 127.798 242.539 127.798V127.788Z" fill="black"/>
<path d="M246.283 127.702L245 123.744H245.873L246.725 126.651H246.767L247.619 123.744H248.492L249.344 126.641H249.386L250.238 123.744H251.111L249.828 127.702H248.965L248.082 124.844H248.019L247.135 127.702H246.273H246.283Z" fill="black"/>
<path d="M253.666 127.788C253.235 127.788 252.867 127.702 252.562 127.54C252.257 127.377 252.015 127.138 251.847 126.832C251.679 126.526 251.594 126.173 251.594 125.762C251.594 125.35 251.679 124.997 251.847 124.691C252.015 124.385 252.247 124.136 252.552 123.964C252.857 123.792 253.204 123.706 253.614 123.706C253.856 123.706 254.098 123.744 254.329 123.821C254.56 123.897 254.771 124.012 254.949 124.165C255.128 124.327 255.276 124.528 255.381 124.777C255.486 125.025 255.538 125.331 255.538 125.695V125.972H252.078V125.398H254.708C254.708 125.198 254.666 125.016 254.571 124.853C254.476 124.7 254.35 124.576 254.192 124.48C254.024 124.385 253.835 124.347 253.614 124.347C253.372 124.347 253.172 124.404 252.993 124.509C252.814 124.614 252.678 124.748 252.583 124.92C252.488 125.092 252.436 125.274 252.436 125.475V125.924C252.436 126.192 252.488 126.412 252.594 126.603C252.699 126.794 252.846 126.928 253.025 127.024C253.204 127.119 253.424 127.167 253.677 127.167C253.835 127.167 253.982 127.148 254.119 127.1C254.255 127.052 254.361 126.995 254.466 126.909C254.56 126.823 254.634 126.718 254.687 126.593L255.486 126.727C255.423 126.938 255.307 127.129 255.139 127.291C254.971 127.454 254.771 127.578 254.518 127.664C254.266 127.75 253.992 127.798 253.666 127.798V127.788Z" fill="black"/>
<path d="M256.475 127.702V123.744H257.295V124.375H257.337C257.421 124.165 257.558 123.993 257.758 123.868C257.958 123.744 258.189 123.687 258.441 123.687C258.494 123.687 258.557 123.687 258.631 123.687C258.704 123.687 258.757 123.687 258.799 123.696V124.433C258.799 124.433 258.704 124.413 258.62 124.404C258.536 124.394 258.441 124.385 258.357 124.385C258.157 124.385 257.979 124.423 257.821 124.499C257.663 124.576 257.537 124.681 257.453 124.815C257.358 124.949 257.316 125.102 257.316 125.274V127.693H256.464L256.475 127.702Z" fill="black"/>
<path d="M273.607 25.4412H248.26C244.096 25.4412 240.719 28.5103 240.719 32.2962C240.719 36.0821 244.096 39.1512 248.26 39.1512H273.607C277.772 39.1512 281.148 36.0821 281.148 32.2962C281.148 28.5103 277.772 25.4412 273.607 25.4412Z" fill="#FDC144"/>
<path d="M273.607 39.2085H248.26C244.075 39.2085 240.667 36.1108 240.667 32.3057C240.667 28.5005 244.075 25.4028 248.26 25.4028H273.607C277.793 25.4028 281.201 28.5005 281.201 32.3057C281.201 36.1108 277.793 39.2085 273.607 39.2085ZM248.26 25.4984C244.138 25.4984 240.783 28.5483 240.783 32.2961C240.783 36.0439 244.138 39.0938 248.26 39.0938H273.607C277.73 39.0938 281.085 36.0439 281.085 32.2961C281.085 28.5483 277.73 25.4984 273.607 25.4984H248.26Z" fill="#F7941D"/>
<path d="M253.856 29.772V35.0495H253.046L250.091 31.1774H250.038V35.0495H249.165V29.772H249.975L252.93 33.6441H252.983V29.772H253.845H253.856Z" fill="black"/>
<path d="M256.948 35.1357C256.517 35.1357 256.149 35.0496 255.844 34.8871C255.539 34.7245 255.297 34.4855 255.128 34.1796C254.96 33.8736 254.876 33.5199 254.876 33.1088C254.876 32.6977 254.96 32.3439 255.128 32.038C255.297 31.732 255.528 31.4835 255.833 31.3114C256.138 31.1393 256.485 31.0532 256.895 31.0532C257.137 31.0532 257.379 31.0915 257.61 31.168C257.842 31.2444 258.052 31.3592 258.231 31.5121C258.41 31.6747 258.557 31.8754 258.662 32.124C258.767 32.3726 258.82 32.6785 258.82 33.0419V33.3191H255.36V32.7455H257.989C257.989 32.5447 257.947 32.363 257.852 32.2005C257.758 32.0475 257.631 31.9232 257.474 31.8276C257.305 31.732 257.116 31.6938 256.895 31.6938C256.653 31.6938 256.454 31.7512 256.275 31.8563C256.096 31.9615 255.959 32.0953 255.865 32.2674C255.77 32.4395 255.717 32.6212 255.717 32.822V33.2713C255.717 33.539 255.77 33.7589 255.875 33.9501C255.98 34.1413 256.128 34.2752 256.306 34.3708C256.485 34.4664 256.706 34.5142 256.958 34.5142C257.116 34.5142 257.263 34.4951 257.4 34.4473C257.537 34.3995 257.642 34.3421 257.747 34.2561C257.842 34.17 257.915 34.0649 257.968 33.9406L258.767 34.0744C258.704 34.2847 258.589 34.476 258.42 34.6385C258.252 34.801 258.052 34.9253 257.8 35.0114C257.547 35.0974 257.274 35.1452 256.948 35.1452V35.1357Z" fill="black"/>
<path d="M260.692 35.0494L259.409 31.0913H260.282L261.134 33.9978H261.176L262.028 31.0913H262.901L263.753 33.9882H263.795L264.647 31.0913H265.519L264.236 35.0494H263.374L262.491 32.1908H262.427L261.544 35.0494H260.682H260.692Z" fill="black"/>
<path d="M268.075 35.1357C267.644 35.1357 267.276 35.0496 266.971 34.8871C266.666 34.7245 266.424 34.4855 266.256 34.1796C266.087 33.8736 266.003 33.5199 266.003 33.1088C266.003 32.6977 266.087 32.3439 266.256 32.038C266.424 31.732 266.655 31.4835 266.96 31.3114C267.265 31.1393 267.612 31.0532 268.022 31.0532C268.264 31.0532 268.506 31.0915 268.738 31.168C268.969 31.2444 269.179 31.3592 269.358 31.5121C269.537 31.6747 269.684 31.8754 269.789 32.124C269.895 32.3726 269.947 32.6785 269.947 33.0419V33.3191H266.487V32.7455H269.116C269.116 32.5447 269.074 32.363 268.98 32.2005C268.885 32.0475 268.759 31.9232 268.601 31.8276C268.433 31.732 268.243 31.6938 268.022 31.6938C267.781 31.6938 267.581 31.7512 267.402 31.8563C267.223 31.9615 267.086 32.0953 266.992 32.2674C266.897 32.4395 266.845 32.6212 266.845 32.822V33.2713C266.845 33.539 266.897 33.7589 267.002 33.9501C267.107 34.1413 267.255 34.2752 267.434 34.3708C267.612 34.4664 267.833 34.5142 268.086 34.5142C268.243 34.5142 268.391 34.4951 268.527 34.4473C268.664 34.3995 268.769 34.3421 268.874 34.2561C268.969 34.17 269.043 34.0649 269.095 33.9406L269.895 34.0744C269.831 34.2847 269.716 34.476 269.548 34.6385C269.379 34.801 269.179 34.9253 268.927 35.0114C268.675 35.0974 268.401 35.1452 268.075 35.1452V35.1357Z" fill="black"/>
<path d="M270.883 35.0494V31.0913H271.703V31.7223H271.746C271.83 31.512 271.966 31.3399 272.166 31.2156C272.366 31.0913 272.597 31.0339 272.85 31.0339C272.902 31.0339 272.966 31.0339 273.039 31.0339C273.113 31.0339 273.165 31.0339 273.207 31.0435V31.7797C273.207 31.7797 273.113 31.7605 273.029 31.751C272.944 31.7414 272.85 31.7319 272.766 31.7319C272.566 31.7319 272.387 31.7701 272.229 31.8466C272.072 31.9231 271.945 32.0283 271.861 32.1621C271.767 32.296 271.724 32.4489 271.724 32.621V35.0399H270.873L270.883 35.0494Z" fill="black"/>
<path d="M127.858 232.192H94.9498C90.7851 232.192 87.4089 235.261 87.4089 239.047C87.4089 242.833 90.7851 245.902 94.9498 245.902H127.858C132.023 245.902 135.399 242.833 135.399 239.047C135.399 235.261 132.023 232.192 127.858 232.192Z" fill="#FDC144"/>
<path d="M127.869 245.959H94.9604C90.764 245.959 87.3564 242.861 87.3564 239.047C87.3564 235.232 90.764 232.134 94.9604 232.134H127.869C132.065 232.134 135.473 235.232 135.473 239.047C135.473 242.861 132.065 245.959 127.869 245.959ZM94.9499 232.249C90.8271 232.249 87.4721 235.299 87.4721 239.047C87.4721 242.794 90.8271 245.844 94.9499 245.844H127.858C131.981 245.844 135.336 242.794 135.336 239.047C135.336 235.299 131.981 232.249 127.858 232.249H94.9499Z" fill="#F7941D"/>
<path d="M95.0129 241.8V236.523H97.1374C97.5476 236.523 97.8947 236.58 98.1576 236.704C98.4205 236.829 98.6309 236.991 98.7676 237.202C98.9043 237.412 98.9674 237.641 98.9674 237.909C98.9674 238.129 98.9254 238.311 98.8307 238.464C98.7466 238.616 98.6204 238.731 98.4731 238.827C98.3259 238.913 98.1576 238.98 97.9893 239.028V239.075C98.1786 239.075 98.368 239.142 98.5573 239.248C98.7466 239.353 98.8938 239.496 99.02 239.687C99.1462 239.879 99.1988 240.108 99.1988 240.385C99.1988 240.662 99.1252 240.902 98.9885 241.112C98.8517 241.322 98.6309 241.494 98.3469 241.619C98.0524 241.743 97.6843 241.81 97.2426 241.81H95.0129V241.8ZM95.8859 238.798H97.0638C97.2636 238.798 97.4424 238.76 97.6002 238.693C97.758 238.626 97.8842 238.53 97.9788 238.406C98.0735 238.282 98.1155 238.138 98.1155 237.966C98.1155 237.746 98.0314 237.565 97.8631 237.421C97.6948 237.278 97.4319 237.202 97.0848 237.202H95.8859V238.808V238.798ZM95.8859 241.112H97.148C97.5686 241.112 97.8631 241.035 98.0524 240.892C98.2312 240.749 98.3259 240.557 98.3259 240.337C98.3259 240.175 98.2838 240.022 98.1892 239.879C98.0945 239.735 97.9683 239.63 97.7895 239.544C97.6212 239.458 97.4109 239.42 97.1795 239.42H95.8859V241.112Z" fill="black"/>
<path d="M102.049 241.877C101.618 241.877 101.25 241.791 100.945 241.628C100.64 241.465 100.398 241.226 100.229 240.921C100.061 240.615 99.9771 240.261 99.9771 239.85C99.9771 239.439 100.061 239.085 100.229 238.779C100.398 238.473 100.629 238.224 100.934 238.052C101.239 237.88 101.586 237.794 101.996 237.794C102.238 237.794 102.48 237.832 102.712 237.909C102.943 237.985 103.153 238.1 103.332 238.253C103.511 238.416 103.658 238.616 103.763 238.865C103.868 239.114 103.921 239.42 103.921 239.783V240.06H100.461V239.486H103.09C103.09 239.286 103.048 239.104 102.953 238.941C102.859 238.788 102.733 238.664 102.575 238.569C102.407 238.473 102.217 238.435 101.996 238.435C101.754 238.435 101.555 238.492 101.376 238.597C101.197 238.702 101.06 238.836 100.966 239.008C100.871 239.18 100.818 239.362 100.818 239.563V240.012C100.818 240.28 100.871 240.5 100.976 240.691C101.081 240.882 101.229 241.016 101.407 241.112C101.586 241.207 101.807 241.255 102.059 241.255C102.217 241.255 102.364 241.236 102.501 241.188C102.638 241.14 102.743 241.083 102.848 240.997C102.943 240.911 103.017 240.806 103.069 240.682L103.868 240.815C103.805 241.026 103.69 241.217 103.521 241.379C103.353 241.542 103.153 241.666 102.901 241.752C102.648 241.838 102.375 241.886 102.049 241.886V241.877Z" fill="black"/>
<path d="M106.687 243.368C106.34 243.368 106.045 243.33 105.793 243.244C105.541 243.158 105.341 243.053 105.183 242.919C105.025 242.785 104.91 242.632 104.836 242.469L105.562 242.192C105.614 242.269 105.677 242.345 105.772 242.431C105.856 242.517 105.972 242.594 106.119 242.651C106.266 242.708 106.456 242.737 106.687 242.737C107.013 242.737 107.276 242.67 107.486 242.527C107.697 242.383 107.802 242.163 107.802 241.848V241.074H107.749C107.697 241.16 107.623 241.255 107.528 241.351C107.434 241.446 107.308 241.542 107.139 241.618C106.971 241.695 106.761 241.733 106.487 241.733C106.14 241.733 105.835 241.657 105.562 241.513C105.288 241.37 105.067 241.15 104.91 240.863C104.752 240.576 104.668 240.223 104.668 239.802C104.668 239.381 104.752 239.018 104.899 238.722C105.057 238.425 105.278 238.186 105.551 238.033C105.825 237.871 106.14 237.794 106.487 237.794C106.761 237.794 106.971 237.832 107.139 237.918C107.308 237.995 107.434 238.091 107.528 238.205C107.623 238.32 107.697 238.406 107.749 238.492H107.812V237.852H108.643V241.896C108.643 242.24 108.559 242.517 108.38 242.737C108.202 242.957 107.97 243.119 107.676 243.225C107.381 243.33 107.045 243.378 106.677 243.378L106.687 243.368ZM106.677 241.102C106.918 241.102 107.129 241.054 107.297 240.949C107.465 240.844 107.592 240.701 107.686 240.5C107.77 240.309 107.823 240.07 107.823 239.802C107.823 239.534 107.781 239.305 107.697 239.094C107.613 238.894 107.486 238.731 107.318 238.616C107.15 238.502 106.939 238.444 106.698 238.444C106.456 238.444 106.224 238.502 106.056 238.626C105.888 238.741 105.762 238.903 105.667 239.114C105.572 239.324 105.541 239.544 105.541 239.802C105.541 240.06 105.583 240.29 105.667 240.481C105.751 240.682 105.888 240.834 106.056 240.94C106.224 241.054 106.435 241.102 106.687 241.102H106.677Z" fill="black"/>
<path d="M110.21 237.23C110.063 237.23 109.937 237.182 109.832 237.096C109.727 237.01 109.674 236.895 109.674 236.771C109.674 236.647 109.727 236.532 109.832 236.446C109.937 236.36 110.063 236.312 110.21 236.312C110.358 236.312 110.484 236.36 110.589 236.446C110.694 236.532 110.747 236.647 110.747 236.771C110.747 236.895 110.694 237.01 110.589 237.096C110.484 237.182 110.358 237.23 110.21 237.23ZM109.779 241.8V237.842H110.631V241.8H109.779Z" fill="black"/>
<path d="M112.619 239.448V241.8H111.767V237.842H112.577V238.483H112.629C112.734 238.272 112.892 238.1 113.103 237.976C113.313 237.852 113.586 237.785 113.912 237.785C114.207 237.785 114.47 237.842 114.691 237.957C114.912 238.071 115.09 238.234 115.206 238.454C115.332 238.674 115.385 238.951 115.385 239.276V241.791H114.533V239.362C114.533 239.075 114.449 238.846 114.291 238.683C114.133 238.521 113.902 238.444 113.618 238.444C113.418 238.444 113.25 238.483 113.092 238.559C112.945 238.636 112.819 238.75 112.734 238.894C112.65 239.047 112.608 239.219 112.608 239.429L112.619 239.448Z" fill="black"/>
<path d="M117.383 239.448V241.8H116.531V237.842H117.341V238.483H117.394C117.499 238.272 117.657 238.1 117.867 237.976C118.077 237.852 118.351 237.785 118.677 237.785C118.971 237.785 119.234 237.842 119.455 237.957C119.676 238.071 119.855 238.234 119.97 238.454C120.097 238.674 120.149 238.951 120.149 239.276V241.791H119.297V239.362C119.297 239.075 119.213 238.846 119.055 238.683C118.898 238.521 118.666 238.444 118.382 238.444C118.182 238.444 118.014 238.483 117.856 238.559C117.709 238.636 117.583 238.75 117.499 238.894C117.415 239.047 117.373 239.219 117.373 239.429L117.383 239.448Z" fill="black"/>
<path d="M123.178 241.877C122.747 241.877 122.379 241.791 122.074 241.628C121.769 241.465 121.527 241.226 121.359 240.921C121.19 240.615 121.106 240.261 121.106 239.85C121.106 239.439 121.19 239.085 121.359 238.779C121.527 238.473 121.758 238.224 122.063 238.052C122.368 237.88 122.715 237.794 123.126 237.794C123.367 237.794 123.609 237.832 123.841 237.909C124.072 237.985 124.282 238.1 124.461 238.253C124.64 238.416 124.787 238.616 124.892 238.865C124.998 239.114 125.05 239.42 125.05 239.783V240.06H121.59V239.486H124.219C124.219 239.286 124.177 239.104 124.083 238.941C123.988 238.788 123.862 238.664 123.704 238.569C123.536 238.473 123.346 238.435 123.126 238.435C122.884 238.435 122.684 238.492 122.505 238.597C122.326 238.702 122.189 238.836 122.095 239.008C122 239.18 121.948 239.362 121.948 239.563V240.012C121.948 240.28 122 240.5 122.105 240.691C122.211 240.882 122.358 241.016 122.537 241.112C122.715 241.207 122.936 241.255 123.189 241.255C123.346 241.255 123.494 241.236 123.63 241.188C123.767 241.14 123.872 241.083 123.977 240.997C124.072 240.911 124.146 240.806 124.198 240.682L124.998 240.815C124.934 241.026 124.819 241.217 124.651 241.379C124.482 241.542 124.282 241.666 124.03 241.752C123.778 241.838 123.504 241.886 123.178 241.886V241.877Z" fill="black"/>
<path d="M125.997 241.8V237.842H126.817V238.473H126.859C126.943 238.263 127.08 238.091 127.28 237.966C127.48 237.842 127.711 237.785 127.964 237.785C128.016 237.785 128.079 237.785 128.153 237.785C128.227 237.785 128.279 237.785 128.321 237.794V238.53C128.321 238.53 128.227 238.511 128.142 238.502C128.058 238.492 127.964 238.483 127.879 238.483C127.68 238.483 127.501 238.521 127.343 238.597C127.185 238.674 127.059 238.779 126.975 238.913C126.88 239.047 126.838 239.2 126.838 239.372V241.791H125.986L125.997 241.8Z" fill="black"/>
<path d="M61.2737 231.847C56.8669 231.847 54.1114 231.637 54.0588 231.637L54.2271 229.83C54.5742 229.859 89.3759 232.383 110.621 218.424C120.644 211.837 123.915 198.184 127.701 182.38C131.876 164.951 136.609 145.199 152.017 131.192C167.687 116.947 189.08 114.939 207.948 113.17C222.535 111.803 236.313 110.503 245.705 103.925C284.587 76.6961 294.137 32.5734 294.231 32.1336L302.119 1.71143L304.065 2.1321L296.188 32.516C296.103 32.9272 286.417 77.7096 246.925 105.369C237.091 112.262 223.029 113.581 208.147 114.977C188.701 116.803 168.581 118.696 153.416 132.483C138.418 146.116 133.748 165.592 129.636 182.782C125.766 198.949 122.421 212.908 111.778 219.906C100.345 227.421 85.2426 230.213 74.5991 231.236C69.4561 231.723 64.8285 231.867 61.2632 231.867L61.2737 231.847Z" fill="#F7941D"/>
<path d="M309.534 9.46511L307.799 10.3638L302.929 2.59095L294.757 7.57209L293.643 6.06149L303.602 0L309.534 9.46511Z" fill="#F7941D"/>
<path d="M54.3428 237.536C58.4785 237.536 61.8311 234.488 61.8311 230.729C61.8311 226.969 58.4785 223.922 54.3428 223.922C50.2071 223.922 46.8545 226.969 46.8545 230.729C46.8545 234.488 50.2071 237.536 54.3428 237.536Z" fill="#FDC144"/>
<path d="M54.3429 239.773C48.8529 239.773 44.3936 235.719 44.3936 230.729C44.3936 225.738 48.8529 221.684 54.3429 221.684C59.8329 221.684 64.2922 225.738 64.2922 230.729C64.2922 235.719 59.8329 239.773 54.3429 239.773ZM54.3429 221.78C48.916 221.78 44.4987 225.795 44.4987 230.729C44.4987 235.662 48.916 239.678 54.3429 239.678C59.7698 239.678 64.1871 235.662 64.1871 230.729C64.1871 225.795 59.7698 221.78 54.3429 221.78Z" fill="#F7941D"/>
<path d="M54.343 238.597C49.5681 238.597 45.6873 235.069 45.6873 230.729C45.6873 226.388 49.5681 222.86 54.343 222.86C59.1178 222.86 62.9987 226.388 62.9987 230.729C62.9987 235.069 59.1178 238.597 54.343 238.597ZM54.343 222.946C49.6207 222.946 45.7819 226.436 45.7819 230.729C45.7819 235.022 49.6207 238.511 54.343 238.511C59.0652 238.511 62.904 235.022 62.904 230.729C62.904 226.436 59.0652 222.946 54.343 222.946Z" fill="#F7941D"/>
<path d="M54.3428 237.565C50.1885 237.565 46.823 234.496 46.823 230.729C46.823 226.962 50.199 223.883 54.3428 223.883C58.4867 223.883 61.8627 226.952 61.8627 230.729C61.8627 234.505 58.4867 237.565 54.3428 237.565ZM54.3428 223.96C50.2411 223.96 46.8966 226.991 46.8966 230.729C46.8966 234.467 50.2306 237.498 54.3428 237.498C58.4551 237.498 61.7891 234.467 61.7891 230.729C61.7891 226.991 58.4551 223.96 54.3428 223.96Z" fill="#F7941D"/>
<path d="M152.921 138.64C157.057 138.64 160.409 135.592 160.409 131.833C160.409 128.073 157.057 125.026 152.921 125.026C148.785 125.026 145.433 128.073 145.433 131.833C145.433 135.592 148.785 138.64 152.921 138.64Z" fill="#FDC144"/>
<path d="M152.921 140.877C147.431 140.877 142.972 136.823 142.972 131.833C142.972 126.842 147.431 122.788 152.921 122.788C158.411 122.788 162.871 126.842 162.871 131.833C162.871 136.823 158.411 140.877 152.921 140.877ZM152.921 122.884C147.494 122.884 143.077 126.899 143.077 131.833C143.077 136.766 147.494 140.782 152.921 140.782C158.348 140.782 162.765 136.766 162.765 131.833C162.765 126.899 158.348 122.884 152.921 122.884Z" fill="#F7941D"/>
<path d="M152.921 139.692C148.146 139.692 144.266 136.164 144.266 131.823C144.266 127.483 148.146 123.955 152.921 123.955C157.696 123.955 161.577 127.483 161.577 131.823C161.577 136.164 157.696 139.692 152.921 139.692ZM152.921 124.05C148.199 124.05 144.36 127.54 144.36 131.833C144.36 136.126 148.199 139.615 152.921 139.615C157.644 139.615 161.482 136.126 161.482 131.833C161.482 127.54 157.644 124.05 152.921 124.05Z" fill="#F7941D"/>
<path d="M152.921 138.669C148.767 138.669 145.401 135.6 145.401 131.833C145.401 128.066 148.777 124.997 152.921 124.997C157.065 124.997 160.441 128.066 160.441 131.833C160.441 135.6 157.065 138.669 152.921 138.669ZM152.921 125.064C148.819 125.064 145.475 128.094 145.475 131.833C145.475 135.571 148.809 138.602 152.921 138.602C157.033 138.602 160.367 135.571 160.367 131.833C160.367 128.094 157.033 125.064 152.921 125.064Z" fill="#F7941D"/>
<path d="M295.42 39.1035C299.555 39.1035 302.908 36.0558 302.908 32.2962C302.908 28.5367 299.555 25.489 295.42 25.489C291.284 25.489 287.931 28.5367 287.931 32.2962C287.931 36.0558 291.284 39.1035 295.42 39.1035Z" fill="#FDC144"/>
<path d="M295.42 41.3406C289.93 41.3406 285.47 37.2868 285.47 32.2961C285.47 27.3055 289.93 23.2517 295.42 23.2517C300.91 23.2517 305.369 27.3055 305.369 32.2961C305.369 37.2868 300.91 41.3406 295.42 41.3406ZM295.42 23.3473C289.993 23.3473 285.576 27.3628 285.576 32.2961C285.576 37.2295 289.993 41.245 295.42 41.245C300.847 41.245 305.264 37.2295 305.264 32.2961C305.264 27.3628 300.847 23.3473 295.42 23.3473Z" fill="#F7941D"/>
<path d="M295.42 40.1647C290.645 40.1647 286.764 36.6368 286.764 32.2962C286.764 27.9556 290.645 24.4277 295.42 24.4277C300.195 24.4277 304.076 27.9556 304.076 32.2962C304.076 36.6368 300.195 40.1647 295.42 40.1647ZM295.42 24.5138C290.698 24.5138 286.859 28.0034 286.859 32.2962C286.859 36.589 290.698 40.0786 295.42 40.0786C300.142 40.0786 303.981 36.589 303.981 32.2962C303.981 28.0034 300.142 24.5138 295.42 24.5138Z" fill="#F7941D"/>
<path d="M295.42 39.1416C291.265 39.1416 287.9 36.0726 287.9 32.2961C287.9 28.5196 291.276 25.4602 295.42 25.4602C299.564 25.4602 302.94 28.5292 302.94 32.2961C302.94 36.063 299.564 39.1416 295.42 39.1416ZM295.42 25.5367C291.318 25.5367 287.974 28.5674 287.974 32.3057C287.974 36.0439 291.308 39.0747 295.42 39.0747C299.532 39.0747 302.866 36.0439 302.866 32.3057C302.866 28.5674 299.532 25.5367 295.42 25.5367Z" fill="#F7941D"/>
<path d="M246.525 111.449C250.661 111.449 254.013 108.402 254.013 104.642C254.013 100.883 250.661 97.835 246.525 97.835C242.389 97.835 239.037 100.883 239.037 104.642C239.037 108.402 242.389 111.449 246.525 111.449Z" fill="#FDC144"/>
<path d="M246.525 113.687C241.035 113.687 236.576 109.633 236.576 104.642C236.576 99.6514 241.035 95.5977 246.525 95.5977C252.015 95.5977 256.474 99.6514 256.474 104.642C256.474 109.633 252.015 113.687 246.525 113.687ZM246.525 95.6933C241.098 95.6933 236.681 99.7088 236.681 104.642C236.681 109.575 241.098 113.591 246.525 113.591C251.952 113.591 256.369 109.575 256.369 104.642C256.369 99.7088 251.952 95.6933 246.525 95.6933Z" fill="#F7941D"/>
<path d="M246.525 112.511C241.75 112.511 237.869 108.983 237.869 104.642C237.869 100.302 241.75 96.7737 246.525 96.7737C251.3 96.7737 255.181 100.302 255.181 104.642C255.181 108.983 251.3 112.511 246.525 112.511ZM246.525 96.8597C241.803 96.8597 237.964 100.349 237.964 104.642C237.964 108.935 241.803 112.425 246.525 112.425C251.247 112.425 255.086 108.935 255.086 104.642C255.086 100.349 251.247 96.8597 246.525 96.8597Z" fill="#F7941D"/>
<path d="M246.525 111.478C242.371 111.478 238.995 108.409 238.995 104.642C238.995 100.875 242.371 97.8062 246.525 97.8062C250.679 97.8062 254.045 100.875 254.045 104.642C254.045 108.409 250.669 111.478 246.525 111.478ZM246.525 97.8731C242.423 97.8731 239.079 100.904 239.079 104.642C239.079 108.38 242.413 111.411 246.525 111.411C250.637 111.411 253.971 108.38 253.971 104.642C253.971 100.904 250.637 97.8731 246.525 97.8731Z" fill="#F7941D"/>
<path d="M111.409 225.968C115.545 225.968 118.898 222.92 118.898 219.161C118.898 215.401 115.545 212.353 111.409 212.353C107.274 212.353 103.921 215.401 103.921 219.161C103.921 222.92 107.274 225.968 111.409 225.968Z" fill="#FDC144"/>
<path d="M111.41 228.205C105.92 228.205 101.46 224.151 101.46 219.16C101.46 214.17 105.92 210.116 111.41 210.116C116.9 210.116 121.359 214.17 121.359 219.16C121.359 224.151 116.9 228.205 111.41 228.205ZM111.41 210.212C105.983 210.212 101.565 214.227 101.565 219.16C101.565 224.094 105.983 228.109 111.41 228.109C116.836 228.109 121.254 224.094 121.254 219.16C121.254 214.227 116.836 210.212 111.41 210.212Z" fill="#F7941D"/>
<path d="M111.41 227.019C106.635 227.019 102.754 223.492 102.754 219.151C102.754 214.81 106.635 211.282 111.41 211.282C116.184 211.282 120.065 214.81 120.065 219.151C120.065 223.492 116.184 227.019 111.41 227.019ZM111.41 211.378C106.687 211.378 102.849 214.868 102.849 219.16C102.849 223.453 106.687 226.943 111.41 226.943C116.132 226.943 119.971 223.453 119.971 219.16C119.971 214.868 116.132 211.378 111.41 211.378Z" fill="#F7941D"/>
<path d="M111.41 225.996C107.255 225.996 103.89 222.927 103.89 219.16C103.89 215.393 107.266 212.315 111.41 212.315C115.553 212.315 118.94 215.384 118.94 219.16C118.94 222.937 115.564 225.996 111.41 225.996ZM111.41 212.391C107.308 212.391 103.963 215.422 103.963 219.16C103.963 222.899 107.297 225.929 111.41 225.929C115.522 225.929 118.856 222.899 118.856 219.16C118.856 215.422 115.522 212.391 111.41 212.391Z" fill="#F7941D"/>
</g>
<defs>
<clipPath id="clip0_4795_35659">
<rect width="343" height="301" fill="white"/>
</clipPath>
</defs>
</svg>
