<svg width="262" height="50" viewBox="0 0 262 50" fill="none" xmlns="http://www.w3.org/2000/svg">
<g clip-path="url(#clip0_3523_57048)">
<path d="M65.5882 18.3989L47.1566 18.3706L42.041 23.2244L53.8358 23.2456L65.5882 18.3989Z" fill="#B0B0B0"/>
<path d="M53.8356 23.2456L36.8828 40.1348L40.3215 43.5805L65.588 18.3989L53.8356 23.2456Z" fill="#FAFAFA"/>
<path d="M50.4969 9.69575L47.0653 6.25L21.7988 31.4316L22.287 31.4387L33.5512 26.592L50.4969 9.69575Z" fill="#FAFAFA"/>
<path d="M33.5513 26.5923L22.2871 31.439L40.2234 31.4673L45.3461 26.6064L33.5513 26.5923Z" fill="#B0B0B0"/>
<path d="M95.4753 38.3797C95.4753 41.5778 92.9352 43.4315 88.0673 43.4315H78.4941V24.915H87.5437C92.171 24.915 94.5555 26.8466 94.5555 29.7334C94.5555 31.5872 93.6003 33.0165 92.0932 33.8089C94.1592 34.4669 95.4823 36.0589 95.4823 38.3867L95.4753 38.3797ZM82.7465 28.1415V32.507H87.0059C89.0932 32.507 90.2324 31.7641 90.2324 30.3136C90.2324 28.8632 89.0932 28.1415 87.0059 28.1415H82.7465ZM91.1592 37.9339C91.1592 36.3702 89.9706 35.6344 87.7489 35.6344H82.7465V40.2122H87.7489C89.9706 40.2122 91.1592 39.5259 91.1592 37.941V37.9339Z" fill="black"/>
<path d="M97.5625 34.1769C97.5625 28.6722 101.85 24.5967 107.695 24.5967C113.539 24.5967 117.827 28.6439 117.827 34.1769C117.827 39.7099 113.518 43.75 107.695 43.75C101.871 43.75 97.5625 39.6745 97.5625 34.1769ZM113.489 34.1769C113.489 30.6604 111.006 28.2547 107.695 28.2547C104.383 28.2547 101.9 30.6604 101.9 34.1769C101.9 37.6934 104.383 40.099 107.695 40.099C111.006 40.099 113.489 37.6934 113.489 34.1769Z" fill="black"/>
<path d="M119.887 34.1769C119.887 28.6722 124.174 24.5967 130.019 24.5967C135.863 24.5967 140.151 28.6439 140.151 34.1769C140.151 39.7099 135.842 43.75 130.019 43.75C124.196 43.75 119.887 39.6745 119.887 34.1769ZM135.814 34.1769C135.814 30.6604 133.33 28.2547 130.019 28.2547C126.707 28.2547 124.224 30.6604 124.224 34.1769C124.224 37.6934 126.707 40.099 130.019 40.099C133.33 40.099 135.814 37.6934 135.814 34.1769Z" fill="black"/>
<path d="M146.944 28.4103H141.021V24.915H157.161V28.4103H151.238V43.4386H146.951V28.4103H146.944Z" fill="black"/>
<path d="M158.029 34.1769C158.029 28.5943 162.317 24.5967 168.084 24.5967C171.282 24.5967 173.956 25.7571 175.704 27.8797L172.951 30.4198C171.706 28.9905 170.15 28.2476 168.296 28.2476C164.829 28.2476 162.374 30.6816 162.374 34.1698C162.374 37.658 164.836 40.092 168.296 40.092C170.15 40.092 171.706 39.349 172.951 37.8986L175.704 40.4387C173.956 42.5825 171.289 43.7429 168.062 43.7429C162.324 43.7429 158.036 39.7453 158.036 34.1698L158.029 34.1769Z" fill="black"/>
<path d="M215.319 43.4318L215.291 32.3233L209.843 41.479H207.911L202.492 32.5639V43.4389H198.473V24.9224H202.017L208.951 36.4271L215.779 24.9224H219.296L219.352 43.4389H215.334L215.319 43.4318Z" fill="black"/>
<path d="M239.788 31.637C239.788 35.762 236.696 38.3304 231.743 38.3304H228.014V43.4389H223.727V24.9224H231.743C236.689 24.9224 239.788 27.4908 239.788 31.6441V31.637ZM235.451 31.637C235.451 29.5993 234.128 28.4106 231.51 28.4106H228.014V34.8351H231.51C234.128 34.8351 235.451 33.6464 235.451 31.637Z" fill="black"/>
<path d="M95.4753 38.3797C95.4753 41.5778 92.9352 43.4315 88.0673 43.4315H78.4941V24.915H87.5437C92.171 24.915 94.5555 26.8466 94.5555 29.7334C94.5555 31.5872 93.6003 33.0165 92.0932 33.8089C94.1592 34.4669 95.4823 36.0589 95.4823 38.3867L95.4753 38.3797ZM82.7465 28.1415V32.507H87.0059C89.0932 32.507 90.2324 31.7641 90.2324 30.3136C90.2324 28.8632 89.0932 28.1415 87.0059 28.1415H82.7465ZM91.1592 37.9339C91.1592 36.3702 89.9706 35.6344 87.7489 35.6344H82.7465V40.2122H87.7489C89.9706 40.2122 91.1592 39.5259 91.1592 37.941V37.9339Z" fill="#FAFAFA"/>
<path d="M97.5625 34.1769C97.5625 28.6722 101.85 24.5967 107.695 24.5967C113.539 24.5967 117.827 28.6439 117.827 34.1769C117.827 39.7099 113.518 43.75 107.695 43.75C101.871 43.75 97.5625 39.6745 97.5625 34.1769ZM113.489 34.1769C113.489 30.6604 111.006 28.2547 107.695 28.2547C104.383 28.2547 101.9 30.6604 101.9 34.1769C101.9 37.6934 104.383 40.099 107.695 40.099C111.006 40.099 113.489 37.6934 113.489 34.1769Z" fill="#FAFAFA"/>
<path d="M119.887 34.1769C119.887 28.6722 124.174 24.5967 130.019 24.5967C135.863 24.5967 140.151 28.6439 140.151 34.1769C140.151 39.7099 135.842 43.75 130.019 43.75C124.196 43.75 119.887 39.6745 119.887 34.1769ZM135.814 34.1769C135.814 30.6604 133.33 28.2547 130.019 28.2547C126.707 28.2547 124.224 30.6604 124.224 34.1769C124.224 37.6934 126.707 40.099 130.019 40.099C133.33 40.099 135.814 37.6934 135.814 34.1769Z" fill="#FAFAFA"/>
<path d="M146.944 28.4103H141.021V24.915H157.161V28.4103H151.238V43.4386H146.951V28.4103H146.944Z" fill="#FAFAFA"/>
<path d="M158.029 34.1769C158.029 28.5943 162.317 24.5967 168.084 24.5967C171.282 24.5967 173.956 25.7571 175.704 27.8797L172.951 30.4198C171.706 28.9905 170.15 28.2476 168.296 28.2476C164.829 28.2476 162.374 30.6816 162.374 34.1698C162.374 37.658 164.836 40.092 168.296 40.092C170.15 40.092 171.706 39.349 172.951 37.8986L175.704 40.4387C173.956 42.5825 171.289 43.7429 168.062 43.7429C162.324 43.7429 158.036 39.7453 158.036 34.1698L158.029 34.1769Z" fill="#FAFAFA"/>
<path d="M215.319 43.4318L215.291 32.3233L209.843 41.479H207.911L202.492 32.5639V43.4389H198.473V24.9224H202.017L208.951 36.4271L215.779 24.9224H219.296L219.352 43.4389H215.334L215.319 43.4318Z" fill="#FAFAFA"/>
<path d="M239.788 31.637C239.788 35.762 236.696 38.3304 231.743 38.3304H228.014V43.4389H223.727V24.9224H231.743C236.689 24.9224 239.788 27.4908 239.788 31.6441V31.637ZM235.451 31.637C235.451 29.5993 234.128 28.4106 231.51 28.4106H228.014V34.8351H231.51C234.128 34.8351 235.451 33.6464 235.451 31.637Z" fill="#FAFAFA"/>
<path d="M78.4941 11.2169V11.1886C78.4941 9.87963 78.947 8.77586 79.8668 7.8702C80.7866 6.95039 81.9399 6.49756 83.3338 6.49756C84.7276 6.49756 85.8739 6.95039 86.7937 7.86312C87.6923 8.76171 88.1451 9.85841 88.1451 11.1674V11.1957C88.1451 12.5046 87.6923 13.6084 86.7795 14.5141C85.8456 15.4339 84.6923 15.8867 83.3055 15.8867C81.9187 15.8867 80.7724 15.4339 79.8526 14.5211C78.947 13.6296 78.4941 12.5259 78.4941 11.2098M86.0507 11.2169V11.1886C86.0507 10.3961 85.789 9.72397 85.2866 9.17916C84.7559 8.6202 84.0908 8.33718 83.3055 8.33718C82.5201 8.33718 81.855 8.60605 81.3456 9.16501C80.8361 9.69567 80.5814 10.3678 80.5814 11.1603V11.1886C80.5814 11.981 80.8361 12.6532 81.3597 13.198C81.8762 13.757 82.5413 14.04 83.3338 14.04C84.1262 14.04 84.7842 13.7711 85.3078 13.2122C85.8173 12.6815 86.0578 12.0023 86.0578 11.2169" fill="#B0B0B0"/>
<path d="M89.709 8.77604H91.683V9.75953C92.2632 9.02368 92.9425 8.6416 93.7208 8.6416C94.4991 8.6416 95.0439 8.87509 95.4613 9.32792C95.8788 9.78075 96.084 10.4175 96.084 11.2241V15.7241H95.1429C94.5698 15.7241 94.1099 15.2642 94.1099 14.6911V11.8397C94.1099 10.8916 93.7066 10.4246 92.9142 10.4246C92.1217 10.4246 91.683 10.8916 91.683 11.8397V15.7171H89.709V8.77604Z" fill="#B0B0B0"/>
<path d="M98.0861 13.5166C98.8503 14.0756 99.579 14.3444 100.28 14.3444C100.838 14.3444 101.107 14.1746 101.107 13.8279V13.7996C101.107 13.6015 100.966 13.4459 100.683 13.3185C100.577 13.2761 100.244 13.1628 99.671 12.993C98.2842 12.5897 97.5979 11.8893 97.5979 10.9058V10.8775C97.5979 10.1911 97.8456 9.64634 98.3479 9.24304C98.8149 8.86804 99.4092 8.66992 100.138 8.66992C101.072 8.66992 101.942 8.93879 102.735 9.47653L101.985 10.8421C101.242 10.4176 100.619 10.1911 100.103 10.1911C99.6215 10.1911 99.3809 10.3468 99.3809 10.6723V10.7006C99.3809 10.8704 99.5224 11.0261 99.8055 11.1676C99.9257 11.2171 100.244 11.3374 100.789 11.5284C101.426 11.7478 101.907 11.9671 102.204 12.2006C102.657 12.5614 102.89 13.0284 102.89 13.5874V13.6157C102.89 14.3586 102.629 14.9246 102.126 15.3138C101.659 15.6746 101.022 15.8586 100.23 15.8586C99.1262 15.8586 98.1427 15.5048 97.2441 14.8044L98.0861 13.5095V13.5166Z" fill="#FAFAFA"/>
<path d="M103.958 12.2923V12.264C103.958 11.2664 104.298 10.4102 104.984 9.70976C105.685 8.99514 106.555 8.64844 107.609 8.64844C108.762 8.64844 109.696 9.03759 110.383 9.81589L109.173 11.1107C108.692 10.6013 108.161 10.3466 107.588 10.3466C107.107 10.3466 106.704 10.5305 106.378 10.9055C106.053 11.2805 105.897 11.7192 105.897 12.2428V12.2711C105.897 12.8159 106.053 13.2687 106.378 13.6366C106.704 14.0116 107.128 14.1956 107.659 14.1956C108.189 14.1956 108.734 13.948 109.258 13.4527L110.411 14.6201C109.647 15.4621 108.699 15.8937 107.574 15.8937C106.534 15.8937 105.663 15.547 104.977 14.8466C104.291 14.1602 103.951 13.3041 103.951 12.3065" fill="#FAFAFA"/>
<path d="M111.699 6.26416H113.673V9.76652C114.253 9.03067 114.933 8.64859 115.711 8.64859C116.489 8.64859 117.034 8.88208 117.452 9.33492C117.862 9.78775 118.074 10.4245 118.074 11.2311V15.7311H117.133C116.567 15.7311 116.1 15.2712 116.1 14.6981V11.8467C116.1 10.8986 115.697 10.4316 114.904 10.4316C114.112 10.4316 113.673 10.8986 113.673 11.8467V15.7241H111.699V6.26416Z" fill="#FAFAFA"/>
<path d="M119.439 12.2923V12.264C119.439 11.2522 119.8 10.3961 120.522 9.70976C121.251 8.99514 122.142 8.64844 123.218 8.64844C124.293 8.64844 125.192 9.00221 125.906 9.70268C126.621 10.389 126.968 11.2451 126.968 12.2428V12.2711C126.968 13.2829 126.607 14.139 125.892 14.8253C125.171 15.5399 124.272 15.8866 123.197 15.8866C122.121 15.8866 121.222 15.5399 120.508 14.8395C119.793 14.1532 119.439 13.297 119.439 12.2994M125.015 12.2923V12.264C125.015 11.7333 124.845 11.2876 124.513 10.9126C124.166 10.5376 123.72 10.3395 123.189 10.3395C122.659 10.3395 122.199 10.5234 121.866 10.8984C121.541 11.2451 121.385 11.705 121.385 12.2357V12.264C121.385 12.7947 121.555 13.2404 121.895 13.6154C122.241 13.9904 122.687 14.1885 123.218 14.1885C123.748 14.1885 124.201 14.0046 124.541 13.6296C124.866 13.2758 125.022 12.823 125.022 12.2923" fill="#FAFAFA"/>
<path d="M128.051 12.2923V12.264C128.051 11.2522 128.412 10.3961 129.126 9.70976C129.855 8.99514 130.747 8.64844 131.829 8.64844C132.912 8.64844 133.796 9.00221 134.518 9.70268C135.232 10.389 135.579 11.2451 135.579 12.2428V12.2711C135.579 13.2829 135.218 14.139 134.504 14.8253C133.775 15.5399 132.883 15.8866 131.808 15.8866C130.732 15.8866 129.834 15.5399 129.119 14.8395C128.405 14.1532 128.058 13.297 128.058 12.2994M133.633 12.2923V12.264C133.633 11.7333 133.464 11.2876 133.124 10.9126C132.777 10.5376 132.331 10.3395 131.801 10.3395C131.27 10.3395 130.817 10.5234 130.478 10.8984C130.152 11.2451 129.997 11.705 129.997 12.2357V12.264C129.997 12.7947 130.166 13.2404 130.506 13.6154C130.853 13.9904 131.298 14.1885 131.829 14.1885C132.36 14.1885 132.82 14.0046 133.152 13.6296C133.478 13.2758 133.633 12.823 133.633 12.2923Z" fill="#FAFAFA"/>
<path d="M137.086 6.26416H139.06V15.7382H138.112C137.546 15.7382 137.086 15.2783 137.086 14.7123V6.26416Z" fill="#FAFAFA"/>
<path d="M188.993 24.7734L187.033 29.8395L189.8 36.823L190.981 40.1131L192.234 43.2404H196.62L188.993 24.7734Z" fill="#FAFAFA"/>
<path d="M188.921 24.5967H185.256L177.551 43.2405H181.938L188.992 24.7736L188.921 24.5967Z" fill="#B0B0B0"/>
</g>
<defs>
<clipPath id="clip0_3523_57048">
<rect width="217.988" height="37.5" fill="white" transform="translate(21.7988 6.25)"/>
</clipPath>
</defs>
</svg>
