<?xml version="1.0" standalone="no"?>
<!DOCTYPE svg PUBLIC "-//W3C//DTD SVG 20010904//EN"
 "http://www.w3.org/TR/2001/REC-SVG-20010904/DTD/svg10.dtd">
<svg version="1.0" xmlns="http://www.w3.org/2000/svg"
 width="1016.000000pt" height="466.000000pt" viewBox="0 0 1016.000000 466.000000"
 preserveAspectRatio="xMidYMid meet">
<metadata>
Created by potrace 1.16, written by Peter Selinger 2001-2019
</metadata>
<g transform="translate(0.000000,466.000000) scale(0.100000,-0.100000)"
fill="#000000" stroke="none">
<path d="M6710 4194 c0 -9 -9 -27 -20 -41 -11 -14 -20 -38 -20 -54 0 -38 -30
-88 -57 -95 -13 -4 -23 -9 -23 -13 1 -13 28 -41 39 -41 16 0 81 -52 81 -65 0
-6 9 -16 20 -23 27 -17 40 -52 28 -75 -14 -27 -58 -41 -84 -27 -16 9 -44 9
-107 1 -73 -9 -93 -15 -135 -46 -27 -19 -54 -35 -60 -35 -17 0 -24 -31 -27
-120 -2 -57 1 -96 11 -119 8 -18 14 -43 14 -55 0 -11 8 -35 19 -52 10 -17 22
-41 26 -55 4 -13 17 -37 29 -54 12 -16 28 -44 35 -62 7 -18 21 -35 32 -38 10
-3 21 -15 24 -26 4 -10 11 -17 16 -14 5 4 12 -1 15 -9 3 -9 15 -16 26 -16 10
0 16 -4 13 -10 -7 -12 0 -12 90 0 62 8 73 7 97 -10 35 -25 48 -25 48 1 0 27
-38 109 -51 109 -6 0 -8 4 -5 9 10 15 -6 43 -20 37 -9 -4 -14 2 -15 17 0 12
-3 16 -6 10 -8 -22 -21 -14 -28 17 -4 17 -10 30 -14 30 -10 0 -29 88 -27 119
2 17 13 30 34 40 17 9 32 23 32 31 0 25 67 73 128 92 30 10 104 21 162 24 89
5 112 3 140 -11 40 -21 121 -100 136 -135 64 -138 97 -186 153 -215 43 -22
158 -152 172 -193 7 -20 18 -47 26 -58 35 -55 142 -488 163 -664 5 -41 11 -88
13 -105 4 -28 -14 -182 -46 -392 -9 -53 -12 -108 -7 -131 4 -22 4 -46 0 -53
-4 -8 -13 -40 -20 -71 -8 -36 -19 -59 -29 -61 -13 -4 -13 -5 2 -6 19 -1 25
-45 7 -56 -6 -3 -7 -17 -4 -30 6 -26 -14 -45 -27 -24 -7 11 -9 11 -9 -3 0 -9
4 -18 9 -20 14 -5 -40 -108 -79 -150 -34 -35 -42 -38 -89 -38 -47 0 -51 -2
-37 -15 8 -8 29 -15 47 -15 27 0 30 -2 19 -15 -28 -33 -68 -43 -186 -44 -75 0
-122 3 -131 11 -8 6 -40 10 -72 9 -55 -2 -111 12 -171 44 -14 7 -41 16 -60 20
-19 4 -41 11 -50 15 -8 4 -28 14 -45 21 l-30 14 44 3 c26 2 57 -3 78 -13 33
-16 96 -16 111 0 14 14 -17 40 -51 43 -36 3 -67 31 -67 59 0 16 36 17 78 2 17
-6 39 -9 49 -7 10 2 -16 14 -57 26 -81 25 -227 76 -275 97 -16 7 -48 18 -70
25 -22 7 -78 32 -126 56 -47 24 -88 44 -91 44 -7 0 -169 98 -246 149 -34 23
-95 73 -135 111 -39 38 -74 67 -76 64 -3 -2 12 -20 32 -39 25 -24 32 -35 21
-35 -20 0 -134 115 -168 169 -14 21 -39 76 -57 121 -27 71 -31 93 -30 171 1
61 -4 106 -15 137 -9 26 -18 77 -19 113 -3 71 -17 109 -40 109 -8 0 -15 9 -15
19 0 11 -2 25 -5 33 -3 7 4 19 16 26 19 12 20 12 14 -9 -5 -14 -4 -19 4 -15 7
5 11 -2 11 -16 0 -21 2 -20 21 10 15 23 18 36 11 45 -13 16 -18 96 -8 125 6
19 10 21 22 11 21 -17 27 -6 35 68 4 37 12 69 18 71 6 2 11 12 11 21 0 17 39
61 53 61 4 0 7 -10 7 -22 0 -21 1 -21 20 -3 11 10 23 36 26 57 5 28 11 38 25
38 21 0 59 -37 59 -57 0 -10 8 -11 28 -6 49 13 86 9 90 -9 2 -13 -1 -16 -12
-12 -37 14 -88 -8 -149 -64 -34 -31 -64 -61 -66 -67 -2 -5 -12 -19 -23 -30
-44 -47 -58 -70 -58 -97 0 -15 -4 -28 -10 -28 -5 0 -10 -7 -10 -16 0 -8 -11
-40 -26 -71 -23 -51 -25 -64 -20 -153 6 -104 25 -165 59 -192 32 -26 59 -22
114 15 75 50 129 63 199 46 32 -8 59 -20 62 -27 3 -9 -3 -10 -23 -2 -82 31
-206 -9 -239 -77 -28 -57 -17 -243 13 -243 4 0 19 -19 34 -42 15 -24 53 -65
84 -93 32 -27 72 -67 88 -89 22 -29 44 -44 85 -58 40 -13 69 -33 106 -71 28
-28 71 -66 96 -83 53 -37 158 -74 209 -74 21 0 41 -5 44 -10 11 -18 99 -53
145 -58 25 -2 52 -11 60 -18 25 -21 81 -42 101 -37 10 3 19 12 21 22 2 10 13
16 33 16 23 0 31 5 33 21 2 11 -4 27 -13 34 -8 7 -15 21 -15 31 0 10 -10 21
-22 25 -31 9 -47 33 -48 67 0 23 -7 31 -30 40 -24 9 -30 17 -30 40 0 20 -16
50 -49 91 -27 34 -52 72 -55 84 -4 12 -11 22 -16 22 -5 0 -12 10 -15 23 -4 12
-29 65 -55 117 -53 106 -168 375 -195 460 -20 61 -99 154 -149 175 -51 22 -98
-7 -113 -69 -12 -50 -14 -125 -5 -142 9 -16 11 -15 10 11 -1 17 4 40 11 52 6
12 9 28 6 35 -10 26 20 52 59 51 20 -1 39 4 43 10 4 6 12 -4 19 -24 6 -18 16
-33 21 -32 6 1 13 -42 16 -100 3 -56 13 -124 21 -151 9 -27 14 -51 12 -53 -2
-3 -7 6 -11 19 -4 13 -14 34 -23 48 -15 23 -16 23 -23 5 -7 -19 -8 -19 -15 3
-3 12 -11 22 -16 22 -18 0 -3 -45 18 -54 11 -5 31 -29 44 -53 12 -24 28 -43
35 -43 6 0 22 -23 36 -52 13 -29 39 -76 57 -106 35 -60 36 -62 23 -62 -5 0
-26 30 -46 68 -77 141 -139 225 -119 160 10 -35 105 -241 117 -256 5 -7 7 -15
5 -18 -7 -7 -28 28 -128 216 -104 193 -155 271 -174 264 -30 -11 -46 105 -25
181 14 55 70 137 89 132 12 -3 15 3 12 29 -3 24 -8 31 -19 27 -10 -4 -14 0
-12 13 2 10 -3 29 -9 42 -7 12 -11 26 -8 31 6 9 -29 87 -43 95 -5 3 -17 28
-27 55 -10 28 -22 47 -27 44 -5 -3 -6 4 -2 17 4 13 3 25 -3 29 -6 4 -14 22
-17 41 -3 19 -11 37 -16 41 -13 8 -36 96 -65 259 -4 19 -10 40 -14 45 -14 19
-22 80 -25 183 -4 117 -9 128 -104 232 -55 60 -69 56 -21 -6 16 -21 44 -58 61
-81 l32 -43 -13 -99 c-13 -96 -10 -255 5 -293 4 -10 3 -18 -2 -18 -10 0 -39
48 -156 255 -49 88 -91 162 -93 164 -11 12 -13 -9 -4 -39 7 -25 6 -36 -3 -42
-8 -5 -8 -8 -1 -8 7 0 13 -28 16 -70 4 -53 12 -79 32 -110 14 -22 26 -42 26
-45 0 -4 11 -31 25 -61 14 -30 25 -57 25 -60 0 -3 11 -17 25 -32 14 -15 30
-43 37 -62 6 -19 18 -41 26 -49 11 -11 11 -16 3 -19 -9 -3 -7 -10 5 -23 22
-25 -1 -26 -29 -2 -18 17 -19 17 -28 0 -12 -21 -61 -67 -71 -67 -5 0 -8 -6 -8
-13 0 -7 -5 -18 -12 -25 -9 -9 -16 -8 -29 4 -16 14 -18 14 -24 -5 -3 -12 -10
-21 -15 -21 -5 0 -7 7 -4 15 4 8 1 15 -5 15 -6 0 -8 6 -5 14 6 14 -28 40 -39
30 -3 -3 -22 20 -42 50 -34 52 -55 75 -55 61 0 -3 27 -60 61 -126 67 -134 67
-139 19 -215 -16 -25 -32 -60 -35 -78 -4 -17 -16 -62 -27 -99 -15 -50 -19 -81
-14 -115 4 -26 7 -75 6 -108 -1 -34 6 -86 15 -115 9 -30 21 -72 27 -94 7 -22
24 -66 40 -97 15 -32 28 -62 28 -69 0 -25 64 -169 105 -235 94 -151 265 -338
375 -409 36 -24 121 -70 190 -103 249 -119 375 -184 382 -195 4 -7 8 -93 8
-192 0 -99 4 -186 9 -193 13 -22 21 22 21 127 0 52 3 91 6 88 4 -3 15 0 25 7
13 9 34 11 74 5 47 -6 60 -13 92 -48 70 -76 83 -93 89 -114 2 -12 23 -32 44
-45 22 -12 40 -27 40 -32 0 -5 6 -7 14 -4 8 3 16 -3 19 -16 3 -12 10 -19 16
-15 7 4 11 58 11 146 l0 139 102 0 c140 0 190 25 269 135 111 154 160 309 184
580 41 467 41 446 -11 685 -106 489 -154 617 -276 742 -38 38 -68 75 -68 82 0
11 102 86 118 86 4 0 21 11 37 25 l30 24 -32 1 c-20 0 -32 5 -30 12 2 11 -108
40 -117 31 -3 -3 -20 0 -39 6 -25 9 -39 22 -52 51 l-18 40 46 43 c52 47 57 62
27 70 -12 3 -18 1 -14 -5 5 -7 -2 -9 -20 -4 -21 5 -32 1 -50 -19 -39 -42 -75
-49 -155 -29 -39 9 -71 21 -71 26 0 10 66 84 140 155 30 29 51 55 47 59 -8 8
-25 -7 -144 -119 -73 -69 -91 -75 -111 -34 -36 78 -196 259 -289 329 l-53 39
0 84 c0 50 -4 85 -10 85 -5 0 -10 -7 -10 -16z m-530 -1865 c0 -6 6 -9 14 -6 8
3 20 -1 27 -9 10 -12 9 -13 -5 -8 -12 4 -16 0 -16 -16 0 -12 -4 -18 -11 -15
-6 4 -8 13 -5 21 3 7 1 16 -5 19 -18 12 -21 -26 -3 -46 15 -17 16 -22 4 -29
-12 -7 -12 -11 1 -26 12 -15 12 -16 -9 -10 -13 5 -22 3 -22 -3 0 -8 -6 -7 -20
1 -26 16 -39 2 -14 -17 19 -14 18 -14 -3 -15 -12 0 -23 -3 -25 -7 -1 -5 -32 0
-68 9 -36 9 -62 17 -57 17 4 1 10 0 15 -1 4 -2 9 17 12 42 4 35 10 47 30 57
14 7 24 17 23 22 -2 5 21 14 50 19 73 13 87 14 87 1z"/>
<path d="M2418 4151 c-10 -19 -18 -40 -18 -48 0 -7 -4 -13 -10 -13 -5 0 -10
-9 -10 -21 0 -27 -16 -57 -49 -92 -21 -23 -23 -29 -11 -37 8 -4 43 -30 77 -57
50 -39 62 -55 68 -86 9 -48 -14 -70 -60 -60 -33 8 -180 6 -207 -3 -10 -3 -18
-11 -18 -19 0 -7 -13 -16 -29 -20 -16 -3 -37 -16 -48 -28 -28 -31 -64 -112
-58 -128 3 -8 7 -30 10 -49 6 -56 21 -105 31 -103 5 1 9 -11 10 -27 1 -16 10
-46 21 -67 11 -21 34 -63 49 -93 39 -73 75 -120 92 -120 12 0 12 -3 2 -15 -10
-12 -10 -15 3 -15 9 0 23 -7 31 -16 13 -13 25 -13 73 -5 78 15 119 14 137 -4
19 -20 46 -19 46 1 0 22 -66 154 -74 147 -3 -4 -6 -1 -6 6 0 7 -4 10 -9 7 -5
-3 -11 1 -15 9 -3 8 -12 15 -21 15 -8 0 -15 9 -15 20 0 11 -4 28 -9 38 -5 9
-13 37 -19 61 -8 36 -7 49 5 68 8 13 21 23 28 23 7 0 19 13 26 29 11 23 66 65
88 66 3 1 17 7 29 14 13 7 26 10 29 7 3 -3 15 0 26 6 11 6 59 12 105 14 57 1
88 7 93 16 7 10 9 10 9 1 0 -7 8 -13 18 -13 43 0 159 -102 181 -160 31 -81 59
-124 105 -164 100 -84 182 -173 210 -226 36 -69 75 -189 114 -350 59 -242 72
-313 88 -460 6 -51 -11 -201 -36 -340 -6 -30 -11 -98 -11 -150 -1 -54 -7 -112
-15 -135 -7 -22 -14 -56 -14 -75 -1 -78 -60 -236 -112 -301 -21 -26 -74 -49
-112 -49 -19 0 -38 -4 -41 -10 -6 -10 23 -14 75 -11 l25 2 -25 -20 c-14 -11
-31 -21 -38 -21 -7 0 -10 -4 -7 -10 7 -12 10 -11 -115 -14 -102 -2 -139 3
-140 19 -1 6 -9 8 -18 6 -59 -12 -200 10 -236 37 -6 5 -24 12 -41 16 -46 11
-135 49 -135 58 0 11 77 2 125 -16 39 -14 90 -12 100 5 3 4 0 18 -7 29 -10 16
-20 20 -40 16 -31 -6 -71 27 -65 54 3 16 20 17 81 5 28 -6 37 -5 32 4 -4 6
-16 11 -27 11 -22 0 -205 60 -270 88 -24 10 -62 25 -84 32 -90 28 -353 170
-480 259 -52 36 -120 96 -163 144 -38 41 -48 33 -13 -10 40 -48 32 -54 -16
-13 -85 75 -139 154 -183 268 -27 71 -31 91 -29 169 2 59 -3 108 -14 148 -9
32 -17 83 -17 111 0 49 -12 76 -39 86 -10 3 -22 88 -13 88 4 0 16 -12 28 -27
l21 -27 17 32 c15 29 15 33 1 38 -18 7 -21 68 -5 109 8 21 13 25 23 16 10 -8
18 -7 32 2 15 11 16 17 6 36 -23 43 29 181 68 181 6 0 11 -7 11 -15 0 -24 17
-17 41 16 18 26 20 35 11 50 -16 25 -15 29 7 29 11 0 36 -15 56 -34 31 -30 40
-33 75 -29 25 4 46 1 55 -7 23 -19 18 -27 -15 -22 -16 2 -41 1 -55 -2 -24 -6
-145 -108 -154 -130 -2 -6 -19 -26 -38 -45 -20 -20 -33 -44 -33 -60 0 -14 -7
-35 -15 -45 -8 -11 -15 -28 -15 -39 0 -10 -9 -30 -20 -44 -17 -22 -20 -41 -20
-133 0 -127 21 -195 71 -224 36 -21 50 -13 79 44 21 42 79 96 119 112 14 5 49
10 78 9 l51 -1 -5 40 c-8 58 19 122 65 154 21 14 43 26 50 26 6 0 20 9 31 21
11 12 24 18 30 15 22 -14 7 63 -26 134 -20 41 -38 77 -42 80 -3 3 -7 11 -9 18
-1 7 -13 36 -27 64 -14 28 -25 59 -25 68 0 9 -8 25 -17 36 -10 10 -19 32 -20
48 -1 17 -9 34 -18 39 -9 5 -15 18 -14 30 2 12 -5 58 -15 102 -25 108 -24 107
-36 100 -6 -4 -11 17 -12 57 -1 78 -2 80 -12 96 -4 7 -5 25 -2 38 5 19 4 24
-6 18 -10 -5 -11 -4 0 7 6 7 12 33 13 59 1 37 2 41 9 20 9 -27 11 -21 15 45 2
29 2 29 -13 7 l-14 -22 -27 35 c-52 68 -126 154 -133 154 -17 2 -5 -18 52 -88
33 -41 63 -85 66 -97 3 -13 1 -71 -6 -129 -11 -97 -9 -160 7 -254 8 -49 -6
-34 -62 61 -26 46 -60 103 -74 128 -15 25 -40 71 -56 103 -17 32 -40 70 -53
85 l-23 27 7 -35 c3 -19 10 -39 15 -44 5 -6 9 -17 9 -25 0 -14 -1 -14 -10 -1
-8 12 -10 9 -10 -12 0 -15 4 -29 10 -33 5 -3 7 -12 4 -20 -3 -8 -2 -20 2 -27
5 -7 9 -17 9 -23 0 -5 19 -49 43 -97 23 -48 42 -90 42 -94 0 -3 14 -26 30 -51
17 -24 30 -47 30 -50 0 -4 7 -14 16 -24 9 -10 19 -32 24 -51 4 -18 11 -41 15
-50 10 -24 -6 -23 -33 2 l-22 21 -9 -23 c-5 -13 -23 -32 -40 -43 -17 -11 -36
-32 -42 -47 -12 -30 -29 -37 -29 -13 0 24 -16 17 -30 -12 l-13 -28 -14 48 c-8
26 -19 45 -24 41 -10 -6 -73 55 -65 64 3 2 -5 19 -18 36 -13 17 -56 92 -96
166 -40 74 -82 146 -93 160 l-19 25 7 -25 c8 -26 101 -217 115 -235 8 -10 88
-153 142 -252 28 -53 37 -116 18 -128 -17 -10 -58 -98 -66 -141 -4 -21 -13
-54 -21 -72 -22 -52 -10 -264 20 -377 13 -50 34 -110 46 -133 12 -24 36 -82
53 -130 16 -48 37 -100 46 -117 34 -67 125 -195 199 -280 135 -154 178 -184
499 -345 l289 -145 3 -200 c2 -201 15 -273 26 -154 4 35 7 91 9 124 1 46 6 60
17 60 8 0 18 5 23 12 14 23 142 -22 154 -54 17 -45 167 -213 190 -213 7 0 15
-11 19 -25 15 -59 24 -3 24 145 l0 158 105 0 c76 1 115 6 140 18 50 23 127
111 181 207 81 143 112 298 143 713 15 193 14 245 -9 349 -64 299 -82 373
-115 490 -55 192 -104 281 -208 376 -31 30 -47 51 -42 59 4 6 38 32 76 56 80
52 90 64 53 64 -22 0 -25 2 -14 15 10 13 9 15 -11 15 -63 0 -126 14 -153 34
-17 11 -33 22 -35 23 -2 1 -5 17 -6 36 -3 28 5 40 46 82 37 37 46 51 34 53 -9
2 -23 -2 -31 -9 -13 -10 -17 -10 -24 1 -7 12 -12 11 -28 -3 -10 -9 -24 -17
-30 -17 -7 0 -12 -3 -12 -8 0 -4 -15 -15 -33 -25 -29 -16 -36 -16 -80 -3 -27
8 -55 23 -63 33 -10 14 -13 14 -14 4 0 -11 -3 -12 -12 -3 -8 8 15 37 97 117
59 58 103 105 97 105 -13 0 -58 -36 -150 -122 -39 -37 -76 -68 -80 -68 -5 0
-35 39 -68 87 -60 89 -185 224 -261 282 l-42 32 -3 82 -3 82 -17 -34z"/>
<path d="M6295 4122 c9 -79 4 -93 -49 -121 -49 -27 -44 -29 -127 38 -37 31
-40 32 -29 10 7 -13 28 -41 48 -61 20 -21 33 -38 29 -38 -4 0 -3 -9 3 -20 6
-11 21 -20 34 -20 13 0 31 9 41 20 10 11 24 20 30 20 17 0 64 39 48 40 -6 0
-15 -4 -18 -10 -3 -5 -13 -10 -21 -10 -11 0 -5 10 15 31 26 26 31 37 26 65 -3
19 -7 50 -10 69 -3 19 -11 37 -17 41 -7 5 -8 -12 -3 -54z"/>
<path d="M4643 3804 c-16 -7 -17 -53 -3 -90 6 -15 12 -93 13 -173 3 -176 11
-195 102 -246 33 -18 98 -56 145 -84 147 -89 181 -88 200 6 17 81 9 257 -14
305 -10 21 -56 76 -102 124 -66 66 -100 93 -157 119 -68 32 -157 51 -184 39z
m174 -77 c-6 -17 92 -90 114 -84 12 3 16 0 12 -9 -4 -10 0 -12 11 -8 19 7 21
-7 4 -24 -9 -9 -8 -12 8 -13 10 -1 25 -1 33 0 7 2 10 -2 7 -7 -3 -5 3 -31 14
-58 10 -27 20 -44 21 -39 4 21 17 -93 18 -152 1 -69 -19 -103 -59 -103 -11 0
-23 -7 -26 -15 -8 -19 -23 -19 -49 1 -19 15 -19 15 8 9 15 -4 27 -3 27 2 0 6
-16 10 -35 11 -35 1 -95 29 -95 43 0 4 6 10 13 13 6 4 -3 4 -22 1 -26 -4 -32
-2 -28 10 4 10 1 12 -10 8 -11 -4 -14 -2 -9 5 12 19 -3 35 -20 21 -9 -7 -14
-8 -14 -1 0 6 -9 14 -20 17 -11 3 -20 14 -20 23 0 13 2 14 9 4 7 -11 9 -11 13
0 3 7 0 19 -8 25 -7 7 -14 8 -16 3 -2 -6 -3 48 -3 119 0 71 -3 127 -7 124 -5
-2 -8 0 -8 6 0 5 5 13 10 16 6 3 10 15 10 26 0 10 5 19 11 19 5 0 7 -6 4 -12
-4 -7 -1 -6 7 3 9 11 24 14 51 11 23 -3 37 0 37 7 0 6 3 11 6 11 3 0 4 -6 1
-13z"/>
<path d="M4432 3771 c-100 -40 -179 -140 -245 -310 -28 -73 -29 -81 -24 -186
9 -164 36 -226 88 -206 34 13 167 138 220 208 24 32 61 74 82 93 35 32 39 40
40 90 1 50 -14 191 -29 263 -7 34 -41 67 -68 66 -12 0 -40 -8 -64 -18z m113
-119 c-4 -9 -6 -74 -6 -143 0 -122 -1 -128 -25 -155 -60 -69 -110 -119 -116
-119 -5 0 -8 -4 -8 -8 1 -4 -5 -14 -12 -21 -7 -7 -23 -25 -35 -40 -13 -14 -29
-26 -35 -25 -10 0 -10 2 0 6 23 9 12 20 -18 15 -19 -3 -30 -10 -31 -21 0 -13
-2 -13 -6 -1 -4 8 -12 20 -19 27 -10 10 -14 9 -20 -5 -8 -18 -16 11 -33 118
-9 60 -3 98 10 64 6 -15 8 -12 8 14 1 18 6 32 14 32 9 0 9 2 -1 8 -9 6 -10 15
-3 33 5 13 10 20 11 14 1 -18 39 69 40 93 0 15 6 22 19 22 11 0 23 9 27 22 4
12 17 31 30 41 13 10 24 24 24 31 0 14 75 40 90 31 5 -3 12 0 15 6 4 5 13 8
21 5 8 -3 24 -2 36 3 19 7 24 5 26 -11 2 -11 1 -27 -3 -36z"/>
<path d="M8915 3609 c-19 -70 -13 -166 13 -211 13 -23 14 -33 4 -61 -7 -18
-12 -40 -12 -48 0 -16 -40 -59 -54 -59 -4 0 -26 -13 -49 -29 -23 -15 -52 -31
-64 -35 -13 -4 -23 -12 -23 -18 0 -11 -1 -11 113 34 56 22 82 38 92 57 7 14
30 43 50 64 40 40 62 45 127 27 31 -9 41 -19 57 -55 11 -25 25 -45 31 -45 7 0
5 9 -4 22 -9 12 -16 30 -16 38 0 20 -44 81 -67 94 -10 5 -49 10 -87 12 -97 3
-100 7 -92 157 4 64 5 117 3 117 -3 0 -12 -28 -22 -61z"/>
<path d="M7032 3543 c-43 -21 -190 -178 -213 -228 -29 -63 -24 -109 22 -201
43 -84 72 -111 111 -98 26 8 108 -13 133 -34 36 -31 55 -70 55 -116 0 -26 -5
-46 -12 -48 -10 -4 -9 -25 5 -94 9 -49 20 -100 24 -114 6 -23 5 -24 -12 -10
-17 14 -18 13 -12 -27 6 -35 5 -41 -8 -37 -8 4 -15 9 -15 13 0 4 -7 16 -16 27
-14 18 -15 17 -9 -19 13 -80 -28 -14 -120 193 -25 56 -38 97 -30 90 13 -11 14
-8 8 20 -4 22 -3 31 4 27 6 -4 23 5 37 18 31 28 32 29 49 15 7 -6 25 -20 40
-31 16 -12 33 -31 37 -43 8 -19 9 -18 9 7 2 64 -63 137 -121 137 -57 0 -105
-46 -100 -95 3 -22 7 -26 -68 67 -17 20 -30 44 -30 54 0 10 -3 14 -6 11 -4 -3
-14 -2 -24 3 -10 6 -34 4 -66 -5 l-49 -15 46 4 c25 3 51 1 59 -4 30 -19 -40
-110 -85 -110 -9 0 -26 5 -38 11 -22 12 -22 12 -3 -10 24 -26 46 -27 76 -1 13
12 30 18 37 16 7 -3 13 1 13 8 0 18 39 65 40 48 1 -48 -126 -198 -159 -187
-20 6 -46 -10 -37 -23 3 -6 -20 -18 -56 -30 -58 -18 -92 -19 -85 -3 2 3 -7 16
-20 28 -26 25 -43 11 -19 -16 9 -10 16 -23 16 -30 0 -32 139 -149 239 -201 46
-24 61 -46 206 -295 88 -151 154 -257 196 -315 34 -46 39 -61 35 -90 -2 -19
-2 -27 0 -17 8 27 31 20 61 -20 34 -45 94 -102 108 -103 5 0 34 -12 63 -27 64
-32 89 -25 84 25 -2 23 2 34 17 42 12 6 21 19 21 29 0 10 6 24 14 30 8 7 24
31 35 54 18 36 19 43 6 57 -20 22 -19 56 1 64 12 5 15 14 10 41 -6 28 -3 36
14 45 18 10 21 17 15 51 -6 35 -4 40 19 49 30 11 33 22 11 40 -9 8 -15 28 -14
54 2 88 -28 316 -45 335 -19 20 -33 82 -49 201 -5 47 -16 88 -23 92 -7 5 -10
16 -8 26 3 10 -7 28 -25 46 -26 25 -35 28 -71 23 -50 -6 -85 -37 -101 -86 -15
-46 -29 -62 -29 -32 0 29 26 84 50 106 10 9 47 26 81 38 51 18 69 30 92 64
l30 41 -31 65 c-16 35 -45 82 -64 103 -38 42 -66 91 -98 168 -20 47 -72 103
-124 133 -30 17 -95 15 -134 -4z m353 -666 c17 -6 38 -18 47 -28 15 -15 15
-22 3 -65 -7 -27 -16 -61 -19 -76 -4 -16 -13 -28 -21 -28 -9 0 -15 -9 -15 -22
0 -21 0 -21 -15 -2 -14 19 -14 19 -15 -1 -1 -18 -2 -18 -10 3 -15 36 -29 25
-23 -18 4 -24 2 -40 -5 -40 -13 0 -16 9 -38 123 -17 94 -17 99 0 109 9 5 21
20 25 32 10 25 40 29 86 13z"/>
<path d="M2740 3520 c-47 -24 -198 -182 -216 -225 -25 -61 -18 -116 25 -197
l39 -73 43 2 c24 1 71 3 105 5 54 3 65 0 98 -26 21 -15 42 -40 49 -55 6 -14
12 -28 14 -30 2 -3 16 7 31 22 40 39 95 58 159 56 48 -2 59 1 75 21 10 12 18
32 18 44 0 33 -44 117 -87 166 -50 58 -66 83 -88 145 -25 68 -35 81 -95 126
-60 45 -111 51 -170 19z"/>
<path d="M4545 3241 c-49 -30 -214 -199 -221 -225 -18 -74 70 -154 213 -191
73 -19 121 -19 202 1 110 27 256 146 267 216 6 36 6 36 -62 69 -38 18 -71 36
-74 39 -13 14 -134 70 -151 70 -10 0 -19 4 -19 8 0 11 -68 32 -101 32 -13 0
-37 -8 -54 -19z m113 -22 c9 -14 20 -19 33 -16 11 3 39 -3 62 -14 42 -20 42
-20 7 -13 l-34 6 38 -36 c22 -20 45 -36 53 -36 8 0 11 -5 7 -12 -4 -6 -3 -8 4
-4 6 3 13 2 17 -4 3 -5 17 -10 30 -10 13 0 27 -5 31 -12 5 -7 2 -9 -7 -4 -10
6 -10 4 1 -6 25 -22 12 -98 -17 -98 -8 0 -12 -4 -8 -9 6 -10 -49 -41 -72 -41
-7 0 -13 -3 -13 -7 0 -19 -197 -23 -270 -6 -27 7 -52 21 -65 37 -11 14 -26 26
-32 26 -6 0 -10 21 -9 54 1 42 -2 52 -11 44 -10 -8 -13 -6 -13 6 0 9 8 16 20
16 11 0 20 4 20 9 0 18 48 62 55 51 11 -18 35 -11 35 11 0 14 5 19 14 16 10
-4 13 -1 10 8 -4 9 0 12 14 8 11 -2 23 0 26 6 4 6 2 11 -3 11 -6 0 -11 6 -11
14 0 10 9 13 30 11 17 -2 30 0 30 5 0 17 15 11 28 -11z"/>
<path d="M2383 3005 c-66 -20 -124 -58 -181 -119 -77 -81 -100 -145 -64 -177
9 -9 33 -36 52 -61 33 -43 120 -109 186 -142 47 -23 104 -93 146 -178 21 -42
48 -89 60 -104 13 -16 30 -42 38 -59 27 -57 114 -200 146 -240 17 -22 39 -56
49 -75 10 -19 32 -49 49 -66 17 -17 50 -52 73 -77 23 -26 49 -47 58 -47 9 0
36 -11 61 -24 58 -31 88 -25 82 16 -4 23 1 33 19 45 13 9 23 25 23 39 0 13 9
28 20 34 11 6 20 17 20 25 0 9 5 23 11 33 9 14 8 25 -5 50 -16 30 -15 33 5 53
18 18 19 25 10 46 -12 27 -7 43 14 43 18 0 24 19 14 51 -7 28 5 49 28 49 14 0
18 22 6 34 -5 4 -14 62 -21 129 -24 222 -27 244 -41 261 -23 28 -54 175 -52
246 1 13 -8 44 -19 67 -11 24 -20 49 -20 57 0 8 -12 24 -26 35 -47 37 -154 24
-193 -23 -12 -14 -10 -16 11 -16 13 0 28 4 34 9 15 15 104 25 104 12 0 -6 8
-11 18 -11 32 0 33 -13 2 -31 -16 -10 -32 -29 -35 -41 -6 -25 -51 -52 -61 -37
-3 5 -9 7 -14 4 -5 -3 -18 15 -29 40 -17 39 -24 45 -50 45 -32 0 -51 -22 -51
-59 0 -13 -6 -21 -16 -21 -13 0 -15 -7 -10 -30 7 -38 -20 -43 -30 -5 -6 24 -7
24 -19 8 -12 -16 -15 -14 -41 16 -55 66 -80 79 -129 67 -19 -5 -27 -1 -36 16
-7 13 -15 25 -19 28 -3 3 -21 26 -40 53 -37 52 -58 57 -137 32z m23 -85 c8 0
14 -9 14 -19 0 -13 8 -21 23 -23 20 -3 17 -8 -33 -59 -36 -36 -71 -61 -101
-71 l-47 -16 -20 27 c-17 24 -18 31 -7 57 17 39 119 116 143 108 8 -2 20 -4
28 -4z"/>
<path d="M1994 2651 c-51 -23 -84 -74 -84 -130 0 -37 2 -41 18 -32 10 6 19 23
20 43 2 33 32 68 58 68 8 0 14 6 14 14 0 24 14 25 128 14 17 -2 15 -17 -3 -24
-20 -8 -20 -85 0 -150 19 -62 19 -73 1 -48 -13 17 -15 17 -21 2 -4 -10 5 -36
21 -65 21 -35 23 -44 10 -33 -18 14 -18 13 -12 -10 3 -14 -6 1 -20 33 -28 60
-44 72 -45 35 0 -23 0 -23 -17 2 -32 47 -95 110 -109 110 -8 0 -22 -9 -31 -21
-15 -18 -22 -19 -62 -10 -77 17 -144 -26 -180 -117 -11 -29 -11 -35 1 -43 11
-7 11 -9 -2 -9 -10 0 -20 -12 -24 -27 -11 -41 -6 -162 7 -187 11 -21 71 -105
85 -119 5 -4 37 -36 73 -72 36 -35 75 -75 86 -89 12 -14 41 -30 65 -36 53 -14
96 -43 104 -71 8 -24 128 -104 193 -129 26 -10 67 -21 92 -25 25 -4 72 -20
105 -36 33 -15 78 -30 101 -32 22 -2 58 -16 79 -30 48 -33 90 -35 105 -7 8 14
19 20 38 18 35 -4 41 23 13 58 -12 15 -21 32 -21 38 0 6 -13 17 -30 23 -25 9
-30 17 -30 45 0 38 -15 58 -43 58 -15 0 -18 5 -13 24 5 19 -6 39 -49 94 -30
39 -55 74 -55 79 0 5 -7 18 -15 28 -42 55 -186 374 -251 553 -36 102 -40 109
-99 167 -69 68 -124 81 -201 46z"/>
<path d="M8921 2243 c-18 -60 -42 -163 -53 -228 -5 -33 -17 -85 -25 -115 -8
-30 -21 -75 -28 -99 -7 -28 -20 -48 -33 -54 -12 -6 -24 -18 -27 -27 -3 -10
-27 -38 -54 -62 -32 -30 -51 -57 -56 -79 -4 -19 -15 -42 -24 -53 -33 -38 51
-6 106 41 41 34 64 46 105 53 74 12 77 14 128 80 48 62 61 70 126 70 45 0 76
-25 94 -75 7 -22 26 -38 68 -60 79 -41 82 -41 37 -1 -22 20 -43 36 -46 36 -3
0 -12 19 -19 43 -9 29 -31 58 -69 94 -50 47 -60 52 -88 47 -44 -8 -83 30 -84
83 -5 146 -10 196 -24 223 -9 17 -15 48 -13 70 3 53 -6 58 -21 13z"/>
<path d="M4385 2215 c-73 -37 -144 -147 -200 -310 -27 -80 -31 -168 -8 -184 5
-3 14 -15 20 -25 10 -17 13 -15 32 25 12 24 31 61 42 81 19 34 19 39 4 75 -21
49 -23 127 -4 145 30 31 100 68 126 68 31 0 159 59 167 77 3 8 -11 14 -40 19
-24 3 -44 10 -44 15 0 5 -9 9 -20 9 -11 0 -20 5 -20 10 0 14 -20 12 -55 -5z"/>
<path d="M4870 2190 c0 -5 9 -14 21 -20 11 -7 18 -14 15 -17 -3 -3 -12 0 -20
6 -20 17 -146 16 -162 -1 -11 -11 -7 -13 22 -16 19 -1 61 -16 94 -32 33 -17
70 -30 82 -30 56 0 110 -78 106 -152 -1 -24 -1 -68 0 -98 l2 -55 29 50 c39 69
46 113 25 167 -20 50 -112 151 -132 143 -8 -3 -12 0 -9 7 2 7 -11 23 -29 36
-36 24 -44 27 -44 12z"/>
<path d="M4630 2127 c0 -13 -8 -31 -18 -40 -19 -17 -90 -36 -135 -37 -42 0
-93 -27 -106 -57 -6 -14 -10 -28 -7 -30 2 -2 7 5 11 16 3 12 11 21 16 21 6 0
6 -6 0 -17 -5 -10 -9 -20 -9 -23 2 -14 -16 -57 -30 -72 -13 -16 -13 -24 4 -75
10 -32 19 -83 19 -114 0 -49 2 -55 18 -51 25 6 65 -34 77 -79 17 -64 48 -79
155 -79 104 0 110 3 138 80 22 59 42 72 90 55 l38 -13 -21 35 c-31 52 -26 75
31 140 49 56 51 59 45 106 -3 27 -16 67 -28 90 -19 34 -32 45 -68 56 -104 32
-129 43 -168 76 -48 41 -52 42 -52 12z"/>
<path d="M3440 1608 c-13 -40 -35 -95 -49 -122 -26 -48 -116 -156 -131 -156
-4 0 -32 -11 -61 -25 l-54 -24 64 2 c35 0 58 3 52 5 -13 4 -15 22 -2 22 17 0
20 -30 4 -46 -14 -13 -14 -17 -2 -25 20 -13 29 -11 29 6 0 8 5 15 11 15 8 0
10 12 6 35 -3 20 -3 33 2 31 4 -3 17 18 30 45 21 43 51 67 51 39 0 -5 -4 -10
-10 -10 -5 0 -10 -10 -10 -22 l0 -23 24 25 c21 22 22 27 9 37 -12 10 -12 16 5
50 36 72 79 213 64 213 -5 0 -19 -33 -32 -72z"/>
<path d="M4370 1581 c6 -12 15 -21 20 -21 6 0 10 -6 10 -14 0 -8 11 -41 24
-73 13 -32 27 -65 30 -73 3 -8 13 -25 22 -38 17 -23 17 -23 -12 -16 -40 10
-115 50 -107 58 3 3 1 6 -5 6 -24 0 -19 -17 12 -38 37 -25 148 -66 223 -81 46
-9 60 -8 110 11 64 23 127 60 139 80 6 9 3 9 -9 -1 -23 -18 -34 -6 -13 14 9 9
17 28 17 43 2 55 18 112 30 112 6 0 7 6 3 13 -5 8 -2 8 9 -2 9 -7 17 -9 17 -3
0 5 -7 15 -15 22 -21 17 -52 -22 -60 -75 -9 -56 -29 -96 -62 -125 -25 -22 -39
-25 -118 -28 -79 -3 -93 -1 -117 17 -14 12 -29 34 -33 51 -3 16 -19 44 -36 62
-16 18 -34 48 -40 66 -6 17 -20 37 -31 43 -18 10 -18 9 -8 -10z"/>
<path d="M6689 363 c0 -5 -1 -46 -2 -93 l-1 -85 48 -3 c35 -2 53 2 67 14 21
19 25 54 8 71 -8 8 -8 17 1 33 9 17 8 26 -5 46 -13 20 -24 24 -65 24 -28 0
-50 -3 -51 -7z"/>
<path d="M8010 249 c0 -62 2 -70 18 -67 13 3 17 14 19 53 1 28 2 53 2 58 1 4
10 7 21 7 18 0 20 -7 20 -61 0 -52 2 -60 18 -57 13 2 17 14 18 48 2 68 2 70
24 70 18 0 20 -7 20 -60 0 -53 2 -60 20 -60 17 0 20 7 20 44 0 25 -4 56 -9 69
-9 22 -14 24 -100 25 l-91 2 0 -71z"/>
<path d="M3820 291 c-14 -20 -18 -21 -41 -11 -20 9 -32 9 -48 1 -17 -10 -21
-9 -21 4 0 20 -16 19 -24 -1 -5 -13 -9 -14 -21 -4 -24 20 -35 2 -35 -56 0 -52
-2 -55 -22 -52 -20 3 -23 10 -26 61 -2 42 -7 57 -17 57 -19 0 -21 -110 -3
-128 7 -7 34 -12 60 -12 l48 0 -4 43 c-3 41 7 67 26 67 5 0 6 -15 3 -33 -12
-64 57 -105 105 -62 13 12 20 31 20 55 0 20 5 41 11 47 6 6 9 19 7 29 -3 16
-5 15 -18 -5z"/>
<path d="M3015 281 c-3 -2 -5 -33 -5 -68 0 -56 2 -63 20 -63 16 0 19 8 22 58
2 43 7 57 18 57 11 0 16 -14 18 -57 3 -50 6 -58 22 -58 17 0 20 7 20 54 0 37
4 56 14 59 22 8 26 -2 26 -60 0 -46 3 -53 20 -53 17 0 20 7 20 49 0 33 -6 56
-19 72 -17 21 -21 22 -44 10 -15 -8 -30 -10 -39 -5 -14 10 -85 13 -93 5z"/>
<path d="M4016 271 c-19 -21 -21 -92 -4 -109 7 -7 25 -12 41 -12 42 0 33 -34
-11 -38 -45 -5 -40 -22 6 -22 59 0 72 21 72 116 l0 79 -44 2 c-31 1 -49 -4
-60 -16z"/>
</g>
</svg>
