<svg width="360" height="361" viewBox="0 0 360 361" fill="none" xmlns="http://www.w3.org/2000/svg">
<g clip-path="url(#clip0_4705_60220)">
<path d="M330.644 180.163H180.566V30.6143C220.658 30.6143 258.347 46.2252 286.697 74.5752C314.913 102.798 330.517 140.279 330.651 180.17L330.644 180.163Z" fill="#DEF3FF"/>
<path d="M330.644 180.699C330.644 220.791 315.033 258.479 286.683 286.829C258.34 315.173 220.644 330.79 180.553 330.79V180.164H330.631C330.631 180.338 330.631 180.525 330.631 180.699H330.644Z" fill="#DDE9FF"/>
<path d="M180.559 180.163V330.79C140.467 330.79 102.779 315.179 74.4289 286.829C46.0855 258.486 30.4746 220.791 30.4746 180.699C30.4746 180.525 30.4746 180.337 30.4746 180.163H180.552H180.559Z" fill="#DEF3FF"/>
<path d="M180.559 30.6143V180.163H30.4741C30.608 140.272 46.2056 102.798 74.4284 74.5686C102.785 46.2252 140.474 30.6143 180.559 30.6143Z" fill="#DDE9FF"/>
<path d="M122.031 113.411V100.074L111.475 90.8625V141.739H122.031V122.282H138.268L141.792 113.411H122.031Z" fill="#4460FF"/>
<path d="M144.946 90.8625L141.423 100.074H122.031L111.475 90.8625H144.946Z" fill="#00BBFF"/>
<path d="M248.989 90.8625L237.059 117.055L241.929 129.844L252.344 107.089V141.739H262.765V90.8625H248.989ZM211.219 90.8625V141.739H221.64V106.949L232.127 129.844L237.059 117.055L225.479 90.8625H211.219Z" fill="#00BBFF"/>
<path d="M241.929 129.844H232.127L237.059 117.055L241.929 129.844Z" fill="#4460FF"/>
<path d="M246.026 246.049C245.619 249.216 244.369 251.725 242.267 253.577C240.169 255.434 237.315 256.36 233.704 256.36C230.409 256.36 227.67 255.559 225.481 253.951C223.287 252.349 221.63 250.266 220.505 247.714C219.375 245.156 218.81 242.479 218.81 239.672C218.81 236.865 219.36 234.351 220.467 231.842C221.573 229.332 223.22 227.274 225.409 225.667C227.598 224.064 230.342 223.258 233.637 223.258C236.166 223.258 238.206 223.68 239.762 224.515C241.319 225.355 242.506 226.324 243.316 227.432C244.13 228.541 244.805 229.908 245.346 231.535H255.705C255.389 229.865 254.973 228.358 254.455 227.024C253.933 225.691 253.191 224.28 252.219 222.788C251.247 221.296 249.954 219.88 248.325 218.546C246.702 217.212 244.681 216.128 242.267 215.293C239.853 214.454 236.975 214.036 233.637 214.036C229.351 214.036 225.601 214.77 222.397 216.238C219.193 217.711 216.544 219.679 214.442 222.14C212.344 224.606 210.764 227.375 209.705 230.45C208.642 233.526 208.115 236.669 208.115 239.878C208.115 243.088 208.632 246.217 209.672 249.273C210.706 252.325 212.277 255.084 214.375 257.545C216.472 260.011 219.102 261.964 222.263 263.413C225.423 264.862 229.101 265.582 233.297 265.582C237.722 265.582 241.659 264.689 245.112 262.904C248.565 261.119 251.295 258.452 253.301 254.901C255.313 251.351 256.314 246.956 256.314 241.711V237.844L246.026 246.049Z" fill="#00BBFF"/>
<path d="M256.313 237.844L246.026 246.049H233.028V237.844H256.313Z" fill="#4460FF"/>
<path d="M144.354 214.036L141.303 223.248H109.223V214.036H144.354Z" fill="#00BBFF"/>
<path d="M137.869 234.662L134.817 243.532H109.223V234.662H137.869Z" fill="#4460FF"/>
<path d="M144.702 255.701L141.655 264.912H109.223V255.701H144.702Z" fill="#00BBFF"/>
</g>
<g clip-path="url(#clip1_4705_60220)">
<path d="M192.701 13.5171L180 26.1045C138.644 26.1045 99.7678 42.2101 70.521 71.4507C41.4126 100.565 25.3196 139.228 25.1811 180.376H25.1748L12.5874 167.675L0 180.376C0.144755 132.506 18.8559 87.5185 52.7224 53.6521C86.721 19.6535 131.922 0.929688 180 0.929688L192.701 13.5171Z" fill="#4460FF"/>
<path d="M17.9057 126.489L20.1022 127.37L18.9882 130.958L20.4484 131.411L21.3924 128.352L23.5826 129.032L22.6386 132.09L25.7728 133.06L24.9924 135.583L15.9609 132.789L17.912 126.495L17.9057 126.489Z" fill="#FCFCFC"/>
<path d="M21.6132 116.369L26.667 118.27C27.9257 118.742 28.7691 119.459 29.1908 120.416C29.6125 121.373 29.5936 122.474 29.1215 123.714C28.6558 124.947 27.9509 125.784 27.0069 126.225C26.0565 126.666 24.9551 126.653 23.6901 126.181L18.6362 124.28L19.5677 121.807L24.439 123.638C25.0243 123.859 25.5278 123.909 25.9495 123.789C26.3712 123.67 26.6796 123.343 26.881 122.801C27.0761 122.273 27.0572 121.826 26.8243 121.461C26.5852 121.096 26.1761 120.8 25.5908 120.58L20.7194 118.748L21.6132 116.363V116.369Z" fill="#FCFCFC"/>
<path d="M31.3238 117.69L22.6763 113.858L23.7462 111.441L30.2098 114.304L31.7266 110.887L33.835 112.032L31.3238 117.697V117.69Z" fill="#FCFCFC"/>
<path d="M34.6214 110.402L26.1753 106.142L27.3648 103.781L33.6774 106.966L35.3641 103.624L37.4096 104.87L34.6214 110.402Z" fill="#FCFCFC"/>
<path d="M40.7646 89.8282C41.5325 90.3003 42.1115 90.9045 42.5017 91.6408C42.8919 92.3772 43.0555 93.1828 42.9989 94.0639C42.9423 94.945 42.6339 95.8387 42.0737 96.7513L40.1667 99.8604L32.1045 94.9198L34.0115 91.8108C34.5716 90.8982 35.2325 90.2122 35.9877 89.759C36.743 89.3059 37.536 89.0856 38.3667 89.0982C39.1975 89.1108 39.9968 89.3499 40.7772 89.8282H40.7646ZM39.3234 92.1758C38.8828 91.9052 38.4485 91.7541 38.0269 91.7289C37.6052 91.7038 37.215 91.7919 36.8499 92.0059C36.4849 92.2199 36.1702 92.5408 35.8996 92.9751L35.3646 93.8436L39.6255 96.4555L40.1604 95.587C40.4248 95.1527 40.5695 94.7247 40.5947 94.3031C40.6199 93.8814 40.5192 93.4912 40.2989 93.1261C40.0786 92.7611 39.7513 92.4464 39.3171 92.1821L39.3234 92.1758Z" fill="#FCFCFC"/>
<path d="M41.8217 80.0103L43.6469 81.5144L41.5008 84.5984L42.4826 85.2781L44.2322 82.7732L46.114 84.0823L44.3644 86.5872L45.3966 87.3047L47.7001 84.0005L49.6322 85.3473L45.8182 90.8228L38.0581 85.4166L41.828 80.0103H41.8217Z" fill="#FCFCFC"/>
<path d="M49.8462 69.745L57.235 75.6485L55.586 77.7128L51.7532 74.6478L51.7028 74.7107C51.8602 74.887 52.0049 75.0821 52.1434 75.2772C52.2818 75.4786 52.4203 75.7052 52.5525 75.9632L53.635 77.9709L52.0867 79.9093L49.8902 79.2926C49.6385 79.217 49.3993 79.1289 49.1602 79.0345C48.921 78.9401 48.6944 78.8394 48.4804 78.7387L48.4301 78.8017L52.263 81.8604L50.6832 83.8366L43.2944 77.9331L45.0567 75.7303L49.4371 76.9072C49.6888 76.9702 49.9595 77.052 50.2553 77.1464C50.5511 77.2408 50.7965 77.3289 50.9853 77.417L51.0357 77.3541C50.9098 77.1842 50.7714 76.9702 50.614 76.6996C50.4567 76.4289 50.3182 76.1835 50.2049 75.9506L48.0902 71.9352L49.8525 69.7324L49.8462 69.745Z" fill="#FCFCFC"/>
<path d="M54.7491 64.1121C55.4036 63.4072 56.1463 62.9163 56.9707 62.6583C57.7952 62.4002 58.6197 62.3562 59.4568 62.5324C60.2875 62.7149 61.0554 63.124 61.7414 63.766C62.4274 64.4016 62.8931 65.1317 63.1323 65.9499C63.3777 66.7681 63.3966 67.5988 63.1952 68.4422C62.9938 69.2856 62.5658 70.0597 61.905 70.7646C61.2442 71.4695 60.5078 71.9604 59.6833 72.2184C58.8589 72.4765 58.0281 72.5205 57.191 72.338C56.354 72.1555 55.5924 71.7464 54.9064 71.1107C54.2141 70.4688 53.7484 69.7387 53.5092 68.9205C53.27 68.1023 53.2512 67.2716 53.4526 66.4345C53.654 65.5912 54.0819 64.817 54.7428 64.1121H54.7491ZM60.1742 69.1471C60.4763 68.8198 60.6651 68.4611 60.7407 68.0646C60.8162 67.6744 60.7784 67.2779 60.6274 66.8751C60.4763 66.4723 60.2246 66.1072 59.8658 65.7737C59.5008 65.4338 59.1169 65.2072 58.7078 65.0877C58.2987 64.9681 57.9085 64.9681 57.5183 65.0688C57.1344 65.1758 56.7882 65.3898 56.4798 65.717C56.184 66.038 55.9952 66.3967 55.9197 66.7933C55.8379 67.1898 55.8756 67.5863 56.0204 67.9828C56.1651 68.3793 56.4232 68.7443 56.7882 69.0842C57.147 69.4177 57.5309 69.6443 57.94 69.7639C58.3491 69.8835 58.7519 69.8898 59.1421 69.7828C59.5323 69.6758 59.8784 69.4618 60.1742 69.1408V69.1471Z" fill="#FCFCFC"/>
<path d="M66.21 53.0102L72.6862 59.9018L71.0499 61.4375L66.0904 60.4179C65.8575 60.3738 65.631 60.3172 65.3981 60.248C65.1652 60.1787 64.9387 60.1158 64.7184 60.0466L64.6617 60.1032L68.3247 63.999L66.4806 65.7298L60.0044 58.8382L61.8736 57.0822L66.3044 58.0074C66.5373 58.0515 66.7638 58.1018 66.9967 58.1647C67.2296 58.2214 67.4561 58.2969 67.6764 58.3787L67.7331 58.3221L64.3659 54.7347L66.21 53.0039V53.0102Z" fill="#FCFCFC"/>
<path d="M73.5738 47.2641L74.713 49.3787C74.5179 49.4039 74.2787 49.4794 74.0018 49.6053C73.7248 49.7312 73.4542 49.8759 73.1899 50.0333C72.9255 50.1906 72.6927 50.3543 72.4976 50.5179C72.1955 50.7696 71.9878 50.9899 71.8808 51.185C71.7738 51.3801 71.7864 51.5564 71.9248 51.72C72.0255 51.8396 72.1703 51.8836 72.3528 51.8522C72.5353 51.8144 72.7556 51.7452 73.0074 51.6319C73.2591 51.5186 73.536 51.3927 73.8381 51.248C74.1402 51.1032 74.4549 50.9836 74.7885 50.8703C75.1158 50.7634 75.4556 50.7067 75.7955 50.7004C76.1353 50.7004 76.4815 50.7696 76.8151 50.9207C77.1549 51.0655 77.4759 51.3298 77.7906 51.7074C78.4074 52.4501 78.6276 53.2682 78.4451 54.1557C78.2626 55.0494 77.671 55.9116 76.664 56.7487C76.2046 57.1263 75.7388 57.4536 75.2668 57.7179C74.7885 57.9822 74.3668 58.1585 73.9955 58.2466L72.5605 56.2263C72.7997 56.1948 73.0703 56.1193 73.385 55.9934C73.6997 55.8738 74.0144 55.7165 74.3416 55.5277C74.6689 55.3389 74.9647 55.1312 75.2353 54.9109C75.5689 54.634 75.7955 54.3948 75.9088 54.1934C76.022 53.992 76.0095 53.8032 75.8584 53.6207C75.7577 53.5011 75.613 53.4508 75.4179 53.4759C75.229 53.5011 75.0088 53.5766 74.757 53.6836C74.5053 53.7969 74.2283 53.9228 73.9262 54.0675C73.6241 54.2123 73.3032 54.3319 72.9696 54.4389C72.636 54.5459 72.3025 54.6025 71.9626 54.6151C71.629 54.6277 71.2892 54.5585 70.9556 54.4074C70.6158 54.2627 70.2948 54.0046 69.9927 53.6333C69.5899 53.155 69.3633 52.6326 69.3067 52.0724C69.25 51.5123 69.357 50.9459 69.6339 50.3794C69.9109 49.8067 70.3514 49.2717 70.9556 48.7683C71.1948 48.5731 71.4654 48.3717 71.7675 48.1641C72.0696 47.9564 72.3843 47.7738 72.699 47.6039C73.0137 47.434 73.3032 47.3207 73.5675 47.2515L73.5738 47.2641Z" fill="#FCFCFC"/>
<path d="M84.7827 50.1842L82.6617 51.7639L78.4386 46.0933L76.4057 47.6038L74.9771 45.6905L81.233 41.0269L82.5043 43.0534L80.5533 44.5073L84.7764 50.1779L84.7827 50.1842Z" fill="#FCFCFC"/>
<path d="M91.0637 38.453C91.3784 38.9313 91.5357 39.4411 91.542 39.9887C91.542 40.5362 91.4036 41.0209 91.1141 41.4551L95.0728 43.1733L92.5238 44.86L89.3392 43.4125L88.7287 43.8153L90.3588 46.2887L88.156 47.7425L82.9448 39.8502L85.8399 37.9369C86.5826 37.446 87.2812 37.1439 87.9294 37.0243C88.5777 36.9111 89.163 36.974 89.698 37.2132C90.2266 37.4523 90.6861 37.8677 91.07 38.453H91.0637ZM88.842 39.9132C88.7036 39.6992 88.5399 39.5544 88.3511 39.4726C88.1623 39.3908 87.9546 39.3782 87.728 39.4285C87.5015 39.4789 87.2497 39.5922 86.9854 39.7621L86.3371 40.1901L87.6022 42.1034L88.2504 41.6754C88.5148 41.4992 88.7162 41.3167 88.8483 41.1278C88.9805 40.939 89.0497 40.7376 89.0497 40.5362C89.0497 40.3348 88.9805 40.1271 88.8357 39.9132H88.842Z" fill="#FCFCFC"/>
<path d="M104.086 37.9618L101.625 39.3716L100.096 37.9555L97.5656 39.4031L98.0188 41.4359L95.6712 42.7828L93.8271 32.9394L96.5209 31.3975L104.086 37.9618ZM98.4971 36.4702L97.3831 35.4191C97.2069 35.2618 97.0495 35.1107 96.9048 34.9597C96.76 34.8086 96.6216 34.6576 96.4831 34.5003L96.4139 34.538C96.4768 34.7331 96.5397 34.9345 96.5964 35.1296C96.653 35.331 96.7097 35.545 96.7537 35.7716L97.081 37.2695L98.4908 36.4639L98.4971 36.4702Z" fill="#FCFCFC"/>
<path d="M108.27 35.8789L105.917 37.0747L102.719 30.7684L100.46 31.9139L99.3774 29.7866L106.332 26.2559L107.245 28.4712L105.073 29.5726L108.27 35.8789Z" fill="#FCFCFC"/>
<path d="M110.537 24.3613L114.458 32.9711L112.053 34.0662L108.132 25.4564L110.537 24.3613Z" fill="#FCFCFC"/>
<path d="M117.214 21.3845C118.114 21.032 118.989 20.9124 119.845 21.0257C120.701 21.1453 121.469 21.4663 122.142 21.9824C122.815 22.5047 123.325 23.2033 123.671 24.0845C124.018 24.953 124.118 25.8089 123.986 26.6586C123.854 27.5019 123.514 28.2635 122.966 28.9369C122.419 29.6103 121.701 30.1201 120.801 30.4789C119.901 30.8313 119.027 30.9509 118.171 30.8313C117.315 30.7117 116.547 30.3907 115.873 29.8684C115.2 29.3397 114.69 28.6474 114.344 27.7789C113.998 26.8977 113.891 26.0418 114.029 25.1984C114.168 24.3551 114.508 23.5998 115.049 22.9264C115.597 22.253 116.314 21.7432 117.214 21.3845ZM119.933 28.2698C120.348 28.1061 120.676 27.8607 120.908 27.5397C121.141 27.2187 121.286 26.8411 121.324 26.4194C121.362 25.9914 121.292 25.5572 121.11 25.0977C120.927 24.632 120.676 24.2607 120.361 23.9838C120.046 23.7068 119.687 23.5243 119.297 23.4551C118.901 23.3858 118.498 23.4299 118.083 23.5935C117.68 23.7509 117.353 23.9963 117.113 24.3173C116.868 24.6446 116.729 25.0159 116.692 25.4376C116.654 25.8593 116.723 26.2998 116.906 26.7656C117.088 27.2187 117.334 27.59 117.655 27.8733C117.976 28.1565 118.328 28.339 118.731 28.4082C119.127 28.4775 119.53 28.4334 119.939 28.2761L119.933 28.2698Z" fill="#FCFCFC"/>
<path d="M132.351 16.3242L135.214 25.3368L133.075 26.0165L129.047 22.9514C128.858 22.813 128.675 22.6619 128.493 22.4983C128.317 22.3409 128.14 22.1773 127.964 22.02L127.889 22.0451L129.506 27.143L127.096 27.9109L124.232 18.8983L126.674 18.1242L130.268 20.8745C130.456 21.013 130.645 21.164 130.828 21.3151C131.01 21.4661 131.186 21.6298 131.35 21.7997L131.426 21.7745L129.94 17.0857L132.351 16.3179V16.3242Z" fill="#FCFCFC"/>
<path d="M360 180.376L347.413 193.077L334.825 180.376H334.819C334.68 139.228 318.587 100.565 289.479 71.4507C260.238 42.2101 221.356 26.1045 180 26.1045L192.701 13.5171L180 0.929688C228.078 0.929688 273.279 19.6535 307.278 53.6521C341.144 87.5185 359.855 132.506 360 180.376Z" fill="#00ADEE"/>
<path d="M255.254 26.9858L251.345 35.5956L248.941 34.5068L250.968 30.0383L250.892 30.0068C250.76 30.2019 250.609 30.3907 250.452 30.5732C250.294 30.7558 250.105 30.9446 249.892 31.1397L248.211 32.6879L245.952 31.6621L246.008 29.3774C246.021 29.1131 246.046 28.8551 246.078 28.6033C246.109 28.3516 246.153 28.1061 246.197 27.8732L246.122 27.8418L244.095 32.3103L241.792 31.2656L245.7 22.6558L248.268 23.8201L248.205 28.3516C248.205 28.6096 248.198 28.8928 248.18 29.2012C248.161 29.5159 248.136 29.7739 248.098 29.9753L248.173 30.0068C248.305 29.8432 248.482 29.6544 248.702 29.4341C248.922 29.2138 249.13 29.0187 249.325 28.8488L252.699 25.8152L255.266 26.9795L255.254 26.9858Z" fill="white"/>
<path d="M260.037 29.5222L255.663 37.9055L253.322 36.6845L257.696 28.3013L260.037 29.5222Z" fill="white"/>
<path d="M264.492 42.3552C264.089 42.3678 263.649 42.2986 263.164 42.135C262.68 41.9776 262.201 41.7636 261.736 41.4867C260.798 40.9454 260.099 40.2909 259.64 39.5294C259.18 38.7678 258.954 37.9622 258.96 37.1126C258.966 36.2629 259.206 35.4384 259.665 34.6391C260.137 33.821 260.748 33.2042 261.484 32.7888C262.22 32.3734 263.02 32.1657 263.875 32.172C264.731 32.172 265.568 32.4175 266.387 32.8895C266.966 33.2231 267.444 33.5818 267.834 33.9657C268.224 34.3496 268.514 34.7587 268.728 35.1993L266.783 36.8357C266.67 36.4832 266.494 36.1685 266.254 35.8727C266.022 35.5832 265.713 35.3252 265.336 35.1112C264.933 34.8783 264.524 34.7461 264.115 34.7273C263.706 34.7021 263.315 34.7965 262.95 34.9979C262.585 35.2056 262.271 35.5329 262.006 35.9923C261.767 36.4077 261.648 36.8231 261.648 37.2447C261.648 37.6664 261.767 38.0692 262 38.4405C262.239 38.8182 262.585 39.1391 263.045 39.4035C263.542 39.693 264.014 39.8881 264.473 39.9888C264.927 40.0958 265.329 40.121 265.675 40.0769L264.492 42.3364V42.3552Z" fill="white"/>
<path d="M275.563 42.8332C275.249 43.3115 274.84 43.6577 274.336 43.8716C273.839 44.0856 273.329 44.1486 272.819 44.0542L272.788 48.3653L270.239 46.6786L270.321 43.1793L269.71 42.7765L268.074 45.2437L265.871 43.7835L271.095 35.9038L273.99 37.8234C274.733 38.3143 275.286 38.8367 275.645 39.3905C276.004 39.9444 276.18 40.5108 276.161 41.0898C276.142 41.6688 275.941 42.2542 275.557 42.8395L275.563 42.8332ZM273.348 41.3605C273.486 41.1465 273.562 40.9388 273.562 40.7374C273.562 40.536 273.499 40.3346 273.361 40.1458C273.228 39.957 273.027 39.7744 272.763 39.5982L272.114 39.1639L270.849 41.0772L271.498 41.5115C271.762 41.6877 272.007 41.801 272.24 41.8514C272.467 41.9017 272.675 41.8828 272.863 41.8073C273.052 41.7255 273.216 41.5807 273.354 41.3667L273.348 41.3605Z" fill="white"/>
<path d="M283.418 44.3121C284.186 44.8974 284.74 45.5897 285.086 46.3827C285.426 47.1757 285.552 48.0002 285.451 48.8435C285.35 49.6869 285.017 50.4862 284.444 51.2415C283.878 51.9841 283.198 52.5191 282.405 52.8401C281.612 53.161 280.787 53.268 279.931 53.1484C279.075 53.0289 278.264 52.6764 277.496 52.0911C276.728 51.5058 276.174 50.8135 275.828 50.0205C275.488 49.2275 275.362 48.403 275.463 47.5533C275.564 46.7037 275.897 45.9044 276.464 45.1617C277.036 44.4128 277.716 43.8715 278.509 43.5568C279.296 43.2359 280.12 43.1352 280.976 43.2547C281.832 43.3743 282.644 43.7268 283.412 44.3121H283.418ZM278.937 50.203C279.289 50.4736 279.667 50.6247 280.07 50.6624C280.466 50.7002 280.857 50.6247 281.241 50.4359C281.624 50.2471 281.964 49.9575 282.26 49.5736C282.562 49.1771 282.751 48.768 282.827 48.3526C282.902 47.9373 282.871 47.5408 282.726 47.1694C282.581 46.7981 282.336 46.4708 281.983 46.2002C281.637 45.9359 281.266 45.7848 280.857 45.747C280.448 45.7093 280.064 45.7785 279.68 45.961C279.302 46.1436 278.956 46.4331 278.654 46.8359C278.358 47.2261 278.169 47.6289 278.094 48.0505C278.018 48.4722 278.05 48.8687 278.194 49.2463C278.339 49.624 278.585 49.945 278.931 50.2093L278.937 50.203Z" fill="white"/>
<path d="M291.865 63.4706C291.468 63.4013 291.053 63.2314 290.612 62.9733C290.172 62.7153 289.75 62.4069 289.353 62.0419C288.554 61.3118 288.013 60.5251 287.723 59.6817C287.434 58.8384 287.383 58.0013 287.572 57.1768C287.761 56.3524 288.164 55.5971 288.787 54.9111C289.423 54.2125 290.146 53.7405 290.958 53.4887C291.77 53.237 292.595 53.2055 293.425 53.3943C294.256 53.5831 295.024 53.9922 295.723 54.6279C296.22 55.081 296.61 55.5342 296.906 55.9873C297.202 56.4405 297.403 56.9062 297.516 57.3845L295.269 58.5678C295.232 58.2027 295.125 57.8503 294.955 57.5167C294.785 57.1831 294.539 56.8685 294.218 56.5727C293.872 56.258 293.501 56.044 293.104 55.937C292.708 55.83 292.311 55.8363 291.909 55.9559C291.506 56.0817 291.128 56.3398 290.769 56.73C290.448 57.0824 290.241 57.4664 290.153 57.8817C290.065 58.2971 290.096 58.7125 290.247 59.1279C290.398 59.5433 290.669 59.9335 291.059 60.2922C291.481 60.6761 291.909 60.9719 292.33 61.1671C292.752 61.3685 293.136 61.4817 293.482 61.5069L291.846 63.4643L291.865 63.4706Z" fill="white"/>
<path d="M303.017 61.752C303.691 62.4443 304.131 63.2122 304.351 64.0492C304.572 64.8863 304.565 65.7171 304.339 66.5352C304.112 67.3597 303.659 68.0961 302.979 68.7506C302.306 69.3989 301.557 69.8205 300.72 70.0219C299.889 70.2233 299.058 70.1982 298.228 69.9464C297.397 69.701 296.648 69.2289 295.981 68.5303C295.314 67.8317 294.867 67.0702 294.646 66.2331C294.426 65.3961 294.432 64.5653 294.665 63.7408C294.892 62.9164 295.345 62.18 296.018 61.5317C296.698 60.8772 297.453 60.4492 298.284 60.2541C299.115 60.059 299.939 60.0842 300.77 60.3296C301.601 60.5751 302.35 61.0471 303.017 61.7457V61.752ZM297.693 66.8877C298.001 67.2087 298.353 67.4164 298.737 67.5171C299.121 67.6178 299.524 67.5989 299.933 67.473C300.342 67.3471 300.72 67.1143 301.072 66.7744C301.431 66.4282 301.683 66.0569 301.821 65.6541C301.96 65.2576 301.985 64.8611 301.903 64.4646C301.821 64.0744 301.626 63.7157 301.318 63.3947C301.016 63.08 300.67 62.8723 300.273 62.7716C299.883 62.6709 299.48 62.6835 299.077 62.8094C298.674 62.9352 298.291 63.1681 297.932 63.5143C297.579 63.8541 297.334 64.2254 297.189 64.6282C297.044 65.031 297.019 65.4275 297.107 65.824C297.195 66.2206 297.391 66.573 297.693 66.8877Z" fill="white"/>
<path d="M306.239 79.8715L304.407 77.7065L305.528 75.9442L303.646 73.7226L301.726 74.5345L299.977 72.4701L309.323 68.8701L311.33 71.2366L306.245 79.8652L306.239 79.8715ZM306.692 74.1065L307.523 72.8226C307.642 72.6212 307.768 72.4386 307.888 72.2687C308.014 72.0988 308.133 71.9352 308.259 71.7715L308.209 71.7086C308.026 71.8093 307.844 71.9037 307.661 71.9981C307.479 72.0925 307.277 72.1806 307.057 72.2687L305.641 72.8603L306.692 74.1002V74.1065Z" fill="white"/>
<path d="M311.808 86.4993C311.437 86.3546 311.053 86.1154 310.669 85.7818C310.285 85.4483 309.933 85.0644 309.606 84.6301C308.957 83.7616 308.567 82.893 308.441 82.0056C308.315 81.1182 308.422 80.2937 308.762 79.5133C309.102 78.7329 309.637 78.0658 310.38 77.5119C311.135 76.9455 311.934 76.6119 312.778 76.5175C313.621 76.4231 314.439 76.5427 315.22 76.8825C316.006 77.2224 316.68 77.7699 317.246 78.5252C317.649 79.0602 317.951 79.5762 318.159 80.0797C318.366 80.5832 318.48 81.0804 318.499 81.565L316.069 82.314C316.101 81.949 316.063 81.5839 315.956 81.2252C315.849 80.8665 315.666 80.514 315.408 80.1616C315.125 79.7902 314.804 79.5133 314.433 79.3308C314.061 79.1483 313.671 79.079 313.256 79.1294C312.84 79.1734 312.419 79.3623 311.997 79.6769C311.613 79.9665 311.343 80.3 311.179 80.6902C311.015 81.0804 310.965 81.4958 311.034 81.9301C311.103 82.3706 311.299 82.7986 311.619 83.2266C311.966 83.686 312.324 84.0511 312.702 84.3217C313.08 84.5986 313.438 84.7811 313.772 84.8692L311.802 86.4867L311.808 86.4993Z" fill="white"/>
<path d="M325.114 90.2691L317.209 95.4614L315.756 93.2523L318.739 91.2949L316.964 88.5949L313.987 90.5523L312.533 88.3432L320.438 83.1509L321.892 85.36L318.965 87.2858L320.74 89.9858L323.667 88.06L325.121 90.2691H325.114Z" fill="white"/>
<path d="M327.845 94.9077L319.701 99.7098L318.361 97.4315L326.505 92.6294L327.845 94.9077Z" fill="white"/>
<path d="M333.195 104.789L324.824 109.188L323.78 107.199L326.089 102.693C326.196 102.479 326.31 102.271 326.436 102.07C326.562 101.862 326.687 101.667 326.813 101.466L326.776 101.396L322.043 103.889L320.866 101.648L329.236 97.2488L330.432 99.5145L328.355 103.536C328.248 103.744 328.141 103.958 328.022 104.166C327.902 104.373 327.776 104.575 327.631 104.763L327.669 104.833L332.024 102.542L333.201 104.782L333.195 104.789Z" fill="white"/>
<path d="M336.996 114.77L334.466 114.953C334.579 114.601 334.617 114.229 334.586 113.826C334.554 113.424 334.447 113.027 334.271 112.631C334.082 112.203 333.824 111.85 333.503 111.58C333.182 111.309 332.817 111.139 332.402 111.076C331.986 111.019 331.527 111.101 331.023 111.322C330.589 111.517 330.243 111.781 329.997 112.127C329.752 112.467 329.607 112.864 329.582 113.304C329.551 113.745 329.645 114.21 329.859 114.695C329.909 114.815 329.966 114.928 330.029 115.035C330.092 115.142 330.149 115.249 330.199 115.343L332.395 114.368L333.56 116.74L329.733 118.44C329.343 118.169 328.959 117.785 328.569 117.275C328.179 116.766 327.845 116.199 327.568 115.57C327.128 114.582 326.945 113.644 327.027 112.763C327.102 111.882 327.398 111.101 327.902 110.422C328.405 109.742 329.085 109.219 329.928 108.842C330.79 108.458 331.646 108.313 332.49 108.414C333.333 108.515 334.107 108.823 334.8 109.339C335.492 109.855 336.039 110.554 336.43 111.435C336.7 112.045 336.889 112.631 336.983 113.191C337.084 113.751 337.084 114.273 336.996 114.752V114.77Z" fill="white"/>
<path d="M360 180.376V180.93C360 229.007 341.276 274.209 307.278 308.207C273.279 342.206 228.078 360.93 180 360.93L167.299 348.342L180 335.755C221.356 335.755 260.238 319.649 289.479 290.409C318.72 261.168 334.825 222.286 334.825 180.93C334.825 180.747 334.825 180.558 334.819 180.376H334.825L347.413 193.077L360 180.376Z" fill="#4460FF"/>
<path d="M167.299 348.342L180 360.93C131.922 360.93 86.721 342.206 52.7224 308.207C18.7238 274.209 0 229.007 0 180.93V180.376L12.5874 167.675L25.1748 180.376H25.1811C25.1748 180.559 25.1748 180.747 25.1748 180.93C25.1748 222.286 41.2804 261.168 70.521 290.409C99.7678 319.649 138.644 335.755 180 335.755L167.299 348.342Z" fill="#00ADEE"/>
<path d="M22.6006 249.626L31.7076 245.415L34.6404 251.765L32.853 252.59L30.9335 248.442L29.0642 249.305L30.8328 253.131L29.039 253.962L27.2705 250.135L25.4013 251.004L27.3209 255.151L25.5335 255.976L22.6006 249.626Z" fill="white"/>
<path d="M36.4147 255.246L31.0021 260.703L31.0399 260.778L38.5734 259.274L39.8573 261.666L29.4161 263.434L27.8867 260.59L35.1182 252.861L36.4021 255.252L36.4147 255.246Z" fill="white"/>
<path d="M32.3184 268.507L30.9526 266.285L41.2743 263.919L42.961 266.669L36.1827 274.801L34.817 272.579L39.9778 266.644L39.9338 266.575L32.3058 268.494L32.3184 268.507ZM35.503 266.147L38.354 270.791L36.7869 271.754L33.9359 267.11L35.503 266.147Z" fill="white"/>
<path d="M37.2017 276.26L45.4338 270.527L46.8184 272.516L40.2038 277.123L42.5891 280.546L40.9716 281.673L37.2017 276.26Z" fill="white"/>
<path d="M53.7478 281.843L55.2394 283.75L50.1415 287.74C49.5498 288.2 48.9331 288.464 48.2785 288.521C47.624 288.577 46.982 288.451 46.3526 288.137C45.7233 287.822 45.1443 287.331 44.6282 286.67C44.1058 285.997 43.7596 285.317 43.6086 284.631C43.4513 283.945 43.4827 283.291 43.703 282.674C43.9233 282.057 44.3261 281.516 44.9114 281.056L50.0093 277.066L51.5072 278.973L46.5792 282.831C46.3086 283.045 46.1072 283.297 45.9876 283.58C45.868 283.87 45.8303 284.165 45.8806 284.474C45.931 284.782 46.0631 285.084 46.2897 285.368C46.51 285.651 46.768 285.858 47.0575 285.978C47.3471 286.098 47.6429 286.135 47.9513 286.091C48.2596 286.047 48.5492 285.915 48.8198 285.701L53.7478 281.843Z" fill="white"/>
<path d="M50.2239 293.291L48.4868 291.346L58.2232 287.193L60.3693 289.603L55.133 298.805L53.3959 296.86L57.4302 290.107L57.3798 290.05L50.2176 293.291H50.2239ZM52.9428 290.402L56.5679 294.468L55.1959 295.695L51.5707 291.63L52.9428 290.402Z" fill="white"/>
<path d="M60.9982 293.235L62.3954 291.844L68.3744 297.854L66.9772 299.245L64.8311 297.086L59.1164 302.776L57.4297 301.083L63.1444 295.4L60.9982 293.241V293.235Z" fill="white"/>
<path d="M71.1876 300.409L64.3778 307.773L62.5967 306.124L69.4065 298.76L71.1876 300.409Z" fill="white"/>
<path d="M76.4055 311.512C75.6943 312.355 74.9327 312.934 74.1083 313.249C73.2901 313.563 72.4782 313.639 71.6663 313.481C70.8544 313.318 70.1055 312.953 69.4195 312.374C68.7272 311.795 68.2362 311.115 67.9467 310.347C67.6572 309.579 67.588 308.761 67.7579 307.905C67.9279 307.049 68.3684 306.2 69.0733 305.356C69.7845 304.513 70.546 303.934 71.3642 303.619C72.1824 303.305 72.9943 303.229 73.8062 303.386C74.6118 303.544 75.3607 303.915 76.053 304.494C76.739 305.073 77.23 305.747 77.5258 306.514C77.8216 307.282 77.8845 308.1 77.7146 308.963C77.5446 309.825 77.1041 310.674 76.3929 311.518L76.4055 311.512ZM74.5048 309.913C74.9265 309.416 75.2097 308.931 75.3607 308.465C75.5118 308 75.5244 307.572 75.4111 307.169C75.2978 306.772 75.0523 306.414 74.6873 306.105C74.3223 305.797 73.932 305.621 73.5167 305.57C73.1013 305.52 72.6796 305.614 72.2516 305.841C71.8174 306.067 71.3957 306.433 70.974 306.93C70.5523 307.427 70.2691 307.912 70.1181 308.377C69.967 308.843 69.9544 309.271 70.0677 309.674C70.181 310.077 70.4265 310.429 70.7915 310.737C71.1628 311.052 71.553 311.228 71.9684 311.272C72.3838 311.316 72.8055 311.228 73.2334 311.002C73.6614 310.775 74.0894 310.41 74.5111 309.913H74.5048Z" fill="white"/>
<path d="M87.69 313.645L81.7424 321.72L80.0872 320.499L80.3074 313.469L80.2571 313.431L76.827 318.095L74.876 316.66L80.8235 308.585L82.5039 309.825L82.2585 316.817L82.3277 316.867L85.7578 312.21L87.7088 313.645H87.69Z" fill="white"/>
<path d="M89.5911 326.994C88.9428 326.591 88.433 326.126 88.0743 325.591C87.7156 325.056 87.5079 324.502 87.4638 323.929C87.4198 323.356 87.5519 322.809 87.8666 322.293L89.9372 323.577C89.8302 323.765 89.7862 323.967 89.8114 324.181C89.8365 324.395 89.9184 324.596 90.0568 324.798C90.1953 324.999 90.3904 325.169 90.6358 325.32C90.8813 325.471 91.1205 325.559 91.3659 325.591C91.6051 325.622 91.8316 325.591 92.0268 325.502C92.2281 325.414 92.3918 325.27 92.5114 325.068C92.6372 324.873 92.6939 324.659 92.6687 324.433C92.6498 324.206 92.5617 323.979 92.3981 323.765C92.2407 323.545 92.0142 323.35 91.7247 323.174L90.8939 322.658L91.8002 321.191L92.6309 321.707C92.8827 321.865 93.1344 321.959 93.3799 321.997C93.6253 322.035 93.8456 322.009 94.047 321.928C94.2484 321.846 94.4121 321.701 94.5316 321.506C94.6512 321.317 94.7142 321.122 94.7079 320.914C94.7079 320.713 94.6449 320.518 94.5316 320.335C94.4184 320.153 94.2484 319.995 94.0344 319.857C93.8079 319.719 93.575 319.63 93.3421 319.593C93.1093 319.561 92.889 319.58 92.6939 319.662C92.4925 319.744 92.3288 319.876 92.203 320.071L90.233 318.85C90.554 318.347 90.9694 317.988 91.4918 317.768C92.0142 317.547 92.5743 317.484 93.1911 317.56C93.8079 317.635 94.4184 317.868 95.0351 318.246C95.6456 318.623 96.1177 319.064 96.4449 319.568C96.7722 320.071 96.9547 320.581 96.9862 321.109C97.0177 321.638 96.8855 322.135 96.6023 322.595C96.3065 323.079 95.9037 323.375 95.4002 323.488C94.8904 323.602 94.368 323.545 93.833 323.312L93.789 323.382C94.3995 323.866 94.7708 324.389 94.8904 324.949C95.01 325.509 94.9093 326.05 94.582 326.572C94.2736 327.07 93.8582 327.416 93.3358 327.617C92.8135 327.819 92.2219 327.869 91.5736 327.768C90.9254 327.668 90.2645 327.409 89.5974 327L89.5911 326.994Z" fill="white"/>
<path d="M98.3456 332.067C97.861 331.802 97.4456 331.475 97.0869 331.079C96.7281 330.682 96.4701 330.216 96.3127 329.688C96.1554 329.159 96.1302 328.561 96.2309 327.894C96.3379 327.227 96.6085 326.497 97.0428 325.691C97.4393 324.968 97.8799 324.363 98.3708 323.879C98.8617 323.394 99.3778 323.042 99.919 322.809C100.467 322.582 101.02 322.481 101.593 322.513C102.166 322.544 102.732 322.714 103.292 323.023C103.909 323.356 104.388 323.772 104.734 324.269C105.074 324.766 105.281 325.288 105.344 325.849C105.407 326.409 105.338 326.944 105.118 327.466L103.022 326.327C103.11 326.012 103.085 325.729 102.953 325.465C102.82 325.2 102.606 324.993 102.311 324.835C101.769 324.546 101.241 324.558 100.725 324.886C100.209 325.213 99.7302 325.761 99.3023 326.541L99.3589 326.572C99.6232 326.371 99.919 326.239 100.246 326.176C100.574 326.113 100.913 326.107 101.266 326.163C101.618 326.22 101.958 326.34 102.285 326.516C102.814 326.805 103.217 327.177 103.488 327.642C103.758 328.108 103.897 328.612 103.897 329.159C103.897 329.707 103.746 330.254 103.45 330.795C103.116 331.412 102.682 331.878 102.141 332.186C101.599 332.501 100.995 332.646 100.341 332.633C99.6862 332.614 99.019 332.426 98.3456 332.061V332.067ZM99.2204 330.424C99.4848 330.563 99.7491 330.632 100.02 330.619C100.29 330.607 100.548 330.531 100.781 330.38C101.014 330.229 101.203 330.021 101.341 329.751C101.492 329.48 101.562 329.209 101.562 328.939C101.562 328.668 101.486 328.41 101.348 328.177C101.209 327.944 101.008 327.756 100.744 327.611C100.548 327.504 100.353 327.447 100.146 327.428C99.9379 327.409 99.7428 327.428 99.5477 327.491C99.3526 327.554 99.1827 327.649 99.019 327.781C98.8554 327.913 98.7232 328.077 98.6099 328.278C98.4715 328.542 98.4023 328.813 98.4023 329.09C98.4023 329.367 98.4715 329.625 98.6099 329.858C98.7484 330.091 98.9435 330.279 99.2078 330.424H99.2204Z" fill="white"/>
<path d="M107.339 336.718C106.546 336.347 105.948 335.837 105.552 335.195C105.155 334.547 104.966 333.798 104.985 332.948C105.004 332.098 105.25 331.167 105.722 330.173C106.187 329.178 106.741 328.404 107.377 327.85C108.012 327.296 108.698 326.975 109.441 326.875C110.184 326.774 110.952 326.912 111.745 327.284C112.538 327.655 113.136 328.159 113.538 328.788C113.941 329.424 114.136 330.16 114.124 331.003C114.111 331.847 113.866 332.766 113.4 333.76C112.934 334.761 112.38 335.541 111.738 336.107C111.096 336.674 110.404 337.007 109.655 337.114C108.906 337.221 108.138 337.089 107.339 336.718ZM108.182 334.918C108.654 335.138 109.152 335.075 109.674 334.729C110.196 334.383 110.687 333.71 111.153 332.703C111.461 332.048 111.644 331.469 111.713 330.984C111.782 330.493 111.745 330.091 111.606 329.77C111.468 329.449 111.241 329.216 110.926 329.065C110.454 328.845 109.963 328.907 109.454 329.247C108.944 329.587 108.453 330.248 107.994 331.23C107.679 331.897 107.484 332.476 107.415 332.973C107.339 333.47 107.377 333.886 107.515 334.213C107.654 334.54 107.88 334.773 108.195 334.924L108.182 334.918Z" fill="white"/>
<path d="M229.595 338.21C229.481 338.027 229.349 337.876 229.204 337.756C229.053 337.637 228.89 337.542 228.707 337.486C228.525 337.423 228.33 337.398 228.122 337.398C227.914 337.398 227.688 337.436 227.461 337.505C226.995 337.643 226.624 337.876 226.353 338.203C226.083 338.531 225.919 338.94 225.862 339.424C225.806 339.909 225.875 340.456 226.057 341.073C226.24 341.69 226.492 342.187 226.8 342.571C227.109 342.955 227.467 343.207 227.876 343.333C228.285 343.459 228.726 343.452 229.211 343.308C229.639 343.182 229.972 342.999 230.23 342.773C230.488 342.546 230.652 342.282 230.727 341.98C230.803 341.677 230.79 341.35 230.683 341.004L231.13 340.928L228.795 341.633L228.285 339.94L232.427 338.694L232.811 339.966C233.069 340.828 233.106 341.615 232.93 342.338C232.748 343.062 232.389 343.679 231.854 344.201C231.319 344.724 230.633 345.108 229.809 345.353C228.89 345.63 228.027 345.674 227.216 345.485C226.404 345.296 225.692 344.894 225.082 344.277C224.471 343.66 224.012 342.842 223.71 341.829C223.471 341.042 223.376 340.305 223.427 339.626C223.477 338.946 223.647 338.329 223.943 337.775C224.232 337.222 224.629 336.756 225.113 336.372C225.598 335.988 226.164 335.698 226.806 335.503C227.36 335.333 227.908 335.258 228.43 335.277C228.959 335.289 229.45 335.39 229.909 335.566C230.369 335.749 230.771 336.001 231.124 336.328C231.476 336.661 231.753 337.058 231.955 337.517L229.607 338.222L229.595 338.21Z" fill="#FCFCFC"/>
<path d="M238.223 331.721L240.489 330.877L242.748 336.938C243.013 337.637 243.069 338.31 242.931 338.952C242.792 339.594 242.478 340.167 241.987 340.677C241.496 341.18 240.854 341.583 240.067 341.879C239.268 342.175 238.519 342.294 237.814 342.238C237.109 342.175 236.499 341.948 235.976 341.552C235.454 341.155 235.058 340.607 234.799 339.909L232.54 333.848L234.812 332.998L237.002 338.864C237.122 339.191 237.304 339.449 237.537 339.651C237.776 339.852 238.047 339.978 238.355 340.022C238.664 340.073 238.991 340.029 239.331 339.903C239.671 339.777 239.941 339.594 240.143 339.355C240.344 339.116 240.47 338.845 240.52 338.537C240.571 338.228 240.533 337.914 240.413 337.587L238.223 331.721Z" fill="#FCFCFC"/>
<path d="M244.272 329.235L248.193 338.468L245.959 339.418L242.038 330.185L244.272 329.235Z" fill="#FCFCFC"/>
<path d="M253.505 336.057L250.163 337.656L245.833 328.606L249.174 327.007C250.093 326.566 250.974 326.365 251.818 326.409C252.655 326.453 253.423 326.724 254.109 327.227C254.795 327.731 255.361 328.448 255.814 329.392C256.267 330.336 256.475 331.23 256.437 332.08C256.4 332.929 256.135 333.697 255.638 334.377C255.141 335.057 254.436 335.617 253.517 336.057H253.505ZM251.453 334.742L252.529 334.226C253.039 333.987 253.423 333.691 253.693 333.351C253.964 333.011 254.096 332.602 254.09 332.124C254.084 331.645 253.926 331.085 253.612 330.431C253.297 329.776 252.963 329.304 252.592 329.002C252.221 328.7 251.824 328.549 251.384 328.549C250.949 328.549 250.471 328.668 249.949 328.914L248.904 329.411L251.446 334.729L251.453 334.742Z" fill="#FCFCFC"/>
<path d="M259.836 332.929L254.983 324.149L261.107 320.77L262.058 322.494L258.055 324.703L259.049 326.503L262.737 324.464L263.694 326.195L260.006 328.234L261 330.04L265.003 327.831L265.953 329.556L259.83 332.936L259.836 332.929Z" fill="#FCFCFC"/>
<path d="M271.014 326.459L267.879 328.435L262.523 319.951L265.658 317.975C266.52 317.428 267.376 317.132 268.213 317.075C269.05 317.019 269.843 317.201 270.579 317.623C271.316 318.044 271.964 318.693 272.524 319.574C273.084 320.455 273.393 321.324 273.456 322.173C273.519 323.023 273.342 323.816 272.927 324.546C272.512 325.276 271.876 325.918 271.014 326.459ZM268.83 325.396L269.837 324.76C270.309 324.458 270.661 324.124 270.894 323.753C271.121 323.382 271.209 322.96 271.146 322.488C271.083 322.016 270.863 321.475 270.479 320.864C270.095 320.254 269.698 319.819 269.302 319.568C268.899 319.31 268.484 319.209 268.049 319.259C267.615 319.31 267.156 319.486 266.671 319.794L265.695 320.411L268.842 325.396H268.83Z" fill="#FCFCFC"/>
<path d="M279.9 311.77C279.66 311.499 279.377 311.367 279.05 311.354C278.723 311.348 278.37 311.486 277.993 311.77C277.741 311.958 277.558 312.147 277.439 312.336C277.319 312.525 277.262 312.707 277.262 312.884C277.262 313.06 277.319 313.223 277.426 313.368C277.508 313.494 277.615 313.582 277.735 313.633C277.854 313.683 277.993 313.708 278.15 313.695C278.307 313.689 278.477 313.658 278.66 313.595C278.842 313.538 279.044 313.463 279.258 313.362L280.063 313.003C280.523 312.789 280.963 312.644 281.372 312.563C281.788 312.481 282.172 312.456 282.524 312.5C282.876 312.544 283.21 312.657 283.512 312.833C283.814 313.009 284.085 313.261 284.33 313.582C284.708 314.092 284.903 314.621 284.922 315.174C284.941 315.728 284.783 316.276 284.456 316.823C284.129 317.371 283.625 317.9 282.958 318.397C282.285 318.9 281.624 319.24 280.976 319.41C280.328 319.58 279.711 319.567 279.125 319.366C278.54 319.165 278.011 318.749 277.533 318.133L279.39 316.742C279.597 316.987 279.83 317.151 280.082 317.233C280.334 317.314 280.604 317.314 280.881 317.245C281.158 317.176 281.448 317.031 281.731 316.817C281.995 316.622 282.19 316.421 282.323 316.213C282.455 316.005 282.524 315.798 282.53 315.602C282.53 315.401 282.48 315.219 282.36 315.055C282.247 314.904 282.102 314.809 281.926 314.772C281.756 314.734 281.542 314.74 281.29 314.803C281.039 314.866 280.743 314.973 280.403 315.124L279.415 315.558C278.603 315.917 277.86 316.068 277.193 316.012C276.526 315.955 275.966 315.621 275.513 315.011C275.142 314.514 274.946 313.979 274.934 313.406C274.921 312.833 275.079 312.26 275.4 311.694C275.721 311.128 276.18 310.618 276.79 310.165C277.414 309.699 278.03 309.397 278.647 309.265C279.264 309.133 279.843 309.158 280.378 309.347C280.913 309.535 281.372 309.875 281.75 310.372L279.893 311.763L279.9 311.77Z" fill="#FCFCFC"/>
<path d="M287.553 314.728L281.108 307.043L286.471 302.55L287.736 304.06L284.23 306.999L285.552 308.573L288.78 305.866L290.045 307.377L286.817 310.083L288.138 311.663L291.638 308.724L292.903 310.234L287.541 314.728H287.553Z" fill="#FCFCFC"/>
<path d="M294.54 308.793L287.711 301.442L289.486 299.793L294.974 305.696L298.033 302.858L299.373 304.299L294.54 308.793Z" fill="#FCFCFC"/>
<path d="M300.732 302.965L293.544 295.966L298.321 291.063L299.731 292.436L296.647 295.608L298.12 297.042L300.902 294.185L302.318 295.563L299.536 298.421L302.425 301.234L300.732 302.971V302.965Z" fill="#FCFCFC"/>
<path d="M305.503 289.156L306.881 290.377L303.797 293.851L302.419 292.63L305.503 289.156Z" fill="#FCFCFC"/>
<path d="M311.476 291.34L303.659 285.047L306.258 281.818C306.73 281.233 307.253 280.817 307.819 280.578C308.392 280.333 308.971 280.264 309.563 280.358C310.154 280.452 310.721 280.717 311.256 281.151C311.797 281.585 312.175 282.082 312.382 282.643C312.596 283.203 312.64 283.788 312.508 284.405C312.376 285.015 312.074 285.626 311.596 286.224L309.991 288.212L308.505 287.017L309.827 285.374C310.054 285.091 310.198 284.814 310.255 284.537C310.312 284.266 310.286 284.008 310.186 283.763C310.085 283.517 309.915 283.303 309.676 283.108C309.437 282.913 309.185 282.794 308.927 282.75C308.669 282.705 308.417 282.743 308.165 282.857C307.914 282.97 307.675 283.171 307.448 283.454L306.699 284.386L312.993 289.452L311.47 291.34H311.476Z" fill="#FCFCFC"/>
<path d="M317.493 283.769L309.336 277.928L311.747 274.561C312.181 273.951 312.672 273.498 313.207 273.214C313.742 272.925 314.302 272.805 314.881 272.856C315.46 272.906 316.033 273.133 316.587 273.529C317.153 273.932 317.543 274.404 317.764 274.933C317.984 275.461 318.028 276.028 317.908 276.632C317.789 277.236 317.506 277.847 317.065 278.463L315.542 280.591L313.987 279.477L315.253 277.714C315.466 277.419 315.605 277.142 315.668 276.884C315.731 276.626 315.725 276.393 315.636 276.172C315.548 275.952 315.378 275.757 315.127 275.575C314.875 275.392 314.629 275.298 314.39 275.279C314.151 275.266 313.918 275.329 313.685 275.468C313.459 275.612 313.239 275.826 313.025 276.122L312.326 277.091L318.897 281.793L317.487 283.763L317.493 283.769ZM317.053 276.512L322.232 277.148L320.69 279.3L315.536 278.621L317.046 276.512H317.053Z" fill="#FCFCFC"/>
<path d="M324.34 273.894L322.956 276.104L316.253 267.909L317.965 265.171L328.261 267.626L326.877 269.835L319.268 267.846L319.224 267.915L324.334 273.894H324.34ZM320.81 272.088L323.698 267.475L325.259 268.45L322.37 273.064L320.81 272.088Z" fill="#FCFCFC"/>
<path d="M327.644 255.41L326.48 257.562C326.241 257.474 326.014 257.424 325.788 257.417C325.561 257.411 325.347 257.442 325.14 257.524C324.932 257.606 324.743 257.726 324.567 257.883C324.391 258.047 324.24 258.248 324.107 258.487C323.875 258.915 323.78 259.343 323.824 259.765C323.868 260.187 324.038 260.589 324.347 260.967C324.655 261.345 325.089 261.691 325.649 261.993C326.235 262.307 326.77 262.49 327.254 262.54C327.739 262.584 328.167 262.509 328.532 262.314C328.897 262.119 329.193 261.81 329.419 261.389C329.545 261.156 329.633 260.923 329.677 260.696C329.721 260.47 329.728 260.249 329.69 260.042C329.652 259.828 329.577 259.633 329.463 259.444C329.35 259.255 329.193 259.085 329.004 258.934L330.181 256.788C330.552 257.033 330.873 257.361 331.15 257.751C331.427 258.141 331.635 258.588 331.767 259.085C331.899 259.582 331.93 260.111 331.861 260.684C331.792 261.25 331.591 261.842 331.263 262.446C330.829 263.245 330.269 263.862 329.577 264.303C328.884 264.743 328.098 264.963 327.229 264.963C326.354 264.963 325.435 264.699 324.472 264.177C323.503 263.648 322.779 263.019 322.307 262.282C321.835 261.546 321.59 260.766 321.584 259.947C321.577 259.129 321.785 258.324 322.207 257.537C322.496 257.002 322.836 256.549 323.233 256.177C323.629 255.806 324.057 255.523 324.529 255.328C325.001 255.139 325.498 255.045 326.027 255.051C326.556 255.057 327.097 255.177 327.651 255.416L327.644 255.41Z" fill="#FCFCFC"/>
<path d="M326.738 253.477L324.95 252.647L328.519 244.956L330.306 245.787L329.029 248.543L336.342 251.936L335.335 254.107L328.022 250.715L326.738 253.477Z" fill="#FCFCFC"/>
<path d="M329.935 241.431L339.206 245.264L338.28 247.505L329.01 243.672L329.935 241.431Z" fill="#FCFCFC"/>
<path d="M337.122 232.551L336.291 234.854C336.046 234.797 335.807 234.785 335.58 234.81C335.353 234.835 335.146 234.904 334.957 235.011C334.768 235.118 334.592 235.27 334.447 235.452C334.296 235.641 334.177 235.861 334.082 236.119C333.919 236.579 333.887 237.013 333.994 237.422C334.101 237.831 334.334 238.202 334.693 238.536C335.051 238.87 335.536 239.14 336.134 239.354C336.763 239.581 337.317 239.681 337.802 239.65C338.286 239.625 338.695 239.486 339.029 239.235C339.363 238.983 339.608 238.637 339.772 238.184C339.86 237.932 339.91 237.693 339.923 237.46C339.935 237.227 339.904 237.013 339.835 236.811C339.765 236.61 339.665 236.421 339.52 236.258C339.375 236.094 339.199 235.943 338.985 235.823L339.828 233.526C340.231 233.715 340.602 233.986 340.936 234.332C341.27 234.678 341.54 235.087 341.748 235.559C341.956 236.031 342.069 236.553 342.081 237.126C342.094 237.699 341.987 238.309 341.754 238.958C341.446 239.814 340.98 240.506 340.363 241.047C339.746 241.588 339.004 241.922 338.142 242.048C337.279 242.174 336.329 242.054 335.297 241.683C334.258 241.305 333.453 240.795 332.874 240.135C332.295 239.474 331.942 238.744 331.81 237.932C331.678 237.12 331.766 236.295 332.068 235.458C332.276 234.886 332.546 234.388 332.88 233.96C333.214 233.532 333.598 233.186 334.032 232.928C334.466 232.67 334.944 232.5 335.467 232.431C335.989 232.362 336.543 232.4 337.128 232.544L337.122 232.551Z" fill="#FCFCFC"/>
<path d="M343.756 232.733L334.133 229.901L336.109 223.192L337.998 223.746L336.707 228.133L338.684 228.712L339.873 224.671L341.768 225.231L340.578 229.272L342.554 229.851L343.844 225.464L345.733 226.018L343.756 232.727V232.733Z" fill="#FCFCFC"/>
</g>
<defs>
<clipPath id="clip0_4705_60220">
<rect width="300.169" height="300.176" fill="white" transform="translate(30.4751 30.6143)"/>
</clipPath>
<clipPath id="clip1_4705_60220">
<rect width="360" height="360" fill="white" transform="translate(0 0.929688)"/>
</clipPath>
</defs>
</svg>
