<svg width="342" height="50" viewBox="0 0 342 50" fill="none" xmlns="http://www.w3.org/2000/svg">
<path d="M76.8289 0.20166H76.2363V49.2614H76.8289V0.20166Z" fill="#0071BB"/>
<path d="M91.332 12.2188C91.332 7.87173 94.1468 4.49463 98.9466 4.49463C101.127 4.49463 103.492 5.39953 105.038 7.17384L102.544 9.28527C101.738 8.50457 100.558 7.80668 98.9466 7.80668C96.8134 7.80668 95.0356 9.43313 95.0356 12.2188C95.0356 14.6437 96.5348 16.6309 99.0948 16.6309C100.025 16.6309 100.831 16.4417 101.696 15.9744V14.2001H98.7748V11.2843H105.08V18.0149C103.705 19.0676 101.424 19.8543 99.0948 19.8543C94.7571 19.8543 91.332 17.0863 91.332 12.2129V12.2188Z" fill="#37278E"/>
<path d="M108.613 4.70752H112.228V19.6945H108.613V4.70752Z" fill="#37278E"/>
<path d="M120.386 4.70784H123.77L129.269 19.6949H125.589L124.7 16.992H119.456L118.567 19.6949H114.863L120.386 4.70784ZM122.353 2.36575C122.353 2.11143 122.164 1.96357 121.743 1.96357C121.299 1.96357 120.706 2.13509 120.285 2.36575L119.693 0.993614C120.262 0.508636 121.471 0 122.78 0C124.179 0 125.02 0.56778 125.02 1.6442C125.02 2.53135 124.173 3.22925 123.118 3.62551H121.192C121.785 3.24699 122.353 2.80341 122.353 2.35983V2.36575ZM123.77 14.0348L122.099 8.96619H122.057L120.41 14.0348H123.77Z" fill="#37278E"/>
<path d="M131.91 4.70752H135.525V19.6945H131.91V4.70752Z" fill="#37278E"/>
<path d="M145.57 4.70752H151.283C154.986 4.70752 156.634 6.88401 156.634 9.87668C156.634 13.2124 154.412 14.8566 151.01 14.8566H149.025V19.6886H145.576V4.70752H145.57ZM150.601 11.7811C152.166 11.7811 152.972 11.0418 152.972 9.79979C152.972 8.65832 152.255 7.81256 150.666 7.81256H149.019V11.7811H150.607H150.601Z" fill="#37278E"/>
<path d="M159.566 4.70752H163.14V10.9117H168.425V4.70752H171.981V19.6945H168.425V14.0404H163.14V19.6945H159.566V4.70752Z" fill="#37278E"/>
<path d="M180.035 4.70792H183.418L188.917 19.6949H185.237L184.348 16.9921H179.104L178.215 19.6949H174.512L180.035 4.70792ZM183.418 14.0349L181.747 8.96626H181.706L180.058 14.0349H183.424H183.418ZM182.553 0.674316H185.919L183.252 3.6315H180.272L182.553 0.674316Z" fill="#37278E"/>
<path d="M191.477 4.70752H197.189C200.893 4.70752 202.54 6.88401 202.54 9.87668C202.54 13.2124 200.318 14.8566 196.916 14.8566H194.925V19.6886H191.477V4.70752ZM196.508 11.7811C198.072 11.7811 198.878 11.0418 198.878 9.79979C198.878 8.65832 198.161 7.81256 196.573 7.81256H194.925V11.7811H196.513H196.508Z" fill="#37278E"/>
<path d="M224.657 12.2188C224.657 16.6309 221.783 19.6886 216.918 19.6886H211.65V13.8216H210.637V10.8644H211.65V4.70752H216.853C221.611 4.70752 224.657 7.78891 224.657 12.2247V12.2188ZM220.953 12.2188C220.953 9.70516 219.241 7.84805 216.936 7.84805H215.093V10.8644H217.949V13.8216H215.093V16.5422H216.681C219.259 16.5422 220.953 14.6437 220.953 12.2129V12.2188Z" fill="#37278E"/>
<path d="M231.31 4.70792H234.694L240.193 19.6949H236.513L235.624 16.9921H230.38L229.491 19.6949H225.787L231.31 4.70792ZM229.028 0.674316H232.412L234.694 3.6315H231.689L229.023 0.674316H229.028ZM234.694 14.0349L233.022 8.96626H232.981L231.334 14.0349H234.694Z" fill="#37278E"/>
<path d="M241.354 12.2011C241.354 7.68247 244.524 4.49463 249.093 4.49463C253.661 4.49463 256.814 7.59967 256.814 12.2011C256.814 16.8024 253.578 19.8838 249.093 19.8838C244.607 19.8838 241.354 16.7196 241.354 12.2011ZM253.11 12.2011C253.11 9.7111 251.415 7.78893 249.093 7.78893C246.77 7.78893 245.051 9.7525 245.051 12.2011C245.051 14.6496 246.722 16.6132 249.093 16.6132C251.463 16.6132 253.11 14.691 253.11 12.2011Z" fill="#37278E"/>
<path d="M269.265 7.85396H265.354V4.70752H276.796V7.85396H272.861V19.6945H269.265V7.85396Z" fill="#37278E"/>
<path d="M282.439 4.70752H285.822L291.322 19.6945H287.642L286.753 16.9917H281.508L280.62 19.6945H276.916L282.439 4.70752ZM286.119 22.8173C286.119 23.8287 285.295 24.6744 284.151 24.6744C283.008 24.6744 282.16 23.8523 282.16 22.8173C282.16 21.7823 283.008 20.9188 284.151 20.9188C285.295 20.9188 286.119 21.7409 286.119 22.8173ZM285.822 14.0345L284.151 8.96587H284.11L282.463 14.0345H285.822Z" fill="#37278E"/>
<path d="M292.482 12.2011C292.482 7.68247 295.653 4.49463 300.221 4.49463C304.79 4.49463 307.943 7.59967 307.943 12.2011C307.943 16.8024 304.707 19.8838 300.221 19.8838C295.736 19.8838 292.482 16.7196 292.482 12.2011ZM304.239 12.2011C304.239 9.7111 302.544 7.78893 300.221 7.78893C297.899 7.78893 296.18 9.7525 296.18 12.2011C296.18 14.6496 297.851 16.6132 300.221 16.6132C302.592 16.6132 304.239 14.691 304.239 12.2011Z" fill="#37278E"/>
<path d="M91.332 37.544C91.332 33.2561 94.1231 29.8198 99.0711 29.8198C101.187 29.8198 103.468 30.707 105.121 32.712L102.544 34.9298C101.738 33.9776 100.535 33.1969 99.077 33.1969C96.8963 33.1969 95.0593 34.7997 95.0593 37.544C95.0593 39.9511 96.6474 41.8319 99.1007 41.8319C100.499 41.8319 101.702 41.1754 102.567 40.1404L105.145 42.3583C103.853 43.9433 101.761 45.209 99.0948 45.209C94.7808 45.209 91.332 42.5298 91.332 37.5499V37.544Z" fill="#00ADEE"/>
<path d="M124.469 28.6846V30.2874C124.469 32.9666 122.822 34.1494 120.303 34.108V38.7745C120.303 42.678 118.063 45.2152 114.064 45.2152C110.36 45.2152 107.865 42.9382 107.865 38.7745V30.033H111.421V38.5616C111.421 40.4009 112.31 41.9209 114.064 41.9209C115.628 41.9209 116.772 40.6966 116.772 38.5616V30.033H120.303V32.6058C121.53 32.4165 121.637 31.6122 121.637 30.3465V28.6786H124.469V28.6846ZM112.292 27.6909L111.699 26.3188C112.268 25.8338 113.477 25.3252 114.787 25.3252C116.185 25.3252 117.026 25.893 117.026 26.9694C117.026 27.8565 116.179 28.5544 115.124 28.9507H113.198C113.791 28.5722 114.36 28.1286 114.36 27.685C114.36 27.4307 114.17 27.2829 113.744 27.2829C113.299 27.2829 112.707 27.4544 112.286 27.685L112.292 27.6909Z" fill="#00ADEE"/>
<path d="M132.711 30.0333H136.118L142.103 39.2774L142.145 39.2538V30.0273H145.635V45.0144H142.127L136.249 36.0245H136.207V45.0144H132.717V30.0273L132.711 30.0333Z" fill="#00ADEE"/>
<path d="M149.398 30.0332H152.972V36.2374H158.257V30.0332H161.813V45.0202H158.257V39.3661H152.972V45.0202H149.398V30.0332Z" fill="#00ADEE"/>
<path d="M169.865 30.0336H173.248L178.747 45.0206H175.067L174.179 42.3178H168.934L168.045 45.0206H164.342L169.865 30.0336ZM169.734 26H173.29L175.364 28.9572H172.49L171.536 27.5851H171.494L170.54 28.9572H167.725L169.734 26ZM173.248 39.3606L171.577 34.2919H171.536L169.888 39.3606H173.254H173.248Z" fill="#00ADEE"/>
<path d="M181.303 30.0333H184.71L190.695 39.2774L190.737 39.2538V30.0273H194.227V45.0144H190.719L184.84 36.0245H184.799V45.0144H181.309V30.0273L181.303 30.0333Z" fill="#00ADEE"/>
<path d="M207.204 33.1796H203.293V30.0332H214.736V33.1796H210.801V45.0202H207.204V33.1796Z" fill="#00ADEE"/>
<path d="M217.609 30.0333H223.47C227.191 30.0333 228.845 32.2097 228.845 35.2024C228.845 37.3789 227.873 38.9403 226.012 39.6973L229.585 45.0144H225.437L222.35 40.1823H221.058V45.0144H217.609V30.0273V30.0333ZM222.83 37.1009C224.353 37.1009 225.177 36.3616 225.177 35.1196C225.177 33.9781 224.477 33.1383 222.895 33.1383H221.052V37.1068H222.83V37.1009Z" fill="#00ADEE"/>
<path d="M248.442 28.6846V30.2874C248.442 32.9666 246.795 34.1495 244.276 34.1081V38.7745C244.276 42.678 242.036 45.2153 238.036 45.2153C234.333 45.2153 231.838 42.9383 231.838 38.7745V30.0331H235.393V38.5616C235.393 40.401 236.282 41.921 238.036 41.921C239.601 41.921 240.744 40.6967 240.744 38.5616V30.0331H244.276V32.6059C245.503 32.4166 245.609 31.6122 245.609 30.3466V28.6787H248.442V28.6846ZM240.004 48.1429C240.004 49.1543 239.18 50 238.036 50C236.893 50 236.045 49.1779 236.045 48.1429C236.045 47.1079 236.893 46.2444 238.036 46.2444C239.18 46.2444 240.004 47.0665 240.004 48.1429Z" fill="#00ADEE"/>
<path d="M248.633 37.544C248.633 33.2561 251.424 29.8198 256.372 29.8198C258.487 29.8198 260.769 30.707 262.422 32.712L259.844 34.9298C259.038 33.9776 257.836 33.1969 256.378 33.1969C254.197 33.1969 252.36 34.7997 252.36 37.544C252.36 39.9511 253.948 41.8319 256.401 41.8319C257.8 41.8319 259.003 41.1754 259.868 40.1404L262.446 42.3583C261.154 43.9433 259.062 45.209 256.396 45.209C252.082 45.209 248.633 42.5298 248.633 37.5499V37.544Z" fill="#00ADEE"/>
<path d="M274.55 33.1796H270.639V30.0332H282.081V33.1796H278.147V45.0202H274.55V33.1796Z" fill="#00ADEE"/>
<path d="M284.785 38.7688V30.0273H288.341V38.5559C288.341 40.3952 289.229 41.9152 290.983 41.9152C292.548 41.9152 293.692 40.691 293.692 38.5559V30.0273H297.223V38.7688C297.223 42.6723 294.983 45.2095 290.983 45.2095C287.28 45.2095 284.785 42.9325 284.785 38.7688Z" fill="#00ADEE"/>
<path d="M304.369 38.4967L299.486 30.0332H303.528L306.171 35.0131H306.212L308.813 30.0332H312.896L307.966 38.4967V45.0202H304.369V38.4967Z" fill="#00ADEE"/>
<path d="M315.318 30.0336H325.108V33.18H318.761V36.0485H323.774V39.0885H318.761V41.8741H325.552V45.0206H315.318V30.0336ZM318.471 26.0236H322.026L324.1 28.9808H321.226L320.272 27.6087H320.231L319.277 28.9808H316.462L318.471 26.0236ZM325.428 24.6101L328.598 24.5864L326.121 27.6915H323.709L325.422 24.6101H325.428Z" fill="#00ADEE"/>
<path d="M328.746 30.0333H332.153L338.138 39.2774L338.18 39.2538V30.0273H341.67V45.0144H338.162L332.284 36.0245H332.242V45.0144H328.752V30.0273L328.746 30.0333Z" fill="#00ADEE"/>
<path d="M0 40.7866V40.7626C0 39.419 0.461853 38.2914 1.40955 37.3617C2.35125 36.42 3.53288 35.9521 4.95442 35.9521C6.37597 35.9521 7.5576 36.42 8.4993 37.3497C9.417 38.2674 9.88486 39.3951 9.88486 40.7386V40.7686C9.88486 42.1122 9.417 43.2398 8.4873 44.1695C7.5336 45.1112 6.35198 45.5791 4.93043 45.5791C3.50888 45.5791 2.33926 45.1112 1.39756 44.1815C0.467851 43.2638 0.00599809 42.1362 0.00599809 40.7926M7.74354 40.7866V40.7626C7.74354 39.9529 7.47962 39.2631 6.95779 38.7053C6.41196 38.1355 5.73418 37.8415 4.92443 37.8415C4.11469 37.8415 3.43691 38.1175 2.92107 38.6933C2.39924 39.2391 2.13532 39.9289 2.13532 40.7386V40.7686C2.13532 41.5784 2.39924 42.2681 2.93307 42.826C3.4669 43.3958 4.14468 43.6897 4.95442 43.6897C5.76417 43.6897 6.44195 43.4138 6.97578 42.838C7.49162 42.2921 7.74354 41.6024 7.74354 40.7926" fill="#00ADEE"/>
<path d="M11.4863 38.2918H13.5077V39.2994C14.1075 38.5437 14.7973 38.1538 15.595 38.1538C16.3928 38.1538 16.9506 38.3937 17.3765 38.8616C17.8023 39.3234 18.0123 39.9772 18.0123 40.799V45.4115H17.0466C16.4647 45.4115 15.9909 44.9376 15.9909 44.3558V41.4408C15.9909 40.4691 15.577 39.9892 14.7673 39.9892C13.9575 39.9892 13.5077 40.4691 13.5077 41.4408V45.4115H11.4863V38.2918Z" fill="#00ADEE"/>
<path d="M20.0632 43.1384C20.849 43.7082 21.5927 43.9901 22.3125 43.9901C22.8823 43.9901 23.1582 43.8162 23.1582 43.4563V43.4323C23.1582 43.2343 23.0143 43.0724 22.7204 42.9404C22.6124 42.8984 22.2705 42.7785 21.6827 42.6105C20.2612 42.1967 19.5534 41.4829 19.5534 40.4692V40.4452C19.5534 39.7434 19.8053 39.1796 20.3271 38.7718C20.807 38.3879 21.4188 38.1899 22.1566 38.1899C23.1162 38.1899 24.004 38.4719 24.8137 39.0117L24.046 40.4092C23.2902 39.9714 22.6484 39.7434 22.1146 39.7434C21.6227 39.7434 21.3708 39.9054 21.3708 40.2353V40.2653C21.3708 40.4392 21.5148 40.5952 21.8087 40.7451C21.9286 40.7991 22.2585 40.9191 22.8163 41.117C23.4641 41.3449 23.956 41.5669 24.2619 41.8068C24.7297 42.1787 24.9697 42.6585 24.9697 43.2283V43.2523C24.9697 44.0081 24.7057 44.5959 24.1839 44.9918C23.7041 45.3637 23.0563 45.5496 22.2465 45.5496C21.1189 45.5496 20.1052 45.1897 19.1875 44.4699L20.0512 43.1444L20.0632 43.1384Z" fill="#37278E"/>
<path d="M26.0801 41.89V41.866C26.0801 40.8403 26.422 39.9646 27.1297 39.2508C27.8495 38.5191 28.7372 38.1592 29.8169 38.1592C30.9985 38.1592 31.9582 38.5551 32.66 39.3528L31.4244 40.6784C30.9325 40.1625 30.3867 39.8926 29.8049 39.8926C29.313 39.8926 28.8992 40.0786 28.5693 40.4624C28.2394 40.8463 28.0774 41.2962 28.0774 41.83V41.86C28.0774 42.4178 28.2394 42.8857 28.5693 43.2576C28.8992 43.6414 29.337 43.8274 29.8829 43.8274C30.4287 43.8274 30.9865 43.5755 31.5144 43.0716L32.696 44.2652C31.9102 45.129 30.9445 45.5668 29.7869 45.5668C28.7252 45.5668 27.8315 45.2069 27.1297 44.4932C26.428 43.7914 26.0801 42.9097 26.0801 41.89Z" fill="#37278E"/>
<path d="M34.0098 35.7119H36.0311V39.2988C36.6309 38.543 37.3207 38.1531 38.1185 38.1531C38.9162 38.1531 39.474 38.3931 39.8999 38.8609C40.3258 39.3228 40.5357 39.9766 40.5357 40.7983V45.4108H39.57C38.9882 45.4108 38.5143 44.937 38.5143 44.3552V41.4401C38.5143 40.4684 38.1005 39.9886 37.2907 39.9886C36.481 39.9886 36.0311 40.4684 36.0311 41.4401V45.4108H34.0098V35.7119Z" fill="#37278E"/>
<path d="M41.9318 41.89V41.866C41.9318 40.8283 42.3037 39.9526 43.0354 39.2508C43.7792 38.5191 44.6969 38.1592 45.7945 38.1592C46.8922 38.1592 47.8159 38.5191 48.5417 39.2388C49.2734 39.9406 49.6333 40.8223 49.6333 41.842V41.872C49.6333 42.9097 49.2614 43.7854 48.5297 44.4872C47.7859 45.2189 46.8682 45.5788 45.7646 45.5788C44.6609 45.5788 43.7432 45.2189 43.0174 44.5052C42.2857 43.8034 41.9258 42.9217 41.9258 41.902M47.648 41.89V41.866C47.648 41.3202 47.48 40.8703 47.1321 40.4864C46.7722 40.1026 46.3224 39.9046 45.7766 39.9046C45.2307 39.9046 44.7629 40.0906 44.421 40.4744C44.0911 40.8343 43.9291 41.2962 43.9291 41.842V41.872C43.9291 42.4178 44.1031 42.8677 44.451 43.2516C44.8109 43.6354 45.2607 43.8394 45.8065 43.8394C46.3524 43.8394 46.8142 43.6534 47.1621 43.2696C47.492 42.9097 47.654 42.4478 47.654 41.902" fill="#37278E"/>
<path d="M50.75 41.89V41.866C50.75 40.8283 51.1219 39.9526 51.8536 39.2508C52.5974 38.5191 53.5151 38.1592 54.6188 38.1592C55.7224 38.1592 56.6341 38.5191 57.3719 39.2388C58.1037 39.9406 58.4575 40.8223 58.4575 41.842V41.872C58.4575 42.9097 58.0857 43.7854 57.3539 44.4872C56.6101 45.2189 55.6924 45.5788 54.5888 45.5788C53.4851 45.5788 52.5674 45.2189 51.8417 44.5052C51.1099 43.8034 50.756 42.9217 50.756 41.902M56.4662 41.89V41.866C56.4662 41.3202 56.2922 40.8703 55.9443 40.4864C55.5845 40.1026 55.1346 39.9046 54.5888 39.9046C54.043 39.9046 53.5811 40.0906 53.2332 40.4744C52.9033 40.8343 52.7414 41.2962 52.7414 41.842V41.872C52.7414 42.4178 52.9153 42.8677 53.2572 43.2516C53.6171 43.6354 54.0669 43.8394 54.6128 43.8394C55.1586 43.8394 55.6264 43.6534 55.9683 43.2696C56.3042 42.9097 56.4602 42.4478 56.4602 41.902" fill="#37278E"/>
<path d="M60.0059 35.7119H62.0272V45.4108H61.0555C60.4797 45.4108 60.0059 44.943 60.0059 44.3612V35.7119Z" fill="#37278E"/>
<path d="M51.4157 16.9565L46.2273 20.3334C39.7914 15.307 32.8936 10.9584 25.5879 7.31153L30.9022 4.55241L31.61 4.18652C38.0939 7.52146 44.242 11.4262 49.9881 15.8348C50.468 16.2067 50.9478 16.5786 51.4217 16.9565H51.4157Z" fill="#00ADEE"/>
<path d="M43.7499 21.9466L42.9461 22.4684L41.2187 23.5961L40.5529 24.0279L39.4912 24.7237L38.6635 25.2635L38.6215 25.2875L38.5495 25.3355C38.5495 25.3355 38.5076 25.3055 38.4836 25.2875C38.2316 25.0956 37.9797 24.9096 37.7278 24.7237C37.218 24.3398 36.7021 23.9679 36.1863 23.5961C35.7964 23.3142 35.4065 23.0382 35.0167 22.7683C34.8787 22.6664 34.7408 22.5704 34.5968 22.4744C34.3209 22.2885 34.051 22.0965 33.7691 21.9106C33.4932 21.7187 33.2172 21.5327 32.9413 21.3468C32.3775 20.9629 31.8077 20.585 31.2319 20.2191C30.6441 19.8413 30.0562 19.4634 29.4624 19.0975C28.8506 18.7196 28.2388 18.3417 27.621 17.9699C26.9672 17.574 26.3074 17.1901 25.6416 16.8122C23.2724 15.4507 20.8552 14.1671 18.39 12.9674C17.7602 12.6555 17.1184 12.3496 16.4766 12.0497L17.4782 11.5279L17.5802 11.4739L17.8501 11.336L18.396 11.0541L22.1208 9.12267L22.5406 8.90674C24.8979 10.0404 27.2131 11.246 29.4804 12.5236C31.8797 13.8732 34.2309 15.3007 36.5222 16.8122C37.098 17.1901 37.6738 17.574 38.2496 17.9699C38.6755 18.2578 39.0954 18.5457 39.5152 18.8456C39.5332 18.8516 39.5452 18.8636 39.5632 18.8756C39.6652 18.9475 39.7732 19.0195 39.8751 19.0975C40.1031 19.2594 40.331 19.4154 40.5589 19.5893C40.8528 19.7993 41.1527 20.0092 41.4466 20.2251C41.9565 20.597 42.4603 20.9689 42.9641 21.3528C43.2101 21.5387 43.462 21.7247 43.7079 21.9166C43.7259 21.9286 43.7439 21.9466 43.7619 21.9586L43.7499 21.9466Z" fill="#0071BB"/>
<path d="M36.0549 26.9607L30.8426 30.3496C29.9069 29.6659 28.9592 28.9941 27.9995 28.3403H18.2886V22.3062C14.8397 20.3748 11.2888 18.6114 7.64197 17.0099L7.24609 16.8359L13.1962 13.7529L13.3522 13.6689C21.4196 17.2798 29.0252 21.7484 36.0549 26.9607Z" fill="#37278E"/>
</svg>
