<svg width="382" height="60" viewBox="0 0 382 60" fill="none" xmlns="http://www.w3.org/2000/svg">
<g clip-path="url(#clip0_3523_57078)">
<path d="M0 49.0547V49.0262C0 47.4342 0.547264 46.098 1.67022 44.9964C2.78607 43.8805 4.18621 43.3262 5.87065 43.3262C7.55508 43.3262 8.95522 43.8805 10.0711 44.9822C11.1585 46.0696 11.7129 47.4058 11.7129 48.9978V49.0333C11.7129 50.6254 11.1585 51.9616 10.0569 53.0632C8.9268 54.1791 7.52665 54.7334 5.84222 54.7334C4.15778 54.7334 2.77186 54.179 1.65601 53.0774C0.554371 51.99 0.00710732 50.6538 0.00710732 49.0618M9.17555 49.0547V49.0262C9.17555 48.0668 8.86283 47.2494 8.24449 46.5884C7.59773 45.9132 6.7946 45.565 5.83511 45.565C4.87562 45.565 4.07249 45.8919 3.46127 46.5742C2.84293 47.221 2.53021 48.0383 2.53021 48.9978V49.0333C2.53021 49.9928 2.84293 50.8102 3.47548 51.4712C4.10803 52.1464 4.91116 52.4946 5.87065 52.4946C6.83014 52.4946 7.63326 52.1677 8.26581 51.4854C8.87704 50.8386 9.17555 50.0213 9.17555 49.0618" fill="#FAFAFA"/>
<path d="M13.6094 46.098H16.0045V47.2921C16.7153 46.3965 17.5326 45.9346 18.4779 45.9346C19.4232 45.9346 20.0841 46.2189 20.5888 46.7732C21.0934 47.3205 21.3421 48.0952 21.3421 49.0689V54.5344H20.1979C19.5085 54.5344 18.947 53.973 18.947 53.2835V49.8294C18.947 48.678 18.4566 48.1094 17.4971 48.1094C16.5376 48.1094 16.0045 48.678 16.0045 49.8294V54.5344H13.6094V46.098Z" fill="#FAFAFA"/>
<path d="M23.772 51.8401C24.7031 52.5153 25.5844 52.8493 26.4373 52.8493C27.1125 52.8493 27.4394 52.6432 27.4394 52.2168V52.1884C27.4394 51.9538 27.2688 51.7619 26.9206 51.6056C26.7927 51.5558 26.3875 51.4137 25.691 51.2147C24.0066 50.7242 23.1679 49.8785 23.1679 48.6773V48.6489C23.1679 47.8174 23.4664 47.1493 24.0848 46.666C24.6534 46.2111 25.3783 45.9766 26.2525 45.9766C27.3897 45.9766 28.4416 46.3106 29.401 46.9503L28.4913 48.6063C27.5958 48.0874 26.8353 47.8174 26.2027 47.8174C25.6199 47.8174 25.3214 48.0093 25.3214 48.4002V48.4357C25.3214 48.6418 25.492 48.8266 25.8403 49.0043C25.9824 49.0682 26.3733 49.2104 27.0343 49.4449C27.8019 49.715 28.3847 49.978 28.7472 50.2623C29.3015 50.7029 29.5858 51.2715 29.5858 51.9467V51.9751C29.5858 52.8707 29.2731 53.5672 28.6548 54.0363C28.0862 54.4769 27.3186 54.6972 26.3591 54.6972C25.0229 54.6972 23.8218 54.2708 22.7344 53.4179L23.7578 51.8472L23.772 51.8401Z" fill="#FAFAFA"/>
<path d="M30.9023 50.3622V50.3337C30.9023 49.1184 31.3075 48.0807 32.1461 47.2349C32.999 46.3678 34.0509 45.9414 35.3302 45.9414C36.7303 45.9414 37.8675 46.4105 38.6991 47.3558L37.235 48.9265C36.6522 48.3152 36.0054 47.9954 35.316 47.9954C34.7332 47.9954 34.2428 48.2158 33.8519 48.6706C33.461 49.1255 33.2691 49.6585 33.2691 50.2911V50.3266C33.2691 50.9876 33.461 51.542 33.8519 51.9826C34.2428 52.4375 34.7616 52.6578 35.4084 52.6578C36.0552 52.6578 36.7161 52.3593 37.3416 51.7623L38.7417 53.1767C37.8107 54.2001 36.6664 54.7189 35.2947 54.7189C34.0367 54.7189 32.9777 54.2925 32.1461 53.4467C31.3146 52.6152 30.9023 51.5704 30.9023 50.3622Z" fill="#FAFAFA"/>
<path d="M40.2969 43.042H42.692V47.2922C43.4028 46.3966 44.2201 45.9347 45.1654 45.9347C46.1107 45.9347 46.7716 46.219 47.2763 46.7733C47.7809 47.3206 48.0296 48.0953 48.0296 49.069V54.5345H46.8854C46.196 54.5345 45.6345 53.9731 45.6345 53.2836V49.8295C45.6345 48.6781 45.1441 48.1095 44.1846 48.1095C43.2251 48.1095 42.692 48.6781 42.692 49.8295V54.5345H40.2969V43.042Z" fill="#FAFAFA"/>
<path d="M49.6868 50.3622V50.3337C49.6868 49.1042 50.1274 48.0665 50.9945 47.2349C51.8758 46.3678 52.9633 45.9414 54.2639 45.9414C55.5645 45.9414 56.6591 46.3678 57.5191 47.2207C58.3862 48.0523 58.8126 49.0971 58.8126 50.3053V50.3408C58.8126 51.5704 58.3719 52.6081 57.5049 53.4396C56.6235 54.3067 55.5361 54.7332 54.2284 54.7332C52.9206 54.7332 51.8332 54.3067 50.9732 53.461C50.1061 52.6294 49.6797 51.5846 49.6797 50.3764M56.4601 50.3622V50.3337C56.4601 49.687 56.2611 49.1539 55.8488 48.699C55.4224 48.2442 54.8894 48.0096 54.2426 48.0096C53.5958 48.0096 53.0414 48.23 52.6363 48.6848C52.2454 49.1113 52.0535 49.6585 52.0535 50.3053V50.3408C52.0535 50.9876 52.2596 51.5207 52.6719 51.9755C53.0983 52.4304 53.6314 52.672 54.2781 52.672C54.9249 52.672 55.4722 52.4517 55.8844 51.9968C56.2753 51.5704 56.4672 51.0231 56.4672 50.3764" fill="#FAFAFA"/>
<path d="M60.1367 50.3622V50.3337C60.1367 49.1042 60.5774 48.0665 61.4445 47.2349C62.3258 46.3678 63.4132 45.9414 64.7209 45.9414C66.0287 45.9414 67.109 46.3678 67.9832 47.2207C68.8503 48.0523 69.2696 49.0971 69.2696 50.3053V50.3408C69.2696 51.5704 68.829 52.6081 67.9619 53.4396C67.0806 54.3067 65.9932 54.7332 64.6854 54.7332C63.3777 54.7332 62.2902 54.3067 61.4303 53.461C60.5632 52.6294 60.1438 51.5846 60.1438 50.3764M66.91 50.3622V50.3337C66.91 49.687 66.7039 49.1539 66.2917 48.699C65.8652 48.2442 65.3322 48.0096 64.6854 48.0096C64.0386 48.0096 63.4914 48.23 63.0791 48.6848C62.6882 49.1113 62.4963 49.6585 62.4963 50.3053V50.3408C62.4963 50.9876 62.7025 51.5207 63.1076 51.9755C63.534 52.4304 64.0671 52.672 64.7138 52.672C65.3606 52.672 65.915 52.4517 66.3201 51.9968C66.7181 51.5704 66.9029 51.0231 66.9029 50.3764" fill="#FAFAFA"/>
<path d="M71.1016 43.042H73.4967V54.5345H72.3453C71.663 54.5345 71.1016 53.9802 71.1016 53.2907V43.042Z" fill="#FAFAFA"/>
<path d="M60.9244 20.817L54.7766 24.8185C47.1504 18.8625 38.977 13.7097 30.3203 9.38846L36.6174 6.11909L37.4561 5.68555C45.1391 9.63722 52.4241 14.2641 59.2329 19.488C59.8015 19.9286 60.3701 20.3693 60.9315 20.817H60.9244Z" fill="#FAFAFA"/>
<path d="M51.8404 26.7306L50.888 27.3489L48.8411 28.6851L48.0522 29.1969L46.7942 30.0213L45.8134 30.661L45.7637 30.6894L45.6784 30.7462C45.6784 30.7462 45.6286 30.7107 45.6002 30.6894C45.3017 30.462 45.0032 30.2416 44.7047 30.0213C44.1006 29.5664 43.4893 29.1258 42.8781 28.6851C42.4161 28.3511 41.9541 28.0241 41.4922 27.7043C41.3287 27.5835 41.1652 27.4698 40.9947 27.3561C40.6677 27.1357 40.3479 26.9083 40.0138 26.688C39.6869 26.4605 39.36 26.2402 39.033 26.0199C38.3649 25.565 37.6897 25.1173 37.0074 24.6837C36.3109 24.2359 35.6144 23.7882 34.9108 23.3546C34.1858 22.9069 33.4609 22.4591 32.7288 22.0185C31.9541 21.5494 31.1723 21.0945 30.3834 20.6467C27.576 19.0334 24.7118 17.5124 21.7907 16.091C21.0444 15.7214 20.2839 15.3589 19.5234 15.0035L20.7104 14.3852L20.8312 14.3212L21.151 14.1578L21.7978 13.8237L26.2114 11.5352L26.7089 11.2793C29.5021 12.6226 32.2455 14.0512 34.9321 15.565C37.775 17.1642 40.5611 18.8557 43.2761 20.6467C43.9584 21.0945 44.6407 21.5494 45.323 22.0185C45.8276 22.3596 46.3251 22.7008 46.8227 23.0561C46.844 23.0632 46.8582 23.0775 46.8795 23.0917C47.0003 23.177 47.1283 23.2622 47.2491 23.3546C47.5192 23.5465 47.7893 23.7313 48.0593 23.9374C48.4076 24.1862 48.763 24.4349 49.1112 24.6908C49.7153 25.1315 50.3123 25.5721 50.9094 26.027C51.2008 26.2473 51.4993 26.4676 51.7907 26.6951C51.812 26.7093 51.8333 26.7306 51.8546 26.7448L51.8404 26.7306Z" fill="#FAFAFA"/>
<path d="M42.7224 32.6717L36.5461 36.6873C35.4374 35.8771 34.3144 35.0811 33.1773 34.3064H21.6705V27.1564C17.5838 24.8679 13.3763 22.7783 9.05502 20.8807L8.58594 20.6745L15.6364 17.0214L15.8212 16.9219C25.3805 21.2005 34.3926 26.4954 42.7224 32.6717Z" fill="#FAFAFA"/>
<path d="M91.793 0.724609V59.6798" stroke="#FAFAFA" stroke-width="2.27434" stroke-miterlimit="10"/>
<path d="M111.516 6.7666H115.027L120.45 16.8164H120.499L125.922 6.7666H129.433V24.4283H125.951V13.5043H125.901L121.594 21.095H119.327L115.048 13.483H114.998V24.4283H111.516V6.7666Z" fill="#FAFAFA"/>
<path d="M152.43 5.17379V6.99326C152.43 9.28182 151.435 10.8028 149.644 11.3998C150.22 12.6152 150.539 14.0366 150.539 15.6073C150.539 20.9805 146.73 24.6621 141.556 24.6621C136.382 24.6621 132.551 20.8525 132.551 15.6073C132.551 10.3621 136.211 6.55261 141.556 6.55261C144.441 6.55261 146.908 7.69688 148.521 9.63718C149.367 9.16099 149.395 8.1944 149.395 6.95062V5.18089H152.43V5.17379ZM146.886 15.5931C146.886 12.2598 144.598 9.82197 141.563 9.82197C138.379 9.82197 136.19 12.3877 136.19 15.5931C136.19 18.7985 138.379 21.3643 141.563 21.3643C144.747 21.3643 146.886 18.9265 146.886 15.5931ZM139.424 3.80207L138.755 2.28111C139.381 1.75516 140.674 1.1084 142.338 1.1084C143.809 1.1084 144.804 1.75516 144.804 3.0487C144.804 4.19298 143.709 4.91082 142.714 5.2875H140.575C141.399 4.74024 142.167 4.16455 142.167 3.62439C142.167 3.3472 141.947 3.12688 141.449 3.12688C140.824 3.12688 140.056 3.45381 139.431 3.80207H139.424Z" fill="#FAFAFA"/>
<path d="M161.008 6.7666H164.519V14.5065H164.569L170.617 6.7666H175.073L168.556 14.5562L175.301 24.4354H170.972L166.246 17.3423L164.526 19.3821V24.4354H161.015V6.7666H161.008Z" fill="#FAFAFA"/>
<path d="M177.504 6.7666H181.036V14.407H188.25V6.7666H191.761V24.4283H188.25V17.5129H181.036V24.4283H177.504V6.7666Z" fill="#FAFAFA"/>
<path d="M194.867 15.5938C194.867 10.3415 198.527 6.53906 203.872 6.53906C209.217 6.53906 212.856 10.1993 212.856 15.5938C212.856 20.9882 209.046 24.6485 203.872 24.6485C198.698 24.6485 194.867 20.839 194.867 15.5938ZM209.196 15.5938C209.196 12.2605 206.907 9.82264 203.872 9.82264C200.688 9.82264 198.499 12.3884 198.499 15.5938C198.499 18.7992 200.688 21.3649 203.872 21.3649C207.056 21.3649 209.196 18.9271 209.196 15.5938Z" fill="#FAFAFA"/>
<path d="M220.042 6.7663H223.425L229.992 24.428H226.332L225.117 20.8957H218.35L217.156 24.428H213.496L220.042 6.7663ZM224.122 17.9106L221.755 10.9952H221.705L219.338 17.9106H224.114H224.122ZM223.006 1.94043H226.467L223.333 5.30219H220.248L223.013 1.94043H223.006Z" fill="#FAFAFA"/>
<path d="M302.352 10.9951L299.992 17.9105H304.768L302.402 10.9951H302.352Z" fill="#FAFAFA"/>
<path d="M347.961 0H237.194C236.185 0 235.367 0.817342 235.367 1.82658V25.1741C235.367 26.1834 236.185 27.0007 237.194 27.0007H347.961C348.971 27.0007 349.788 26.1834 349.788 25.1741V1.82658C349.788 0.817342 348.971 0 347.961 0ZM300.79 1.9403C300.84 2.66525 301.416 3.18408 302.382 3.18408C303.349 3.18408 303.924 2.63682 303.974 1.9403H306.433C306.256 4.02985 304.919 5.47264 302.375 5.47264C299.831 5.47264 298.494 4.12935 298.317 1.9403H300.783H300.79ZM258.949 1.79104C259.973 1.79104 260.619 2.1393 261.167 2.48756C261.664 2.75764 262.062 3.0135 262.56 3.0135C263.107 3.0135 263.505 2.61549 263.853 1.79104L265.772 2.41649C265.225 4.20753 264.23 5.30206 262.837 5.30206C262.041 5.30206 261.366 4.97512 260.719 4.60554C260.172 4.30704 259.674 4.05828 259.226 4.05828C258.679 4.05828 258.231 4.50604 257.904 5.27363L255.964 4.47761C256.49 2.98507 257.485 1.79104 258.949 1.79104ZM248.622 24.4279L243.896 17.3348L242.176 19.3746V24.4279H238.665V6.76617H242.176V14.506H242.226L248.274 6.76617H252.73L246.213 14.5558L252.958 24.435H248.629L248.622 24.4279ZM262.531 16.6667V24.4279H258.999V16.6667L253.15 6.76617H257.158L260.769 13.1841H260.818L264.351 6.76617H268.409L262.538 16.6667H262.531ZM291.806 24.4279H288.295L280.456 12.7576H280.406V24.4279H276.924V6.76617H280.357L288.295 18.6851H288.345V6.76617H291.806V24.4279ZM306.981 24.4279L305.765 20.8955H298.999L297.805 24.4279H294.145L300.691 6.76617H304.074L310.641 24.4279H306.981ZM327.805 24.4279H324.294L316.455 12.7576H316.405V24.4279H312.922V6.76617H316.355L324.294 18.6851H324.344V6.76617H327.805V24.4279ZM346.909 22.4094C345.289 23.7029 342.652 24.5984 339.944 24.5984C334.841 24.5984 330.939 21.2864 330.939 15.6148C330.939 10.4407 334.273 6.53163 339.795 6.53163C342.311 6.53163 344.998 7.52665 346.81 9.54513L344.344 11.6844C343.249 10.5899 341.735 9.84364 339.788 9.84364C336.874 9.84364 334.585 12.0043 334.585 15.6148C334.585 18.877 336.625 21.4144 339.937 21.4144C341.209 21.4144 342.375 21.0874 343.498 20.3909V17.8038H339.539V14.7903H346.902V22.4023L346.909 22.4094Z" fill="#FAFAFA"/>
<path d="M111.484 36.6172H114.917L122.856 48.5362H122.906V36.6172H126.367V54.2789H122.856L115.017 42.6087H114.967V54.2789H111.484V36.6172Z" fill="#FAFAFA"/>
<path d="M135.245 36.6169H138.628L145.195 54.2786H141.535L140.32 50.7462H133.554L132.359 54.2786H128.699L135.245 36.6169ZM135.195 31.791H138.657L141.244 35.1528H138.23L136.937 33.4612H136.887L135.593 35.1528H132.608L135.195 31.791ZM139.325 47.7612L136.958 40.8457H136.908L134.541 47.7612H139.318H139.325Z" fill="#FAFAFA"/>
<path d="M147.484 36.6172H150.917L158.856 48.5362H158.906V36.6172H162.367V54.2789H158.856L151.017 42.6087H150.967V54.2789H147.484V36.6172Z" fill="#FAFAFA"/>
<path d="M165.495 45.4728C165.495 40.2987 168.829 36.3896 174.351 36.3896C176.867 36.3896 179.554 37.3847 181.366 39.4032L178.9 41.5425C177.805 40.4479 176.291 39.7017 174.344 39.7017C171.43 39.7017 169.141 41.8623 169.141 45.4728C169.141 48.7351 171.181 51.2724 174.493 51.2724C175.765 51.2724 176.931 50.9454 178.054 50.2489V47.6619H174.095V44.6484H181.458V52.2603C179.838 53.5538 177.201 54.4494 174.493 54.4494C169.39 54.4494 165.488 51.1373 165.488 45.4657L165.495 45.4728Z" fill="#FAFAFA"/>
<path d="M194.869 39.7224H190.043V36.6094H203.305V39.7224H198.401V54.2782H194.869V39.7224Z" fill="#FAFAFA"/>
<path d="M209.097 36.6172H212.48L219.047 54.2789H215.387L214.171 50.7465H207.405L206.211 54.2789H202.551L209.097 36.6172ZM209.047 31.7913H212.508L215.095 35.1531H212.082L210.788 33.4615H210.738L209.445 35.1531H206.46L209.047 31.7913ZM213.176 47.7615L210.809 40.846H210.76L208.393 47.7615H213.169H213.176ZM212.856 30.249H216.218L218.23 33.7316H215.841L212.856 30.249Z" fill="#FAFAFA"/>
<path d="M221.359 36.6172H224.87L230.293 46.6669H230.343L235.766 36.6172H239.277V54.2789H235.794V43.3549H235.745L231.445 50.9455H229.177L224.899 43.3336H224.849V54.2789H221.366V36.6172H221.359Z" fill="#FAFAFA"/>
<path d="M248.402 51.692L250.52 49.1049C251.835 50.5975 253.534 51.3224 254.927 51.3224C256.618 51.3224 257.443 50.5477 257.443 49.4532C257.443 48.1596 256.526 47.6835 254.38 46.9372C251.693 46.0203 249.028 44.7979 249.028 41.4361C249.028 38.6003 251.544 36.4112 254.699 36.3828C256.888 36.3828 258.907 37.1788 260.67 38.6216L258.63 41.2584C257.159 40.0644 255.865 39.5171 254.77 39.5171C253.555 39.5171 252.653 40.1639 252.631 41.2869C252.631 42.3814 253.576 42.8292 255.616 43.6252C258.672 44.8192 261.117 45.6152 261.117 49.0267C261.117 52.9073 257.713 54.4994 254.849 54.4994C252.581 54.4994 250.272 53.6039 248.402 51.6849V51.692Z" fill="#FAFAFA"/>
<path d="M282.657 35.0247V36.8442C282.657 39.8079 280.987 41.471 278.101 41.4923V46.965C278.101 51.5705 275.436 54.5059 270.908 54.5059C266.651 54.5059 263.766 51.7909 263.766 46.965V36.6167H267.277V46.7447C267.277 49.282 268.57 51.2223 270.908 51.2223C273.048 51.2223 274.59 49.5592 274.59 46.7447V36.6167H278.101V39.7013C279.572 39.4028 279.622 38.2798 279.622 36.7873V35.0176H282.657V35.0247ZM272.977 58.0098C272.977 59.1043 272.103 59.9998 270.908 59.9998C269.714 59.9998 268.84 59.1043 268.84 58.0098C268.84 56.9152 269.736 55.9913 270.908 55.9913C272.081 55.9913 272.977 56.8868 272.977 58.0098Z" fill="#FAFAFA"/>
<path d="M290.84 36.6172H294.273L302.212 48.5362H302.261V36.6172H305.723V54.2789H302.212L294.372 42.6087H294.322V54.2789H290.84V36.6172Z" fill="#FAFAFA"/>
<path d="M308.847 45.4728C308.847 40.2987 312.18 36.3896 317.703 36.3896C320.219 36.3896 322.905 37.3847 324.718 39.4032L322.251 41.5425C321.157 40.4479 319.643 39.7017 317.696 39.7017C314.782 39.7017 312.493 41.8623 312.493 45.4728C312.493 48.7351 314.533 51.2724 317.845 51.2724C319.117 51.2724 320.283 50.9454 321.406 50.2489V47.6619H317.447V44.6484H324.81V52.2603C323.19 53.5538 320.553 54.4494 317.845 54.4494C312.742 54.4494 308.84 51.1373 308.84 45.4657L308.847 45.4728Z" fill="#FAFAFA"/>
<path d="M328.223 36.6172H331.755V44.2576H338.969V36.6172H342.48V54.2789H338.969V47.3635H331.755V54.2789H328.223V36.6172Z" fill="#FAFAFA"/>
<path d="M346.41 36.6172H349.971V54.2789H346.41V36.6172Z" fill="#FAFAFA"/>
<path d="M353.925 36.6171H365.219V39.7301H357.379V43.9873H363.648V47.0435H357.379V51.1728H365.737V54.2858H353.918V36.6242L353.925 36.6171ZM358.005 31.8125H361.466L364.053 35.1743H361.04L359.746 33.4827H359.696L358.403 35.1743H355.418L358.005 31.8125ZM361.985 58.0101C361.985 59.1046 361.118 60.0001 359.917 60.0001C358.715 60.0001 357.848 59.1046 357.848 58.0101C357.848 56.9156 358.744 55.9916 359.917 55.9916C361.089 55.9916 361.985 56.8871 361.985 58.0101Z" fill="#FAFAFA"/>
<path d="M368.801 36.6172H375.347C379.625 36.6172 381.494 39.1047 381.494 42.4878C381.494 46.3684 378.886 48.2377 374.998 48.2377H372.262V54.286H368.801V36.6243V36.6172ZM374.622 45.146C376.811 45.146 377.856 44.0514 377.856 42.431C377.856 40.8105 376.811 39.716 374.792 39.716H372.255V45.1389H374.622V45.146Z" fill="#FAFAFA"/>
</g>
<defs>
<clipPath id="clip0_3523_57078">
<rect width="381.485" height="60" fill="white"/>
</clipPath>
</defs>
</svg>
