<svg xmlns="http://www.w3.org/2000/svg" width="255" height="184" viewBox="0 0 255 184" fill="none">
  <path d="M143.479 4.51271C143.479 4.51271 141.421 3.96674 140.681 5.0587C139.941 6.15066 138.768 5.70048 138.813 6.44761C138.858 7.19475 139.463 8.33461 140.681 8.43039C141.899 8.52618 141.006 9.12006 142.27 9.57025C143.533 10.0204 145.401 9.02428 145.302 7.78864C145.203 6.553 146.286 5.4131 143.479 4.51271Z" fill="#4460FF"/>
  <path d="M158.299 0.959442C158.299 0.959442 157.279 1.14142 158.019 2.74105C158.759 4.34068 157.351 4.04374 156.828 4.71425C156.304 5.38475 155.916 6.83113 157.216 7.65489C158.515 8.47865 160.266 8.36371 160.609 7.35795C160.952 6.3522 161.169 4.86752 160.609 2.93264C160.05 0.997754 159.562 0.997757 158.299 0.959442Z" fill="#4460FF"/>
  <path d="M139.372 9.07237C139.372 9.07237 137.901 10.1643 137.829 11.0073C137.757 11.8502 138.298 12.6931 138.948 12.9613C139.598 13.2295 140.419 13.536 140.726 13.651C141.033 13.7659 142.17 12.8847 141.728 11.6682C141.285 10.4517 141.078 8.99573 139.372 9.06278V9.07237Z" fill="#4460FF"/>
  <path d="M164.923 21.1412C164.923 21.1412 162.432 23.4783 163.804 24.6757C165.167 25.8634 164.752 26.5339 165.555 26.7926C166.358 27.0512 167.865 26.8309 168.217 26.1987C168.569 25.5665 169.237 23.8902 168.669 22.7025C168.1 21.5147 167.161 20.624 164.923 21.1412Z" fill="#4460FF"/>
  <path d="M178.444 24.9731C178.444 24.9731 176.548 26.2661 176.828 26.8983C177.108 27.5305 176.44 27.7221 176.512 28.3543C176.585 28.9865 178.056 29.8006 179.698 29.1685C181.341 28.5363 181.873 27.3102 181.278 26.5631C180.682 25.816 180.79 24.4079 178.444 24.9635V24.9731Z" fill="#4460FF"/>
  <path d="M143.768 25.729C143.768 25.729 142.603 26.6007 143.001 27.6351C143.398 28.6696 142.964 29.0432 143.344 29.5892C143.723 30.1351 146.502 30.1831 146.827 29.388C147.152 28.593 147.342 27.0604 146.52 26.3899C145.699 25.7194 145.284 25.3746 143.768 25.7194V25.729Z" fill="#4460FF"/>
  <path d="M139.138 27.1666C139.138 27.1666 136.999 27.9616 137.496 30.0019C137.992 32.0421 138.263 33.6417 139.454 33.6417C140.645 33.6417 140.889 32.339 141.097 31.4482C141.304 30.5574 141.377 29.0344 141.097 28.4788C140.817 27.9233 140.609 27.3677 139.138 27.1762V27.1666Z" fill="#4460FF"/>
  <path d="M136.205 29.4746C135.916 28.1336 134.562 27.4344 133.38 27.9708C132.405 28.4114 131.313 29.1777 131.295 30.4038C131.259 32.6356 131.746 33.0475 133.289 32.8942C134.833 32.7409 136.06 32.1854 136.268 31.0359C136.349 30.5953 136.322 30.0302 136.205 29.4746Z" fill="#4460FF"/>
  <path d="M129.084 36.4198C129.084 36.4198 126.421 36.7551 126.286 38.7953C126.151 40.8356 127.333 41.6593 128.001 41.6593C128.669 41.6593 129.643 40.3183 130.699 40.0214C131.755 39.7244 131.746 38.1248 131.295 37.5693C130.844 37.0137 130.14 36.3432 129.093 36.4198H129.084Z" fill="#4460FF"/>
  <path d="M141.313 46.8702C141.313 46.8702 139.138 48.4315 139.697 50.443C140.257 52.4545 142.252 52.1193 142.396 51.8511C142.54 51.5829 142.676 49.8108 143.416 49.6192C144.156 49.4277 145.555 48.987 145.203 47.9046C144.851 46.8222 142.856 45.7112 141.313 46.8606V46.8702Z" fill="#4460FF"/>
  <path d="M152.279 50.7013C152.279 50.7013 151.259 48.8047 150.284 48.6897C149.309 48.5748 148.605 48.9101 148.533 49.6955C148.461 50.481 149.409 51.5538 150.149 52.3679C150.889 53.1821 151.304 53.7473 151.936 53.7473C152.568 53.7473 153.235 53.7473 153.235 52.9714C153.235 52.1955 152.992 51.4101 152.288 50.7013H152.279Z" fill="#4460FF"/>
  <path d="M156.024 43.488C156.024 43.488 153.226 42.9324 153.226 44.0819C153.226 45.2313 152.947 45.4612 152.775 45.8635C152.604 46.2658 152.071 47.0512 152.252 48.1719C152.432 49.2926 152.847 50.2505 153.831 50.921C154.815 51.5915 156.53 51.4766 156.53 50.5091C156.53 49.5417 154.851 48.5743 155.374 47.8367C155.898 47.0992 156.078 47.8367 156.918 46.3807C157.757 44.9248 157.026 44.1202 156.042 43.488H156.024Z" fill="#4460FF"/>
  <path d="M175.637 35.6821C175.637 35.6821 174.021 35.2031 173.182 36.0173C172.343 36.8315 171.007 38.546 171.007 38.9866C171.007 39.4273 171.079 40.73 172.09 40.9982C173.101 41.2664 175.42 41.1131 176.332 39.1016C177.243 37.0901 176.26 36.3909 175.628 35.6821H175.637Z" fill="#4460FF"/>
  <path d="M117.603 81.8129C117.603 81.8129 116.52 86.1617 117.603 86.8705C118.686 87.5793 118.028 88.0582 117.603 88.2785C117.179 88.4988 117.152 90.5486 117.811 91.5544C118.47 92.5601 120.013 93.2977 120.717 93.1157C121.421 92.9337 122.333 88.1348 120.889 84.2651C119.445 80.3953 117.73 81.2286 117.594 81.8129H117.603Z" fill="#4460FF"/>
  <path d="M142.297 68.2784C142.297 68.2784 141.313 68.5753 141.178 69.3224C141.043 70.0696 140.51 71.3627 141.178 72.0715C141.846 72.7803 142.857 73.1826 143.768 72.5504C144.68 71.9182 145.275 71.7841 145.032 70.5677C144.788 69.3512 144.68 68.3837 142.297 68.2784Z" fill="#4460FF"/>
  <path d="M150.022 67.7607C150.022 67.7607 149.138 69.868 149.715 71.0079C150.293 72.1477 151.89 71.9466 152.306 71.4581C152.721 70.9695 152.585 69.9734 152.54 69.2262C152.495 68.4791 151.818 66.9753 150.022 67.7607Z" fill="#4460FF"/>
  <path d="M161.557 65.8263C161.557 65.8263 161.088 69.4949 161.557 70.242C162.027 70.9892 163.146 71.7747 163.94 70.8839C164.734 69.993 165.014 68.4987 164.59 67.5409C164.166 66.583 163.606 66.2765 162.911 65.8359C162.216 65.3953 161.557 65.8359 161.557 65.8359V65.8263Z" fill="#4460FF"/>
  <path d="M148.281 74.6002C148.281 74.6002 147.162 75.8262 147.514 76.9756C147.866 78.1251 148.498 78.24 148.281 78.9105C148.064 79.581 148.317 79.8396 149.752 79.6576C151.187 79.4756 152.902 78.5465 151.891 76.0848C150.871 73.6327 149.788 74.4852 148.281 74.6002Z" fill="#4460FF"/>
  <path d="M69.1557 115.041C70.4644 114.993 76.0421 113.508 75.7172 111.468C75.3922 109.428 73.4428 107.703 72.107 108.498C70.7712 109.293 67.4048 113.451 67.2694 114.054C67.134 114.658 62.1791 118.815 63.2982 120.146C64.4174 121.487 67.7838 119.993 68.8127 119.504C69.8416 119.016 70.5908 119.409 70.4915 117.225C70.3922 115.041 69.1647 115.041 69.1647 115.041H69.1557Z" fill="#4460FF"/>
  <path d="M3.30592 173.48C3.30592 173.48 3.09834 172.215 2.18678 172.369C1.27522 172.522 0.363609 174.083 0.787802 174.677C1.21199 175.271 1.59108 175.156 1.99723 175.012C1.99723 175.012 1.73549 175.683 1.99723 176.095C2.25896 176.507 2.96292 176.842 3.83838 176.43C4.71384 176.018 5.23734 174.83 5.10196 174.16C4.96658 173.489 4.33482 173.384 3.31495 173.489L3.30592 173.48Z" fill="#4460FF"/>
  <path d="M17.385 172.053C17.385 172.053 14.2172 171.277 13.4139 171.9C12.6107 172.522 12.5565 174.074 13.2244 174.371C13.8922 174.668 16.3923 175.022 17.3941 174.371C18.3959 173.72 18.2154 172.331 17.3941 172.044L17.385 172.053Z" fill="#4460FF"/>
  <path d="M36.1581 159.916C36.131 159.658 34.6509 156.459 32.8639 156.344C31.0768 156.229 30.3458 157.273 30.4089 158.125C30.4721 158.978 29.0461 159.054 28.9739 160.395C28.9017 161.736 29.362 163.93 31.0768 163.738C32.7916 163.547 33.9108 163.623 34.2628 162.062C34.6148 160.501 36.3296 161.688 36.1581 159.907V159.916Z" fill="#4460FF"/>
  <path d="M42.6745 157.052C42.6745 157.052 41.2033 153.891 39.5246 153.891C37.8459 153.891 36.8621 154.562 37.3495 155.826C37.8369 157.091 37.873 157.866 38.8928 158.47C39.9127 159.073 41.3838 160.069 42.1871 159.399C42.9903 158.728 43.3785 159.064 42.6745 157.062V157.052Z" fill="#4460FF"/>
  <path d="M51.9978 159.61C51.9978 159.61 50.0031 158.94 49.1638 159.61C48.3244 160.281 47.9363 161.066 48.0085 161.804C48.0807 162.541 48.6764 164.409 49.5519 164.515C50.4273 164.62 50.1475 164.515 51.3389 164.294C52.5302 164.074 52.1421 164.16 54.1097 164.562C56.0772 164.965 56.8443 164.744 56.9797 162.628C57.1151 160.511 56.9436 159.467 54.6692 159.313C52.3948 159.17 53.3696 159.888 52.0067 159.61H51.9978Z" fill="#4460FF"/>
  <path d="M65.9602 159.294C65.9602 159.294 63.3429 158.145 62.1335 159.294C60.9241 160.444 60.3555 161.497 61.3843 162.015C62.4132 162.532 63.5324 162.829 65.0306 162.829C66.5288 162.829 65.4999 161.862 66.8988 160.808C68.2978 159.754 70.6354 157.867 69.1372 155.588C67.639 153.308 64.9313 153.509 64.471 155.089C64.0107 156.67 67.4584 158.643 65.9693 159.294H65.9602Z" fill="#4460FF"/>
  <path d="M199.951 75.4908C199.888 75.3567 202.189 74.9448 201.909 73.3069C201.63 71.6689 199.852 70.7302 198.877 71.2762C197.902 71.8222 198.597 73.6039 198.128 74.054C197.658 74.5042 194.761 74.3031 194.581 75.4908C194.4 76.6786 194.157 78.5655 195.844 79.4085C197.532 80.2514 198.597 80.7016 199.436 79.7533C200.276 78.805 201.07 77.7706 199.951 75.4908Z" fill="#4460FF"/>
  <path d="M210.078 90.0117C210.078 90.0117 207.93 88.9197 206.576 90.6055C205.222 92.2914 206.251 94.0251 206.856 94.4179C207.46 94.8106 209.563 95.6056 210.962 94.7627C212.361 93.9198 213.435 90.7971 210.078 90.0021V90.0117Z" fill="#4460FF"/>
  <path d="M161.593 157.57C161.593 157.57 163.867 158.24 164.815 157.57C165.763 156.899 166.954 155.415 165.763 153.518C164.571 151.621 163.308 151.803 162.261 152.33C161.214 152.857 160.51 153.652 160.51 154.926C160.51 156.2 160.23 156.382 161.593 157.57Z" fill="#4460FF"/>
  <path d="M205.411 127.052C205.411 127.052 207.55 126.717 207.55 124.303C207.55 121.889 206.954 121.63 205.907 121.18C204.86 120.73 204.192 120.433 203.416 121.477C202.64 122.521 202.153 123.153 202.577 124.341C203.001 125.529 202.126 127.09 205.411 127.052Z" fill="#4460FF"/>
  <path d="M138.019 124.859C138.019 124.859 136.123 124.783 135.916 125.75C135.708 126.717 134.724 126.861 135.916 128.422C137.107 129.984 138.019 131.028 139.002 129.83C139.986 128.633 139.562 128.126 140.049 127.043C140.537 125.961 139.842 125.07 138.019 124.85V124.859Z" fill="#4460FF"/>
  <path d="M228.949 126.248C228.949 126.248 230.538 128.327 232.776 127.934C235.014 127.541 236.603 126.248 234.644 124.658C232.686 123.068 231.657 122.675 230.438 123.269C229.22 123.863 227.64 122.474 228.94 126.238L228.949 126.248Z" fill="#4460FF"/>
  <path d="M140.889 100.357C140.889 100.357 143.307 101.21 143.443 100.06C143.578 98.9107 143.271 98.1636 143.271 98.1636C143.271 98.1636 143.867 98.4606 144.634 97.3878C145.401 96.315 145.266 94.7153 143.759 94.3801C142.251 94.0448 140.889 94.0448 140.889 95.2709C140.889 96.4969 141.241 97.0142 141.241 97.0142C141.241 97.0142 140.293 96.7172 139.941 97.4261C139.589 98.1349 138.398 98.6904 140.889 100.357Z" fill="#4460FF"/>
  <path d="M138.858 101.87C138.858 101.87 141.15 100.386 141.854 103.489C141.854 103.489 141.575 103.901 142.396 104.38C143.217 104.859 144.598 106.056 144.535 106.966C144.472 107.876 144.237 109.849 141.701 107.876C139.165 105.903 137.703 104.198 137.793 103.412C137.883 102.627 138.298 102.119 138.858 101.87Z" fill="#4460FF"/>
  <path d="M145.257 104.658C145.257 104.658 147.947 104.955 148.407 104.064C148.867 103.173 148.804 101.688 147.82 100.912C146.837 100.136 145.925 99.897 145.528 100.539C145.131 101.181 145.501 101.65 144.968 102.071C144.436 102.493 143.939 102.646 144.174 103.288C144.409 103.93 144.174 104.255 145.248 104.648L145.257 104.658Z" fill="#4460FF"/>
  <path d="M150.745 97.4255C150.745 97.4255 149.977 98.3451 150.465 99.5807C150.952 100.816 151.792 101.458 152.613 101.516C153.434 101.573 154.436 101.075 154.833 100.184C155.23 99.2934 155.348 97.732 154.833 97.1861C154.319 96.6401 153.506 96.4389 152.568 96.4677C151.629 96.4964 151.376 96.6688 150.745 97.4351V97.4255Z" fill="#4460FF"/>
  <path d="M154.76 95.8161C154.76 95.8161 156.232 96.5824 157.306 96.0364C158.38 95.4904 158.542 94.82 158.47 93.8046C158.398 92.7893 158.19 91.8218 159.174 91.6686C160.158 91.5153 160.6 92.1188 161.647 92.1667C162.694 92.2146 163.75 91.8985 163.723 90.4042C163.695 88.91 163.443 87.2528 161.665 87.0804C159.887 86.908 159.093 87.2816 157.576 88.4693C156.06 89.6571 156.439 91.2663 155.167 91.3237C153.894 91.3812 152.351 91.4195 152.305 92.387C152.26 93.3544 150.907 93.0096 150.067 92.9809C149.228 92.9522 148.343 93 148.289 94.1782C148.235 95.3564 148.713 96.8985 151.069 96.1035C153.425 95.3084 154.76 95.8065 154.76 95.8065V95.8161Z" fill="#4460FF"/>
  <path d="M248.986 150.98C248.986 150.98 249.455 148.499 252.298 148.7C255.141 148.902 255.331 151.43 254.311 151.871C253.291 152.311 252.957 152.417 252.397 152.963C251.838 153.509 251.233 154.4 250.015 153.356C248.796 152.311 248.941 152.216 248.986 150.98Z" fill="#4460FF"/>
  <path d="M192.703 182.8C192.703 182.8 194.012 183.844 195.176 183.441C196.34 183.039 195.781 183.029 197.134 183.527C198.488 184.026 200.032 184.035 200.122 182.79C200.212 181.545 200.212 179.715 198.624 179.37C197.035 179.026 196.665 179.763 195.447 179.619C194.228 179.476 193.579 178.777 193.019 179.715C192.459 180.654 191.385 181.353 192.694 182.79L192.703 182.8Z" fill="#4460FF"/>
</svg>