<svg width="81" height="48" viewBox="0 0 81 48" fill="none" xmlns="http://www.w3.org/2000/svg">
<g id="Logo">
<path id="Vector" d="M80.9146 23.4291L71.4066 29.6277V29.6216C59.6121 20.4113 46.9791 12.4305 33.5889 5.73342L43.3201 0.67061L44.6172 0C56.4991 6.12008 67.7566 13.2853 78.2781 21.3659C79.162 22.0486 80.0398 22.7343 80.9085 23.4261C80.9146 23.4261 80.9146 23.4291 80.9146 23.4291Z" fill="#FAFAFA"/>
<path id="Vector_2" d="M66.8669 32.5851L65.3919 33.5457H65.3858L62.2215 35.6119L61.0029 36.4033L59.0542 37.6751L57.5369 38.6629L57.4645 38.7082L57.3318 38.7958C57.2926 38.7656 57.2534 38.7384 57.2142 38.7082C56.7556 38.3578 56.2971 38.0104 55.8296 37.6721C54.8945 36.9712 53.9563 36.2855 53.0092 35.6089C52.3003 35.0923 51.5854 34.5879 50.8644 34.0864C50.6111 33.9052 50.3547 33.7209 50.0952 33.5427C49.5945 33.1983 49.0908 32.8449 48.584 32.5066C48.0772 32.1561 47.5735 31.8148 47.0637 31.4765C46.026 30.7757 44.9853 30.0839 43.9326 29.4072C42.8587 28.7094 41.7788 28.0237 40.6959 27.3531C40.6959 27.3531 40.6929 27.3501 40.6868 27.3441C39.5677 26.6463 38.4456 25.9605 37.3114 25.2809C36.1078 24.5589 34.9012 23.849 33.6855 23.1573C29.3448 20.6591 24.9166 18.3089 20.3949 16.1038C19.2366 15.5329 18.0631 14.971 16.8867 14.4212L18.7207 13.4636L18.9017 13.367L19.3934 13.1132L20.3949 12.5937V12.5876L27.2122 9.04727L27.9814 8.64551C32.298 10.7238 36.5361 12.938 40.6959 15.2852C45.0879 17.7592 49.3924 20.3842 53.6004 23.1543C54.6592 23.849 55.715 24.5529 56.7677 25.2779C57.543 25.8004 58.3182 26.3351 59.0874 26.8819C59.1176 26.894 59.1417 26.9121 59.1688 26.9363C59.3589 27.0692 59.5519 27.1991 59.742 27.341C60.1613 27.6341 60.5806 27.9271 60.9998 28.2382C61.5398 28.6188 62.0828 29.0085 62.6197 29.4042C63.5518 30.0839 64.4809 30.7726 65.4039 31.4734C65.8594 31.8118 66.3149 32.1561 66.7644 32.5035C66.7975 32.5277 66.8277 32.5549 66.8609 32.576L66.8669 32.5851Z" fill="#FAFAFA"/>
<path id="Vector_3" d="M52.7674 41.7772L43.2202 47.997C41.5039 46.7403 39.7664 45.5109 38.0168 44.3086H20.2286V33.2375C13.909 29.6941 7.40246 26.4589 0.720941 23.5227L0 23.2055L10.8956 17.5446L11.1761 17.3936H11.1821C25.9659 24.0181 39.8961 32.2165 52.7674 41.7772Z" fill="#FAFAFA"/>
</g>
</svg>
