<svg xmlns="http://www.w3.org/2000/svg" width="84" height="78" viewBox="0 0 84 78" fill="none">
  <path d="M39.0136 11.0543C39.0136 11.0543 41.0443 9.56965 41.6038 10.6808C42.1634 11.7919 42.3349 13.6214 42.3349 13.6214C42.3349 13.6214 43.3547 16.0352 42.9305 16.2268C42.5063 16.4184 36.5586 17.8647 36.1705 16.4088C35.7824 14.9528 34.8438 13.995 35.6832 12.8743C36.5225 11.7536 37.2987 10.3072 39.0136 11.0543Z" fill="#4460FF"/>
  <path d="M29.9339 28.2671C29.9339 28.2671 28.7426 24.9241 27.4158 25.518C26.0891 26.1119 19.2208 29.8284 19.3562 30.5755C19.4916 31.3227 21.1793 31.3227 21.0349 32.0602C20.8905 32.7978 19.4916 33.4012 17.6052 33.1043C15.7189 32.8074 14.4554 35.1829 15.2948 36.0737C16.1341 36.9645 18.1648 37.635 19.8526 36.6676C21.5403 35.7001 23.914 36.4472 25.1776 36.7442C26.4411 37.0411 29.3834 35.0296 30.5747 33.4012C31.7661 31.7633 31.9015 28.9376 29.943 28.2671H29.9339Z" fill="#4460FF"/>
  <path d="M23.9051 43.8414C23.9051 43.8414 18.6884 46.782 19.1036 47.8931C19.5188 49.0042 21.2787 48.3433 22.082 47.5962C22.8852 46.8491 24.1127 46.1115 23.9051 46.8491C23.6975 47.5866 24.1849 48.4487 24.7805 48.2954C25.3762 48.1422 26.3961 45.623 25.4123 44.1287C24.4286 42.6345 23.9051 43.8318 23.9051 43.8318V43.8414Z" fill="#4460FF"/>
  <path d="M1.03486 71.9457C1.03486 71.9457 -0.26477 73.7274 0.610691 75.1067C1.48615 76.486 2.60529 77.4822 3.76054 76.8213C4.91579 76.1603 6.3869 73.7753 4.52767 72.2139C2.66845 70.6526 1.23341 71.6201 1.02582 71.9553L1.03486 71.9457Z" fill="#4460FF"/>
  <path d="M31.8019 54.2158C31.8019 54.2158 30.0058 56.6967 29.8885 57.8844C29.7712 59.0722 29.8615 59.7139 30.3127 60.0205C30.764 60.327 32.8128 60.6909 33.625 59.4266C34.4373 58.1622 35.5204 56.2752 34.329 54.6947C33.1377 53.1047 31.8109 54.2254 31.8109 54.2254L31.8019 54.2158Z" fill="#4460FF"/>
  <path d="M28.9775 44.5985C28.9775 44.5985 28.7248 46.4855 27.9757 46.7825C27.2266 47.0794 26.667 48.248 27.019 49.0622C27.371 49.8764 28.8873 50.7193 30.1057 50.1733C31.3241 49.6273 32.1815 50.1446 32.7952 49.7806C33.409 49.4166 34.4108 47.5966 32.9848 45.7671C31.5588 43.9376 29.4919 42.9414 28.9955 44.5985H28.9775Z" fill="#4460FF"/>
  <path d="M44.9249 37.7593C44.9249 37.7593 42.2895 39.8953 40.7642 39.9624C39.2389 40.0294 39.1035 41.198 39.2208 41.9451C39.3381 42.6922 39.9248 44.493 41.062 44.3015C42.1992 44.1099 41.8292 41.7248 42.9573 41.7727C44.0855 41.8206 44.1035 42.3857 44.2389 43.3915C44.3743 44.3972 46.8563 44.5888 47.2534 43.7555C47.6505 42.9221 48.0747 41.1788 47.6234 39.6175C47.1722 38.0562 46.6216 37.0121 44.9158 37.7593H44.9249Z" fill="#4460FF"/>
  <path d="M56.1975 1.68625C56.1975 1.68625 55.0423 0.306943 54.1307 0.383572C53.2191 0.460201 51.044 1.60962 51.1523 2.91231C51.2606 4.215 52.3798 5.62308 53.0116 5.62308C53.6433 5.62308 54.97 5.54646 55.674 4.91427C56.378 4.28208 56.5856 2.87402 56.1975 1.67669V1.68625Z" fill="#4460FF"/>
  <path d="M66.5954 7.37619C66.6135 6.90683 66.46 6.44707 66.1712 6.10224C65.3679 5.14438 63.5178 3.10412 62.2633 3.00834C60.6206 2.88381 58.4816 1.98342 57.9942 3.00834C57.5068 4.03325 61.0448 5.40299 61.4961 6.60032C61.9473 7.79765 61.9834 9.27277 63.6351 9.31109C65.1062 9.33982 66.5232 9.34939 66.6045 7.38577L66.5954 7.37619Z" fill="#4460FF"/>
  <path d="M59.7721 9.90469C59.7721 9.90469 57.4255 10.0196 57.3894 11.6193C57.3533 13.2189 58.653 13.6595 59.5916 13.6595C60.5302 13.6595 61.866 12.8453 61.8299 12.2802C61.7938 11.7151 61.857 9.79933 59.7631 9.90469H59.7721Z" fill="#4460FF"/>
  <path d="M62.507 11.5906C62.507 11.5906 61.6858 12.6346 63.0486 13.6595C64.4114 14.6845 65.1696 14.3684 65.5938 14.2917C66.0179 14.2151 67.2093 13.4776 66.8573 12.2611C66.5053 11.0446 66.3158 9.93347 65.2959 10.3741C64.276 10.8147 64.5738 11.6672 63.915 11.5139C63.2561 11.3607 62.7507 10.9871 62.5161 11.5906H62.507Z" fill="#4460FF"/>
  <path d="M69.7726 26.7535C69.7726 26.7535 68.7889 30.7765 67.9044 31.2937C67.0199 31.811 68.3466 33.1711 69.7726 32.7592C71.1986 32.3474 72.742 31.9834 72.769 30.2688C72.7961 28.5543 72.038 27.2995 71.5777 27.0313C71.1174 26.7631 70.4135 25.901 69.7636 26.7439L69.7726 26.7535Z" fill="#4460FF"/>
  <path d="M73.9507 23.9277C73.9507 23.9277 73.1113 26.3032 73.7882 27.3186C74.4651 28.3339 75.5663 28.5542 75.7468 28.3626C75.9273 28.1711 75.467 26.8779 75.9543 26.3894C76.4417 25.9009 77.3984 24.1672 76.4958 23.7457C75.5933 23.3243 74.2124 22.9603 73.9507 23.9182V23.9277Z" fill="#4460FF"/>
  <path d="M77.1099 29.7899C77.1099 29.7899 76.415 31.2363 76.8662 32.0217C77.3175 32.8072 77.9854 33.6213 78.5089 33.4298C79.0323 33.2382 78.9601 31.3129 78.7886 30.4891C78.6172 29.6654 77.525 29.1481 77.1099 29.7803V29.7899Z" fill="#4460FF"/>
  <path d="M76.1353 33.765C76.1353 33.765 75.1516 35.6233 75.7472 36.5141C76.3429 37.4049 77.2364 37.5677 77.8231 37.5103C78.4097 37.4528 79.1137 36.5236 79.1137 35.6424C79.1137 34.7612 78.3917 33.8416 77.8231 33.765C77.2545 33.6884 77.083 33.4298 76.1353 33.765Z" fill="#4460FF"/>
  <path d="M69.7181 35.9201C69.7181 35.9201 68.3192 37.9986 68.7705 39.1576C69.2217 40.3167 69.4384 40.5848 69.0142 40.9105C68.59 41.2362 67.4347 40.5082 67.1188 40.9105C66.8029 41.3128 67.1188 41.7917 66.5232 41.945C65.9275 42.0983 63.0935 41.7917 62.534 42.8741C61.9744 43.9565 61.83 44.7324 62.534 44.7324C63.2379 44.7324 63.9329 44.2534 64.2849 44.7324C64.6369 45.2113 66.3156 46.1788 66.839 45.2113C67.3625 44.2439 67.4708 43.1998 69.3571 43.2764C71.2434 43.3531 72.0196 44.3588 72.4438 43.0944C72.868 41.8301 73.2832 38.65 72.1279 37.5101C70.9727 36.3703 71.0088 35.5465 69.7091 35.9201H69.7181Z" fill="#4460FF"/>
  <path d="M81.1437 26.3897C81.1437 26.3897 76.4595 21.2747 76.8747 19.4644C77.2899 17.654 79.3928 17.0601 80.1419 17.6349C80.891 18.2096 82.1004 19.541 81.3061 20.4318C80.5119 21.3226 79.8801 22.338 80.4848 23.0085C81.0895 23.679 83.0029 24.0717 83.0751 25.1636C83.1473 26.2556 81.9108 27.2805 81.1346 26.3897H81.1437Z" fill="#4460FF"/>
  <path d="M71.4962 55.2017C71.4962 55.2017 68.8607 54.33 67.4077 54.7802C65.9546 55.2304 65.1152 56.4373 65.1152 56.9163C65.1152 57.3952 65.9095 59.991 67.4979 59.3205C69.0864 58.65 68.942 57.0121 69.5557 57.4144C70.1694 57.8167 70.2055 58.1806 70.1153 58.9469C70.025 59.7132 69.4655 60.3358 70.6297 60.5849C71.794 60.8339 73.0305 61.2745 73.3825 59.1481C73.7344 57.0216 72.7326 55.7285 71.4871 55.2113L71.4962 55.2017Z" fill="#4460FF"/>
  <path d="M74.3031 52.7788C74.3031 52.7788 73.0215 54.1677 73.2742 55.7481C73.5269 57.3286 73.7616 58.2961 74.9981 58.5451C76.2346 58.7941 78.9693 58.593 79.1317 56.8114C79.2942 55.0297 79.3393 52.6734 77.6606 52.2807C75.9819 51.888 75.0883 51.8305 74.2941 52.7788H74.3031Z" fill="#4460FF"/>
</svg>