<svg xmlns="http://www.w3.org/2000/svg" width="397" height="896" viewBox="0 0 397 896" fill="none">
  <g filter="url(#filter0_dd_3212_6668)">
    <path fill-rule="evenodd" clip-rule="evenodd" d="M227.212 181.118C227.212 181.118 227.944 180.342 228.277 179.95C228.602 179.557 228.729 178.8 228.512 177.89C228.296 176.98 228.684 176.291 228.684 176.291C228.684 176.291 229.532 174.902 229.983 173.676C230.435 172.44 228.918 170.879 228.557 169.662C228.196 168.446 228.629 166.453 229.09 165.687C229.55 164.911 229.604 164.011 229.604 164.011C229.604 164.011 230.353 163.034 230.335 162.363C230.317 161.693 231.852 161.664 232.781 161.549C233.72 161.434 234.442 159.691 234.424 158.541C234.406 157.392 235.173 157.756 236.012 157.267C236.852 156.769 237.619 156.559 237.853 155.505C238.088 154.451 237.574 153.972 236.788 153.034C236.012 152.085 236.491 150.831 236.482 150.16C236.473 149.49 235.94 148.35 235.245 147.497C234.55 146.645 232.51 146.875 232.086 146.884C231.662 146.894 230.2 145.773 229.595 145.112C228.99 144.451 227.601 143.043 227.601 143.043C227.601 143.043 228.142 142.248 227.312 140.926C225.832 138.58 221.987 136.214 222.79 134.135C222.528 135.467 224.297 136.415 224.297 136.415C224.297 136.415 225.191 137.555 225.931 137.536C225.2 137.555 226.662 138.359 227.456 139.777C228.241 141.204 229.198 142.143 229.64 143.283C230.083 144.432 231.987 146.108 232.664 146.099C233.341 146.089 235.218 146.53 236.229 145.936C237.24 145.342 237.817 144.748 237.547 143.608C237.267 142.459 236.572 141.52 235.705 140.677C234.848 139.825 233.395 139.48 232.546 139.394C231.698 139.317 230.426 139.346 230.426 139.346C230.426 139.346 231.03 140.198 231.301 140.773C231.563 141.338 230.299 141.75 230.119 140.984C229.929 140.218 229.243 139.47 229.243 139.47L228.882 138.149C228.882 138.149 229.315 137.65 230.489 137.785C231.671 137.928 232.98 138.062 234.162 138.206C235.335 138.35 237.998 139.614 238.169 140.764C238.341 141.913 239.081 142.727 239.83 143.369C240.579 144.02 241.328 145.151 242.51 145.792C243.693 146.424 243.35 143.963 243.332 142.804C243.314 141.645 245.074 141.779 245.958 142.258C246.852 142.737 248.305 142.373 249.767 142.334C251.229 142.296 250.624 141.166 250.597 139.681C250.57 138.196 252.05 138.829 253.07 138.809C254.09 138.79 254.072 137.631 255.092 137.612C256.112 137.593 255.272 139.097 253.973 140.112C252.673 141.127 254.018 142.43 255.182 142.564C256.364 142.708 257.673 142.516 258.684 141.827C259.695 141.147 261.148 140.457 262.014 139.614C262.881 138.771 264.641 138.905 265.661 138.877C266.68 138.848 266.374 137.708 266.374 137.708C266.374 137.708 267.375 136.367 267.502 135.208C267.628 134.058 267.89 132.392 267.863 130.907C267.836 129.422 267.339 126.29 267.321 125.141C267.303 123.991 267.709 122.66 268.585 122.305C269.451 121.951 270.769 121.769 271.049 120.936C271.328 120.102 271.617 119.93 272.366 120.581C273.116 121.223 273.973 120.38 273.973 120.38C273.973 120.38 274.569 120.696 275.291 120.524C276.022 120.342 276.906 120.821 276.906 120.821L278.792 120.122C278.792 120.122 279.496 118.79 280.381 118.934C281.265 119.087 281.247 118.091 281.798 116.597C282.357 115.102 283.829 115.236 285.146 115.045C286.464 114.853 286.004 114.202 287.159 112.861C288.305 111.51 287.854 110.696 287.096 109.566C286.338 108.426 287.069 108.244 288.386 108.215C289.704 108.187 290.462 109.326 291.482 109.307C292.502 109.288 292.782 108.129 293.666 108.436C294.551 108.752 294.289 110.399 294.307 111.233C294.325 112.066 296.049 110.533 296.771 110.026C297.493 109.518 298.964 109.815 299.84 109.47C300.715 109.125 299.533 108.484 298.639 107.842C297.746 107.2 296.248 105.246 294.903 104.125C293.567 102.995 291.473 100.725 289.695 99.7766C287.926 98.8283 286.049 100.687 283.432 101.884C280.814 103.091 277.746 103.484 275.706 103.857C273.657 104.231 273.513 103.905 272.61 102.765C271.717 101.625 271.256 100.974 269.939 101.003C268.621 101.031 266.247 103.292 266.247 103.292C266.247 103.292 264.803 100.869 264.785 99.8245C264.767 98.7804 264.578 97.0371 262.709 96.721C260.841 96.4145 259.144 96.7976 257.42 96.1367C255.706 95.4758 254.433 93.924 253.485 92.8991C252.538 91.8646 251.13 91.1941 251.103 89.9776C251.076 88.7612 250.57 86.3186 249.316 85.6481C248.061 84.9776 251.03 89.6136 250.074 88.2343C249.117 86.855 247.547 85.8397 246.003 85.8684C244.46 85.8972 241.193 85.9642 239.758 83.8952C238.323 81.8262 238.287 80.0829 238.26 78.33C238.232 76.5772 238.603 71.8549 237.953 70.3032C237.303 68.7418 237.899 67.3338 236.491 66.6633C235.083 65.9928 234.306 66.1843 233.512 65.1499C232.718 64.1249 232.068 62.3816 232.068 62.3816C232.068 62.3816 232.032 60.2839 231.852 59.2399C231.68 58.1958 232.411 55.9065 233.151 53.7896C233.882 51.6823 236.671 51.6249 237.917 51.4237C239.153 51.2225 240.516 48.9237 240.633 47.1708C240.76 45.4179 242.267 43.2915 242.547 41.711C242.826 40.1305 244.054 39.2301 244.054 39.2301C244.054 39.2301 242.177 38.3968 240.769 37.5539C239.352 36.7109 238.548 34.9772 237.447 34.1247C236.346 33.2722 233.846 32.276 232.276 31.2607C230.705 30.2454 228.539 30.8105 227.158 31.5385C225.777 32.2665 224.884 34.2013 222.871 34.7665C220.868 35.3316 218.034 33.2914 216.599 31.05C215.164 28.8086 211.562 27.1323 208.151 27.2089C204.739 27.2856 197.338 25.7051 195.172 26.2702C193.015 26.845 191.129 25.4752 190.326 24.2683C189.523 23.0614 185.912 20.5135 184.179 19.1533C182.456 17.7932 179.197 17.8602 179.197 17.8602L177.6 15.4464C177.6 15.4464 177.23 12.1322 175.497 10.9444C173.773 9.7567 172.78 6.63407 171.354 4.74708C169.919 2.85051 168.34 0.963523 166.463 0.130183C164.585 -0.703157 162.32 2.66852 161.111 4.44056C159.901 6.21261 156.815 6.7969 155.262 7.18005C153.719 7.56319 151.742 9.69923 150.361 10.4272C148.981 11.1552 146.959 11.0211 143.141 14.2491C139.323 17.4771 141.887 21.9599 142.699 24.048C143.511 26.1266 141.219 27.9273 139.08 29.891C136.941 31.8546 135.876 32.755 133.701 32.7933C131.525 32.8316 129.829 32.8699 127.834 34.4887C125.848 36.0979 125.244 37.1611 123.403 37.8987C121.552 38.6362 120.659 40.3987 120.659 40.3987C120.659 40.3987 119.134 41.8259 118.493 40.7914C117.852 39.7569 117.996 38.7033 116.904 38.732C115.812 38.7608 115.957 37.7071 115.939 36.6535C115.921 35.5998 116.507 33.6649 115.108 33.5213C113.709 33.3776 110.93 33.9619 108.926 34.8718C106.922 35.7914 104.973 39.4983 104.233 40.9064C103.484 42.324 102.744 44.6133 102.635 46.711C102.518 48.8087 101.173 51.8068 99.9457 52.3624C98.7182 52.9084 98.0684 51.7015 97.2832 51.0214C96.498 50.3413 95.1261 51.7685 94.3048 49.3356C93.4835 46.9026 93.2669 43.7608 92.3192 42.3815C91.3625 41.0022 90.4058 39.4504 88.9798 37.9083C87.5538 36.3661 84.8733 33.6266 84.1242 35.5615C83.3841 37.506 82.4635 38.0424 82.0303 39.6228C81.5971 41.2033 80.9833 41.7397 81.0014 42.7934C81.0194 43.847 79.6566 45.4466 79.6566 45.4466C79.6566 45.4466 78.4201 45.8202 77.4544 43.9141C76.4887 42.0175 75.0447 39.2493 74.7017 37.506C74.3587 35.7627 72.9417 34.5653 71.3894 34.5941C69.837 34.6228 67.5536 37.1228 67.5987 39.393C67.6438 41.6631 66.7413 43.4256 65.3514 43.6267C63.9615 43.8279 63.1943 44.5463 62.5987 45.7819C62.003 47.0175 61.1095 48.962 60.8207 50.1881C60.5319 51.4141 59.7918 53.3586 58.7268 54.2494C57.6618 55.1498 56.1455 57.2762 54.4127 55.9161C52.6798 54.5463 49.8548 52.3337 49.0425 50.6095C48.2393 48.8758 46.9577 46.9792 45.6941 45.7915C44.4306 44.5941 41.75 42.3815 40.0352 41.5386C38.3204 40.6956 35.9828 40.2263 35.0352 39.3738C34.0875 38.5213 31.1182 37.0079 30.0351 37.7263C28.9701 38.4447 26.5333 41.2895 25.7932 43.052C25.0531 44.8144 24.4755 47.2762 23.7083 47.8126C22.9412 48.3585 22.3455 49.939 22.3455 49.939C22.3455 49.939 22.0838 52.3911 20.6848 52.4199C19.2859 52.4486 18.8346 53.1574 18.8617 54.7283C18.8888 56.2992 18.2931 57.3624 17.192 56.8644C16.0999 56.3663 13.4465 55.3701 12.9952 56.4333C12.553 57.487 13.3923 61.1364 14.5115 62.6882C15.6216 64.2399 17.6884 66.9985 19.5747 68.3491C21.461 69.7093 24.1506 72.0944 25.2607 73.8281C26.3798 75.5522 28.1398 78.3109 29.0874 79.3358C30.0351 80.3607 29.4304 81.0791 30.0712 82.4584C30.712 83.8473 31.9936 85.5619 33.2481 86.4048C34.5027 87.2573 36.5605 89.3071 36.6236 92.4489C36.6778 95.5907 36.9485 101.884 38.5009 102.018C40.0533 102.162 41.2898 101.434 42.6526 99.834C44.0244 98.2344 44.1779 98.2248 44.8999 95.5907C45.631 92.9566 47.1382 91.0026 47.1743 92.9279C47.2104 94.8532 47.3909 96.2421 47.5714 97.6405C47.7519 99.0294 47.7971 101.654 49.1689 99.8819C50.5317 98.1099 51.1364 97.0467 51.6148 98.0812C52.1021 99.1252 51.4884 99.8245 52.3007 101.74C53.113 103.646 54.7015 105.533 53.1852 107.487C51.6689 109.441 50.1437 110.696 49.2231 111.233C48.3025 111.779 46.9126 112.334 48.483 113.349C50.0534 114.365 51.3169 115.562 50.2429 116.281C49.1689 116.999 47.9505 118.426 47.9776 119.825C48.0046 121.223 48.1851 122.794 47.2736 123.685C46.362 124.576 46.3981 126.501 47.8061 127.344C49.2231 128.187 50.6671 130.61 51.0011 132.516C51.353 134.432 51.9938 135.639 53.5643 136.836C55.1347 138.034 57.039 140.428 57.2195 141.827C57.4 143.225 58.8441 145.639 59.7827 146.147C60.7214 146.645 63.9886 146.932 63.9886 146.932C63.9886 146.932 64.485 148.8 65.6853 150.093C66.8857 151.386 67.6258 152.2 69.4038 152.66C71.1637 153.12 72.5085 154.413 73.6638 153.398C74.819 152.392 76.5519 151.022 77.6079 152.651C78.6638 154.289 80.4508 155.725 82.2288 156.846C84.0068 157.967 86.6784 159.892 88.0051 160.026C89.3228 160.17 89.6026 159.336 90.1622 157.833C90.7217 156.338 91.3806 152.354 92.6712 150.85C93.9618 149.336 95.9835 147.315 98.3211 147.267C100.659 147.219 104.025 146.827 105.307 144.978C106.597 143.139 108.763 141.769 110.993 143.216C113.222 144.652 116.336 146.731 117.681 148.034C119.025 149.327 119.043 150.486 120.821 151.434C122.599 152.382 124.675 153.829 125.442 155.457C126.21 157.095 126.534 158.733 128.439 158.695C130.343 158.656 132.103 158.79 132.708 159.93C133.312 161.07 133.628 162.229 133.628 162.229C133.628 162.229 131.137 164.25 129.414 165.064C127.69 165.888 126.886 169.231 125.496 169.653C124.116 170.074 119.838 174.068 121.444 176.003C123.042 177.929 125.307 178.072 127.708 176.655C130.117 175.237 133.547 173.005 134.784 173.762C136.011 174.519 136.724 175.285 135.352 176.099C133.98 176.913 131.95 180.285 131.977 181.655C132.004 183.024 132.058 185.965 135.551 187.258C139.053 188.561 142.573 191.032 144.486 191.195C146.399 191.348 148.511 192.67 149.062 194.03C149.603 195.39 149.802 196.367 149.125 197.364C148.448 198.35 147.78 199.538 147.78 199.538C147.78 199.538 144.54 202.737 143.872 204.318C143.204 205.898 143.628 209.998 142.257 211.013C140.885 212.019 137.275 214.442 136.083 215.448C134.883 216.454 135.136 220.755 133.574 220.984C132.013 221.214 128.899 221.674 125.912 220.161C122.933 218.657 119.964 218.322 117.87 217.776C115.776 217.23 114.034 217.076 111.092 217.527C108.15 217.977 103.818 219.241 104.729 221.377C105.641 223.513 107.635 228.168 105.596 230.563C103.556 232.948 102.04 236.119 99.2868 237.345C96.525 238.58 95.1622 239.979 96.9222 241.119C98.6821 242.259 102.211 245.123 104.648 245.467C107.085 245.803 111.471 248.063 112.897 249.998C114.323 251.923 119.251 254.96 120.307 256.109C121.372 257.268 123.511 260.161 125.072 260.123C126.634 260.084 128.746 261.416 131.408 264.098C134.062 266.789 134.784 268.14 137.942 269.644C141.101 271.148 145.804 271.445 148.43 272.556C151.056 273.676 155.253 275.152 157.013 276.1C158.764 277.039 160.362 278.571 160.362 278.571C160.362 278.571 158.015 283.131 156.679 286.291C155.343 289.452 157.988 291.349 159.26 294.462C160.533 297.575 162.681 300.851 164.432 301.205C166.174 301.569 167.419 302.91 168.322 304.845C169.224 306.78 171.842 307.125 174.27 306.876C176.697 306.627 177.826 310.918 178.367 312.47C178.918 314.022 181.382 315.545 182.447 316.694C183.512 317.843 183.367 319.616 183.367 319.616C183.367 319.616 181.49 321.809 182.907 322.949C184.315 324.098 186.634 327.183 186.842 328.936C187.05 330.698 188.322 333.801 189.559 334.951C190.795 336.1 191.833 335.497 194.667 338.763C197.51 342.029 200.885 346.273 202.853 349.357C204.821 352.451 209.315 348.169 212.149 350.65C214.974 353.141 215.669 353.313 215.813 351.359C215.958 349.395 217.664 348.38 218.223 349.941C218.774 351.493 219.712 355.392 220.091 356.953C220.461 358.514 222.799 362.777 224.216 364.118C225.633 365.459 225.66 367.03 227.05 367.384C228.449 367.748 230.019 368.112 230.019 368.112C230.019 368.112 230.272 372.221 230.516 375.938C230.759 379.654 231.148 381.991 231.725 384.923C232.303 387.844 233.178 388.419 234.595 389.76C236.012 391.101 236.554 392.26 236.599 394.616C236.644 396.972 237.538 398.323 239.117 399.262C240.696 400.21 243.458 398.974 244.622 396.407C245.796 393.84 248.287 396.915 248.503 399.654C248.729 402.394 251.184 403.706 252.962 405.823C254.731 407.94 257.502 407.097 257.502 407.097C257.502 407.097 260.002 406.925 260.561 409.07C261.112 411.216 260.66 414.252 262.457 414.932C264.262 415.612 266.437 416.149 267.484 417.279C268.522 418.409 269.966 420.392 272.014 420.488C274.063 420.593 275.435 418.984 276.861 420.105C278.287 421.225 278.188 422.959 278.188 422.959C278.188 422.959 276.473 426.886 275.986 428.342C275.498 429.789 272.583 431.005 270.552 431.762C268.522 432.519 267.375 432.978 265.886 435.028C264.388 437.078 265.688 438.199 266.762 440.766C267.827 443.343 268.603 443.611 269.794 445.747C270.986 447.883 272.935 449.866 274.009 452.289C275.074 454.712 277.61 453.515 279.28 453.908C280.95 454.301 281.473 455.297 281.635 457.174C281.798 459.042 282.565 459.166 283.594 459.291C284.614 459.415 286.69 460.67 286.69 460.67C286.69 460.67 286.491 462.097 286.96 463.285C287.439 464.473 287.493 467.203 286.771 469.435C286.049 471.667 286.554 474.052 286.608 477.299C286.672 480.546 283.928 479.741 281.807 480.124C279.695 480.508 280.173 481.705 281.148 485.268C282.123 488.831 285.616 489.272 285.616 489.272C285.616 489.272 285.182 490.651 283.856 492.73C282.529 494.808 284.099 497.845 284.469 501.255C284.839 504.665 284.027 509.971 283.459 512.376C282.899 514.78 281.419 517.203 279.487 518.774C277.547 520.355 277.439 522.749 277.186 525.489C276.933 528.228 277.258 529.588 275.796 532.175C274.325 534.77 274.496 535.441 275.146 537.826C275.796 540.202 277.791 541.868 279.027 542.864C280.264 543.87 280.742 545.048 280.742 545.048C280.742 545.048 280.336 547.788 280.228 549.838C280.11 551.887 280.119 552.577 281.211 554.263C282.303 555.949 284.632 558.803 286.518 562.347C288.404 565.891 288.657 571.696 288.72 574.943C288.784 578.19 288.558 582.462 288.558 582.462C288.558 582.462 286.347 585.384 285.282 588.87C284.217 592.348 282.33 595.853 282.213 598.219C282.096 600.585 281.482 602.06 282.646 604.033C283.811 606.016 286.184 611.61 286.184 611.61C286.184 611.61 286.843 616.179 286.979 617.846C287.114 619.513 288.486 625.308 288.432 627.808C288.377 630.308 287.177 634.493 285.652 637.501C284.126 640.509 281.41 642.463 280.471 642.722C279.524 642.98 277.709 641.831 276.852 641.371C276.004 640.911 273.774 640.48 272.727 640.739C271.671 640.997 269.361 641.639 268.63 642.252C267.908 642.856 266.978 644.072 266.978 644.072C266.978 644.072 263.576 648.325 262.15 649.992C260.724 651.658 258.332 653.354 256.734 654.838C255.146 656.333 252.222 655.844 251.085 655.317C249.947 654.8 247.835 654.474 246.418 656.323C244.992 658.172 243.873 658.929 241.653 660.787C239.424 662.655 235.687 661.457 232.772 661.515C229.857 661.572 231.003 662.281 229.758 664.858C228.512 667.434 228.918 671.975 228.314 674.36C227.709 676.735 227.907 678.737 227.907 678.737C227.907 678.737 226.824 677.789 225.732 678.268C224.64 678.737 224.442 678.852 222.916 677.76C221.4 676.668 219.685 675.806 217.673 675.279C215.66 674.762 213.16 674.475 212.149 673.929C211.138 673.392 209.044 673.881 207.871 675.145C206.698 676.41 206.319 677.664 205.344 678.919C204.369 680.184 205.29 681.285 202.167 680.452C199.053 679.618 198.16 680.088 198.304 682.559C198.449 685.04 200.371 685.787 200.913 688.143C201.454 690.5 202.492 692.617 201.445 695.117C200.389 697.617 200.642 700.212 201.373 702.109C202.104 704.006 203.819 704.647 205.759 706.975C207.709 709.302 208.322 710.308 209.848 711.621C211.373 712.942 213.765 712.674 214.378 713.326C214.992 713.986 216.924 715.759 216.463 717.789C216.003 719.829 215.633 721.755 215.633 721.755C215.633 721.755 214.415 723.441 215.146 724.887C215.877 726.333 217.339 728.958 215.813 729.513C214.297 730.079 213.016 730.902 211.454 729.082C209.893 727.253 207.763 726.506 206.445 725.471C205.127 724.437 204.541 724.312 204.216 726.046C203.891 727.77 202.844 727.923 201.869 726.496C200.894 725.059 198.99 723.766 198.367 721.793C197.745 719.81 197.709 718.23 197.104 717.31C196.499 716.391 195.678 716.41 194.847 716.429C194.017 716.448 192.275 717.416 191.228 718.23C190.181 719.044 188.34 721.343 186.806 721.103C185.272 720.874 179.965 720.318 179.965 720.318C179.965 720.318 178.196 720.356 177.158 721.439C176.12 722.521 173.927 724.686 173.114 725.5C172.311 726.314 171.733 726.851 170.65 726.218C169.585 725.577 168.159 725.078 167.212 724.964C166.264 724.849 165.443 724.734 165.443 724.734C165.443 724.734 165.948 726.975 166.445 727.76C166.932 728.546 167.889 729.724 169.306 729.561C170.714 729.398 174.017 729.466 174.387 730.778C174.766 732.1 175.389 734.073 175.651 735.261C175.912 736.448 177.419 741.458 178.142 742.502C178.864 743.546 180.903 745.356 181.842 745.605C182.79 745.854 184.45 746.343 185.172 747.397C185.903 748.441 187.104 750.146 187.474 750.797C187.835 751.448 188.81 753.153 189.992 753.402C191.174 753.632 193.178 753.728 194.261 754.906C195.344 756.075 196.057 756.199 196.535 756.975C197.023 757.761 198.331 758.527 198.331 758.527C198.331 758.527 198.819 759.581 199.884 759.82C200.949 760.06 202.131 760.701 203.539 760.002C204.938 759.313 206.102 758.489 207.032 757.943C207.961 757.397 209.748 758.288 210.696 758.527C211.644 758.776 213.187 759.667 214.378 760.309C215.57 760.951 216.833 759.198 218.106 758.374C219.387 757.55 222.682 757.349 223.846 756.927C225.019 756.506 228.079 756.314 229.018 756.42C229.956 756.544 231.509 757.301 232.583 758.211C233.657 759.121 234.604 759.102 235.426 758.948C236.247 758.805 237.204 759.571 238.377 759.418C239.55 759.255 241.68 759.609 242.736 759.724C243.801 759.83 244.388 759.954 244.983 760.471C245.588 760.989 247.456 760.558 248.512 760.27C249.568 759.983 248.801 757.081 248.666 756.017C248.53 754.964 248.521 754.561 247.908 753.383C247.303 752.205 245.263 750.385 245.263 750.385C245.263 750.385 243.729 750.289 244.189 749.351C244.64 748.412 245.001 748.671 245.218 747.732C245.435 746.803 245.543 746.132 245.543 746.132L246.211 745.174C246.211 745.174 247.583 747.033 247.601 747.971C247.619 748.91 248.151 750.5 249.009 751.611C249.866 752.722 251.563 754.293 252.05 753.431C252.538 752.579 252.447 752.291 252.682 751.161C252.917 750.021 254.316 749.245 254.343 750.653C254.37 752.062 254.307 753.096 254.234 753.862C254.162 754.619 254.433 755.462 255.417 754.686C256.41 753.91 255.994 753.834 256.996 754.092C257.998 754.351 259.009 754.236 258.485 753.211C257.962 752.186 257.79 751.908 257.366 751.353C256.942 750.797 257.077 749.379 257.077 749.379C257.077 749.379 258.26 749.916 258.404 748.881C258.549 747.837 259.126 747.263 259.126 747.263L260.354 746.362C260.354 746.362 261.491 746.879 261.022 747.809C260.552 748.728 260.408 749.274 261.373 749.437C262.348 749.6 262.691 750.864 262.691 750.864L264.325 751.736C264.325 751.736 265.263 750.261 264.451 749.734C263.63 749.198 263.287 747.933 264.578 747.904C265.868 747.876 266.518 748.048 266.392 749.686C266.256 751.324 265.967 753.153 265.967 753.153C265.967 753.153 265.67 754.801 264.397 755.366C263.115 755.941 263.151 758.125 263.151 758.125C263.151 758.125 264.298 759.006 265.57 757.713C266.843 756.41 267.637 755.663 267.637 755.663C267.637 755.663 268.901 753.814 270.2 754.514C271.509 755.213 272.98 756.094 273.765 754.983C274.56 753.872 275.652 752.033 277.267 751.63C278.874 751.238 280.146 750.117 281.915 749.715C283.684 749.312 284.65 748.747 286.085 747.809C287.52 746.87 288.486 746.487 288.486 746.487L289.686 744.475C289.686 744.475 292.312 742.1 293.387 741.113C294.461 740.136 296.997 739.533 298.098 739.37C299.19 739.207 301.699 737.109 302.656 736.132C303.612 735.155 305.535 734.293 306.509 733.862C307.475 733.431 310.056 735.433 311.266 734.858C312.475 734.284 313.278 732.08 313.603 729.743C313.928 727.406 314.75 725.749 315.219 724.916C315.688 724.082 316.988 722.004 317.34 721.314C317.692 720.624 319.407 721.276 320.255 721.122C321.103 720.969 322.547 720.385 323.766 720.088C324.975 719.791 325.219 720.193 325.977 721.41C326.726 722.626 327.196 721.937 328.026 720.414C328.847 718.9 329.073 717.789 329.407 716.276C329.75 714.762 331.095 715.289 332.548 715.117C334.001 714.954 334.596 714.111 335.544 712.866C336.492 711.611 337.674 709.667 338.856 707.588C340.03 705.509 341.013 706.18 341.997 706.697C342.981 707.224 344.533 705.96 345.003 705.27C345.481 704.571 347.313 705.222 348.414 705.471C349.515 705.72 350.301 702.425 350.752 700.49C351.203 698.565 352.647 698.124 353.613 697.55C354.57 696.984 355.273 696.343 355.273 696.343C355.273 696.343 357.683 696.295 358.062 697.099C358.432 697.904 358.802 698.172 360.598 697.588C362.395 697.013 363.938 695.892 363.793 694.532C363.649 693.172 362.882 691.026 363.342 689.523C363.793 688.019 363.893 687.061 363.387 685.72C362.882 684.369 362.024 683.574 363.108 683.277C364.182 682.98 364.543 682.837 364.543 682.837C364.543 682.837 364.019 680.538 364.985 680.385C365.941 680.231 366.194 680.768 366.799 680.758C367.404 680.749 368.017 681.41 368.017 681.41C368.017 681.41 369.362 682.329 369.822 681.237C370.283 680.136 370.283 679.867 370.878 679.456C371.474 679.034 371.573 677.952 371.682 677.262C371.79 676.582 371.998 674.81 372.34 673.852C372.683 672.894 372.792 672.214 373.64 672.061C374.479 671.917 375.184 671.084 374.579 670.547C373.965 670.021 373.234 669.494 372.855 668.814C372.485 668.143 371.853 666.39 371.853 666.39C371.853 666.39 371.835 665.298 371.691 664.36C371.555 663.411 370.969 664.379 369.786 665.49C368.604 666.601 368.451 665.241 368.442 664.302C368.432 663.363 368.893 662.664 369.488 662.109C370.075 661.553 370.68 661.132 371.492 659.896C372.313 658.66 371.808 657.444 371.537 655.959C371.275 654.465 370.635 652.578 370.003 651.103C369.371 649.618 370.328 649.197 371.095 651.218C371.853 653.239 372.485 654.858 372.747 655.93C373.008 657.013 373.063 659.858 372.72 660.959C372.377 662.051 374.1 663.641 374.822 664.044C375.553 664.436 376.871 663.862 376.609 662.923C376.348 661.974 376.456 661.429 376.438 660.078C376.42 658.727 375.183 657.386 374.443 656.725C373.712 656.065 372.945 653.632 372.44 652.559C371.943 651.486 372.395 650.116 373.225 649.283C374.055 648.45 373.559 647.913 372.322 646.314C371.095 644.704 371.555 643.746 371.655 642.53C371.754 641.304 371.97 639.81 372.683 639.388C373.396 638.967 373.144 638.028 372.999 636.936C372.855 635.854 370.626 632.511 369.642 631.716C368.667 630.921 369.137 630.499 369.723 629.541C370.31 628.583 370.689 629.388 371.294 629.647C371.898 629.905 372.404 631.122 373.026 631.917C373.64 632.721 374.768 634.733 375.382 635.806C376.005 636.879 376.366 636.735 376.465 635.787C376.573 634.829 376.33 634.704 376.925 634.283C377.521 633.861 378.378 634.388 378.712 633.162C379.055 631.936 376.998 631.706 376.998 631.706C376.998 631.706 376.618 630.356 376.474 629.139C376.33 627.913 376.212 627.923 375.355 627.53C374.507 627.137 374.38 626.735 374.118 625.518C373.857 624.302 373.36 623.497 372.386 622.836C371.411 622.175 371.88 621.629 371.618 620.537C371.357 619.455 374.082 616.955 374.913 615.988C375.743 615.02 376.799 613.641 377.611 612.127C378.424 610.624 379.164 611.553 379.299 612.233C379.434 612.903 379.462 614.407 378.866 615.087C378.279 615.777 377.792 615.786 377.693 616.61C377.584 617.424 377.954 617.693 378.676 617.53C379.398 617.386 380.238 617.089 381.312 616.802C382.386 616.514 382.431 618.679 381.971 620.049C381.51 621.419 382.368 621.945 383.46 622.329C384.552 622.712 384.173 621.907 384.037 621.093C383.902 620.279 384.128 619.455 384.597 618.497C385.066 617.539 384.082 616.61 382.972 615.547C381.871 614.484 381.483 613.133 380.851 611.783C380.22 610.442 380.31 608.401 380.77 607.175C381.23 605.94 381.763 605.231 381.763 605.231C381.763 605.231 384.525 606.878 384.173 604.321C383.821 601.763 383.794 600.576 382.747 600.767C381.691 600.959 380.788 601.486 381.059 599.943C381.339 598.401 381.014 597.721 380.093 596.715C379.164 595.71 377.44 592.501 376.655 591.15C375.869 589.8 375.066 587.597 375.653 586.054C376.23 584.503 376.673 583.813 376.194 582.625C375.716 581.438 374.949 581.112 374.66 581.974C374.371 582.836 373.017 583.21 373.288 581.485C373.559 579.78 374.182 580.441 374.768 579.407C375.355 578.372 375.779 576.485 374.57 576.677C373.36 576.869 372.593 576.035 372.593 576.035C372.593 576.035 371.808 574.34 371.627 573.152C371.456 571.964 371.42 570.077 372.322 569.723C373.225 569.359 373.532 569.359 373.857 570.374C374.182 571.39 373.586 572.089 373.586 572.089C373.586 572.089 373.315 574.139 374.371 573.784C375.427 573.42 375.12 573.085 375.86 572.386C376.609 571.687 377.205 571.169 376.276 570.326C375.355 569.493 375.635 568.458 375.635 568.458C375.635 568.458 376.059 566.744 375.003 567.108C373.947 567.472 373.478 566.457 372.079 564.435C370.68 562.424 369.858 559.196 371.104 561.045C372.35 562.903 372.972 563.736 373.595 564.579C374.218 565.422 374.967 565.058 374.795 563.87C374.615 562.673 373.252 562.702 372.927 561.524C372.602 560.336 372.268 558.631 372.268 558.631L371.934 556.763L371.591 554.713C371.591 554.713 371.7 552.836 371.988 551.974C372.277 551.112 370.572 549.1 370.572 549.1C370.572 549.1 370.996 547.385 371.122 546.016C371.248 544.646 372.638 545.987 372.512 547.529C372.386 549.071 372.864 550.259 372.864 550.259C372.864 550.259 373.64 551.102 373.044 552.137C372.458 553.181 374.272 552.96 374.705 551.591C375.138 550.211 375.247 548.161 375.229 547.136C375.211 546.112 375.202 545.594 374.128 544.933C373.054 544.272 373.044 543.592 373.026 542.568C373.008 541.543 373.297 540.68 372.81 539.157C372.331 537.634 371.221 534.924 370.436 533.736C369.651 532.558 368.27 531.389 367.349 530.556C366.42 529.723 367.304 528.171 367.304 528.171C367.304 528.171 368.541 529.512 369.01 530.355C369.479 531.198 370.851 531.169 370.851 531.169L369.443 528.975L369.389 526.073C369.389 526.073 369.353 524.023 368.423 523.19C367.503 522.357 366.537 519.464 365.463 518.64C364.389 517.807 364.949 515.575 364.624 514.387C364.299 513.199 363.342 510.824 362.259 509.655C361.176 508.487 361.745 506.59 362.187 505.556C362.593 504.588 362.232 502.491 362.205 502.989C362.241 502.031 362.828 500.019 362.927 499.406C363.026 498.764 362.783 497.5 362.079 496.245C361.375 494.991 360.445 493.353 359.299 492.366C358.153 491.37 356.961 488.218 355.932 487.347C354.894 486.485 354.046 482.931 353.902 481.408C353.757 479.885 353.378 477.347 352.9 476.082C352.421 474.827 352.503 472.912 352.485 472.021C352.467 471.13 352.44 469.349 352.44 469.349C352.44 469.349 353.55 468.18 354.335 467.787C355.12 467.385 353.965 466.14 352.611 466.044C351.248 465.948 351.212 464.032 351.194 462.758C351.176 461.484 350.932 460.603 350.021 460.239C349.109 459.875 348.983 458.735 348.965 457.845C348.947 456.954 348.604 456.322 348.134 455.699C347.674 455.067 346.329 455.862 346.329 455.862L346.799 456.868C346.799 456.868 346.591 457.634 346.022 457.777C345.463 457.921 343.793 456.983 343.793 456.983C343.793 456.983 342.349 454.846 341.699 454.147C341.049 453.438 340.661 453.304 340.661 453.304C340.661 453.304 340.562 455.038 339.786 454.473C339.01 453.908 338.225 453.209 338.071 451.628C337.918 450.048 334.921 446.791 333.225 445.105C331.537 443.41 329.001 437.557 328.071 435.565C327.132 433.572 326.455 431.417 326.437 430.411C326.419 429.406 325.273 429.568 324.262 430.162C323.251 430.766 323.477 429.176 324.109 428.582C324.732 427.998 323.829 427.442 322.927 427.021C322.024 426.599 320.724 425.622 320.724 425.622C320.724 425.622 320.309 424.042 319.407 423.486C318.495 422.93 318.847 420.9 318.324 420.057C317.8 419.204 319.948 418.294 320.968 417.844C321.979 417.394 322.223 416.81 322.214 415.948C322.204 415.086 322.448 414.942 321.555 415.095C320.661 415.258 320.408 415.411 319.371 414.712C318.333 414.013 317.575 414.319 316.302 414.635C315.029 414.952 315.95 416.225 316.862 417.212C317.773 418.199 317.394 418.208 316.51 418.802C315.625 419.396 314.452 418.409 313.54 417.423C312.629 416.436 312.99 415.277 313.874 414.54C314.759 413.802 314.858 412.509 314.858 412.509C314.858 412.509 315.851 411.043 314.704 411.072C313.558 411.101 312.268 410.833 311.103 409.712C309.93 408.582 308.766 407.882 308.107 406.752C307.448 405.612 306.112 402.614 305.49 403.352C304.867 404.089 303.973 404.243 303.323 403.687C302.674 403.122 301.383 402.432 301.157 403.735C300.923 405.038 300.823 406.187 299.668 406.072C298.513 405.948 296.085 405.564 295.3 404.722C294.524 403.879 293.332 401.886 294.226 401.867C295.119 401.848 295.76 401.982 294.587 400.708C293.414 399.434 291.97 397.442 290.155 396.331C288.35 395.22 286.266 393.524 285.868 392.672C285.471 391.819 285.327 391.101 285.327 391.101C285.327 391.101 283.811 391.714 282.899 391.149C281.996 390.593 279.93 389.482 278.504 388.218C277.078 386.953 276.825 387.097 276.04 386.11C275.255 385.114 275.236 384.108 276.139 384.52C277.042 384.942 278.991 386.484 278.991 386.484C278.991 386.484 280.561 388.61 281.338 388.744C282.105 388.869 282.376 389.731 283.395 389.712C284.415 389.693 285.58 390.095 284.406 389.118C283.242 388.131 281.816 387.442 281.166 386.886C280.516 386.321 279.226 385.344 278.44 384.635C277.664 383.936 276.5 383.38 275.715 382.537C274.93 381.685 273.639 380.708 273.639 380.708L272.177 379.961C272.177 379.961 270.39 377.26 269.153 376.302C267.917 375.344 263.657 370.344 262.249 369.396C260.841 368.447 259.722 364.357 259.523 362.796C259.325 361.235 257.899 359.692 255.967 358.361C254.027 357.03 252.267 355.497 252.267 355.497C252.267 355.497 248.025 351.675 246.256 350.334C244.496 349.003 238.936 352.327 237.158 350.21C235.38 348.093 231.978 342.489 231.075 340.736C230.173 338.993 226.581 332.805 226.211 331.436C225.841 330.075 223.693 326.981 224.712 325.2C225.723 323.418 226.382 321.445 226.382 321.445L227.041 319.472C227.041 319.472 226.996 317.125 226.111 316.359C225.227 315.592 223.431 312.307 222.889 311.33C222.348 310.363 222.853 309.184 222.853 309.184C222.853 309.184 220.949 309.807 219.216 310.037C217.483 310.267 218.494 308.294 218.494 308.294C218.494 308.294 217.059 305.966 215.642 304.826C214.234 303.677 211.599 301.972 210.182 301.023C208.774 300.075 208.954 300.458 207.925 301.272C206.896 302.077 206.535 301.301 206.517 300.123C206.499 298.945 205.633 298.964 204.405 298.59C203.187 298.226 200.127 292.613 198.701 291.071C197.284 289.539 193.864 283.14 192.799 281.79C191.725 280.439 190.777 275.765 190.569 273.811C190.362 271.856 188.954 271.301 188.954 271.301C188.954 271.301 188.737 268.954 187.681 268.188C186.625 267.422 185.398 267.058 185.903 266.071C186.409 265.084 186.58 265.084 185.181 264.328C183.773 263.571 182.88 262.029 182.149 260.084C181.418 258.14 181.237 257.948 182.068 255.784C182.898 253.609 182.88 252.632 184.613 252.594C186.346 252.556 187.041 252.354 187.347 250.19C187.654 248.025 187.113 246.674 188.304 245.467C189.495 244.26 189.829 243.475 190.154 242.096C190.479 240.716 190.804 239.73 190.804 239.73L190.037 235.63C190.037 235.63 192.239 232.651 191.869 231.281C191.499 229.921 190.407 227.594 190.912 226.214C191.409 224.825 191.914 223.839 191.707 222.278C191.499 220.716 191.472 219.155 193.349 217.153C195.227 215.161 196.427 214.346 196.409 213.369C196.391 212.392 195.84 211.032 195.84 211.032C195.84 211.032 197.736 210.208 197.718 209.231C197.7 208.254 198.539 206.664 198.512 205.496C198.485 204.327 198.476 203.733 198.981 202.354C199.477 200.975 201.662 199.854 201.662 199.854C201.662 199.854 202.221 201.051 202.537 201.655C202.862 202.249 204.225 201.444 204.225 201.444C204.225 201.444 205.985 201.32 206.978 200.869C207.961 200.419 209.631 199.002 209.694 198.216C209.757 197.431 210.362 196.99 211.283 197.143C212.203 197.297 212.348 196.597 213.088 195.295C213.837 193.982 215.949 192.21 216.933 191.233C217.907 190.266 217.817 189.394 217.646 188.36C217.474 187.325 218.99 186.511 219.36 185.649C219.73 184.777 220.651 184.499 221.653 185.084C222.664 185.659 223.729 185.045 224.712 184.231C225.696 183.436 227.24 181.061 227.24 181.061L227.212 181.118ZM359.57 741.64C359.57 741.64 360.932 742.301 361.51 742.521C362.079 742.742 362.304 743.422 362.602 743.996C362.891 744.561 362.909 745.491 362.647 746.295C362.376 747.1 361.519 746.899 361.366 746.324C361.212 745.759 361.275 745.174 360.707 745.069C360.138 744.964 360.12 744.389 360.183 743.469C360.237 742.55 359.579 741.64 359.579 741.64H359.57ZM370.544 779.485C370.544 779.485 370.183 779.859 370.238 780.223C370.283 780.587 370.292 780.816 369.967 780.864C369.642 780.912 369.687 781.142 369.615 781.372C369.534 781.602 369.055 781.707 368.884 781.391C368.712 781.075 368.703 780.711 368.866 780.472C369.019 780.242 369.136 779.964 369.461 779.868C369.786 779.772 370.544 779.476 370.544 779.476V779.485ZM244.054 850.396C244.054 850.396 242.944 851.545 243.097 852.675C243.242 853.806 243.26 854.514 242.258 854.668C241.256 854.831 241.4 855.53 241.157 856.248C240.922 856.957 239.415 857.273 238.9 856.296C238.386 855.319 238.359 854.189 238.846 853.47C239.334 852.752 239.695 851.899 240.696 851.593C241.698 851.286 244.063 850.396 244.063 850.396H244.054ZM147.609 870.492C147.338 869.218 147.582 868.796 148.457 868.633C149.333 868.47 150.091 868.739 149.73 869.601C149.369 870.463 149.748 870.587 149.008 871.172C148.268 871.746 147.888 871.756 147.618 870.492H147.609ZM146.715 807.704C146.715 807.704 146.805 805.587 146.914 804.878C147.022 804.16 147.482 801.468 147.464 800.759C147.446 800.05 148.024 797.206 148.249 795.788C148.475 794.37 149.287 790.539 149.387 789.399C149.486 788.269 151.977 787.225 152.979 786.64C153.972 786.056 155.578 784.6 155.939 783.604C156.3 782.608 157.654 781.727 158.538 781.564C159.414 781.401 160.434 782.234 160.434 782.234C160.434 782.234 160.389 779.974 160.244 778.843C160.1 777.713 159.333 777.023 158.439 776.19C157.546 775.357 156.02 774.542 155.262 773.987C154.495 773.441 152.248 774.044 151.12 774.073C149.991 774.102 149.224 773.546 148.583 772.847C147.943 772.157 147.157 770.472 146.887 769.351C146.616 768.221 145.975 767.675 143.935 766.152C141.896 764.638 140.56 766.793 139.693 767.378C138.827 767.952 138.222 769.38 137.735 770.242C137.248 771.104 135.858 770.558 134.856 770.864C133.854 771.171 134.089 770.318 134.08 769.466L134.035 766.927C134.016 766.075 133.493 764.677 133.096 763.834C132.708 762.991 131.697 762.454 130.821 762.751C129.946 763.048 129.928 761.918 130.036 760.788C130.136 759.657 129.242 758.537 128.845 757.416C128.448 756.295 127.193 756.602 126.2 756.908C125.208 757.205 125.181 755.797 125.406 754.801C125.641 753.805 125.361 752.54 125.361 752.54C125.361 752.54 126.625 752.933 127.383 753.355C128.141 753.766 129.269 753.45 130.136 752.732C131.002 752.004 131.462 749.59 131.941 748.594C132.428 747.598 135.677 746.678 137.933 746.63C140.19 746.582 142.437 747.1 142.437 747.1C142.437 747.1 144.847 748.029 145.722 748.019C146.598 748.01 148.854 746.975 150.036 745.72C151.21 744.466 152.69 742.109 153.114 741.113C153.529 740.117 154.919 738.747 155.777 737.741C156.634 736.745 158.376 737.071 159.233 736.075C160.082 735.079 159.721 733.239 159.703 732.262C159.685 731.285 158.674 729.715 158.34 728.977C157.997 728.249 157.834 725.308 157.816 724.207C157.798 723.105 158.547 722.234 159.405 721.592C160.271 720.96 162.013 721.295 162.907 722.138C163.791 722.981 164.459 723.948 164.459 723.948C164.459 723.948 164.703 725.538 164.829 726.515C164.955 727.492 165.524 728.948 166.418 729.791C167.302 730.634 168.394 731.305 168.394 731.305C168.394 731.305 170.398 731.534 171.228 731.784C172.058 732.033 173.006 732.406 173.376 733.201C173.746 733.987 173.078 736.257 173.078 736.257L172.997 738.01C172.997 738.01 172.798 738.996 173.259 740.577C173.719 742.157 173.295 742.655 173.313 743.766C173.331 744.878 171.706 745.51 171.706 745.51C171.706 745.51 173.078 749.035 173.755 750.127C174.423 751.219 175.434 752.789 176.535 753.383C177.636 753.977 178.313 755.184 179.089 756.152C179.865 757.119 180.876 758.7 180.876 758.7C180.876 758.7 181.246 759.456 182.14 760.433C183.033 761.41 184.956 763.345 185.732 764.456C186.508 765.567 188.701 768.776 189.342 769.475C189.983 770.165 192.528 772.244 193.81 773.201C195.082 774.169 196.093 774.849 196.996 775.682C197.889 776.516 198.286 777.636 199.062 778.613C199.839 779.59 200.732 780.845 200.732 780.845C200.732 780.845 202.898 782.215 204.162 783.182C205.434 784.15 206.21 785.117 207.492 787.071C208.783 789.025 211.743 792.924 212.907 794.744C214.072 796.554 217.835 803.269 218.35 804.246C218.873 805.223 220.416 807.311 220.443 808.441C220.471 809.572 219.234 811.018 219.234 811.018C219.234 811.018 219.378 812.005 219.767 812.838C220.164 813.681 219.415 814.121 218.431 815.127C217.447 816.142 216.328 816.727 215.073 816.89C213.819 817.062 212.321 817.656 211.201 817.962C210.082 818.269 206.851 820.031 205.47 820.482C204.098 820.932 199.116 823.298 199.116 823.298C199.116 823.298 196.752 824.62 193.891 825.951C191.03 827.282 189.026 827.608 188.033 828.192C187.041 828.777 183.304 830.415 181.806 831.008C180.308 831.602 179.225 834.169 178.367 835.175C177.51 836.19 177.284 837.742 177.284 837.742C177.284 837.742 176.679 838.892 175.849 841.593C175.019 844.294 173.575 847.723 172.113 850.156C170.65 852.589 169.757 851.756 167.627 852.225C165.497 852.694 164.784 854.974 163.701 857.12C162.609 859.265 161.472 859.15 160.614 859.735C159.748 860.309 158.502 860.903 157.491 860.788C156.49 860.673 154.991 861.267 154.125 861.852C153.259 862.436 151.138 863.47 149.883 863.499C148.629 863.528 146.616 863.423 145.1 863.03C143.583 862.637 142.572 862.235 141.679 861.258C140.785 860.29 143.782 859.524 145.154 859.064C146.526 858.604 146.652 858.604 146.887 857.608C147.121 856.612 146.354 855.779 146.083 855.08C145.822 854.371 147.961 854.898 147.961 854.898C147.961 854.898 147.943 854.045 147.807 853.346C147.672 852.637 149.179 852.896 149.802 852.733C150.425 852.58 151.544 851.708 151.544 851.708C151.544 851.708 152.022 850.424 151.742 848.873C151.463 847.321 149.874 849.754 149.387 850.625C148.899 851.488 147.654 851.507 146.625 850.817C145.614 850.137 145.578 848.432 145.804 846.88C146.029 845.319 145.849 842.215 145.948 841.219C146.056 840.223 145.758 837.541 145.605 836.133C145.452 834.725 146.336 835.127 146.336 835.127C146.336 835.127 146.327 834.562 145.93 833.441C145.533 832.321 145.497 830.769 145.479 829.351C145.461 827.934 145.397 825.108 146.129 823.537C146.851 821.966 146.796 818.853 146.616 815.884C146.435 812.924 146.715 807.675 146.715 807.675V807.704ZM214.017 794.016C214.017 794.016 215.967 797.512 216.481 798.345C216.996 799.179 218.043 801.286 218.431 801.985C218.819 802.685 220.109 804.361 220.75 805.338C221.4 806.315 222.294 807.282 223.025 806.142C223.756 804.993 223.747 804.428 223.485 803.585C223.214 802.742 223.07 801.468 222.059 801.209C221.048 800.941 219.893 799.409 219.117 798.441C218.35 797.464 216.039 794.974 216.039 794.974L214.008 794.025L214.017 794.016ZM147.32 779.121L146.715 780.548C146.715 780.548 147.103 780.96 148.096 780.663C149.098 780.357 148.204 779.38 147.311 779.121H147.32ZM136.67 787.684L135.713 789.725C135.713 789.725 136.327 790.318 137.897 789.878C139.477 789.437 138.06 788.058 136.67 787.684ZM120.686 797.627C121.02 796.056 122.238 794.466 122.635 796.248C123.024 798.029 122.5 798.709 122.5 798.709L120.686 797.627ZM123.935 798.058C124.17 797.177 125.045 796.286 125.316 797.282C125.587 798.278 125.217 798.661 125.217 798.661L123.935 798.068V798.058ZM123.249 799.792C123.971 799.37 125.145 799.437 124.72 800.347C124.287 801.267 123.782 801.238 123.782 801.238L123.249 799.792ZM131.318 775.491L130.442 776.564C130.442 776.564 130.984 776.87 132.392 776.631C133.809 776.391 132.554 775.682 131.309 775.5L131.318 775.491ZM128.24 772.502L129.522 773.106C129.522 773.106 129.901 772.723 129.621 771.726C129.35 770.74 128.475 771.621 128.24 772.502ZM129.468 769.111L130 770.558C130 770.558 130.506 770.587 130.939 769.667C131.363 768.747 130.19 768.68 129.468 769.111ZM130.181 766.554L130.479 768C130.479 768 130.749 768.039 130.975 767.119C131.201 766.2 130.569 766.132 130.181 766.554ZM131.715 768.144L132.238 769.102C132.238 769.102 132.744 769.111 133.177 768.498C133.61 767.895 132.428 767.857 131.715 768.144ZM129.756 763.939L130.28 764.897C130.28 764.897 130.785 764.916 131.228 764.303C131.661 763.69 130.479 763.652 129.756 763.939ZM119.522 760.903C120.244 760.615 121.426 760.644 120.993 761.257C120.56 761.87 120.054 761.86 120.054 761.86L119.522 760.903ZM119.711 757.857C120.677 757.426 121.796 757.493 120.839 758.422C119.874 759.351 119.395 759.322 119.395 759.322L119.711 757.866V757.857ZM119.531 754.044C119.856 753.623 120.397 753.699 120.208 754.609C120.018 755.519 119.792 755.491 119.792 755.491L119.531 754.044ZM119.738 751.64C120.298 751.209 121.218 751.286 120.885 752.196C120.551 753.115 120.153 753.077 120.153 753.077L119.738 751.64ZM122.166 757.77C122.672 757.263 123.583 757.186 123.376 758.144C123.159 759.102 122.762 759.13 122.762 759.13L122.166 757.77ZM95.9113 755.711C97.3012 756.104 98.6911 756.496 98.6731 755.653C98.655 754.811 98.646 754.236 99.7561 752.943C100.857 751.65 101.967 750.634 102.861 751.458C103.754 752.291 104.91 753.537 105.794 754.226C106.688 754.916 107.202 755.606 107.229 756.889C107.256 758.173 108.041 760.127 107.68 761.267C107.328 762.406 106.525 766.659 105.911 767.809C105.307 768.958 105 772.78 105 772.78C105 772.78 105.776 773.757 105.92 774.887C106.065 776.018 106.218 777.569 105.081 777.311C103.944 777.052 102.04 775.816 102.021 774.399C102.003 772.981 101.913 768.46 101.39 767.196C100.866 765.931 100.568 763.537 99.2958 762.569C98.0233 761.602 96.877 760.778 95.7308 759.667C94.5756 758.565 94.3138 757.579 94.5485 756.717C94.7831 755.864 95.9113 755.701 95.9113 755.701V755.711ZM104.774 780.136C105.659 780.462 106.561 781.621 105.568 781.985C104.567 782.349 104.179 781.851 104.179 781.851L104.774 780.146V780.136ZM75.3154 817.1C76.9761 817.407 78.6548 818.556 76.7685 818.939C74.8822 819.323 74.1602 818.824 74.1602 818.824L75.3154 817.11V817.1ZM80.2703 814.734C80.848 815.06 81.4346 816.238 80.7938 816.583C80.153 816.938 79.9003 816.439 79.9003 816.439L80.2794 814.734H80.2703ZM78.7812 815.903L78.4021 817.608C78.4021 817.608 78.6548 818.106 79.3046 817.761C79.9545 817.416 79.3588 816.238 78.7812 815.913V815.903ZM74.6566 823.901C75.2342 824.227 75.8299 825.405 75.18 825.759C74.5302 826.114 74.2775 825.606 74.2775 825.606L74.6566 823.901ZM182.392 757.426C182.392 757.426 181.716 757.588 181.147 756.123C180.569 754.667 180.109 753.201 178.791 752.368C177.474 751.535 175.046 750.117 174.486 748.901C173.918 747.684 173.9 746.333 173.99 745.596C174.089 744.858 174.288 744.121 175.28 744.466C176.264 744.81 177.591 745.768 178.367 746.238C179.134 746.717 179.802 747.31 180.777 747.167C181.752 747.023 182.844 747.128 183.503 747.483C184.161 747.837 184.396 748.45 184.622 749.054C184.847 749.667 185.587 751.257 185.587 751.257C185.587 751.257 187.041 753.086 187.871 753.862C188.71 754.638 191.436 755.644 192.266 756.161C193.097 756.678 194.288 757.579 195.019 758.489C195.741 759.399 196.833 761.372 197.546 761.621C198.259 761.87 200.994 763.403 201.815 763.383C202.636 763.364 204.297 764.131 204.297 764.131C204.297 764.131 206.779 764.427 207.537 764.159C208.295 763.901 209.604 763.872 210.588 763.977C211.562 764.083 213.548 764.897 214.424 765.376C215.308 765.845 216.626 766.803 216.86 767.655C217.095 768.508 217.998 770.088 218.548 770.682C219.099 771.286 220.777 773.46 220.777 773.46C220.777 773.46 222.086 775.031 222.718 775.299C223.35 775.567 223.999 777.11 225.028 778.498C226.057 779.897 228.35 781.544 229.117 782.234C229.884 782.924 232.059 785.002 233.07 785.261C234.072 785.52 235.128 788.048 235.408 789.456C235.687 790.874 237.104 792.962 237.998 793.652C238.891 794.341 238.557 796.755 238.449 797.742C238.341 798.738 237.862 800.022 236.761 801.315C235.651 802.608 234.667 803.901 233.675 804.495C232.682 805.079 230.552 805.127 228.404 804.6C226.265 804.073 227.131 803.355 225.976 802.244C224.83 801.133 223.314 800.884 222.303 800.194C221.283 799.504 218.079 795.893 217.05 794.792C216.021 793.681 212.303 789.514 211.147 787.838C209.983 786.161 206.905 782.694 206.905 782.694C206.905 782.694 205.777 780.874 204.793 780.529C203.81 780.184 201.391 779.37 200.949 778.642C200.497 777.924 198.71 775.127 197.817 774.293C196.932 773.451 195.94 772.732 195.163 772.263C194.387 771.784 193.62 771.315 193.62 771.315L192.636 770.069C192.636 770.069 190.967 768.91 190.479 768.259C189.992 767.608 187.826 765.002 187.338 763.949C186.851 762.895 185.894 762.387 185.055 761.343C184.216 760.299 182.392 757.416 182.392 757.416V757.426ZM174.595 736.362C174.721 736.621 174.983 738.211 175.353 739.006C175.723 739.791 176.454 741.506 176.706 742.157C176.95 742.818 176.743 744.15 175.894 742.971C175.046 741.793 174.224 741.678 174.315 740.615C174.414 739.552 174.468 736.104 174.595 736.362ZM207.284 759.964C208.232 760.347 208.584 760.337 209.649 760.452C210.705 760.558 212.257 761.726 212.257 761.726C212.257 761.726 212.618 761.985 213.792 761.956C214.965 761.927 216.265 761.908 216.86 762.426C217.465 762.943 219.126 763.834 220.416 763.814C221.707 763.795 223.467 763.355 224.794 765.05C226.12 766.745 227.826 769.763 228.675 771.075C229.523 772.387 230.958 773.815 233.241 776.027C235.516 778.24 236.725 779.667 238.621 780.29C240.516 780.912 241.229 781.295 242.42 782.071C243.612 782.847 243.729 782.972 244.117 784.562C244.505 786.142 244.415 787.742 243.684 786.822C242.962 785.912 242.375 786.056 241.924 786.861C241.464 787.665 241.247 788.604 239.812 787.301C238.377 786.008 237.646 784.696 236.463 784.322C235.281 783.949 233.124 782.138 231.806 780.97C230.489 779.801 227.736 777.205 226.653 776.171C225.579 775.127 223.422 773.182 222.573 772.014C221.725 770.836 219.207 768.24 218.602 767.186C217.998 766.142 216.211 765.117 215.137 764.475C214.063 763.834 212.285 762.943 211.102 762.703C209.92 762.464 208.512 762.761 207.095 762.387C205.678 762.023 205.2 761.765 205.543 760.96C205.886 760.155 207.284 759.993 207.284 759.993V759.964ZM220.452 759.293C220.452 759.293 223.747 758.958 225.272 758.661C226.797 758.364 228.675 758.192 229.749 759.102C230.823 760.012 233.088 761.286 234.162 762.196C235.236 763.096 237.366 763.987 238.909 764.217C240.444 764.447 241.518 765.357 243.648 765.577C245.769 765.797 247.195 766.429 247.899 766.42C248.603 766.41 249.099 767.32 249.343 768.249C249.595 769.169 249.261 770.242 249.045 771.439C248.837 772.636 248.269 774.236 246.87 774.667C245.462 775.098 244.767 775.903 244.279 774.849C243.792 773.805 242.492 773.69 242.862 774.744C243.233 775.797 243.603 776.583 243.025 777.129C242.447 777.675 242.014 779.667 241.184 779.418C240.353 779.169 239.397 778.393 238.44 777.617C237.483 776.841 235.236 776.094 234.261 774.389C233.287 772.684 231.012 770.874 229.92 769.044C228.828 767.205 227.619 765.51 226.536 764.475C225.462 763.431 225.101 762.914 223.44 762.684C221.788 762.454 219.911 762.895 218.846 762.244C217.772 761.602 216.472 761.104 217.285 760.682C218.097 760.27 220.434 759.293 220.434 759.293H220.452ZM235.543 760.04C236.364 760.155 236.734 760.548 237.682 760.931C238.63 761.305 239.812 761.42 240.985 761.391C242.158 761.362 243.106 761.219 244.045 761.2C244.983 761.18 245.696 761.429 246.527 761.947C247.357 762.464 249.27 764.15 248.341 764.562C247.402 764.983 246.933 764.859 246.094 764.217C245.254 763.575 244.198 763.594 242.772 763.086C241.346 762.588 239.956 763.278 238.882 762.904C237.817 762.531 237.583 762.531 236.626 761.755C235.669 760.979 234.713 759.935 235.534 760.05L235.543 760.04ZM374.579 666.026C373.866 666.448 373.144 666.333 373.369 665.643C373.595 664.963 374.073 664.676 374.073 664.676L374.579 666.026ZM379.416 620.863C380.283 621.792 381.501 622.855 382.124 623.794C382.747 624.733 383.613 626.074 382.521 626.093C381.429 626.112 380.833 625.72 380.084 624.781C379.344 623.842 378.613 623.181 377.765 623.066C377.199 622.99 376.949 622.543 377.016 621.725C377.115 620.499 376.998 620.643 377.711 620.087C378.424 619.532 379.407 620.863 379.407 620.863H379.416ZM375.247 643.076C376.564 642.913 377.53 642.616 378.026 643.564C378.532 644.503 379.146 645.442 377.819 645.605C376.501 645.768 375.418 646.055 374.561 645.126C373.703 644.197 373.929 643.239 375.247 643.076ZM361.302 615.451C361.465 615.116 362.015 613.928 361.88 613.909C361.916 613.909 363.071 614.206 363.965 613.88C361.591 614.809 362.575 612.827 361.311 615.451H361.302ZM359.001 611.284C360.093 612.29 361.88 613.909 361.88 613.909C361.718 613.89 360.084 612.29 359.001 611.284ZM376.781 559.981C376.781 559.981 377.674 559.579 378.035 560.336C378.387 561.093 378.848 561.591 378.063 561.734C377.268 561.878 376.808 561.121 376.808 561.121L376.79 559.972L376.781 559.981ZM373.36 530.69C373.36 530.69 374.263 530.288 374.606 531.044C374.958 531.801 375.427 532.299 374.633 532.443C373.848 532.587 373.378 531.839 373.378 531.839L373.36 530.69ZM339.975 449.971C340.463 450.345 340.616 450.718 340.445 451.101C340.337 451.705 340.12 452.002 339.786 452.002C339.795 451.666 339.642 451.331 339.317 450.996C339.317 450.421 339.533 450.067 339.975 449.971ZM356.736 452.672C356.736 452.672 356.05 452.433 356.158 451.791C356.257 451.149 356.456 449.751 356.817 450.632C357.169 451.523 357.178 452.155 357.178 452.155L356.736 452.672ZM362.458 456.628C362.458 456.628 363.351 456.226 363.703 456.983C364.055 457.739 364.524 458.237 363.73 458.381C362.945 458.525 362.485 457.768 362.485 457.768L362.467 456.628H362.458ZM287.06 390.401C287.06 390.401 288.982 390.22 289.894 391.637C290.814 393.055 293.035 395.603 294.334 396.589C295.634 397.566 296.031 398.428 297.574 398.974C299.118 399.511 301.067 400.919 300.183 401.8C299.307 402.681 298.91 402.116 298.008 401.848C297.105 401.58 295.95 400.737 295.155 399.463C294.37 398.179 293.188 396.762 291.888 395.497C290.589 394.233 290.074 393.955 289.154 392.825C288.242 391.695 287.06 390.421 287.06 390.421V390.401ZM269.135 359.099C269.135 359.099 267.204 357.968 268.233 357.556C269.271 357.145 270.146 357.518 270.146 357.518L270.173 358.888L269.135 359.099ZM212.718 158.331V158.35L212.691 158.369V158.388H212.682V158.398V158.417L212.664 158.436V158.455L212.646 158.465L212.636 158.484L212.627 158.503H212.618V158.532L212.6 158.551V158.57L212.573 158.589L212.555 158.618H212.546V158.637V158.656L212.519 158.666H212.51V158.685V158.704V158.723H212.492L212.483 158.752V158.771H212.456V158.79L212.438 158.81V158.829L212.42 158.848L212.411 158.858V158.877L212.393 158.886L212.375 158.905H212.366L212.357 158.925V158.944L212.339 158.953H212.321V158.982V159.001H212.312V159.02L212.294 159.03V159.049L212.266 159.059V159.078L212.248 159.097L212.23 159.116H212.221V159.145V159.164L212.203 159.183H212.194V159.193V159.212L212.176 159.231L212.158 159.25H212.149V159.279H212.14V159.308V159.327L212.122 159.336V159.356C211.328 160.515 209.712 160.697 208.692 160.716C207.673 160.735 206.896 162.2 206.102 162.756C205.326 163.283 205.118 163.235 205.1 163.225L212.799 158.426L212.718 158.331ZM210.913 139.921C210.407 140.026 209.911 140.026 209.496 140.189C209.821 139.059 209.974 140.122 210.913 139.921ZM213.359 157.641C213.855 157.009 214.324 156.693 215.218 156.674C214.568 156.683 213.927 157.095 213.359 157.641ZM229.875 170.132C230.119 169.691 230.236 169.183 230.759 169.605C231.274 170.026 231.22 170.314 230.777 170.543C230.326 170.773 229.875 170.132 229.875 170.132ZM229.09 179.787C229.812 178.886 230.561 177.766 230.263 178.982C229.965 180.189 229.541 180.84 229.009 181.157C228.467 181.482 229.09 179.787 229.09 179.787ZM226.978 183.513C227.7 182.613 228.449 181.492 228.151 182.708C227.853 183.925 227.429 184.567 226.888 184.883C226.346 185.199 226.978 183.513 226.978 183.513ZM251.391 153.11C251.391 153.11 251.41 153.972 251.834 153.963C252.258 153.953 252.375 155.582 252.041 156.166C251.707 156.741 250.931 156.089 250.417 155.62C249.902 155.151 249.307 154.969 248.359 154.71C247.42 154.442 247.926 154.241 247.826 153.57C247.727 152.9 247.556 152.909 247.294 152.239C247.032 151.568 246.698 152.248 246.012 151.788C245.326 151.319 245.056 150.562 245.047 150.083C245.038 149.605 245.714 149.106 246.039 148.628C246.364 148.139 248.07 148.302 249.09 148.561C250.119 148.829 250.552 149.681 250.985 150.151C251.419 150.62 252.357 150.601 253.458 150.677C254.568 150.754 253.657 152.114 252.808 152.516C251.969 152.919 251.382 153.12 251.382 153.12L251.391 153.11ZM242.583 149.547C242.583 149.547 243.702 150.198 243.964 150.955C244.234 151.721 244.496 152.382 243.819 152.488C243.142 152.603 242.014 151.281 242.014 151.281L241.653 150.333C241.653 150.333 240.967 150.342 240.868 149.384C240.769 148.436 240.931 148.331 240.074 147.583C239.207 146.836 238.079 145.323 239.18 145.39C240.29 145.467 240.462 145.936 240.985 146.693C241.509 147.449 241.608 148.024 241.788 148.589C241.969 149.164 242.565 149.538 242.565 149.538L242.583 149.547ZM238.052 147.919C238.052 147.919 239.162 148.57 239.433 149.327C239.704 150.093 239.965 150.754 239.288 150.869C238.612 150.974 237.483 149.662 237.483 149.662L237.122 148.714L238.043 147.928L238.052 147.919ZM276.301 127.095C277.908 126.568 280.11 127.181 278.82 128.532C277.52 129.882 276.076 130.735 275.065 131.578C274.054 132.421 272.466 133.944 271.319 135.122C270.164 136.3 268.115 136.348 268.684 135.179C269.253 134.02 269.388 133.522 269.948 132.181C270.507 130.85 270.182 129.039 270.913 128.694C271.635 128.35 271.789 128.35 271.762 126.865C271.735 125.38 271.41 123.407 272.43 123.388C273.449 123.369 274.487 123.838 274.803 124.825C275.11 125.811 276.311 127.104 276.311 127.104L276.301 127.095ZM269.812 126.568C269.56 127.574 268.738 127.899 268.72 126.903C268.702 125.907 267.944 125.754 268.819 125.045C269.695 124.327 270.029 123.551 270.39 124.317C270.742 125.083 270.697 125.783 270.426 126.175C270.155 126.568 269.812 126.578 269.812 126.578V126.568ZM286.491 120.332C285.616 121.597 284.28 122.162 284.767 120.964C285.255 119.767 284.244 119.777 285.859 118.723C287.475 117.679 288.341 116.673 288.459 117.516C288.576 118.35 288.143 119.192 287.565 119.71C286.979 120.237 286.491 120.323 286.491 120.323V120.332ZM292.439 116.118C293.197 116.185 293.964 116.625 294.569 116.07C295.174 115.514 295.237 115.131 296.401 114.872C297.565 114.614 298.116 114.758 297.448 115.782C296.78 116.807 296.572 117.037 296.103 117.44C295.634 117.842 295.697 117.986 295.011 117.851C294.316 117.708 293.838 117.88 293.161 118.35C292.484 118.828 291.329 119.623 291.247 118.934C291.166 118.235 292.051 118.148 291.563 117.382C291.067 116.616 290.516 116.635 291.202 116.386C291.879 116.137 292.43 116.127 292.43 116.127L292.439 116.118ZM278.413 134.834C278.413 134.834 278.865 133.273 279.551 133.187C280.237 133.101 280.11 133.484 279.921 134.576C279.731 135.668 279.533 136.214 278.856 136.769C278.179 137.325 278.684 138.79 278.016 139.806C277.348 140.821 277.195 140.055 277.385 139.126C277.574 138.196 277.836 137.564 277.827 137.181C277.818 136.798 278.07 135.629 278.404 134.844L278.413 134.834ZM273.116 141.597C273.106 140.898 273.567 139.806 274.027 139.183C274.496 138.551 274.695 137.775 275.236 137.765C275.778 137.756 276.401 137.583 276.283 138.436C276.157 139.288 275.634 140.773 275.101 141.559C274.56 142.344 274.181 143.905 273.224 144.384C272.276 144.873 271.933 145.036 271.247 145.045C270.561 145.055 270.209 144.834 270.895 144.355C271.572 143.877 271.635 143.723 272.177 143.091C272.718 142.459 273.116 141.597 273.116 141.597ZM274.749 144.662C275.354 143.953 275.417 143.637 275.679 143.014C275.94 142.392 276.347 141.76 276.437 142.995C276.527 144.231 276.518 144.001 275.986 144.787C275.453 145.572 274.776 146.357 274.379 147.296C273.982 148.235 273.07 150.725 272.917 149.643C272.764 148.561 272.123 147.651 272.736 147.095C273.341 146.539 273.54 146.147 273.946 145.831C274.352 145.514 274.749 144.652 274.749 144.652V144.662ZM294.569 112.746C295.192 112.89 296.031 113.407 295.345 113.733C294.668 114.049 294.036 113.838 294.036 113.838C294.036 113.838 293.946 112.593 294.569 112.746ZM296.076 112.171C296.275 111.779 296.121 111.089 296.807 111.07C297.493 111.051 298.874 111.108 298.26 111.664C297.646 112.219 296.897 112.468 296.897 112.468L296.067 112.171H296.076ZM282.276 128.168C282.43 128.857 282.728 130.323 282.728 130.323C282.728 130.323 282.258 130.955 281.852 131.118C281.446 131.281 280.95 130.438 280.931 129.748C280.913 129.058 280.841 128.589 281.247 128.11C281.654 127.631 282.132 127.478 282.276 128.168ZM277.231 133.311C277.042 133.857 276.635 134.988 276.635 134.988C276.635 134.988 276.058 135.16 275.715 135.055C275.372 134.949 275.39 134.126 275.67 133.647C275.949 133.177 276.094 132.823 276.563 132.727C277.023 132.622 277.421 132.765 277.231 133.311ZM274.478 135.965C274.352 136.329 274.081 137.085 274.081 137.085C274.081 137.085 273.702 137.21 273.468 137.133C273.242 137.057 273.251 136.511 273.44 136.194C273.63 135.878 273.72 135.639 274.036 135.572C274.352 135.505 274.614 135.601 274.478 135.965ZM296.943 124.537C296.78 125.016 296.419 126.003 296.419 126.003C296.419 126.003 295.914 126.156 295.616 126.06C295.318 125.965 295.336 125.256 295.58 124.844C295.823 124.432 295.95 124.125 296.356 124.039C296.762 123.953 297.096 124.078 296.943 124.547V124.537ZM282.935 121.348C282.773 121.817 282.412 122.813 282.412 122.813C282.412 122.813 281.906 122.966 281.608 122.871C281.311 122.775 281.329 122.056 281.572 121.654C281.816 121.242 281.942 120.936 282.348 120.85C282.755 120.763 283.098 120.888 282.935 121.357V121.348ZM279.343 123.752C279.406 124.125 279.533 124.911 279.533 124.911C279.533 124.911 279.262 125.246 279.027 125.342C278.801 125.428 278.549 124.978 278.567 124.604C278.576 124.231 278.549 123.982 278.783 123.733C279.018 123.484 279.289 123.397 279.343 123.761V123.752ZM287.096 141.08C286.915 141.702 287.06 141.894 287.204 142.325C287.34 142.756 287.33 143.264 286.365 142.66C285.39 142.066 285.561 142.172 285.607 141.539C285.661 140.907 285.868 140.208 285.661 139.557C285.444 138.905 284.731 137.229 285.661 137.717C286.599 138.206 287.953 138.407 287.655 138.953C287.358 139.499 287.412 139.786 287.168 140.131C286.933 140.467 287.096 141.08 287.096 141.08ZM291.049 137.717C290.823 138.359 290.336 139.719 290.336 139.719C290.336 139.719 289.65 139.921 289.244 139.796C288.838 139.662 288.865 138.685 289.199 138.12C289.533 137.555 289.704 137.143 290.264 137.018C290.823 136.903 291.284 137.066 291.058 137.717H291.049ZM286.933 136.242C286.789 135.888 287.051 135.783 287.367 135.84C287.682 135.898 287.782 136.118 287.989 136.434C288.188 136.74 288.215 137.286 287.989 137.373C287.764 137.459 287.376 137.354 287.376 137.354C287.376 137.354 287.078 136.606 286.933 136.242ZM279.244 155.448C279.099 155.093 279.361 154.988 279.668 155.036C279.984 155.093 280.083 155.323 280.291 155.63C280.489 155.946 280.525 156.492 280.291 156.578C280.065 156.654 279.677 156.559 279.677 156.559C279.677 156.559 279.379 155.802 279.244 155.448ZM272.601 153.11C272.466 152.756 272.718 152.651 273.034 152.708C273.35 152.756 273.449 152.986 273.657 153.302C273.856 153.618 273.883 154.164 273.657 154.241C273.431 154.327 273.043 154.231 273.043 154.231C273.043 154.231 272.745 153.484 272.601 153.12V153.11ZM272.574 155.428C272.448 155.792 272.168 156.549 272.168 156.549C272.168 156.549 271.78 156.664 271.554 156.587C271.328 156.52 271.337 155.965 271.527 155.649C271.717 155.333 271.807 155.103 272.123 155.036C272.43 154.959 272.691 155.064 272.565 155.428H272.574ZM268.323 147.248C267.917 147.469 267.059 147.928 267.059 147.928C267.059 147.928 266.41 147.622 266.112 147.296C265.814 146.97 266.157 146.444 266.626 146.329C267.096 146.223 267.375 146.099 267.881 146.367C268.386 146.645 268.72 147.018 268.314 147.239L268.323 147.248ZM265.76 150.064C266.166 149.844 267.023 149.384 267.023 149.384C267.023 149.384 267.673 149.691 267.971 150.016C268.278 150.333 267.926 150.869 267.457 150.984C266.987 151.089 266.707 151.214 266.202 150.946C265.697 150.677 265.363 150.294 265.769 150.074L265.76 150.064ZM269.857 143.264C269.857 143.264 269.587 143.541 269.641 143.8C269.695 144.068 269.587 144.212 269.623 144.605C269.659 145.007 268.72 144.624 267.962 144.557C267.213 144.49 268.161 143.838 268.485 143.57C268.81 143.292 268.874 142.842 269.018 142.488C269.162 142.133 269.018 142.133 269.821 142.162C270.625 142.191 270.489 142.459 270.273 142.641C270.056 142.823 269.911 142.871 269.848 143.273L269.857 143.264ZM267.8 141.3C267.646 141.75 267.303 142.698 267.303 142.698C267.303 142.698 266.816 142.842 266.536 142.756C266.256 142.67 266.265 141.98 266.5 141.578C266.735 141.185 266.861 140.888 267.249 140.802C267.646 140.716 267.971 140.84 267.809 141.29L267.8 141.3ZM265.155 143.062C264.993 143.513 264.65 144.461 264.65 144.461C264.65 144.461 264.171 144.605 263.883 144.518C263.594 144.432 263.612 143.742 263.846 143.35C264.081 142.957 264.198 142.66 264.587 142.574C264.984 142.488 265.309 142.603 265.146 143.062H265.155ZM262.827 147.756C262.655 147.306 262.971 147.172 263.368 147.248C263.765 147.315 263.892 147.603 264.135 147.986C264.388 148.369 264.424 149.059 264.135 149.164C263.855 149.269 263.368 149.145 263.368 149.145C263.368 149.145 262.989 148.206 262.818 147.765L262.827 147.756ZM268.576 152.823C268.305 152.66 268.549 152.411 268.919 152.239C269.28 152.066 269.469 152.162 269.794 152.258C270.119 152.344 270.336 152.727 270.11 152.938C269.884 153.149 269.424 153.331 269.424 153.331C269.424 153.331 268.847 152.986 268.576 152.823ZM256.59 147.957C256.364 147.507 256.789 147.373 257.312 147.44C257.836 147.507 258.007 147.794 258.341 148.177C258.675 148.561 258.729 149.25 258.341 149.346C257.962 149.451 257.312 149.327 257.312 149.327C257.312 149.327 256.816 148.398 256.581 147.947L256.59 147.957ZM258.133 146.147C257.899 145.773 258.332 145.658 258.855 145.706C259.379 145.764 259.55 146.003 259.875 146.329C260.209 146.654 260.254 147.229 259.875 147.315C259.496 147.411 258.846 147.315 258.846 147.315C258.846 147.315 258.35 146.53 258.124 146.156L258.133 146.147ZM255.011 151.539C254.785 151.166 255.209 151.051 255.733 151.108C256.256 151.166 256.428 151.405 256.762 151.731C257.086 152.047 257.141 152.641 256.762 152.727C256.382 152.813 255.733 152.718 255.733 152.718C255.733 152.718 255.236 151.932 255.011 151.549V151.539ZM173.394 45.9352C174.622 45.2168 176.138 43.2627 176.138 43.2627L177.04 45.188C176.571 44.2014 176.309 43.7225 176.093 43.5884C175.66 43.5405 175.344 44.7857 173.394 45.9352Z" fill="#4460FF"/>
  </g>
  <defs>
    <filter id="filter0_dd_3212_6668" x="0.875" y="0" width="395.842" height="895.545" filterUnits="userSpaceOnUse" color-interpolation-filters="sRGB">
      <feFlood flood-opacity="0" result="BackgroundImageFix"/>
      <feColorMatrix in="SourceAlpha" type="matrix" values="0 0 0 0 0 0 0 0 0 0 0 0 0 0 0 0 0 0 127 0" result="hardAlpha"/>
      <feMorphology radius="2" operator="erode" in="SourceAlpha" result="effect1_dropShadow_3212_6668"/>
      <feOffset dy="4"/>
      <feGaussianBlur stdDeviation="3"/>
      <feComposite in2="hardAlpha" operator="out"/>
      <feColorMatrix type="matrix" values="0 0 0 0 0.0627451 0 0 0 0 0.0941176 0 0 0 0 0.156863 0 0 0 0.03 0"/>
      <feBlend mode="normal" in2="BackgroundImageFix" result="effect1_dropShadow_3212_6668"/>
      <feColorMatrix in="SourceAlpha" type="matrix" values="0 0 0 0 0 0 0 0 0 0 0 0 0 0 0 0 0 0 127 0" result="hardAlpha"/>
      <feMorphology radius="4" operator="erode" in="SourceAlpha" result="effect2_dropShadow_3212_6668"/>
      <feOffset dy="12"/>
      <feGaussianBlur stdDeviation="8"/>
      <feComposite in2="hardAlpha" operator="out"/>
      <feColorMatrix type="matrix" values="0 0 0 0 0.0627451 0 0 0 0 0.0941176 0 0 0 0 0.156863 0 0 0 0.08 0"/>
      <feBlend mode="normal" in2="effect1_dropShadow_3212_6668" result="effect2_dropShadow_3212_6668"/>
      <feBlend mode="normal" in="SourceGraphic" in2="effect2_dropShadow_3212_6668" result="shape"/>
    </filter>
  </defs>
</svg>