<svg width="40" height="40" viewBox="0 0 40 40" fill="none" xmlns="http://www.w3.org/2000/svg">
<path d="M0.5625 7.07324C0.5625 3.55243 3.41669 0.698242 6.9375 0.698242H32.8125C36.3333 0.698242 39.1875 3.55243 39.1875 7.07324V32.9482C39.1875 36.4691 36.3333 39.3232 32.8125 39.3232H6.9375C3.41668 39.3232 0.5625 36.4691 0.5625 32.9482V7.07324Z" fill="#00BBFF"/>
<path d="M0.5625 7.07324C0.5625 3.55243 3.41669 0.698242 6.9375 0.698242H32.8125C36.3333 0.698242 39.1875 3.55243 39.1875 7.07324V32.9482C39.1875 36.4691 36.3333 39.3232 32.8125 39.3232H6.9375C3.41668 39.3232 0.5625 36.4691 0.5625 32.9482V7.07324Z" stroke="#00BBFF" stroke-width="0.75"/>
<path d="M26.0933 26.1787V26.7946C24.5493 27.6243 23.1177 27.9618 21.4583 27.9618C16.8993 27.9618 14.2218 24.4209 14.2218 20.0868C14.2218 15.1115 17.3887 12.209 21.194 12.209C24.0599 12.209 26.1693 13.4521 27.6008 14.8471L32.0502 11.0784C29.2968 7.9115 25.078 6.2915 21.194 6.2915C12.6412 6.2915 7.62646 12.3215 7.62646 20.0868C7.62646 28.7915 13.7324 33.7303 21.4583 33.7303C25.604 33.7303 29.6737 32.3353 32.1233 30.4509V19.7831C32.1233 19.5834 31.8871 19.4765 31.738 19.6059L27.3871 23.3578C26.5658 24.0665 26.0933 25.0959 26.0933 26.1815V26.1787Z" fill="#FAFAFA"/>
<path d="M31.6486 18.8379L27.1429 22.7219C26.4651 23.3069 25.6017 23.6276 24.7101 23.6276H20.8936V18.4272H31.4939C31.7104 18.4272 31.8117 18.6972 31.6457 18.8379H31.6486Z" fill="#DEF3FF"/>
</svg>
