<svg width="40" height="41" viewBox="0 0 40 41" fill="none" xmlns="http://www.w3.org/2000/svg">
<path d="M0.5625 7.69824C0.5625 4.17743 3.41669 1.32324 6.9375 1.32324H32.8125C36.3333 1.32324 39.1875 4.17743 39.1875 7.69824V33.5732C39.1875 37.0941 36.3333 39.9482 32.8125 39.9482H6.9375C3.41668 39.9482 0.5625 37.0941 0.5625 33.5732V7.69824Z" fill="#00BBFF"/>
<path d="M0.5625 7.69824C0.5625 4.17743 3.41669 1.32324 6.9375 1.32324H32.8125C36.3333 1.32324 39.1875 4.17743 39.1875 7.69824V33.5732C39.1875 37.0941 36.3333 39.9482 32.8125 39.9482H6.9375C3.41668 39.9482 0.5625 37.0941 0.5625 33.5732V7.69824Z" stroke="#00BBFF" stroke-width="0.75"/>
<path d="M7.57312 20.6933C7.57312 13.0404 12.5484 6.89795 21.3656 6.89795C25.1344 6.89795 29.2041 8.48139 32.1431 12.0617L27.5447 16.0189C26.1131 14.3229 23.9644 12.9279 21.3628 12.9279C17.4816 12.9279 14.2022 15.7911 14.2022 20.6933C14.2022 24.9908 17.0288 28.3433 21.3994 28.3433C23.8856 28.3433 26.0344 27.1761 27.5812 25.3283L32.1797 29.2854C29.8819 32.112 26.1497 34.3733 21.4022 34.3733C13.7128 34.3733 7.57031 29.5864 7.57031 20.6933H7.57312Z" fill="#FAFAFA"/>
</svg>
