<svg width="40" height="40" viewBox="0 0 40 40" fill="none" xmlns="http://www.w3.org/2000/svg">
<path d="M0.375 7.07324C0.375 3.55243 3.22919 0.698242 6.75 0.698242H32.625C36.1458 0.698242 39 3.55243 39 7.07324V32.9482C39 36.4691 36.1458 39.3232 32.625 39.3232H6.75C3.22918 39.3232 0.375 36.4691 0.375 32.9482V7.07324Z" fill="#00BBFF"/>
<path d="M0.375 7.07324C0.375 3.55243 3.22919 0.698242 6.75 0.698242H32.625C36.1458 0.698242 39 3.55243 39 7.07324V32.9482C39 36.4691 36.1458 39.3232 32.625 39.3232H6.75C3.22918 39.3232 0.375 36.4691 0.375 32.9482V7.07324Z" stroke="#00BBFF" stroke-width="0.75"/>
<path d="M22.8727 28.6633V33.3911H16.4658V23.9214C16.4658 23.5867 16.8286 23.3758 17.1183 23.5417L21.2808 25.9211C22.2652 26.4836 22.8727 27.5299 22.8727 28.6661V28.6633Z" fill="#DEF3FF"/>
<path d="M29.8815 6.65568L28.1715 12.2722L22.8727 12.2497V25.1676C22.8727 25.5022 22.5099 25.7132 22.2202 25.5472L18.0577 23.1679C17.0733 22.6054 16.4658 21.5591 16.4658 20.4229V12.2469H11.2065L9.49365 6.63037L29.8815 6.65287V6.65568Z" fill="#FAFAFA"/>
</svg>
