<svg width="40" height="41" viewBox="0 0 40 41" fill="none" xmlns="http://www.w3.org/2000/svg">
<path d="M0.375 7.69824C0.375 4.17743 3.22919 1.32324 6.75 1.32324H32.625C36.1458 1.32324 39 4.17743 39 7.69824V33.5732C39 37.0941 36.1458 39.9482 32.625 39.9482H6.75C3.22918 39.9482 0.375 37.0941 0.375 33.5732V7.69824Z" fill="#00BBFF"/>
<path d="M0.375 7.69824C0.375 4.17743 3.22919 1.32324 6.75 1.32324H32.625C36.1458 1.32324 39 4.17743 39 7.69824V33.5732C39 37.0941 36.1458 39.9482 32.625 39.9482H6.75C3.22918 39.9482 0.375 37.0941 0.375 33.5732V7.69824Z" stroke="#00BBFF" stroke-width="0.75"/>
<path d="M29.524 25.7994C29.524 32.0937 24.1353 34.355 19.6859 34.355C16.2575 34.355 12.7137 33.0359 9.85059 30.0969L13.5434 25.6109C15.5796 27.8356 18.0293 28.7778 19.8743 28.7778C21.9865 28.7778 22.8921 27.7231 22.8921 26.5165C22.8921 25.0456 21.95 24.4044 18.9321 23.389C18.3921 23.2034 17.8521 23.0094 17.3206 22.7984C13.8528 21.4231 10.7928 19.37 10.7928 14.794C10.7928 10.2181 14.5981 6.99217 19.5734 6.91905C23.0806 6.84311 26.284 8.19874 28.8462 10.384L25.3025 14.9825C23.0046 13.174 21.3453 12.4597 19.8378 12.4597C18.3303 12.4597 17.3515 13.25 17.3515 14.5325C17.3121 15.8122 18.2937 16.49 21.1934 17.6206C21.2356 17.6375 21.2778 17.6515 21.3171 17.6684C25.9718 19.4544 29.524 20.6806 29.524 25.7994Z" fill="#FAFAFA"/>
</svg>
