<svg width="40" height="41" viewBox="0 0 40 41" fill="none" xmlns="http://www.w3.org/2000/svg">
<path d="M0.375 7.44824C0.375 3.92743 3.22919 1.07324 6.75 1.07324H32.625C36.1458 1.07324 39 3.92743 39 7.44824V33.3232C39 36.8441 36.1458 39.6982 32.625 39.6982H6.75C3.22918 39.6982 0.375 36.8441 0.375 33.3232V7.44824Z" fill="#00BBFF"/>
<path d="M0.375 7.44824C0.375 3.92743 3.22919 1.07324 6.75 1.07324H32.625C36.1458 1.07324 39 3.92743 39 7.44824V33.3232C39 36.8441 36.1458 39.6982 32.625 39.6982H6.75C3.22918 39.6982 0.375 36.8441 0.375 33.3232V7.44824Z" stroke="#00BBFF" stroke-width="0.75"/>
<path d="M16.4559 29.2678L11.5312 33.765H26.3784L28.8084 28.1512H19.3303C18.2672 28.1512 17.2406 28.5506 16.4559 29.2678ZM25.5881 12.6234L28.0181 7.00684H11.5312L16.4559 11.5068C17.2406 12.224 18.2672 12.6234 19.3331 12.6234H25.5909H25.5881Z" fill="#FAFAFA"/>
<path d="M25.6442 17.7478L23.2114 23.1759H18.073C17.322 23.1759 16.7117 23.7862 16.7117 24.5371V26.3625C16.7117 27.5015 16.2336 28.5872 15.3927 29.355L10.5664 33.7621V7.00684L15.3927 11.4168C16.2336 12.1846 16.7117 13.2703 16.7117 14.4093V16.3837C16.7117 17.1346 17.322 17.745 18.073 17.745H25.6442V17.7478Z" fill="#DEF3FF"/>
</svg>
