<svg width="45" height="52" viewBox="0 0 45 52" fill="none" xmlns="http://www.w3.org/2000/svg">
<path d="M0 8C0 3.58172 3.58172 0 8 0H36.8C41.2183 0 44.8 3.58172 44.8 8V44C44.8 48.4183 41.2183 52 36.8 52H7.99999C3.58171 52 0 48.4183 0 44V8Z" fill="#E4E7EC"/>
<path d="M23.0016 14H26.2416C28.2578 14 29.2658 14 30.0359 14.3924C30.7133 14.7375 31.264 15.2883 31.6092 15.9656C32.0016 16.7357 32.0016 17.7438 32.0016 19.76V32.24C32.0016 34.2562 32.0016 35.2643 31.6092 36.0344C31.264 36.7118 30.7133 37.2625 30.0359 37.6076C29.2658 38 28.2578 38 26.2416 38H18.5616C16.5454 38 15.5373 38 14.7672 37.6076C14.0898 37.2625 13.5391 36.7118 13.1939 36.0344C12.8016 35.2643 12.8016 34.2562 12.8016 32.24V31.4M27.2016 27.2H21.8016M27.2016 22.4H23.0016M27.2016 32H17.6016M15.2016 23.6V17C15.2016 16.0059 16.0075 15.2 17.0016 15.2C17.9957 15.2 18.8016 16.0059 18.8016 17V23.6C18.8016 25.5882 17.1898 27.2 15.2016 27.2C13.2133 27.2 11.6016 25.5882 11.6016 23.6V18.8" stroke="#98A2B3" stroke-width="2.4" stroke-linecap="round" stroke-linejoin="round"/>
</svg>
