<svg width="60" height="60" viewBox="0 0 60 60" fill="none" xmlns="http://www.w3.org/2000/svg">
<path d="M12.5 22.5001V42.5001M23.75 22.5001V42.5001M36.25 22.5001V42.5001M47.5 22.5001V42.5001M7.5 46.5L7.5 48.5C7.5 49.9002 7.5 50.6002 7.77248 51.135C8.01217 51.6054 8.39462 51.9879 8.86502 52.2276C9.3998 52.5 10.0999 52.5 11.5 52.5H48.5C49.9001 52.5 50.6002 52.5001 51.135 52.2276C51.6054 51.9879 51.9878 51.6054 52.2275 51.135C52.5 50.6002 52.5 49.9002 52.5 48.5001V46.5001C52.5 45.0999 52.5 44.3999 52.2275 43.8651C51.9878 43.3947 51.6054 43.0122 51.135 42.7725C50.6002 42.5001 49.9001 42.5001 48.5 42.5001H11.5C10.0999 42.5001 9.3998 42.5001 8.86502 42.7725C8.39462 43.0122 8.01217 43.3947 7.77248 43.8651C7.5 44.3999 7.5 45.0999 7.5 46.5ZM29.1323 7.69288L10.6323 11.804C9.51463 12.0524 8.9558 12.1765 8.53866 12.4771C8.17073 12.7421 7.88182 13.1023 7.70287 13.519C7.5 13.9914 7.5 14.5638 7.5 15.7087L7.5 18.5C7.5 19.9002 7.5 20.6002 7.77248 21.135C8.01217 21.6054 8.39462 21.9879 8.86502 22.2276C9.3998 22.5 10.0999 22.5 11.5 22.5H48.5C49.9001 22.5 50.6002 22.5 51.135 22.2276C51.6054 21.9879 51.9878 21.6054 52.2275 21.135C52.5 20.6002 52.5 19.9002 52.5 18.5001V15.7087C52.5 14.5638 52.5 13.9914 52.2971 13.519C52.1182 13.1023 51.8293 12.7421 51.4613 12.4771C51.0442 12.1765 50.4854 12.0524 49.3677 11.804L30.8677 7.69288C30.5439 7.62092 30.382 7.58494 30.2184 7.57059C30.0731 7.55785 29.9269 7.55785 29.7816 7.57059C29.618 7.58494 29.4561 7.62092 29.1323 7.69288Z" stroke="#475467" stroke-width="4" stroke-linecap="round" stroke-linejoin="round"/>
</svg>
