<svg width="60" height="60" viewBox="0 0 60 60" fill="none" xmlns="http://www.w3.org/2000/svg">
<path d="M44.6944 50.2253C40.4232 53.3285 35.2793 54.9999 29.9998 54.9999C24.7203 54.9999 19.5763 53.3285 15.3052 50.2253M40.9591 7.53003C45.7042 9.8444 49.5949 13.6016 52.0735 18.2631C54.552 22.9246 55.4913 28.2511 54.7565 33.4792M5.24333 33.479C4.50856 28.2509 5.44777 22.9244 7.92634 18.2628C10.4049 13.6013 14.2956 9.84416 19.0408 7.52979M28.5856 16.4141L16.414 28.5857C15.919 29.0807 15.6715 29.3282 15.5787 29.6136C15.4972 29.8647 15.4972 30.1351 15.5787 30.3862C15.6715 30.6716 15.919 30.9191 16.414 31.4141L28.5856 43.5857C29.0806 44.0807 29.3281 44.3282 29.6135 44.4209C29.8646 44.5025 30.135 44.5025 30.3861 44.4209C30.6715 44.3282 30.919 44.0807 31.414 43.5857L43.5856 31.4141C44.0806 30.9191 44.3281 30.6716 44.4208 30.3862C44.5024 30.1351 44.5024 29.8647 44.4208 29.6136C44.3281 29.3282 44.0806 29.0807 43.5856 28.5857L31.414 16.4141C30.919 15.9191 30.6715 15.6716 30.3861 15.5788C30.135 15.4973 29.8646 15.4973 29.6135 15.5788C29.3281 15.6716 29.0806 15.9191 28.5856 16.4141Z" stroke="#475467" stroke-width="4" stroke-linecap="round" stroke-linejoin="round"/>
</svg>
