<svg width="60" height="60" viewBox="0 0 60 60" fill="none" xmlns="http://www.w3.org/2000/svg">
<path d="M53 55C53.7001 55 54.0501 55 54.3175 54.8638C54.5527 54.7439 54.7439 54.5527 54.8638 54.3175C55 54.0501 55 53.7001 55 53V27C55 26.2999 55 25.9499 54.8638 25.6825C54.7439 25.4473 54.5527 25.2561 54.3175 25.1362C54.0501 25 53.7001 25 53 25L47 25C46.2999 25 45.9499 25 45.6825 25.1362C45.4473 25.2561 45.2561 25.4473 45.1362 25.6825C45 25.9499 45 26.2999 45 27V33C45 33.7001 45 34.0501 44.8638 34.3175C44.7439 34.5527 44.5527 34.7439 44.3175 34.8638C44.0501 35 43.7001 35 43 35H37C36.2999 35 35.9499 35 35.6825 35.1362C35.4473 35.2561 35.2561 35.4473 35.1362 35.6825C35 35.9499 35 36.2999 35 37V43C35 43.7001 35 44.0501 34.8638 44.3175C34.7439 44.5527 34.5527 44.7439 34.3175 44.8638C34.0501 45 33.7001 45 33 45H27C26.2999 45 25.9499 45 25.6825 45.1362C25.4473 45.2561 25.2561 45.4473 25.1362 45.6825C25 45.9499 25 46.2999 25 47V53C25 53.7001 25 54.0501 25.1362 54.3175C25.2561 54.5527 25.4473 54.7439 25.6825 54.8638C25.9499 55 26.2999 55 27 55L53 55Z" stroke="#475467" stroke-width="4" stroke-linecap="round" stroke-linejoin="round"/>
<path d="M25 17C25 16.2999 25 15.9499 25.1362 15.6825C25.2561 15.4473 25.4473 15.2561 25.6825 15.1362C25.9499 15 26.2999 15 27 15H33C33.7001 15 34.0501 15 34.3175 15.1362C34.5527 15.2561 34.7439 15.4473 34.8638 15.6825C35 15.9499 35 16.2999 35 17V23C35 23.7001 35 24.0501 34.8638 24.3175C34.7439 24.5527 34.5527 24.7439 34.3175 24.8638C34.0501 25 33.7001 25 33 25H27C26.2999 25 25.9499 25 25.6825 24.8638C25.4473 24.7439 25.2561 24.5527 25.1362 24.3175C25 24.0501 25 23.7001 25 23V17Z" stroke="#475467" stroke-width="4" stroke-linecap="round" stroke-linejoin="round"/>
<path d="M7.5 32C7.5 31.2999 7.5 30.9499 7.63624 30.6825C7.75608 30.4473 7.94731 30.2561 8.18251 30.1362C8.4499 30 8.79993 30 9.5 30H15.5C16.2001 30 16.5501 30 16.8175 30.1362C17.0527 30.2561 17.2439 30.4473 17.3638 30.6825C17.5 30.9499 17.5 31.2999 17.5 32V38C17.5 38.7001 17.5 39.0501 17.3638 39.3175C17.2439 39.5527 17.0527 39.7439 16.8175 39.8638C16.5501 40 16.2001 40 15.5 40H9.5C8.79993 40 8.4499 40 8.18251 39.8638C7.94731 39.7439 7.75608 39.5527 7.63624 39.3175C7.5 39.0501 7.5 38.7001 7.5 38V32Z" stroke="#475467" stroke-width="4" stroke-linecap="round" stroke-linejoin="round"/>
<path d="M5 7C5 6.29993 5 5.9499 5.13624 5.68251C5.25608 5.44731 5.44731 5.25608 5.68251 5.13624C5.9499 5 6.29993 5 7 5H13C13.7001 5 14.0501 5 14.3175 5.13624C14.5527 5.25608 14.7439 5.44731 14.8638 5.68251C15 5.9499 15 6.29993 15 7V13C15 13.7001 15 14.0501 14.8638 14.3175C14.7439 14.5527 14.5527 14.7439 14.3175 14.8638C14.0501 15 13.7001 15 13 15H7C6.29993 15 5.9499 15 5.68251 14.8638C5.44731 14.7439 5.25608 14.5527 5.13624 14.3175C5 14.0501 5 13.7001 5 13V7Z" stroke="#475467" stroke-width="4" stroke-linecap="round" stroke-linejoin="round"/>
</svg>
