<svg width="61" height="60" viewBox="0 0 61 60" fill="none" xmlns="http://www.w3.org/2000/svg">
<path d="M30.333 5C36.5862 11.8459 40.1399 20.7301 40.333 30C40.1399 39.2699 36.5862 48.1541 30.333 55M30.333 5C24.0798 11.8459 20.5261 20.7301 20.333 30C20.5261 39.2699 24.0798 48.1541 30.333 55M30.333 5C16.5259 5 5.33301 16.1929 5.33301 30C5.33301 43.8071 16.5259 55 30.333 55M30.333 5C44.1401 5 55.333 16.1929 55.333 30C55.333 43.8071 44.1401 55 30.333 55M6.58306 22.5H54.0831M6.58301 37.5H54.083" stroke="#475467" stroke-width="4" stroke-linecap="round" stroke-linejoin="round"/>
</svg>
