<svg width="61" height="60" viewBox="0 0 61 60" fill="none" xmlns="http://www.w3.org/2000/svg">
<path d="M6.91769 32.5H21.9177M39.4177 32.5H54.4177M30.6677 17.5V52.5M30.6677 17.5C34.1195 17.5 36.9177 14.7018 36.9177 11.25M30.6677 17.5C27.2159 17.5 24.4177 14.7018 24.4177 11.25M10.6677 52.5L50.6677 52.5M10.6677 11.25L24.4177 11.25M24.4177 11.25C24.4177 7.79822 27.2159 5 30.6677 5C34.1195 5 36.9177 7.79822 36.9177 11.25M36.9177 11.25L50.6677 11.25M22.8688 35.8409C21.8671 39.6765 18.4629 42.5 14.4177 42.5C10.3724 42.5 6.96833 39.6765 5.9666 35.8409C5.88475 35.5275 5.84382 35.3708 5.83987 34.7447C5.83745 34.3609 5.98009 33.4759 6.10298 33.1123C6.30345 32.5191 6.52046 32.1843 6.95447 31.5147L14.4177 20L21.8809 31.5147C22.3149 32.1843 22.5319 32.5191 22.7324 33.1123C22.8553 33.4759 22.9979 34.3609 22.9955 34.7447C22.9916 35.3708 22.9506 35.5275 22.8688 35.8409ZM55.3688 35.8409C54.3671 39.6765 50.9629 42.5 46.9177 42.5C42.8724 42.5 39.4683 39.6765 38.4666 35.8409C38.3847 35.5275 38.3438 35.3708 38.3399 34.7447C38.3375 34.3609 38.4801 33.4759 38.603 33.1123C38.8035 32.5191 39.0205 32.1843 39.4545 31.5147L46.9177 20L54.3809 31.5147C54.8149 32.1843 55.0319 32.5191 55.2324 33.1123C55.3553 33.4759 55.4979 34.3609 55.4955 34.7447C55.4916 35.3708 55.4506 35.5275 55.3688 35.8409Z" stroke="#475467" stroke-width="4" stroke-linecap="round" stroke-linejoin="round"/>
</svg>
