<svg width="60" height="60" viewBox="0 0 60 60" fill="none" xmlns="http://www.w3.org/2000/svg">
<path d="M13.8 6.6L9.9 11.8C9.12754 12.8299 8.74131 13.3449 8.75027 13.776C8.75807 14.1511 8.93396 14.5029 9.22938 14.7342C9.56885 15 10.2126 15 11.5 15H48.5C49.7874 15 50.4312 15 50.7706 14.7342C51.066 14.5029 51.2419 14.1511 51.2497 13.776C51.2587 13.3449 50.8725 12.8299 50.1 11.8L46.2 6.6M13.8 6.6C14.24 6.01333 14.46 5.72 14.7388 5.50844C14.9858 5.32106 15.2654 5.18124 15.5635 5.09611C15.9 5 16.2667 5 17 5H43C43.7333 5 44.1 5 44.4365 5.09611C44.7346 5.18124 45.0142 5.32106 45.2612 5.50844C45.54 5.72 45.76 6.01334 46.2 6.6M13.8 6.6L9.1 12.8667C8.50635 13.6582 8.20952 14.054 7.99875 14.4898C7.81171 14.8765 7.6753 15.2858 7.59288 15.7074C7.5 16.1825 7.5 16.6772 7.5 17.6667L7.5 47C7.5 49.8003 7.5 51.2004 8.04497 52.2699C8.52433 53.2108 9.28924 53.9757 10.23 54.455C11.2996 55 12.6997 55 15.5 55L44.5 55C47.3003 55 48.7004 55 49.7699 54.455C50.7108 53.9757 51.4757 53.2108 51.955 52.2699C52.5 51.2004 52.5 49.8003 52.5 47V17.6667C52.5 16.6772 52.5 16.1825 52.4071 15.7074C52.3247 15.2858 52.1883 14.8766 52.0013 14.4898C51.7905 14.054 51.4937 13.6582 50.9 12.8667L46.2 6.6M40 25C40 27.6522 38.9464 30.1957 37.0711 32.0711C35.1957 33.9464 32.6522 35 30 35C27.3478 35 24.8043 33.9464 22.9289 32.0711C21.0536 30.1957 20 27.6522 20 25" stroke="#475467" stroke-width="4" stroke-linecap="round" stroke-linejoin="round"/>
</svg>
