<svg width="88" height="98" viewBox="0 0 88 98" fill="none" xmlns="http://www.w3.org/2000/svg">
<path d="M66.31 70.9302V73.1202C60.82 76.0702 55.73 77.2702 49.83 77.2702C33.62 77.2702 24.1 64.6802 24.1 49.2702C24.1 31.5802 35.36 21.2602 48.89 21.2602C59.08 21.2602 66.58 25.6802 71.67 30.6402L87.49 17.2402C77.7 5.98022 62.7 0.220215 48.89 0.220215C18.48 0.220215 0.650024 21.6602 0.650024 49.2702C0.650024 80.2202 22.36 97.7802 49.83 97.7802C64.57 97.7802 79.04 92.8202 87.75 86.1202V48.1902C87.75 47.4802 86.91 47.1002 86.38 47.5602L70.91 60.9002C67.99 63.4202 66.31 67.0802 66.31 70.9402V70.9302Z" fill="#4460FF"/>
<path d="M86.0601 44.8301L70.0401 58.6401C67.6301 60.7201 64.5601 61.8601 61.3901 61.8601H47.8201V43.3701H85.5101C86.2801 43.3701 86.64 44.3301 86.05 44.8301H86.0601Z" fill="#00BBFF"/>
</svg>
