<svg width="71" height="98" viewBox="0 0 71 98" fill="none" xmlns="http://www.w3.org/2000/svg">
<path d="M70.775 67.3605C70.775 89.7405 51.615 97.7805 35.795 97.7805C23.605 97.7805 11.005 93.0905 0.825012 82.6405L13.955 66.6905C21.195 74.6005 29.905 77.9505 36.465 77.9505C43.975 77.9505 47.195 74.2005 47.195 69.9105C47.195 64.6805 43.845 62.4005 33.115 58.7905C31.195 58.1305 29.275 57.4405 27.385 56.6905C15.055 51.8005 4.17501 44.5005 4.17501 28.2305C4.17501 11.9605 17.705 0.490508 35.395 0.230508C47.865 -0.0394915 59.255 4.78051 68.365 12.5505L55.765 28.9005C47.595 22.4705 41.695 19.9305 36.335 19.9305C30.975 19.9305 27.495 22.7405 27.495 27.3005C27.355 31.8505 30.845 34.2605 41.155 38.2805C41.305 38.3405 41.455 38.3905 41.595 38.4505C58.145 44.8005 70.775 49.1605 70.775 67.3605Z" fill="#4460FF"/>
</svg>
