<svg width="628" height="123" viewBox="0 0 628 123" fill="none" xmlns="http://www.w3.org/2000/svg">
<g clip-path="url(#clip0_4705_60356)">
<path d="M143.145 7.07812L191.198 120.913H613.533C621.256 120.913 627.519 114.65 627.519 106.928V21.0627C627.519 13.3407 621.256 7.07812 613.533 7.07812H143.145Z" fill="#E4E7EC"/>
<path d="M129.252 8.1311L117.298 39.0745L134.203 81.7117L141.39 101.793L149.057 120.894H175.845L129.252 8.1311Z" fill="#3644F5"/>
<path d="M128.808 7.07812H106.435L59.3979 120.894H86.1865L129.251 8.13112L128.808 7.07812Z" fill="#00BBFF"/>
<path d="M37.8747 69.9808L41.662 59.5062C41.8467 58.9705 41.4588 58.4163 40.8861 58.4163H37.3389C36.7107 58.4163 36.175 57.9544 36.0826 57.3263L35.1773 50.8975H46.7426C51.8786 50.8975 55.9985 49.475 59.1023 46.6301C62.206 43.8036 63.7579 40.2936 63.7579 36.1186C63.7579 31.9435 61.9844 28.0641 58.4557 25.1268C54.927 22.1895 50.5299 20.7116 45.3015 20.7116C40.3688 20.7116 36.489 21.783 33.6624 23.926C30.8173 26.0689 28.785 28.5813 27.5657 31.4632C26.3279 34.3636 25.7182 36.876 25.7182 39.019H2.75393C2.75393 37.0792 3.10496 34.5114 3.807 31.3154C4.49057 28.101 5.74686 24.7203 7.57587 21.1919C9.38641 17.6634 11.899 14.3197 15.1136 11.1607C18.3282 8.00169 22.4112 5.43385 27.3994 3.45717C32.3691 1.48049 38.4474 0.48291 45.6156 0.48291C52.7839 0.48291 59.6011 1.79454 66.0858 4.4178C72.552 7.04106 77.8358 10.8466 81.9003 15.816C85.9647 20.7855 87.997 26.8079 87.997 33.8833C87.997 38.6864 87.0363 42.843 85.0964 46.316C83.175 49.7891 80.8287 52.6525 78.039 54.9063C75.2493 57.1416 72.4781 58.7488 69.6884 59.7279V60.6885C75.0461 62.6098 79.7756 65.6764 83.8955 69.9069C88.0154 74.1374 90.0846 79.8457 90.0846 87.0135C90.0846 94.1813 88.0154 100.887 83.8955 106.189C79.7756 111.491 74.344 115.518 67.6007 118.308C60.8574 121.079 53.5413 122.483 45.6156 122.483C37.6899 122.483 31.4084 121.522 26.1062 119.583C20.8224 117.661 16.4992 115.149 13.1922 112.045C9.86676 108.942 7.28028 105.653 5.39584 102.18C3.52988 98.7073 2.25511 95.3821 1.55307 92.2231C0.851022 89.0641 0.5 86.4778 0.5 84.4457H23.9446C23.9446 86.681 24.5912 89.1749 25.866 91.909C27.1592 94.6246 29.3208 97.0077 32.3691 99.0398C35.4175 101.072 39.7221 102.088 45.3015 102.088C50.881 102.088 55.8692 100.592 59.6565 97.5989C63.4623 94.6062 65.3652 90.5974 65.3652 85.5541C65.3652 81.065 63.721 77.3518 60.4694 74.4145C57.1994 71.4587 52.5806 69.9993 46.5763 69.9993H37.8747V69.9808Z" fill="#3644F5"/>
<path d="M45.4306 58.8227L38.8536 76.9823L37.2832 65.8057C37.1169 64.7158 36.1932 63.9214 35.1032 63.9214H28.9511C27.9534 63.9214 27.2883 62.9608 27.6024 62.0371L34.1794 43.896L35.7498 55.0541C35.9161 56.144 36.8398 56.9384 37.9298 56.9384H44.082C45.0796 56.9384 45.7447 57.899 45.4306 58.8227Z" fill="#00BBFF"/>
<path d="M183.383 38.8896H180.279L187.244 19.5107H190.625L197.59 38.8896H194.486L189.017 23.0392H188.87L183.383 38.8896ZM183.9 31.2969H193.969V33.7539H183.9V31.2969Z" fill="#667085"/>
<path d="M205.386 39.1667C204.222 39.1667 203.169 38.8711 202.246 38.2615C201.322 37.6519 200.601 36.8021 200.084 35.6752C199.567 34.5483 199.308 33.2182 199.308 31.6479C199.308 30.0777 199.567 28.7291 200.103 27.6207C200.638 26.5123 201.359 25.644 202.283 25.0528C203.206 24.4617 204.241 24.1661 205.405 24.1661C206.31 24.1661 207.031 24.3139 207.585 24.6095C208.139 24.905 208.564 25.256 208.878 25.6625C209.192 26.0504 209.414 26.4014 209.599 26.7155H209.765V19.5107H212.592V38.8896H209.82V36.6358H209.58C209.414 36.9499 209.174 37.3009 208.841 37.6888C208.527 38.0768 208.084 38.4278 207.529 38.7233C206.975 39.0189 206.255 39.1667 205.368 39.1667H205.386ZM205.996 36.7651C206.809 36.7651 207.492 36.5434 208.065 36.1186C208.619 35.6937 209.063 35.084 209.358 34.3081C209.654 33.5322 209.802 32.6455 209.802 31.6295C209.802 30.6134 209.654 29.7451 209.358 28.9877C209.063 28.2303 208.638 27.6391 208.084 27.2143C207.529 26.7894 206.827 26.5862 205.996 26.5862C205.165 26.5862 204.444 26.8078 203.871 27.2512C203.299 27.6946 202.874 28.3042 202.597 29.0616C202.32 29.819 202.172 30.6873 202.172 31.6479C202.172 32.6086 202.32 33.4953 202.615 34.2712C202.911 35.0471 203.336 35.6567 203.908 36.1186C204.481 36.5804 205.183 36.8021 206.014 36.8021L205.996 36.7651Z" fill="#667085"/>
<path d="M229.034 24.3694L223.769 38.9081H220.739L215.455 24.3694H218.485L222.161 35.5459H222.309L225.986 24.3694H229.016H229.034Z" fill="#667085"/>
<path d="M235.5 39.2221C234.577 39.2221 233.745 39.0559 233.006 38.7049C232.267 38.3539 231.676 37.8551 231.251 37.2085C230.826 36.5619 230.604 35.7491 230.604 34.7884C230.604 33.9756 230.771 33.2921 231.085 32.7563C231.399 32.2206 231.824 31.8142 232.36 31.5001C232.895 31.1861 233.505 30.9644 234.152 30.7981C234.798 30.6319 235.482 30.521 236.184 30.4471C237.052 30.3548 237.754 30.2624 238.309 30.1885C238.844 30.1146 239.251 30.0222 239.491 29.856C239.731 29.7082 239.86 29.468 239.86 29.117V29.0431C239.86 28.2118 239.639 27.5837 239.158 27.1219C238.696 26.66 238.013 26.4384 237.089 26.4384C236.165 26.4384 235.389 26.6416 234.835 27.0665C234.281 27.4914 233.911 27.9532 233.708 28.452L231.048 27.8424C231.362 26.9556 231.824 26.2351 232.433 25.6994C233.043 25.1637 233.745 24.7573 234.54 24.4986C235.334 24.2585 236.165 24.1292 237.052 24.1292C237.625 24.1292 238.253 24.203 238.9 24.3324C239.546 24.4617 240.156 24.7203 240.729 25.0713C241.301 25.4223 241.763 25.9396 242.133 26.6046C242.502 27.2697 242.687 28.1379 242.687 29.1909V38.8342H239.916V36.839H239.805C239.62 37.2085 239.343 37.5595 238.974 37.9105C238.604 38.2615 238.142 38.5571 237.57 38.7972C236.997 39.0374 236.313 39.1482 235.5 39.1482V39.2221ZM236.11 36.9499C236.886 36.9499 237.57 36.8021 238.124 36.488C238.678 36.174 239.103 35.7676 239.399 35.2688C239.694 34.77 239.842 34.2342 239.842 33.6616V31.7957C239.75 31.8881 239.546 31.9805 239.269 32.0728C238.974 32.1652 238.66 32.2206 238.29 32.2945C237.921 32.3499 237.57 32.4053 237.218 32.4608C236.867 32.5162 236.59 32.5531 236.35 32.5716C235.796 32.6455 235.297 32.7563 234.854 32.9226C234.41 33.0889 234.041 33.329 233.782 33.6246C233.505 33.9387 233.376 34.3266 233.376 34.8439C233.376 35.5459 233.634 36.0816 234.152 36.4326C234.669 36.7836 235.334 36.9683 236.128 36.9683L236.11 36.9499Z" fill="#667085"/>
<path d="M249.264 30.2623V38.8895H246.438V24.3508H249.153V26.7154H249.338C249.671 25.9395 250.206 25.3299 250.908 24.868C251.629 24.4062 252.534 24.166 253.624 24.166C254.622 24.166 255.472 24.3692 256.229 24.7941C256.968 25.2005 257.541 25.8286 257.966 26.6415C258.372 27.4543 258.576 28.4704 258.576 29.6527V38.8895H255.749V29.9852C255.749 28.9322 255.472 28.1009 254.917 27.5097C254.363 26.9186 253.606 26.623 252.664 26.623C251.998 26.623 251.426 26.7708 250.908 27.0479C250.41 27.325 250.003 27.7499 249.708 28.2856C249.412 28.8214 249.264 29.4864 249.264 30.2623Z" fill="#667085"/>
<path d="M268.46 39.1853C267.055 39.1853 265.836 38.8712 264.838 38.2246C263.822 37.5781 263.046 36.6913 262.511 35.5644C261.975 34.4375 261.698 33.1444 261.698 31.685C261.698 30.2255 261.975 28.9139 262.529 27.7685C263.083 26.6416 263.859 25.7549 264.875 25.1083C265.892 24.4618 267.074 24.1477 268.441 24.1477C269.55 24.1477 270.529 24.3509 271.397 24.7573C272.265 25.1638 272.967 25.7364 273.485 26.4569C274.02 27.1959 274.335 28.0456 274.427 29.0247H271.674C271.526 28.3412 271.175 27.7501 270.64 27.2698C270.104 26.771 269.383 26.5308 268.478 26.5308C267.684 26.5308 267 26.734 266.409 27.1404C265.818 27.5469 265.356 28.138 265.023 28.8954C264.691 29.6529 264.524 30.5581 264.524 31.5926C264.524 32.6271 264.691 33.5693 265.005 34.3452C265.319 35.1211 265.781 35.7122 266.372 36.1371C266.963 36.562 267.665 36.7652 268.46 36.7652C268.995 36.7652 269.476 36.6728 269.919 36.4696C270.362 36.2664 270.732 35.9893 271.028 35.6198C271.323 35.2504 271.545 34.807 271.656 34.2713H274.408C274.316 35.2134 274.002 36.0447 273.485 36.7837C272.967 37.5226 272.284 38.0953 271.434 38.5202C270.584 38.9451 269.587 39.1483 268.423 39.1483L268.46 39.1853Z" fill="#667085"/>
<path d="M283.72 39.1851C282.297 39.1851 281.059 38.871 280.025 38.2614C278.99 37.6518 278.196 36.7835 277.641 35.6566C277.087 34.5297 276.81 33.2181 276.81 31.7217C276.81 30.2254 277.087 28.9137 277.641 27.7869C278.196 26.66 278.99 25.7732 279.988 25.1266C280.985 24.4985 282.168 24.166 283.516 24.166C284.329 24.166 285.124 24.2953 285.9 24.5724C286.676 24.8495 287.359 25.2744 287.969 25.8471C288.579 26.4198 289.059 27.1772 289.41 28.1009C289.761 29.0246 289.946 30.1515 289.946 31.4631V32.4607H278.399V30.3362H287.174C287.174 29.5973 287.027 28.9322 286.713 28.3595C286.417 27.7869 285.992 27.325 285.438 26.9925C284.902 26.66 284.255 26.4937 283.516 26.4937C282.722 26.4937 282.038 26.6969 281.447 27.0849C280.856 27.4728 280.394 27.9716 280.08 28.5997C279.766 29.2278 279.6 29.8928 279.6 30.6133V32.2759C279.6 33.2551 279.766 34.0679 280.117 34.7514C280.468 35.4349 280.948 35.9522 281.558 36.3032C282.168 36.6542 282.907 36.8389 283.72 36.8389C284.255 36.8389 284.736 36.765 285.179 36.6173C285.623 36.4695 286.011 36.2293 286.325 35.9153C286.639 35.6012 286.897 35.2317 287.064 34.7699L289.742 35.2502C289.521 36.0446 289.151 36.7281 288.597 37.3193C288.043 37.9104 287.359 38.3723 286.528 38.6863C285.696 39.0188 284.754 39.1666 283.701 39.1666L283.72 39.1851Z" fill="#667085"/>
<path d="M298.555 39.1667C297.391 39.1667 296.338 38.8711 295.414 38.2615C294.49 37.6519 293.77 36.8021 293.253 35.6752C292.735 34.5483 292.477 33.2182 292.477 31.6479C292.477 30.0777 292.735 28.7291 293.271 27.6207C293.807 26.5123 294.527 25.644 295.451 25.0528C296.375 24.4617 297.409 24.1661 298.573 24.1661C299.479 24.1661 300.199 24.3139 300.753 24.6095C301.308 24.905 301.732 25.256 302.047 25.6625C302.361 26.0504 302.582 26.4014 302.767 26.7155H302.933V19.5107H305.76V38.8896H302.989V36.6358H302.749C302.582 36.9499 302.342 37.3009 302.01 37.6888C301.696 38.0768 301.252 38.4278 300.698 38.7233C300.144 39.0189 299.423 39.1667 298.536 39.1667H298.555ZM299.183 36.7651C299.996 36.7651 300.679 36.5434 301.252 36.1186C301.806 35.6937 302.25 35.084 302.545 34.3081C302.841 33.5322 302.989 32.6455 302.989 31.6295C302.989 30.6134 302.841 29.7451 302.545 28.9877C302.25 28.2303 301.825 27.6391 301.271 27.2143C300.716 26.7894 300.014 26.5862 299.183 26.5862C298.352 26.5862 297.631 26.8078 297.058 27.2512C296.486 27.6946 296.061 28.3042 295.784 29.0616C295.506 29.819 295.359 30.6873 295.359 31.6479C295.359 32.6086 295.506 33.4953 295.802 34.2712C296.098 35.0471 296.523 35.6567 297.095 36.1186C297.668 36.5804 298.37 36.8021 299.201 36.8021L299.183 36.7651Z" fill="#667085"/>
<path d="M333.158 25.8287H330.202C330.091 25.2006 329.87 24.6463 329.574 24.166C329.26 23.6857 328.891 23.2793 328.429 22.9468C327.985 22.6142 327.486 22.3556 326.932 22.1893C326.378 22.0231 325.787 21.9307 325.177 21.9307C324.069 21.9307 323.071 22.2078 322.184 22.7805C321.297 23.3532 320.614 24.166 320.097 25.256C319.579 26.3459 319.339 27.6575 319.339 29.2278C319.339 30.7981 319.598 32.1282 320.097 33.2181C320.595 34.3081 321.297 35.1209 322.184 35.6751C323.071 36.2293 324.069 36.5064 325.159 36.5064C325.768 36.5064 326.359 36.4325 326.914 36.2478C327.468 36.0815 327.967 35.8414 328.41 35.5088C328.854 35.1763 329.242 34.7699 329.556 34.3081C329.87 33.8462 330.091 33.292 330.202 32.6639H333.158C332.992 33.6245 332.696 34.4928 332.253 35.3056C331.81 36.1 331.218 36.7835 330.516 37.3747C329.814 37.9474 329.02 38.3907 328.115 38.7048C327.209 39.0188 326.23 39.1851 325.159 39.1851C323.477 39.1851 321.981 38.7787 320.669 37.9843C319.358 37.1899 318.323 36.0446 317.565 34.5482C316.808 33.0519 316.438 31.2784 316.438 29.2278C316.438 27.1772 316.808 25.3853 317.565 23.8889C318.323 22.411 319.358 21.2657 320.669 20.4713C321.981 19.6769 323.477 19.2705 325.14 19.2705C326.175 19.2705 327.135 19.4183 328.022 19.7139C328.909 20.0095 329.722 20.4343 330.424 21.007C331.144 21.5612 331.736 22.2632 332.198 23.0761C332.659 23.8889 332.973 24.8126 333.14 25.8471L333.158 25.8287Z" fill="#667085"/>
<path d="M342.543 39.1851C341.176 39.1851 339.994 38.871 338.978 38.2429C337.962 37.6148 337.167 36.7466 336.613 35.6197C336.059 34.4928 335.763 33.1812 335.763 31.6848C335.763 30.1884 336.04 28.8583 336.613 27.7314C337.186 26.6045 337.962 25.7178 338.978 25.1082C339.994 24.4801 341.176 24.166 342.543 24.166C343.911 24.166 345.093 24.4801 346.109 25.1082C347.125 25.7363 347.92 26.6045 348.474 27.7314C349.028 28.8583 349.324 30.17 349.324 31.6848C349.324 33.1996 349.047 34.4928 348.474 35.6197C347.901 36.7466 347.125 37.6148 346.109 38.2429C345.093 38.871 343.911 39.1851 342.543 39.1851ZM342.562 36.802C343.449 36.802 344.169 36.5618 344.76 36.1C345.333 35.6382 345.777 35.0101 346.054 34.2342C346.331 33.4583 346.479 32.6085 346.479 31.6663C346.479 30.7242 346.331 29.8928 346.054 29.117C345.777 28.3411 345.352 27.713 344.76 27.2326C344.188 26.7523 343.449 26.5306 342.562 26.5306C341.675 26.5306 340.936 26.7708 340.345 27.2326C339.754 27.713 339.329 28.3226 339.052 29.117C338.775 29.8928 338.627 30.7426 338.627 31.6663C338.627 32.59 338.775 33.4583 339.052 34.2342C339.329 35.0101 339.772 35.6382 340.345 36.1C340.936 36.5618 341.657 36.802 342.562 36.802Z" fill="#667085"/>
<path d="M356.695 39.2221C355.771 39.2221 354.94 39.0559 354.201 38.7049C353.462 38.3539 352.871 37.8551 352.446 37.2085C352.021 36.5619 351.799 35.7491 351.799 34.7884C351.799 33.9756 351.966 33.2921 352.28 32.7563C352.594 32.2206 353.019 31.8142 353.554 31.5001C354.09 31.1861 354.7 30.9644 355.347 30.7981C355.993 30.6319 356.677 30.521 357.379 30.4471C358.247 30.3548 358.949 30.2624 359.503 30.1885C360.039 30.1146 360.446 30.0222 360.686 29.856C360.926 29.7082 361.055 29.468 361.055 29.117V29.0431C361.055 28.2118 360.834 27.5837 360.353 27.1219C359.891 26.66 359.208 26.4384 358.284 26.4384C357.36 26.4384 356.584 26.6416 356.03 27.0665C355.476 27.4914 355.106 27.9532 354.903 28.452L352.243 27.8424C352.557 26.9556 353.019 26.2351 353.628 25.6994C354.238 25.1637 354.94 24.7573 355.734 24.4986C356.529 24.2585 357.36 24.1292 358.247 24.1292C358.82 24.1292 359.448 24.203 360.095 24.3324C360.741 24.4617 361.351 24.7203 361.924 25.0713C362.496 25.4223 362.958 25.9396 363.328 26.6046C363.697 27.2697 363.882 28.1379 363.882 29.1909V38.8342H361.111V36.839H361C360.815 37.2085 360.538 37.5595 360.168 37.9105C359.799 38.2615 359.337 38.5571 358.764 38.7972C358.192 39.0374 357.508 39.1482 356.695 39.1482V39.2221ZM357.323 36.9499C358.099 36.9499 358.783 36.8021 359.337 36.488C359.891 36.174 360.316 35.7676 360.612 35.2688C360.907 34.77 361.055 34.2342 361.055 33.6616V31.7957C360.963 31.8881 360.76 31.9805 360.483 32.0728C360.187 32.1652 359.873 32.2206 359.503 32.2945C359.134 32.3499 358.783 32.4053 358.432 32.4608C358.081 32.5162 357.804 32.5531 357.563 32.5716C357.009 32.6455 356.51 32.7563 356.067 32.9226C355.624 33.0889 355.254 33.329 354.995 33.6246C354.718 33.9387 354.589 34.3266 354.589 34.8439C354.589 35.5459 354.848 36.0816 355.365 36.4326C355.882 36.7836 356.547 36.9683 357.342 36.9683L357.323 36.9499Z" fill="#667085"/>
<path d="M373.766 39.1853C372.362 39.1853 371.143 38.8712 370.145 38.2246C369.129 37.5781 368.353 36.6913 367.817 35.5644C367.282 34.4375 367.004 33.1444 367.004 31.685C367.004 30.2255 367.282 28.9139 367.836 27.7685C368.39 26.6416 369.166 25.7549 370.182 25.1083C371.198 24.4618 372.381 24.1477 373.748 24.1477C374.856 24.1477 375.835 24.3509 376.704 24.7573C377.572 25.1638 378.274 25.7364 378.791 26.4569C379.327 27.1959 379.641 28.0456 379.734 29.0247H376.981C376.833 28.3412 376.482 27.7501 375.946 27.2698C375.41 26.771 374.69 26.5308 373.785 26.5308C372.99 26.5308 372.307 26.734 371.715 27.1404C371.124 27.5469 370.662 28.138 370.33 28.8954C369.997 29.6529 369.831 30.5581 369.831 31.5926C369.831 32.6271 369.997 33.5693 370.311 34.3452C370.625 35.1211 371.087 35.7122 371.679 36.1371C372.27 36.562 372.972 36.7652 373.766 36.7652C374.302 36.7652 374.782 36.6728 375.226 36.4696C375.669 36.2664 376.039 35.9893 376.334 35.6198C376.63 35.2504 376.851 34.807 376.962 34.2713H379.715C379.623 35.2134 379.309 36.0447 378.791 36.7837C378.274 37.5226 377.59 38.0953 376.741 38.5202C375.891 38.9451 374.893 39.1483 373.729 39.1483L373.766 39.1853Z" fill="#667085"/>
<path d="M385.59 30.2624V38.8896H382.763V19.5107H385.553V26.7155H385.738C386.07 25.9396 386.606 25.3115 387.308 24.8496C388.01 24.3878 388.915 24.1661 390.042 24.1661C391.04 24.1661 391.908 24.3693 392.666 24.7757C393.423 25.1822 393.996 25.7918 394.402 26.6046C394.809 27.4175 395.012 28.4335 395.012 29.6343V38.8711H392.185V29.9668C392.185 28.8954 391.908 28.064 391.354 27.4914C390.8 26.9002 390.042 26.6046 389.063 26.6046C388.398 26.6046 387.807 26.7524 387.271 27.0295C386.735 27.3066 386.329 27.7315 386.033 28.2673C385.738 28.803 385.59 29.468 385.59 30.2439V30.2624Z" fill="#667085"/>
<path d="M400.222 22.1155C399.723 22.1155 399.317 21.9493 398.966 21.6168C398.615 21.2842 398.448 20.8963 398.448 20.4344C398.448 19.9726 398.615 19.5662 398.966 19.2337C399.317 18.9011 399.741 18.7349 400.222 18.7349C400.702 18.7349 401.127 18.9011 401.478 19.2337C401.829 19.5662 401.995 19.9541 401.995 20.416C401.995 20.8778 401.829 21.2842 401.478 21.6168C401.127 21.9493 400.702 22.1155 400.222 22.1155ZM398.799 38.8896V24.3509H401.626V38.8896H398.799Z" fill="#667085"/>
<path d="M408.259 30.2623V38.8895H405.432V24.3508H408.148V26.7154H408.333C408.665 25.9395 409.201 25.3299 409.903 24.868C410.624 24.4062 411.529 24.166 412.619 24.166C413.617 24.166 414.466 24.3692 415.224 24.7941C415.963 25.2005 416.536 25.8286 416.96 26.6415C417.367 27.4543 417.57 28.4704 417.57 29.6527V38.8895H414.743V29.9852C414.743 28.9322 414.466 28.1009 413.912 27.5097C413.358 26.9186 412.6 26.623 411.658 26.623C410.993 26.623 410.42 26.7708 409.903 27.0479C409.404 27.325 408.998 27.7499 408.702 28.2856C408.407 28.8214 408.259 29.4864 408.259 30.2623Z" fill="#667085"/>
<path d="M427.435 44.6349C426.29 44.6349 425.292 44.4871 424.461 44.1731C423.63 43.8775 422.946 43.4711 422.429 42.9723C421.911 42.4735 421.505 41.9378 421.265 41.3281L423.703 40.3305C423.87 40.6076 424.11 40.9032 424.387 41.2173C424.664 41.5313 425.071 41.79 425.569 42.0116C426.068 42.2333 426.696 42.3442 427.491 42.3442C428.562 42.3442 429.449 42.0855 430.151 41.5683C430.853 41.051 431.204 40.2197 431.204 39.0928V36.2294H431.019C430.853 36.5434 430.613 36.876 430.281 37.2639C429.966 37.6519 429.523 37.9659 428.969 38.243C428.415 38.5201 427.694 38.6494 426.807 38.6494C425.662 38.6494 424.627 38.3723 423.703 37.8366C422.78 37.3009 422.059 36.5065 421.523 35.435C420.988 34.382 420.729 33.0704 420.729 31.5371C420.729 30.0038 420.988 28.6737 421.523 27.5652C422.059 26.4568 422.78 25.607 423.703 25.0159C424.627 24.4247 425.662 24.1292 426.826 24.1292C427.731 24.1292 428.451 24.2769 429.006 24.5725C429.56 24.8681 430.003 25.2191 430.299 25.6255C430.613 26.0135 430.853 26.3645 431.019 26.6785H431.223V24.3139H433.994V39.1667C433.994 40.4229 433.698 41.439 433.126 42.2333C432.553 43.0277 431.758 43.6189 430.779 44.0068C429.8 44.3947 428.673 44.5795 427.454 44.5795L427.435 44.6349ZM427.398 36.3218C428.211 36.3218 428.895 36.137 429.468 35.7491C430.022 35.3611 430.465 34.8254 430.761 34.1049C431.056 33.3845 431.204 32.5347 431.204 31.5371C431.204 30.5395 431.056 29.6897 430.761 28.9508C430.465 28.2118 430.04 27.6207 429.486 27.2143C428.932 26.7894 428.23 26.5861 427.398 26.5861C426.567 26.5861 425.847 26.8078 425.274 27.2512C424.701 27.6946 424.276 28.2857 423.999 29.0431C423.722 29.8006 423.574 30.6319 423.574 31.5556C423.574 32.4792 423.722 33.3475 424.018 34.068C424.313 34.7884 424.738 35.3427 425.311 35.7491C425.883 36.1555 426.586 36.3587 427.417 36.3587L427.398 36.3218Z" fill="#667085"/>
<path d="M196.13 70.5534H193.026L199.991 51.1746H203.372L210.337 70.5534H207.234L201.765 54.703H201.617L196.13 70.5534ZM196.647 62.9792H206.716V65.4362H196.647V62.9792Z" fill="#667085"/>
<path d="M218.799 70.8491C217.395 70.8491 216.175 70.535 215.178 69.8884C214.162 69.2419 213.386 68.3551 212.85 67.2282C212.314 66.1013 212.037 64.8082 212.037 63.3488C212.037 61.8894 212.314 60.5777 212.868 59.4324C213.423 58.3055 214.199 57.4187 215.215 56.7722C216.231 56.1256 217.413 55.8115 218.78 55.8115C219.889 55.8115 220.868 56.0147 221.736 56.4212C222.605 56.8276 223.307 57.4003 223.824 58.1207C224.36 58.8597 224.674 59.7095 224.766 60.6886H222.014C221.866 60.005 221.515 59.4139 220.979 58.9336C220.443 58.4348 219.723 58.1946 218.817 58.1946C218.023 58.1946 217.339 58.3978 216.748 58.8043C216.157 59.2107 215.695 59.8018 215.363 60.5593C215.03 61.3167 214.864 62.2219 214.864 63.2564C214.864 64.2909 215.03 65.2331 215.344 66.009C215.658 66.7849 216.12 67.376 216.711 67.8009C217.302 68.2258 218.004 68.429 218.799 68.429C219.335 68.429 219.815 68.3367 220.258 68.1334C220.702 67.9302 221.071 67.6531 221.367 67.2837C221.663 66.9142 221.884 66.4708 221.995 65.9351H224.748C224.655 66.8772 224.341 67.7086 223.824 68.4475C223.307 69.1864 222.623 69.7591 221.773 70.184C220.924 70.6089 219.926 70.8121 218.762 70.8121L218.799 70.8491Z" fill="#667085"/>
<path d="M233.93 70.8491C232.526 70.8491 231.306 70.535 230.309 69.8884C229.293 69.2419 228.517 68.3551 227.981 67.2282C227.445 66.1013 227.168 64.8082 227.168 63.3488C227.168 61.8894 227.445 60.5777 227.999 59.4324C228.554 58.3055 229.33 57.4187 230.346 56.7722C231.362 56.1256 232.544 55.8115 233.911 55.8115C235.02 55.8115 235.999 56.0147 236.867 56.4212C237.736 56.8276 238.438 57.4003 238.955 58.1207C239.491 58.8597 239.805 59.7095 239.897 60.6886H237.144C236.997 60.005 236.646 59.4139 236.11 58.9336C235.574 58.4348 234.854 58.1946 233.948 58.1946C233.154 58.1946 232.47 58.3978 231.879 58.8043C231.288 59.2107 230.826 59.8018 230.493 60.5593C230.161 61.3167 229.995 62.2219 229.995 63.2564C229.995 64.2909 230.161 65.2331 230.475 66.009C230.789 66.7849 231.251 67.376 231.842 67.8009C232.433 68.2258 233.135 68.429 233.93 68.429C234.466 68.429 234.946 68.3367 235.389 68.1334C235.833 67.9302 236.202 67.6531 236.498 67.2837C236.793 66.9142 237.015 66.4708 237.126 65.9351H239.879C239.786 66.8772 239.472 67.7086 238.955 68.4475C238.438 69.1864 237.754 69.7591 236.904 70.184C236.054 70.6089 235.057 70.8121 233.893 70.8121L233.93 70.8491Z" fill="#667085"/>
<path d="M249.208 70.8489C247.786 70.8489 246.548 70.5349 245.513 69.9252C244.479 69.3156 243.684 68.4473 243.13 67.3204C242.576 66.1936 242.299 64.8819 242.299 63.3856C242.299 61.8892 242.576 60.5776 243.13 59.4507C243.684 58.3238 244.479 57.437 245.477 56.7905C246.474 56.1624 247.657 55.8298 249.005 55.8298C249.818 55.8298 250.613 55.9592 251.388 56.2363C252.164 56.5134 252.848 56.9383 253.458 57.5109C254.067 58.0836 254.548 58.841 254.899 59.7647C255.25 60.6884 255.434 61.8153 255.434 63.1269V64.1245H243.888V62H252.663C252.663 61.2611 252.515 60.596 252.201 60.0234C251.906 59.4507 251.481 58.9888 250.927 58.6563C250.391 58.3238 249.744 58.1575 249.005 58.1575C248.211 58.1575 247.527 58.3607 246.936 58.7487C246.345 59.1366 245.883 59.6354 245.569 60.2635C245.255 60.8916 245.089 61.5567 245.089 62.2771V63.9398C245.089 64.9189 245.255 65.7317 245.606 66.4152C245.957 67.0988 246.437 67.616 247.047 67.967C247.657 68.318 248.396 68.5028 249.208 68.5028C249.744 68.5028 250.225 68.4289 250.668 68.2811C251.111 68.1333 251.499 67.8931 251.813 67.5791C252.127 67.265 252.386 66.8956 252.552 66.4337L255.231 66.914C255.01 67.7084 254.64 68.3919 254.086 68.9831C253.532 69.5742 252.848 70.0361 252.017 70.3501C251.185 70.6827 250.243 70.8304 249.19 70.8304L249.208 70.8489Z" fill="#667085"/>
<path d="M261.42 51.1931V70.572H258.594V51.1931H261.42Z" fill="#667085"/>
<path d="M271.489 70.8489C270.067 70.8489 268.829 70.5349 267.794 69.9252C266.76 69.3156 265.965 68.4473 265.411 67.3204C264.857 66.1936 264.58 64.8819 264.58 63.3856C264.58 61.8892 264.857 60.5776 265.411 59.4507C265.965 58.3238 266.76 57.437 267.757 56.7905C268.755 56.1624 269.937 55.8298 271.286 55.8298C272.099 55.8298 272.893 55.9592 273.669 56.2363C274.445 56.5134 275.129 56.9383 275.738 57.5109C276.348 58.0836 276.828 58.841 277.179 59.7647C277.53 60.6884 277.715 61.8153 277.715 63.1269V64.1245H266.168V62H274.944C274.944 61.2611 274.796 60.596 274.482 60.0234C274.187 59.4507 273.762 58.9888 273.207 58.6563C272.672 58.3238 272.025 58.1575 271.286 58.1575C270.492 58.1575 269.808 58.3607 269.217 58.7487C268.626 59.1366 268.164 59.6354 267.85 60.2635C267.536 60.8916 267.369 61.5567 267.369 62.2771V63.9398C267.369 64.9189 267.536 65.7317 267.887 66.4152C268.238 67.0988 268.718 67.616 269.328 67.967C269.937 68.318 270.676 68.5028 271.489 68.5028C272.025 68.5028 272.505 68.4289 272.949 68.2811C273.392 68.1333 273.78 67.8931 274.094 67.5791C274.408 67.265 274.667 66.8956 274.833 66.4337L277.512 66.914C277.29 67.7084 276.921 68.3919 276.367 68.9831C275.812 69.5742 275.129 70.0361 274.297 70.3501C273.466 70.6827 272.524 70.8304 271.471 70.8304L271.489 70.8489Z" fill="#667085"/>
<path d="M280.875 70.5534V56.0147H283.609V58.3239H283.757C284.015 57.548 284.496 56.9199 285.161 56.4765C285.826 56.0331 286.602 55.793 287.452 55.793C287.636 55.793 287.84 55.793 288.08 55.8114C288.32 55.8114 288.505 55.8484 288.652 55.8669V58.564C288.542 58.5271 288.338 58.4901 288.043 58.4532C287.747 58.4162 287.47 58.3978 287.174 58.3978C286.509 58.3978 285.918 58.5455 285.401 58.8226C284.884 59.0998 284.477 59.4877 284.163 59.9865C283.867 60.4853 283.701 61.0395 283.701 61.6676V70.5349H280.875V70.5534Z" fill="#667085"/>
<path d="M295.192 70.8859C294.268 70.8859 293.437 70.7197 292.698 70.3687C291.959 70.0177 291.368 69.5189 290.943 68.8723C290.518 68.2257 290.296 67.4129 290.296 66.4523C290.296 65.6394 290.463 64.9559 290.777 64.4202C291.091 63.8844 291.516 63.478 292.051 63.164C292.587 62.8499 293.197 62.6282 293.844 62.462C294.49 62.2957 295.174 62.1849 295.876 62.111C296.744 62.0186 297.446 61.9262 298 61.8523C298.536 61.7784 298.943 61.6861 299.183 61.5198C299.423 61.372 299.552 61.1319 299.552 60.7809V60.707C299.552 59.8756 299.331 59.2475 298.85 58.7857C298.388 58.3239 297.705 58.1022 296.781 58.1022C295.857 58.1022 295.081 58.3054 294.527 58.7303C293.973 59.1552 293.603 59.617 293.4 60.1158L290.74 59.5062C291.054 58.6194 291.516 57.899 292.125 57.3632C292.735 56.8275 293.437 56.4211 294.232 56.1624C295.026 55.9223 295.857 55.793 296.744 55.793C297.317 55.793 297.945 55.8669 298.592 55.9962C299.238 56.1255 299.848 56.3841 300.421 56.7351C300.993 57.0861 301.455 57.6034 301.825 58.2684C302.194 58.9335 302.379 59.8018 302.379 60.8547V70.498H299.608V68.5028H299.497C299.312 68.8723 299.035 69.2233 298.665 69.5743C298.296 69.9253 297.834 70.2209 297.261 70.461C296.689 70.7012 296.005 70.812 295.192 70.812V70.8859ZM295.82 68.6137C296.596 68.6137 297.28 68.4659 297.834 68.1518C298.388 67.8378 298.813 67.4314 299.109 66.9326C299.405 66.4338 299.552 65.8981 299.552 65.3254V63.4595C299.46 63.5519 299.257 63.6443 298.98 63.7366C298.684 63.829 298.37 63.8844 298 63.9583C297.631 64.0137 297.28 64.0692 296.929 64.1246C296.578 64.18 296.301 64.2169 296.061 64.2354C295.506 64.3093 295.007 64.4202 294.564 64.5864C294.121 64.7527 293.751 64.9928 293.493 65.2884C293.215 65.6025 293.086 65.9904 293.086 66.5077C293.086 67.2097 293.345 67.7454 293.862 68.0964C294.379 68.4474 295.044 68.6322 295.839 68.6322L295.82 68.6137Z" fill="#667085"/>
<path d="M312.91 56.033V58.3053H304.966V56.033H312.91ZM307.109 52.5415H309.936V66.2859C309.936 66.8401 310.009 67.2465 310.176 67.5236C310.342 67.8007 310.545 67.9855 310.822 68.0778C311.099 68.1702 311.377 68.2256 311.672 68.2256C311.894 68.2256 312.097 68.2256 312.263 68.1702C312.43 68.1333 312.559 68.1148 312.651 68.0963L313.169 70.424C313.002 70.4794 312.781 70.5533 312.467 70.6272C312.171 70.7011 311.783 70.7196 311.34 70.738C310.601 70.738 309.899 70.6087 309.252 70.3501C308.605 70.073 308.088 69.6481 307.682 69.0569C307.294 68.4843 307.09 67.7453 307.09 66.8771V52.5415H307.109Z" fill="#667085"/>
<path d="M322.147 70.8489C320.725 70.8489 319.487 70.5349 318.452 69.9252C317.418 69.3156 316.623 68.4473 316.069 67.3204C315.515 66.1936 315.238 64.8819 315.238 63.3856C315.238 61.8892 315.515 60.5776 316.069 59.4507C316.623 58.3238 317.418 57.437 318.415 56.7905C319.413 56.1624 320.596 55.8298 321.944 55.8298C322.757 55.8298 323.551 55.9592 324.327 56.2363C325.103 56.5134 325.787 56.9383 326.397 57.5109C327.006 58.0836 327.487 58.841 327.838 59.7647C328.189 60.6884 328.373 61.8153 328.373 63.1269V64.1245H316.827V62H325.602C325.602 61.2611 325.454 60.596 325.14 60.0234C324.845 59.4507 324.42 58.9888 323.866 58.6563C323.33 58.3238 322.683 58.1575 321.944 58.1575C321.15 58.1575 320.466 58.3607 319.875 58.7487C319.284 59.1366 318.822 59.6354 318.508 60.2635C318.194 60.8916 318.027 61.5567 318.027 62.2771V63.9398C318.027 64.9189 318.194 65.7317 318.545 66.4152C318.896 67.0988 319.376 67.616 319.986 67.967C320.595 68.318 321.335 68.5028 322.147 68.5028C322.683 68.5028 323.164 68.4289 323.607 68.2811C324.05 68.1333 324.438 67.8931 324.752 67.5791C325.066 67.265 325.325 66.8956 325.491 66.4337L328.17 66.914C327.949 67.7084 327.579 68.3919 327.025 68.9831C326.471 69.5742 325.787 70.0361 324.956 70.3501C324.124 70.6827 323.182 70.8304 322.129 70.8304L322.147 70.8489Z" fill="#667085"/>
<path d="M336.983 70.8491C335.819 70.8491 334.766 70.5535 333.842 69.9439C332.918 69.3342 332.198 68.4845 331.68 67.3576C331.163 66.2307 330.904 64.9006 330.904 63.3303C330.904 61.76 331.163 60.4115 331.699 59.303C332.235 58.1946 332.955 57.3264 333.879 56.7352C334.802 56.1441 335.837 55.8485 337.001 55.8485C337.906 55.8485 338.627 55.9963 339.181 56.2918C339.735 56.5874 340.16 56.9384 340.474 57.3448C340.788 57.7328 341.01 58.0838 341.195 58.3978H341.361V51.1931H344.188V70.572H341.417V68.3182H341.176C341.01 68.6322 340.77 68.9832 340.437 69.3712C340.123 69.7591 339.68 70.1101 339.126 70.4057C338.571 70.7013 337.851 70.8491 336.964 70.8491H336.983ZM337.592 68.429C338.405 68.429 339.089 68.2073 339.661 67.7825C340.216 67.3576 340.659 66.7479 340.955 65.972C341.25 65.1961 341.398 64.3094 341.398 63.2934C341.398 62.2773 341.25 61.409 340.955 60.6516C340.659 59.8942 340.234 59.303 339.68 58.8782C339.126 58.4533 338.424 58.25 337.592 58.25C336.761 58.25 336.04 58.4717 335.468 58.9151C334.895 59.3585 334.47 59.9681 334.193 60.7255C333.916 61.4829 333.768 62.3512 333.768 63.3118C333.768 64.2725 333.916 65.1592 334.211 65.9351C334.507 66.711 334.932 67.3206 335.505 67.7825C336.077 68.2443 336.779 68.466 337.611 68.466L337.592 68.429Z" fill="#667085"/>
<path d="M355.494 70.5534V51.1746H362.404C363.919 51.1746 365.157 51.4517 366.154 52.0059C367.152 52.5601 367.891 53.299 368.371 54.2597C368.851 55.2203 369.11 56.2733 369.11 57.4556C369.11 58.6379 368.87 59.7094 368.371 60.67C367.872 61.6122 367.133 62.3696 366.136 62.9238C365.138 63.478 363.9 63.7551 362.385 63.7551H357.637V61.2796H362.127C363.087 61.2796 363.845 61.1134 364.436 60.7809C365.027 60.4483 365.471 60.005 365.748 59.4138C366.025 58.8411 366.154 58.1945 366.154 57.4556C366.154 56.7167 366.006 56.0701 365.748 55.5159C365.471 54.9432 365.027 54.4998 364.436 54.1858C363.845 53.8717 363.05 53.7054 362.09 53.7054H358.413V70.5719H355.494V70.5534Z" fill="#667085"/>
<path d="M372.288 70.5534V56.0147H375.022V58.3239H375.17C375.429 57.548 375.909 56.9199 376.574 56.4765C377.239 56.0331 378.015 55.793 378.865 55.793C379.05 55.793 379.253 55.793 379.493 55.8114C379.733 55.8114 379.918 55.8484 380.066 55.8669V58.564C379.955 58.5271 379.752 58.4901 379.456 58.4532C379.161 58.4162 378.884 58.3978 378.588 58.3978C377.923 58.3978 377.332 58.5455 376.814 58.8226C376.297 59.0998 375.891 59.4877 375.577 59.9865C375.281 60.4853 375.115 61.0395 375.115 61.6676V70.5349H372.288V70.5534Z" fill="#667085"/>
<path d="M388.121 70.8489C386.754 70.8489 385.572 70.5349 384.555 69.9068C383.539 69.2787 382.745 68.4104 382.191 67.2835C381.636 66.1566 381.341 64.845 381.341 63.3486C381.341 61.8522 381.618 60.5221 382.191 59.3952C382.763 58.2684 383.539 57.3816 384.555 56.772C385.572 56.1439 386.754 55.8298 388.121 55.8298C389.488 55.8298 390.671 56.1439 391.687 56.772C392.703 57.4001 393.497 58.2684 394.052 59.3952C394.606 60.5221 394.901 61.8338 394.901 63.3486C394.901 64.8634 394.624 66.1566 394.052 67.2835C393.479 68.4104 392.703 69.2787 391.687 69.9068C390.671 70.5349 389.488 70.8489 388.121 70.8489ZM388.121 68.4843C389.008 68.4843 389.728 68.2441 390.32 67.7823C390.892 67.3204 391.336 66.6923 391.613 65.9164C391.89 65.1406 392.038 64.2908 392.038 63.3486C392.038 62.4065 391.89 61.5751 391.613 60.7993C391.336 60.0234 390.911 59.3952 390.32 58.9149C389.747 58.4346 389.008 58.2129 388.121 58.2129C387.234 58.2129 386.495 58.4531 385.904 58.9149C385.313 59.3952 384.888 60.0049 384.611 60.7993C384.334 61.5751 384.186 62.4249 384.186 63.3486C384.186 64.2723 384.334 65.1406 384.611 65.9164C384.888 66.6923 385.331 67.3204 385.904 67.7823C386.495 68.2441 387.216 68.4843 388.121 68.4843Z" fill="#667085"/>
<path d="M404.138 76.3173C402.993 76.3173 401.995 76.1695 401.164 75.8554C400.333 75.5599 399.649 75.1534 399.132 74.6546C398.615 74.1559 398.208 73.6201 397.968 73.0105L400.407 72.0129C400.573 72.29 400.813 72.5856 401.09 72.8997C401.367 73.2137 401.774 73.4723 402.273 73.694C402.771 73.9157 403.399 74.0265 404.194 74.0265C405.265 74.0265 406.152 73.7679 406.854 73.2506C407.556 72.7334 407.907 71.9021 407.907 70.7752V67.9118H407.723C407.556 68.2258 407.316 68.5583 406.984 68.9463C406.67 69.3342 406.226 69.6483 405.672 69.9254C405.118 70.2025 404.397 70.3318 403.51 70.3318C402.365 70.3318 401.33 70.0547 400.407 69.519C399.483 68.9832 398.762 68.1889 398.227 67.1174C397.691 66.0644 397.432 64.7528 397.432 63.2195C397.432 61.6861 397.691 60.356 398.227 59.2476C398.762 58.1392 399.483 57.2894 400.407 56.6983C401.33 56.1071 402.365 55.8115 403.529 55.8115C404.434 55.8115 405.155 55.9593 405.709 56.2549C406.263 56.5505 406.706 56.9015 407.002 57.3079C407.316 57.6958 407.556 58.0468 407.723 58.3609H407.926V55.9963H410.697V70.8491C410.697 72.1053 410.401 73.1213 409.829 73.9157C409.256 74.7101 408.462 75.3012 407.482 75.6892C406.503 76.0771 405.376 76.2619 404.157 76.2619L404.138 76.3173ZM404.102 68.0041C404.914 68.0041 405.598 67.8194 406.171 67.4315C406.725 67.0435 407.168 66.5078 407.464 65.7873C407.76 65.0668 407.907 64.217 407.907 63.2195C407.907 62.2219 407.76 61.3721 407.464 60.6331C407.168 59.8942 406.743 59.303 406.189 58.8966C405.635 58.4717 404.933 58.2685 404.102 58.2685C403.27 58.2685 402.55 58.4902 401.977 58.9336C401.404 59.3769 400.979 59.9681 400.702 60.7255C400.425 61.4829 400.277 62.3142 400.277 63.2379C400.277 64.1616 400.425 65.0299 400.721 65.7503C401.016 66.4708 401.441 67.025 402.014 67.4315C402.587 67.8379 403.289 68.0411 404.12 68.0411L404.102 68.0041Z" fill="#667085"/>
<path d="M414.484 70.5534V56.0147H417.219V58.3239H417.366C417.625 57.548 418.105 56.9199 418.771 56.4765C419.436 56.0331 420.212 55.793 421.061 55.793C421.246 55.793 421.449 55.793 421.69 55.8114C421.93 55.8114 422.114 55.8484 422.262 55.8669V58.564C422.151 58.5271 421.948 58.4901 421.653 58.4532C421.357 58.4162 421.08 58.3978 420.784 58.3978C420.119 58.3978 419.528 58.5455 419.011 58.8226C418.493 59.0998 418.087 59.4877 417.773 59.9865C417.477 60.4853 417.311 61.0395 417.311 61.6676V70.5349H414.484V70.5534Z" fill="#667085"/>
<path d="M430.447 70.8489C429.024 70.8489 427.786 70.5349 426.752 69.9252C425.717 69.3156 424.923 68.4473 424.368 67.3204C423.814 66.1936 423.537 64.8819 423.537 63.3856C423.537 61.8892 423.814 60.5776 424.368 59.4507C424.923 58.3238 425.717 57.437 426.715 56.7905C427.712 56.1624 428.895 55.8298 430.243 55.8298C431.056 55.8298 431.851 55.9592 432.627 56.2363C433.403 56.5134 434.086 56.9383 434.696 57.5109C435.306 58.0836 435.786 58.841 436.137 59.7647C436.488 60.6884 436.673 61.8153 436.673 63.1269V64.1245H425.126V62H433.902C433.902 61.2611 433.754 60.596 433.44 60.0234C433.144 59.4507 432.719 58.9888 432.165 58.6563C431.629 58.3238 430.982 58.1575 430.243 58.1575C429.449 58.1575 428.766 58.3607 428.174 58.7487C427.583 59.1366 427.121 59.6354 426.807 60.2635C426.493 60.8916 426.327 61.5567 426.327 62.2771V63.9398C426.327 64.9189 426.493 65.7317 426.844 66.4152C427.195 67.0988 427.675 67.616 428.285 67.967C428.895 68.318 429.634 68.5028 430.447 68.5028C430.982 68.5028 431.463 68.4289 431.906 68.2811C432.35 68.1333 432.738 67.8931 433.052 67.5791C433.366 67.265 433.624 66.8956 433.791 66.4337L436.47 66.914C436.248 67.7084 435.878 68.3919 435.324 68.9831C434.77 69.5742 434.086 70.0361 433.255 70.3501C432.424 70.6827 431.481 70.8304 430.428 70.8304L430.447 70.8489Z" fill="#667085"/>
<path d="M450.714 59.5801L448.146 60.042C448.035 59.7095 447.869 59.3954 447.647 59.0998C447.425 58.8043 447.111 58.5641 446.723 58.3794C446.335 58.1946 445.837 58.1023 445.264 58.1023C444.469 58.1023 443.804 58.287 443.269 58.638C442.733 58.989 442.456 59.4508 442.456 60.0235C442.456 60.5038 442.64 60.8918 442.991 61.1874C443.342 61.4829 443.934 61.7231 444.728 61.9078L447.037 62.4436C448.368 62.7576 449.365 63.2195 450.03 63.866C450.695 64.5126 451.009 65.3439 451.009 66.3784C451.009 67.2467 450.751 68.0226 450.252 68.7061C449.753 69.3897 449.051 69.9254 448.164 70.2949C447.278 70.6828 446.243 70.8675 445.061 70.8675C443.435 70.8675 442.105 70.5165 441.07 69.8145C440.035 69.1125 439.407 68.1334 439.186 66.8403L441.92 66.4154C442.086 67.1359 442.437 67.6716 442.973 68.0226C443.509 68.3921 444.192 68.5583 445.042 68.5583C445.966 68.5583 446.705 68.3551 447.259 67.9672C447.813 67.5792 448.09 67.0989 448.09 66.5447C448.09 66.0829 447.924 65.7134 447.592 65.3993C447.259 65.0853 446.742 64.8636 446.04 64.6973L443.583 64.1616C442.234 63.8476 441.218 63.3672 440.571 62.6837C439.925 62.0002 439.592 61.1504 439.592 60.1159C439.592 59.2661 439.832 58.5087 440.313 57.8621C440.793 57.2155 441.458 56.7167 442.308 56.3473C443.158 55.9778 444.118 55.8115 445.208 55.8115C446.779 55.8115 448.017 56.144 448.922 56.8276C449.827 57.5111 450.418 58.4163 450.714 59.5432V59.5801Z" fill="#667085"/>
<path d="M464.995 59.5801L462.427 60.042C462.316 59.7095 462.15 59.3954 461.928 59.0998C461.707 58.8043 461.393 58.5641 461.005 58.3794C460.617 58.1946 460.118 58.1023 459.545 58.1023C458.751 58.1023 458.086 58.287 457.55 58.638C457.014 58.989 456.737 59.4508 456.737 60.0235C456.737 60.5038 456.922 60.8918 457.273 61.1874C457.624 61.4829 458.215 61.7231 459.009 61.9078L461.319 62.4436C462.649 62.7576 463.646 63.2195 464.312 63.866C464.977 64.5126 465.291 65.3439 465.291 66.3784C465.291 67.2467 465.032 68.0226 464.533 68.7061C464.034 69.3897 463.332 69.9254 462.446 70.2949C461.559 70.6828 460.524 70.8675 459.342 70.8675C457.716 70.8675 456.386 70.5165 455.351 69.8145C454.317 69.1125 453.688 68.1334 453.467 66.8403L456.201 66.4154C456.367 67.1359 456.718 67.6716 457.254 68.0226C457.79 68.3921 458.474 68.5583 459.323 68.5583C460.247 68.5583 460.986 68.3551 461.54 67.9672C462.095 67.5792 462.372 67.0989 462.372 66.5447C462.372 66.0829 462.205 65.7134 461.873 65.3993C461.54 65.0853 461.023 64.8636 460.321 64.6973L457.864 64.1616C456.515 63.8476 455.499 63.3672 454.852 62.6837C454.206 62.0002 453.873 61.1504 453.873 60.1159C453.873 59.2661 454.113 58.5087 454.594 57.8621C455.074 57.2155 455.739 56.7167 456.589 56.3473C457.439 55.9778 458.4 55.8115 459.49 55.8115C461.06 55.8115 462.298 56.144 463.203 56.8276C464.108 57.5111 464.7 58.4163 464.995 59.5432V59.5801Z" fill="#667085"/>
<path d="M210.725 103.769H207.622L214.587 84.3901H217.968L224.933 103.769H221.829L216.36 87.9186H216.212L210.725 103.769ZM211.261 96.1763H221.33V98.6333H211.261V96.1763Z" fill="#667085"/>
<path d="M232.729 104.046C231.565 104.046 230.512 103.751 229.588 103.141C228.665 102.531 227.944 101.681 227.427 100.555C226.91 99.4277 226.651 98.0976 226.651 96.5273C226.651 94.9571 226.91 93.6085 227.445 92.5001C227.981 91.3917 228.702 90.5234 229.625 89.9322C230.549 89.3411 231.584 89.0455 232.748 89.0455C233.653 89.0455 234.373 89.1933 234.928 89.4889C235.482 89.7844 235.907 90.1354 236.221 90.5419C236.535 90.9298 236.757 91.2808 236.941 91.5949H237.108V84.3901H239.934V103.769H237.163V101.515H236.923C236.757 101.829 236.516 102.18 236.184 102.568C235.87 102.956 235.426 103.307 234.872 103.603C234.318 103.898 233.597 104.046 232.711 104.046H232.729ZM233.357 101.645C234.17 101.645 234.854 101.423 235.426 100.998C235.981 100.573 236.424 99.9634 236.72 99.1875C237.015 98.4116 237.163 97.5249 237.163 96.5089C237.163 95.4928 237.015 94.6245 236.72 93.8671C236.424 93.1097 235.999 92.5185 235.445 92.0937C234.891 91.6688 234.189 91.4655 233.357 91.4655C232.526 91.4655 231.805 91.6872 231.233 92.1306C230.66 92.574 230.235 93.1836 229.958 93.941C229.681 94.6984 229.533 95.5667 229.533 96.5273C229.533 97.488 229.681 98.3747 229.976 99.1506C230.272 99.9265 230.697 100.536 231.27 100.998C231.842 101.46 232.544 101.681 233.376 101.681L233.357 101.645Z" fill="#667085"/>
<path d="M248.192 104.083C247.268 104.083 246.437 103.917 245.698 103.566C244.959 103.215 244.368 102.716 243.943 102.069C243.518 101.423 243.296 100.61 243.296 99.6493C243.296 98.8364 243.463 98.1529 243.777 97.6172C244.091 97.0815 244.516 96.675 245.051 96.361C245.587 96.0469 246.197 95.8252 246.844 95.659C247.49 95.4927 248.174 95.3819 248.876 95.308C249.744 95.2156 250.446 95.1232 251 95.0493C251.536 94.9755 251.943 94.8831 252.183 94.7168C252.423 94.569 252.552 94.3289 252.552 93.9779V93.904C252.552 93.0727 252.331 92.4446 251.85 91.9827C251.388 91.5209 250.705 91.2992 249.781 91.2992C248.857 91.2992 248.081 91.5024 247.527 91.9273C246.973 92.3522 246.603 92.814 246.4 93.3128L243.74 92.7032C244.054 91.8165 244.516 91.096 245.125 90.5602C245.735 90.0245 246.437 89.6181 247.232 89.3595C248.026 89.1193 248.857 88.99 249.744 88.99C250.317 88.99 250.945 89.0639 251.592 89.1932C252.238 89.3225 252.848 89.5811 253.421 89.9321C253.993 90.2831 254.455 90.8004 254.825 91.4655C255.194 92.1305 255.379 92.9988 255.379 94.0518V103.695H252.608V101.7H252.497C252.312 102.069 252.035 102.42 251.665 102.771C251.296 103.122 250.834 103.418 250.261 103.658C249.689 103.898 249.005 104.009 248.192 104.009V104.083ZM248.802 101.811C249.578 101.811 250.261 101.663 250.816 101.349C251.37 101.035 251.795 100.628 252.09 100.13C252.386 99.6308 252.534 99.0951 252.534 98.5224V96.6566C252.441 96.7489 252.238 96.8413 251.961 96.9337C251.666 97.026 251.351 97.0815 250.982 97.1553C250.612 97.2108 250.261 97.2662 249.91 97.3216C249.559 97.377 249.282 97.414 249.042 97.4324C248.488 97.5063 247.989 97.6172 247.546 97.7834C247.102 97.9497 246.733 98.1899 246.474 98.4854C246.197 98.7995 246.068 99.1874 246.068 99.7047C246.068 100.407 246.326 100.942 246.844 101.293C247.361 101.644 248.026 101.829 248.82 101.829L248.802 101.811Z" fill="#667085"/>
<path d="M259.129 109.219V89.2487H261.901V91.6133H262.141C262.307 91.3178 262.547 90.9667 262.843 90.5603C263.157 90.1539 263.582 89.8214 264.136 89.5073C264.69 89.2118 265.411 89.064 266.316 89.064C267.499 89.064 268.533 89.3595 269.457 89.9507C270.381 90.5419 271.101 91.3916 271.637 92.5185C272.154 93.627 272.431 94.9755 272.431 96.5458C272.431 98.1161 272.173 99.4646 271.655 100.573C271.138 101.7 270.418 102.55 269.494 103.159C268.57 103.769 267.535 104.065 266.353 104.065C265.466 104.065 264.746 103.917 264.191 103.621C263.637 103.326 263.194 102.975 262.88 102.587C262.566 102.199 262.326 101.829 262.159 101.534H261.993V109.237H259.166L259.129 109.219ZM261.901 96.5088C261.901 97.5249 262.048 98.4301 262.344 99.1875C262.64 99.9634 263.065 100.555 263.637 100.998C264.191 101.423 264.894 101.645 265.706 101.645C266.519 101.645 267.258 101.423 267.831 100.961C268.404 100.518 268.829 99.8895 269.124 99.1136C269.42 98.3377 269.568 97.4695 269.568 96.4904C269.568 95.5113 269.42 94.68 269.143 93.9041C268.866 93.1282 268.422 92.537 267.85 92.0936C267.277 91.6503 266.575 91.4286 265.725 91.4286C264.875 91.4286 264.21 91.6318 263.656 92.0567C263.083 92.4816 262.658 93.0727 262.381 93.8302C262.085 94.5876 261.938 95.4743 261.938 96.4719L261.901 96.5088Z" fill="#667085"/>
<path d="M282.352 89.2304V91.5026H274.408V89.2304H282.352ZM276.533 85.7573H279.359V99.5017C279.359 100.056 279.433 100.462 279.6 100.739C279.766 101.017 279.969 101.201 280.246 101.294C280.523 101.386 280.801 101.441 281.096 101.441C281.318 101.441 281.521 101.441 281.687 101.386C281.854 101.349 281.983 101.331 282.075 101.312L282.593 103.64C282.426 103.695 282.205 103.769 281.891 103.843C281.595 103.917 281.207 103.935 280.764 103.954C280.025 103.954 279.323 103.825 278.676 103.566C278.029 103.289 277.512 102.864 277.106 102.273C276.718 101.7 276.514 100.961 276.514 100.093V85.7573H276.533Z" fill="#667085"/>
<path d="M286.897 86.9949C286.398 86.9949 285.992 86.8287 285.641 86.4962C285.29 86.1636 285.124 85.7757 285.124 85.3138C285.124 84.852 285.29 84.4456 285.641 84.113C285.992 83.7805 286.417 83.6143 286.897 83.6143C287.377 83.6143 287.802 83.7805 288.153 84.113C288.504 84.4456 288.671 84.8335 288.671 85.2954C288.671 85.7572 288.504 86.1636 288.153 86.4962C287.802 86.8287 287.377 86.9949 286.897 86.9949ZM285.475 103.769V89.2302H288.301V103.769H285.475Z" fill="#667085"/>
<path d="M304.522 89.2302L299.257 103.769H296.227L290.943 89.2302H293.973L297.65 100.407H297.798L301.474 89.2302H304.504H304.522Z" fill="#667085"/>
<path d="M312.947 104.064C311.524 104.064 310.286 103.75 309.252 103.141C308.217 102.531 307.423 101.663 306.868 100.536C306.314 99.4091 306.037 98.0975 306.037 96.6011C306.037 95.1048 306.314 93.7931 306.868 92.6663C307.423 91.5394 308.217 90.6526 309.215 90.006C310.212 89.3779 311.395 89.0454 312.743 89.0454C313.556 89.0454 314.351 89.1747 315.127 89.4518C315.903 89.7289 316.586 90.1538 317.196 90.7265C317.806 91.2992 318.286 92.0566 318.637 92.9803C318.988 93.904 319.173 95.0309 319.173 96.3425V97.3401H307.626V95.2156H316.402C316.402 94.4767 316.254 93.8116 315.94 93.2389C315.644 92.6662 315.219 92.2044 314.665 91.8719C314.129 91.5394 313.482 91.3731 312.743 91.3731C311.949 91.3731 311.265 91.5763 310.674 91.9643C310.083 92.3522 309.621 92.851 309.307 93.4791C308.993 94.1072 308.827 94.7722 308.827 95.4927V97.1553C308.827 98.1345 308.993 98.9473 309.344 99.6308C309.695 100.314 310.175 100.832 310.785 101.183C311.395 101.534 312.134 101.718 312.947 101.718C313.482 101.718 313.963 101.644 314.406 101.497C314.85 101.349 315.238 101.109 315.552 100.795C315.866 100.481 316.124 100.111 316.291 99.6493L318.97 100.13C318.748 100.924 318.378 101.607 317.824 102.199C317.27 102.79 316.586 103.252 315.755 103.566C314.924 103.898 313.981 104.046 312.928 104.046L312.947 104.064Z" fill="#667085"/>
<path d="M329.611 103.769V84.3901H336.706C338.073 84.3901 339.218 84.6118 340.124 85.0737C341.029 85.5355 341.694 86.1267 342.156 86.9026C342.599 87.6784 342.821 88.5282 342.821 89.4889C342.821 90.3017 342.673 90.9852 342.377 91.521C342.082 92.0752 341.694 92.5185 341.195 92.8511C340.696 93.1836 340.16 93.4238 339.569 93.5715V93.7563C340.216 93.7932 340.844 93.9964 341.454 94.3844C342.063 94.7723 342.581 95.3081 342.987 96.0101C343.394 96.7121 343.597 97.5619 343.597 98.5594C343.597 99.557 343.375 100.444 342.895 101.22C342.414 101.996 341.712 102.624 340.752 103.085C339.791 103.547 338.553 103.769 337.057 103.769H329.63H329.611ZM332.53 92.7772H336.447C337.094 92.7772 337.685 92.6479 338.221 92.3892C338.756 92.1306 339.163 91.7796 339.477 91.3178C339.791 90.8559 339.939 90.3202 339.939 89.6921C339.939 88.8977 339.662 88.2142 339.089 87.6785C338.535 87.1427 337.666 86.8656 336.502 86.8656H332.512V92.7587L332.53 92.7772ZM332.53 101.257H336.743C338.147 101.257 339.144 100.979 339.754 100.444C340.364 99.908 340.659 99.2245 340.659 98.4116C340.659 97.802 340.511 97.2478 340.197 96.7305C339.883 96.2133 339.44 95.8069 338.886 95.5113C338.313 95.2157 337.648 95.0494 336.853 95.0494H332.53V101.257Z" fill="#667085"/>
<path d="M352.926 104.064C351.559 104.064 350.377 103.75 349.361 103.122C348.345 102.494 347.55 101.626 346.996 100.499C346.442 99.3722 346.146 98.0606 346.146 96.5642C346.146 95.0678 346.423 93.7377 346.996 92.6108C347.569 91.4839 348.345 90.5972 349.361 89.9876C350.377 89.3595 351.559 89.0454 352.926 89.0454C354.293 89.0454 355.476 89.3595 356.492 89.9876C357.508 90.6157 358.302 91.4839 358.857 92.6108C359.411 93.7377 359.707 95.0493 359.707 96.5642C359.707 98.079 359.429 99.3722 358.857 100.499C358.284 101.626 357.508 102.494 356.492 103.122C355.476 103.75 354.293 104.064 352.926 104.064ZM352.945 101.681C353.832 101.681 354.552 101.441 355.143 100.979C355.716 100.518 356.159 99.8894 356.437 99.1136C356.714 98.3377 356.861 97.4879 356.861 96.5457C356.861 95.6036 356.714 94.7722 356.437 93.9963C356.159 93.2205 355.734 92.5924 355.143 92.112C354.571 91.6317 353.832 91.41 352.945 91.41C352.058 91.41 351.319 91.6502 350.728 92.112C350.137 92.5924 349.712 93.202 349.435 93.9963C349.157 94.7722 349.01 95.622 349.01 96.5457C349.01 97.4694 349.157 98.3377 349.435 99.1136C349.712 99.8894 350.155 100.518 350.728 100.979C351.319 101.441 352.039 101.681 352.945 101.681Z" fill="#667085"/>
<path d="M368.962 104.064C367.595 104.064 366.413 103.75 365.397 103.122C364.381 102.494 363.586 101.626 363.032 100.499C362.478 99.3722 362.182 98.0606 362.182 96.5642C362.182 95.0678 362.459 93.7377 363.032 92.6108C363.605 91.4839 364.381 90.5972 365.397 89.9876C366.413 89.3595 367.595 89.0454 368.962 89.0454C370.33 89.0454 371.512 89.3595 372.528 89.9876C373.544 90.6157 374.339 91.4839 374.893 92.6108C375.447 93.7377 375.743 95.0493 375.743 96.5642C375.743 98.079 375.466 99.3722 374.893 100.499C374.32 101.626 373.544 102.494 372.528 103.122C371.512 103.75 370.33 104.064 368.962 104.064ZM368.981 101.681C369.868 101.681 370.588 101.441 371.179 100.979C371.752 100.518 372.195 99.8894 372.473 99.1136C372.75 98.3377 372.898 97.4879 372.898 96.5457C372.898 95.6036 372.75 94.7722 372.473 93.9963C372.195 93.2205 371.771 92.5924 371.179 92.112C370.607 91.6317 369.868 91.41 368.981 91.41C368.094 91.41 367.355 91.6502 366.764 92.112C366.173 92.5924 365.748 93.202 365.471 93.9963C365.194 94.7722 365.046 95.622 365.046 96.5457C365.046 97.4694 365.194 98.3377 365.471 99.1136C365.748 99.8894 366.191 100.518 366.764 100.979C367.355 101.441 368.076 101.681 368.981 101.681Z" fill="#667085"/>
<path d="M385.682 89.2304V91.5026H377.738V89.2304H385.682ZM379.863 85.7573H382.69V99.5017C382.69 100.056 382.763 100.462 382.93 100.739C383.096 101.017 383.299 101.201 383.576 101.294C383.853 101.386 384.131 101.441 384.426 101.441C384.648 101.441 384.851 101.441 385.017 101.386C385.184 101.349 385.313 101.331 385.405 101.312L385.923 103.64C385.756 103.695 385.535 103.769 385.221 103.843C384.925 103.917 384.537 103.935 384.094 103.954C383.355 103.954 382.653 103.825 382.006 103.566C381.359 103.289 380.842 102.864 380.436 102.273C380.048 101.7 379.844 100.961 379.844 100.093V85.7573H379.863Z" fill="#667085"/>
<path d="M394.772 104.065C393.368 104.065 392.149 103.751 391.151 103.104C390.135 102.457 389.359 101.571 388.823 100.444C388.287 99.3169 388.01 98.0238 388.01 96.5643C388.01 95.1049 388.287 93.7933 388.842 92.6479C389.396 91.521 390.172 90.6343 391.188 89.9877C392.204 89.3412 393.386 89.0271 394.754 89.0271C395.862 89.0271 396.841 89.2303 397.71 89.6367C398.578 90.0431 399.28 90.6158 399.797 91.3363C400.333 92.0753 400.647 92.925 400.739 93.9041H397.987C397.839 93.2206 397.488 92.6295 396.952 92.1491C396.416 91.6504 395.696 91.4102 394.791 91.4102C393.996 91.4102 393.313 91.6134 392.721 92.0198C392.13 92.4262 391.668 93.0174 391.336 93.7748C391.003 94.5322 390.837 95.4375 390.837 96.472C390.837 97.5065 391.003 98.4487 391.317 99.2246C391.631 100 392.093 100.592 392.684 101.016C393.276 101.441 393.978 101.645 394.772 101.645C395.308 101.645 395.788 101.552 396.232 101.349C396.675 101.146 397.044 100.869 397.34 100.499C397.636 100.13 397.857 99.6864 397.968 99.1507H400.721C400.629 100.093 400.315 100.924 399.797 101.663C399.28 102.402 398.596 102.975 397.747 103.4C396.897 103.824 395.899 104.028 394.735 104.028L394.772 104.065Z" fill="#667085"/>
<path d="M408 104.083C407.076 104.083 406.245 103.917 405.506 103.566C404.767 103.215 404.176 102.716 403.751 102.069C403.326 101.423 403.104 100.61 403.104 99.6493C403.104 98.8364 403.27 98.1529 403.584 97.6172C403.898 97.0815 404.323 96.675 404.859 96.361C405.395 96.0469 406.005 95.8252 406.651 95.659C407.298 95.4927 407.981 95.3819 408.683 95.308C409.552 95.2156 410.254 95.1232 410.808 95.0493C411.344 94.9755 411.75 94.8831 411.99 94.7168C412.231 94.569 412.36 94.3289 412.36 93.9779V93.904C412.36 93.0727 412.138 92.4446 411.658 91.9827C411.196 91.5209 410.512 91.2992 409.589 91.2992C408.665 91.2992 407.889 91.5024 407.335 91.9273C406.781 92.3522 406.411 92.814 406.208 93.3128L403.547 92.7032C403.861 91.8165 404.323 91.096 404.933 90.5602C405.543 90.0245 406.245 89.6181 407.039 89.3595C407.834 89.1193 408.665 88.99 409.552 88.99C410.124 88.99 410.753 89.0639 411.399 89.1932C412.046 89.3225 412.656 89.5811 413.228 89.9321C413.801 90.2831 414.263 90.8004 414.632 91.4655C415.002 92.1305 415.187 92.9988 415.187 94.0518V103.695H412.415V101.7H412.304C412.12 102.069 411.843 102.42 411.473 102.771C411.104 103.122 410.642 103.418 410.069 103.658C409.496 103.898 408.813 104.009 408 104.009V104.083ZM408.628 101.811C409.404 101.811 410.088 101.663 410.642 101.349C411.196 101.035 411.621 100.628 411.917 100.13C412.212 99.6308 412.36 99.0951 412.36 98.5224V96.6566C412.268 96.7489 412.064 96.8413 411.787 96.9337C411.492 97.026 411.178 97.0815 410.808 97.1553C410.439 97.2108 410.087 97.2662 409.736 97.3216C409.385 97.377 409.108 97.414 408.868 97.4324C408.314 97.5063 407.815 97.6172 407.372 97.7834C406.928 97.9497 406.559 98.1899 406.3 98.4854C406.023 98.7995 405.894 99.1874 405.894 99.7047C405.894 100.407 406.152 100.942 406.67 101.293C407.187 101.644 407.852 101.829 408.646 101.829L408.628 101.811Z" fill="#667085"/>
<path d="M418.937 103.769V89.2302H421.653V91.5949H421.838C422.133 90.8005 422.632 90.1724 423.316 89.7105C423.999 89.2487 424.83 89.027 425.791 89.027C426.752 89.027 427.583 89.2487 428.23 89.7105C428.895 90.1724 429.375 90.782 429.689 91.5764H429.837C430.188 90.8005 430.742 90.1909 431.5 89.7105C432.257 89.2487 433.163 89.0085 434.197 89.0085C435.509 89.0085 436.599 89.415 437.43 90.2463C438.262 91.0776 438.687 92.3153 438.687 93.978V103.714H435.86V94.2366C435.86 93.2575 435.601 92.537 435.066 92.0936C434.53 91.6503 433.883 91.4286 433.144 91.4286C432.22 91.4286 431.5 91.7057 431.001 92.2784C430.502 92.8511 430.225 93.5715 430.225 94.4583V103.714H427.399V94.0519C427.399 93.2575 427.158 92.6294 426.659 92.1491C426.161 91.6688 425.533 91.4286 424.738 91.4286C424.202 91.4286 423.704 91.5764 423.26 91.8535C422.817 92.1306 422.447 92.5185 422.17 93.0173C421.893 93.5161 421.764 94.0888 421.764 94.7539V103.714H418.937V103.769Z" fill="#667085"/>
<path d="M442.474 109.219V89.2487H445.245V91.6133H445.486C445.652 91.3178 445.892 90.9667 446.188 90.5603C446.502 90.1539 446.927 89.8214 447.481 89.5073C448.035 89.2118 448.756 89.064 449.661 89.064C450.843 89.064 451.878 89.3595 452.802 89.9507C453.725 90.5419 454.446 91.3916 454.982 92.5185C455.499 93.627 455.776 94.9755 455.776 96.5458C455.776 98.1161 455.517 99.4646 455 100.573C454.483 101.7 453.762 102.55 452.839 103.159C451.915 103.769 450.88 104.065 449.698 104.065C448.811 104.065 448.09 103.917 447.536 103.621C446.982 103.326 446.539 102.975 446.225 102.587C445.91 102.199 445.67 101.829 445.504 101.534H445.338V109.237H442.511L442.474 109.219ZM445.245 96.5088C445.245 97.5249 445.393 98.4301 445.689 99.1875C445.984 99.9634 446.409 100.555 446.982 100.998C447.536 101.423 448.238 101.645 449.051 101.645C449.864 101.645 450.603 101.423 451.176 100.961C451.749 100.518 452.173 99.8895 452.469 99.1136C452.765 98.3377 452.912 97.4695 452.912 96.4904C452.912 95.5113 452.765 94.68 452.487 93.9041C452.21 93.1282 451.767 92.537 451.194 92.0936C450.622 91.6503 449.92 91.4286 449.07 91.4286C448.22 91.4286 447.555 91.6318 447 92.0567C446.428 92.4816 446.003 93.0727 445.726 93.8302C445.43 94.5876 445.282 95.4743 445.282 96.4719L445.245 96.5088Z" fill="#667085"/>
<path d="M466.196 103.769V84.3901H478.334V86.9026H469.115V92.8141H477.706V95.3265H469.115V101.257H478.445V103.769H466.177H466.196Z" fill="#667085"/>
<path d="M484.264 89.2302L487.479 94.8832L490.712 89.2302H493.797L489.271 96.4904L493.834 103.751H490.749L487.479 98.3193L484.209 103.751H481.105L485.631 96.4904L481.16 89.2302H484.264Z" fill="#667085"/>
<path d="M496.716 109.219V89.2487H499.488V91.6133H499.728C499.894 91.3178 500.134 90.9667 500.43 90.5603C500.744 90.1539 501.169 89.8214 501.723 89.5073C502.277 89.2118 502.998 89.064 503.903 89.064C505.085 89.064 506.12 89.3595 507.044 89.9507C507.967 90.5419 508.688 91.3916 509.224 92.5185C509.741 93.627 510.018 94.9755 510.018 96.5458C510.018 98.1161 509.76 99.4646 509.242 100.573C508.725 101.7 508.004 102.55 507.081 103.159C506.157 103.769 505.122 104.065 503.94 104.065C503.053 104.065 502.333 103.917 501.778 103.621C501.224 103.326 500.781 102.975 500.467 102.587C500.153 102.199 499.912 101.829 499.746 101.534H499.58V109.237H496.753L496.716 109.219ZM499.488 96.5088C499.488 97.5249 499.635 98.4301 499.931 99.1875C500.227 99.9634 500.651 100.555 501.224 100.998C501.778 101.423 502.48 101.645 503.293 101.645C504.106 101.645 504.845 101.423 505.418 100.961C505.991 100.518 506.416 99.8895 506.711 99.1136C507.007 98.3377 507.155 97.4695 507.155 96.4904C507.155 95.5113 507.007 94.68 506.73 93.9041C506.453 93.1282 506.009 92.537 505.436 92.0936C504.864 91.6503 504.162 91.4286 503.312 91.4286C502.462 91.4286 501.797 91.6318 501.243 92.0567C500.67 92.4816 500.245 93.0727 499.968 93.8302C499.672 94.5876 499.524 95.4743 499.524 96.4719L499.488 96.5088Z" fill="#667085"/>
<path d="M519.422 104.064C517.999 104.064 516.761 103.75 515.727 103.141C514.692 102.531 513.898 101.663 513.344 100.536C512.789 99.4091 512.512 98.0975 512.512 96.6011C512.512 95.1048 512.789 93.7931 513.344 92.6663C513.898 91.5394 514.692 90.6526 515.69 90.006C516.687 89.3779 517.87 89.0454 519.219 89.0454C520.031 89.0454 520.826 89.1747 521.602 89.4518C522.378 89.7289 523.061 90.1538 523.671 90.7265C524.281 91.2992 524.761 92.0566 525.112 92.9803C525.463 93.904 525.648 95.0309 525.648 96.3425V97.3401H514.101V95.2156H522.877C522.877 94.4767 522.729 93.8116 522.415 93.2389C522.119 92.6662 521.694 92.2044 521.14 91.8719C520.604 91.5394 519.958 91.3731 519.219 91.3731C518.424 91.3731 517.741 91.5763 517.149 91.9643C516.558 92.3522 516.096 92.851 515.782 93.4791C515.468 94.1072 515.302 94.7722 515.302 95.4927V97.1553C515.302 98.1345 515.468 98.9473 515.819 99.6308C516.17 100.314 516.651 100.832 517.26 101.183C517.87 101.534 518.609 101.718 519.422 101.718C519.958 101.718 520.438 101.644 520.881 101.497C521.325 101.349 521.713 101.109 522.027 100.795C522.341 100.481 522.599 100.111 522.766 99.6493L525.445 100.13C525.223 100.924 524.853 101.607 524.299 102.199C523.745 102.79 523.061 103.252 522.23 103.566C521.399 103.898 520.456 104.046 519.403 104.046L519.422 104.064Z" fill="#667085"/>
<path d="M528.807 103.769V89.2302H531.541V91.5394H531.689C531.948 90.7635 532.428 90.1354 533.093 89.6921C533.758 89.2487 534.534 89.0085 535.384 89.0085C535.569 89.0085 535.772 89.0085 536.012 89.027C536.252 89.027 536.437 89.064 536.585 89.0824V91.7796C536.474 91.7426 536.271 91.7057 535.975 91.6688C535.68 91.6318 535.403 91.6133 535.107 91.6133C534.442 91.6133 533.851 91.7611 533.333 92.0382C532.816 92.3153 532.41 92.7033 532.096 93.2021C531.8 93.7009 531.634 94.2551 531.634 94.8832V103.751H528.807V103.769Z" fill="#667085"/>
<path d="M540.483 86.9949C539.984 86.9949 539.578 86.8287 539.227 86.4962C538.876 86.1636 538.709 85.7757 538.709 85.3138C538.709 84.852 538.876 84.4456 539.227 84.113C539.578 83.7805 540.003 83.6143 540.483 83.6143C540.963 83.6143 541.388 83.7805 541.739 84.113C542.09 84.4456 542.257 84.8335 542.257 85.2954C542.257 85.7572 542.09 86.1636 541.739 86.4962C541.388 86.8287 540.963 86.9949 540.483 86.9949ZM539.042 103.769V89.2302H541.869V103.769H539.042Z" fill="#667085"/>
<path d="M551.937 104.064C550.515 104.064 549.277 103.75 548.242 103.141C547.208 102.531 546.413 101.663 545.859 100.536C545.305 99.4091 545.028 98.0975 545.028 96.6011C545.028 95.1048 545.305 93.7931 545.859 92.6663C546.413 91.5394 547.208 90.6526 548.206 90.006C549.203 89.3779 550.386 89.0454 551.734 89.0454C552.547 89.0454 553.342 89.1747 554.117 89.4518C554.893 89.7289 555.577 90.1538 556.187 90.7265C556.796 91.2992 557.277 92.0566 557.628 92.9803C557.979 93.904 558.163 95.0309 558.163 96.3425V97.3401H546.617V95.2156H555.392C555.392 94.4767 555.244 93.8116 554.93 93.2389C554.635 92.6662 554.21 92.2044 553.656 91.8719C553.12 91.5394 552.473 91.3731 551.734 91.3731C550.94 91.3731 550.256 91.5763 549.665 91.9643C549.074 92.3522 548.612 92.851 548.298 93.4791C547.984 94.1072 547.818 94.7722 547.818 95.4927V97.1553C547.818 98.1345 547.984 98.9473 548.335 99.6308C548.686 100.314 549.166 100.832 549.776 101.183C550.386 101.534 551.125 101.718 551.937 101.718C552.473 101.718 552.954 101.644 553.397 101.497C553.84 101.349 554.228 101.109 554.542 100.795C554.857 100.481 555.115 100.111 555.281 99.6493L557.96 100.13C557.739 100.924 557.369 101.607 556.815 102.199C556.261 102.79 555.577 103.252 554.746 103.566C553.914 103.898 552.972 104.046 551.919 104.046L551.937 104.064Z" fill="#667085"/>
<path d="M564.149 95.1417V103.769H561.323V89.2302H564.039V91.5948H564.223C564.556 90.8189 565.092 90.2093 565.794 89.7474C566.514 89.2856 567.419 89.0454 568.51 89.0454C569.507 89.0454 570.357 89.2486 571.114 89.6735C571.853 90.0799 572.426 90.708 572.851 91.5209C573.257 92.3337 573.461 93.3498 573.461 94.5321V103.769H570.634V94.8646C570.634 93.8116 570.357 92.9803 569.803 92.3891C569.248 91.798 568.491 91.5024 567.549 91.5024C566.884 91.5024 566.311 91.6502 565.794 91.9273C565.295 92.2044 564.888 92.6293 564.593 93.165C564.297 93.7008 564.149 94.3658 564.149 95.1417Z" fill="#667085"/>
<path d="M583.363 104.065C581.959 104.065 580.74 103.751 579.742 103.104C578.726 102.457 577.95 101.571 577.414 100.444C576.879 99.3169 576.602 98.0238 576.602 96.5643C576.602 95.1049 576.879 93.7933 577.433 92.6479C577.987 91.521 578.763 90.6343 579.779 89.9877C580.795 89.3412 581.978 89.0271 583.345 89.0271C584.453 89.0271 585.433 89.2303 586.301 89.6367C587.169 90.0431 587.871 90.6158 588.389 91.3363C588.924 92.0753 589.238 92.925 589.331 93.9041H586.578C586.43 93.2206 586.079 92.6295 585.543 92.1491C585.008 91.6504 584.287 91.4102 583.382 91.4102C582.587 91.4102 581.904 91.6134 581.313 92.0198C580.721 92.4262 580.26 93.0174 579.927 93.7748C579.595 94.5322 579.428 95.4375 579.428 96.472C579.428 97.5065 579.595 98.4487 579.909 99.2246C580.223 100 580.685 100.592 581.276 101.016C581.867 101.441 582.569 101.645 583.363 101.645C583.899 101.645 584.38 101.552 584.823 101.349C585.266 101.146 585.636 100.869 585.931 100.499C586.227 100.13 586.449 99.6864 586.56 99.1507H589.312C589.22 100.093 588.906 100.924 588.389 101.663C587.871 102.402 587.188 102.975 586.338 103.4C585.488 103.824 584.49 104.028 583.326 104.028L583.363 104.065Z" fill="#667085"/>
<path d="M598.623 104.064C597.201 104.064 595.963 103.75 594.928 103.141C593.894 102.531 593.099 101.663 592.545 100.536C591.991 99.4091 591.714 98.0975 591.714 96.6011C591.714 95.1048 591.991 93.7931 592.545 92.6663C593.099 91.5394 593.894 90.6526 594.892 90.006C595.889 89.3779 597.072 89.0454 598.42 89.0454C599.233 89.0454 600.028 89.1747 600.803 89.4518C601.579 89.7289 602.263 90.1538 602.873 90.7265C603.482 91.2992 603.963 92.0566 604.314 92.9803C604.665 93.904 604.849 95.0309 604.849 96.3425V97.3401H593.303V95.2156H602.078C602.078 94.4767 601.93 93.8116 601.616 93.2389C601.321 92.6662 600.896 92.2044 600.342 91.8719C599.806 91.5394 599.159 91.3731 598.42 91.3731C597.626 91.3731 596.942 91.5763 596.351 91.9643C595.76 92.3522 595.298 92.851 594.984 93.4791C594.67 94.1072 594.504 94.7722 594.504 95.4927V97.1553C594.504 98.1345 594.67 98.9473 595.021 99.6308C595.372 100.314 595.852 100.832 596.462 101.183C597.072 101.534 597.811 101.718 598.623 101.718C599.159 101.718 599.64 101.644 600.083 101.497C600.526 101.349 600.914 101.109 601.228 100.795C601.542 100.481 601.801 100.111 601.967 99.6493L604.646 100.13C604.425 100.924 604.055 101.607 603.501 102.199C602.947 102.79 602.263 103.252 601.432 103.566C600.6 103.898 599.658 104.046 598.605 104.046L598.623 104.064Z" fill="#667085"/>
</g>
<defs>
<clipPath id="clip0_4705_60356">
<rect width="627" height="122" fill="white" transform="translate(0.5 0.48291)"/>
</clipPath>
</defs>
</svg>
