<svg width="58" height="41" viewBox="0 0 58 41" fill="none" xmlns="http://www.w3.org/2000/svg">
<path d="M42.4689 2.96387L38.5498 13.1092L44.0923 27.0886L46.4486 33.6725L48.9624 39.9354H57.7455L42.4689 2.96387Z" fill="#FAFAFA"/>
<path d="M42.3238 2.61865H34.9884L19.5664 39.9354H28.3495L42.4692 2.9639L42.3238 2.61865Z" fill="#00BBFF"/>
<path d="M12.5089 23.2425L13.7506 19.8082C13.8112 19.6326 13.684 19.4508 13.4962 19.4508H12.3332C12.1273 19.4508 11.9516 19.2994 11.9213 19.0935L11.6245 16.9857H15.4164C17.1003 16.9857 18.4511 16.5193 19.4687 15.5865C20.4864 14.6598 20.9952 13.509 20.9952 12.1401C20.9952 10.7713 20.4137 9.4993 19.2567 8.53625C18.0998 7.5732 16.6581 7.08864 14.9439 7.08864C13.3266 7.08864 12.0546 7.43994 11.1278 8.14255C10.195 8.84515 9.52866 9.6689 9.12887 10.6138C8.72303 11.5647 8.52314 12.3885 8.52314 13.0911H0.993877C0.993877 12.4551 1.10897 11.6132 1.33915 10.5653C1.56327 9.51142 1.97517 8.403 2.57484 7.24612C3.16846 6.08925 3.99226 4.99294 5.04623 3.95721C6.10021 2.92147 7.43888 2.07956 9.07436 1.43147C10.7038 0.783373 12.6966 0.456299 15.0469 0.456299C17.3971 0.456299 19.6323 0.886341 21.7584 1.74643C23.8785 2.60651 25.6109 3.85424 26.9435 5.48356C28.2761 7.11287 28.9424 9.08743 28.9424 11.4072C28.9424 12.982 28.6274 14.3449 27.9914 15.4836C27.3614 16.6223 26.5922 17.5611 25.6775 18.3C24.7629 19.0329 23.8543 19.5599 22.9396 19.8809V20.1959C24.6962 20.8258 26.2469 21.8312 27.5977 23.2183C28.9485 24.6053 29.6269 26.4769 29.6269 28.827C29.6269 31.1771 28.9485 33.3757 27.5977 35.1141C26.2469 36.8524 24.466 38.1728 22.2551 39.0874C20.0442 39.996 17.6455 40.4563 15.0469 40.4563C12.4483 40.4563 10.3888 40.1413 8.65035 39.5054C6.91795 38.8754 5.50053 38.0517 4.41627 37.0341C3.32595 36.0166 2.47792 34.9384 1.86008 33.7997C1.24829 32.661 0.830329 31.5708 0.600151 30.535C0.369972 29.4993 0.254883 28.6513 0.254883 27.9851H7.94164C7.94164 28.718 8.15364 29.5356 8.5716 30.4321C8.99561 31.3224 9.70432 32.1038 10.7038 32.77C11.7032 33.4363 13.1146 33.7694 14.9439 33.7694C16.7732 33.7694 18.4087 33.2788 19.6505 32.2976C20.8983 31.3164 21.5222 30.002 21.5222 28.3485C21.5222 26.8766 20.9831 25.6592 19.917 24.6962C18.8448 23.727 17.3305 23.2485 15.3619 23.2485H12.5089V23.2425Z" fill="#FAFAFA"/>
<path d="M14.9863 19.5842L12.8299 25.5382L12.315 21.8737C12.2605 21.5164 11.9576 21.2559 11.6002 21.2559H9.58314C9.25605 21.2559 9.03798 20.9409 9.14096 20.6381L11.2974 14.6902L11.8122 18.3486C11.8668 18.7059 12.1696 18.9664 12.527 18.9664H14.5441C14.8712 18.9664 15.0893 19.2813 14.9863 19.5842Z" fill="#00BBFF"/>
</svg>
