<svg width="59" height="41" viewBox="0 0 59 41" fill="none" xmlns="http://www.w3.org/2000/svg">
<path d="M43.1359 2.85742L39.2168 13.0028L44.7593 26.9822L47.1156 33.5661L49.6294 39.829H58.4125L43.1359 2.85742Z" fill="#D1D1D1"/>
<path d="M42.9908 2.51221H35.6554L20.2334 39.829H29.0165L43.1362 2.85745L42.9908 2.51221Z" fill="#E7E7E7"/>
<path d="M13.1759 23.1358L14.4176 19.7015C14.4782 19.5259 14.351 19.3442 14.1632 19.3442H13.0002C12.7942 19.3442 12.6186 19.1927 12.5883 18.9868L12.2915 16.879H16.0834C17.7673 16.879 19.1181 16.4126 20.1357 15.4798C21.1534 14.5531 21.6622 13.4023 21.6622 12.0334C21.6622 10.6646 21.0807 9.39261 19.9237 8.42956C18.7668 7.46651 17.3251 6.98195 15.6109 6.98195C13.9936 6.98195 12.7216 7.33326 11.7948 8.03586C10.862 8.73846 10.1957 9.56221 9.79587 10.5071C9.39003 11.458 9.19013 12.2818 9.19013 12.9844H1.66087C1.66087 12.3484 1.77596 11.5065 2.00614 10.4586C2.23026 9.40473 2.64216 8.29631 3.24183 7.13943C3.83545 5.98256 4.65925 4.88625 5.71322 3.85052C6.7672 2.81478 8.10587 1.97287 9.74135 1.32478C11.3708 0.676684 13.3636 0.349609 15.7139 0.349609C18.0641 0.349609 20.2993 0.779652 22.4254 1.63974C24.5455 2.49982 26.2779 3.74755 27.6105 5.37687C28.9431 7.00618 29.6094 8.98074 29.6094 11.3005C29.6094 12.8754 29.2944 14.2382 28.6584 15.3769C28.0284 16.5156 27.2592 17.4544 26.3445 18.1933C25.4298 18.9262 24.5212 19.4532 23.6066 19.7742V20.0892C25.3632 20.7191 26.9139 21.7245 28.2647 23.1116C29.6155 24.4986 30.2939 26.3702 30.2939 28.7203C30.2939 31.0704 29.6155 33.2691 28.2647 35.0074C26.9139 36.7457 25.133 38.0661 22.9221 38.9807C20.7112 39.8893 18.3125 40.3496 15.7139 40.3496C13.1153 40.3496 11.0558 40.0346 9.31734 39.3987C7.58494 38.7687 6.16753 37.945 5.08326 36.9274C3.99294 35.9099 3.14492 34.8317 2.52707 33.693C1.91528 32.5543 1.49732 31.4641 1.26714 30.4283C1.03696 29.3926 0.921875 28.5446 0.921875 27.8784H8.60863C8.60863 28.6113 8.82064 29.429 9.23859 30.3254C9.66261 31.2158 10.3713 31.9971 11.3708 32.6634C12.3702 33.3296 13.7816 33.6628 15.6109 33.6628C17.4402 33.6628 19.0757 33.1721 20.3175 32.1909C21.5653 31.2097 22.1892 29.8953 22.1892 28.2418C22.1892 26.77 21.6501 25.5525 20.584 24.5895C19.5118 23.6204 17.9975 23.1419 16.0289 23.1419H13.1759V23.1358Z" fill="#D1D1D1"/>
<path d="M15.6533 19.4775L13.4969 25.4315L12.982 21.767C12.9275 21.4097 12.6246 21.1492 12.2672 21.1492H10.2501C9.92304 21.1492 9.70498 20.8343 9.80795 20.5314L11.9644 14.5835L12.4792 18.2419C12.5338 18.5992 12.8366 18.8597 13.194 18.8597H15.2111C15.5382 18.8597 15.7563 19.1747 15.6533 19.4775Z" fill="#E7E7E7"/>
</svg>
