<svg width="148" height="43" viewBox="0 0 148 43" fill="none" xmlns="http://www.w3.org/2000/svg">
<g clip-path="url(#clip0_3897_3850)">
<path d="M9.28597 19.0466V11.4285C9.28597 9.36762 8.39279 7.40875 6.83891 6.05543L0.663574 0.680664V42.1131H9.28597V26.2681H20.2032L23.0801 19.0449H9.28597V19.0466Z" fill="#D1D1D1"/>
<path d="M27.9963 0.680664L25.1194 8.18326H12.9527C11.2349 8.18326 9.57399 7.56265 8.2777 6.43349L1.66748 0.680664H27.9963Z" fill="#E7E7E7"/>
<path d="M30.8039 42.1128V0.678711H42.4488L51.9108 22.0105L61.6505 0.678711H72.9039V42.1111H64.3936V13.8923L55.8833 32.4255H47.8781L39.3126 13.7802V42.1111H30.8022L30.8039 42.1128Z" fill="#D1D1D1"/>
<path d="M96.2541 42.6264C92.7834 42.6264 89.7409 42.0292 87.1283 40.8348C84.5156 39.6404 82.3412 38.0262 80.6067 35.992C78.8722 33.9579 77.5742 31.6812 76.7161 29.1619C75.8564 26.6426 75.4282 24.0581 75.4282 21.4067C75.4282 18.7553 75.8665 16.1624 76.7429 13.6231C77.6194 11.0854 78.9257 8.79867 80.6619 6.76452C82.3964 4.73037 84.5892 3.10606 87.2403 1.89327C89.8898 0.680476 92.9875 0.0732422 96.5334 0.0732422C99.2949 0.0732422 101.675 0.419516 103.672 1.10872C105.668 1.79959 107.339 2.69622 108.683 3.79527C110.027 4.89765 111.099 6.06361 111.902 7.29481C112.704 8.526 113.32 9.69363 113.75 10.7943C114.178 11.8967 114.524 13.138 114.785 14.518H106.22C105.771 13.1748 105.213 12.0456 104.54 11.1306C103.868 10.2172 102.889 9.41427 101.601 8.72339C100.314 8.03252 98.6242 7.68792 96.5351 7.68792C93.8104 7.68792 91.5423 8.35203 89.7325 9.67523C87.9211 11.0001 86.5596 12.6997 85.6463 14.7706C84.7314 16.8416 84.2748 18.9979 84.2748 21.2378C84.2748 23.4777 84.7414 25.7644 85.6747 27.8722C86.6064 29.9816 87.9779 31.6996 89.7894 33.0228C91.5992 34.3476 93.8673 35.0101 96.592 35.0101C99.5776 35.0101 101.938 34.2456 103.674 32.715C105.41 31.1843 106.445 29.1134 106.782 26.5005H96.0333V19.7255H115.292V22.9173C115.292 27.2482 114.461 30.8782 112.801 33.8073C111.14 36.7381 108.882 38.9395 106.027 40.415C103.172 41.8904 99.9155 42.6264 96.2575 42.6264H96.2541Z" fill="#D1D1D1"/>
<path d="M147.055 0.633789L144.618 8.13639H118.978V0.633789H147.055Z" fill="#D1D1D1"/>
<path d="M141.871 17.4307L139.434 24.6539H118.978V17.4307H141.871Z" fill="#E7E7E7"/>
<path d="M147.336 34.5635L144.899 42.0661H118.978V34.5635H147.336Z" fill="#D1D1D1"/>
</g>
<defs>
<clipPath id="clip0_3897_3850">
<rect width="146.673" height="42.5532" fill="white" transform="translate(0.663574 0.0732422)"/>
</clipPath>
</defs>
</svg>
