<svg width="65" height="65" viewBox="0 0 65 65" fill="none" xmlns="http://www.w3.org/2000/svg">
<g clip-path="url(#clip0_5565_22749)">
<path d="M62.5845 0.239746H2.41549C1.3576 0.239746 0.5 1.09734 0.5 2.15524V62.3243C0.5 63.3822 1.3576 64.2397 2.41549 64.2397H62.5845C63.6424 64.2397 64.5 63.3822 64.5 62.3243V2.15524C64.5 1.09734 63.6424 0.239746 62.5845 0.239746Z" fill="#00BBFF"/>
<path d="M27.1143 55.2855V9.19727H37.8898V55.2855H27.1143Z" fill="#FAFAFA"/>
</g>
<defs>
<clipPath id="clip0_5565_22749">
<path d="M0.5 12.2397C0.5 5.61233 5.87258 0.239746 12.5 0.239746H52.5C59.1274 0.239746 64.5 5.61233 64.5 12.2397V52.2397C64.5 58.8672 59.1274 64.2397 52.5 64.2397H12.5C5.87258 64.2397 0.5 58.8672 0.5 52.2397V12.2397Z" fill="white"/>
</clipPath>
</defs>
</svg>
