<svg width="65" height="65" viewBox="0 0 65 65" fill="none" xmlns="http://www.w3.org/2000/svg">
<g clip-path="url(#clip0_5565_22740)">
<path d="M62.5845 0.239746H2.41549C1.3576 0.239746 0.5 1.09734 0.5 2.15524V62.3243C0.5 63.3822 1.3576 64.2397 2.41549 64.2397H62.5845C63.6424 64.2397 64.5 63.3822 64.5 62.3243V2.15524C64.5 1.09734 63.6424 0.239746 62.5845 0.239746Z" fill="#00BBFF"/>
<path d="M16.0269 9.19727V51.9916C16.0269 52.5663 16.6992 52.8743 17.1348 52.4987L24.6391 45.9898C26.0137 44.7991 26.8024 43.0714 26.8024 41.2499V9.19727H16.0269Z" fill="#FAFAFA"/>
<path d="M48.9734 45.9409V55.2855H17.8222C17.2025 55.2855 16.9171 54.5156 17.3828 54.1099L25.0373 47.4733C26.179 46.4855 27.6363 45.9409 29.1462 45.9409H48.9772H48.9734Z" fill="#D1D1D1"/>
</g>
<defs>
<clipPath id="clip0_5565_22740">
<path d="M0.5 12.2397C0.5 5.61233 5.87258 0.239746 12.5 0.239746H52.5C59.1274 0.239746 64.5 5.61233 64.5 12.2397V52.2397C64.5 58.8672 59.1274 64.2397 52.5 64.2397H12.5C5.87258 64.2397 0.5 58.8672 0.5 52.2397V12.2397Z" fill="white"/>
</clipPath>
</defs>
</svg>
