<svg width="135" height="41" viewBox="0 0 135 41" fill="none" xmlns="http://www.w3.org/2000/svg">
<path d="M0.606445 0.349609V37.4883C0.606445 37.9864 1.19167 38.2537 1.56832 37.9277L8.08278 32.2799C9.27551 31.2452 9.95996 29.7467 9.95996 28.1672V0.349609H0.606445Z" fill="#FAFAFA"/>
<path d="M29.1994 32.2393V40.3474H2.16146C1.62484 40.3474 1.37576 39.6791 1.78076 39.3288L8.42279 33.5697C9.41302 32.7111 10.6786 32.2393 11.9888 32.2393H29.1994Z" fill="#00BBFF"/>
<path d="M41.1445 40.3501V0.350098H50.496V40.3501H41.1445Z" fill="#FAFAFA"/>
<path d="M72.1698 11.4975V40.3478H62.8184V2.50245C62.8184 2.08935 63.3044 1.86862 63.6142 2.13997L70.7442 8.3608C71.6514 9.15258 72.1698 10.2947 72.1698 11.4975Z" fill="#00BBFF"/>
<path d="M95.0886 13.7558C95.0886 16.0258 94.5398 18.1865 93.4402 20.2399C92.3406 22.2932 90.6741 23.9821 88.4384 25.2923C86.2049 26.6126 83.4144 27.2646 80.061 27.2646H73.8564C73.3602 27.2646 72.9593 26.8637 72.9593 26.3676V20.0556C72.9593 19.5595 73.3602 19.1585 73.8564 19.1585H80.0083C81.9179 19.1585 83.3415 18.6016 84.275 17.4818C85.2126 16.362 85.6824 15.1389 85.6824 13.8044C85.6824 12.4699 85.2126 11.2569 84.275 10.1594C83.3415 9.05981 81.9179 8.50698 80.0083 8.50698H73.7288C72.7224 8.50698 71.7503 8.14248 70.991 7.4803L63.7819 1.1886C63.4478 0.896994 63.6544 0.346191 64.0978 0.346191H80.061C83.4144 0.346191 86.2049 0.996219 88.4384 2.2902C90.672 3.59026 92.3406 5.26494 93.4402 7.3183C94.5398 9.37166 95.0886 11.5161 95.0886 13.7518V13.7558Z" fill="#FAFAFA"/>
<path d="M105.52 40.3501V0.350098H133.789L130.541 8.45823H114.871V16.1877H131.357L128.109 23.9171H114.871V32.242H134.06L130.812 40.3501H105.52Z" fill="#FAFAFA"/>
</svg>
