<?xml version="1.0" standalone="no"?>
<!DOCTYPE svg PUBLIC "-//W3C//DTD SVG 20010904//EN"
 "http://www.w3.org/TR/2001/REC-SVG-20010904/DTD/svg10.dtd">
<svg version="1.0" xmlns="http://www.w3.org/2000/svg"
 width="339.000000pt" height="334.000000pt" viewBox="0 0 339.000000 334.000000"
 preserveAspectRatio="xMidYMid meet">
<metadata>
Created by potrace 1.16, written by Peter Selinger 2001-2019
</metadata>
<g transform="translate(0.000000,334.000000) scale(0.100000,-0.100000)"
fill="#000000" stroke="none">
<path d="M1703 3211 c-12 -6 -24 -18 -27 -28 -4 -14 -36 -241 -36 -258 0 -3
-13 -11 -30 -20 l-29 -15 -106 150 c-59 83 -115 154 -125 160 -37 20 -138 -30
-171 -84 -28 -46 -24 -65 24 -111 l44 -42 -73 -67 -73 -66 -28 59 -28 59 22
48 c33 70 28 94 -27 122 -24 12 -57 22 -72 22 -23 0 -31 -7 -44 -38 l-15 -39
-72 38 c-40 21 -86 39 -103 39 -77 0 -130 -134 -61 -156 103 -32 204 -183 195
-289 l-3 -37 -60 48 c-33 27 -66 55 -73 62 -7 6 -18 12 -23 12 -5 0 -9 11 -9
25 0 22 -4 25 -34 25 -21 0 -36 6 -40 15 -3 8 -10 15 -16 15 -5 0 -10 -7 -10
-15 0 -18 -46 -21 -53 -2 -10 22 -24 -11 -19 -43 5 -35 42 -44 42 -11 0 11 5
23 12 27 6 4 8 3 5 -4 -14 -22 5 -42 39 -42 27 0 34 4 34 19 0 28 20 37 21 9
0 -16 22 -40 76 -83 105 -83 113 -91 113 -104 0 -6 -2 -11 -4 -11 -2 0 -41 -7
-86 -16 -110 -21 -159 -41 -171 -71 -12 -32 -11 -95 1 -129 9 -21 7 -31 -7
-46 -12 -13 -17 -36 -17 -75 0 -48 3 -58 27 -79 26 -22 36 -24 148 -24 65 0
119 -4 119 -9 0 -4 -35 -11 -77 -15 -213 -19 -240 -33 -231 -127 9 -95 63
-129 149 -95 l39 16 -24 -48 c-47 -94 -61 -173 -60 -357 0 -124 4 -188 16
-235 17 -69 15 -83 -17 -88 -40 -5 -49 -9 -53 -22 -3 -9 1 -11 14 -6 11 4 33
10 50 13 29 5 31 2 48 -43 10 -27 32 -73 48 -103 16 -29 27 -55 25 -57 -2 -2
-41 -19 -87 -38 -98 -39 -94 -55 6 -20 38 13 72 24 77 24 4 0 7 -125 7 -278 0
-310 -2 -299 73 -339 45 -24 219 -25 263 -1 51 28 59 44 65 145 3 51 8 96 11
99 3 2 46 -15 95 -39 49 -24 126 -57 171 -73 l82 -29 -2 -79 -3 -79 35 -21
c29 -17 52 -21 130 -21 117 0 156 16 166 71 5 30 10 35 28 30 87 -20 208 -28
370 -24 l181 6 115 -50 c63 -27 148 -65 188 -84 83 -39 82 -39 82 -19 0 8 -5
15 -12 15 -6 0 -50 18 -97 39 -47 21 -122 55 -166 74 -44 20 -73 38 -65 40 8
3 38 12 65 20 136 42 184 80 232 184 80 174 96 380 48 657 -14 82 -25 152 -25
154 0 5 47 -3 73 -13 12 -5 17 -2 17 8 0 9 -8 16 -17 16 -68 2 -80 11 -99 79
-20 71 -58 154 -96 209 -15 23 -28 46 -28 51 0 6 -4 12 -9 14 -22 8 -99 117
-105 148 -3 19 -12 46 -19 60 l-13 25 59 0 c54 0 62 3 81 28 15 21 21 43 21
83 0 30 3 54 8 54 4 0 7 16 7 35 0 19 5 35 10 35 6 0 10 -16 10 -35 0 -19 5
-35 10 -35 6 0 10 13 10 29 0 16 3 37 6 46 4 9 3 15 -2 14 -5 -1 -21 -1 -36 0
-25 1 -27 3 -18 27 13 34 13 87 -2 119 -11 25 -25 31 -78 37 -22 3 -25 8 -26
43 l-2 40 8 -40 7 -40 2 38 c2 53 -13 74 -60 88 -38 12 -40 14 -35 44 7 37 -5
52 -51 61 -30 6 -63 -14 -74 -44 -3 -7 -27 -5 -74 4 -38 7 -87 13 -107 14 -46
0 -64 18 -72 73 -10 63 -55 128 -120 173 -30 22 -55 44 -56 49 0 9 72 135 102
177 17 24 -4 60 -52 87 -63 35 -85 29 -126 -35 -20 -31 -47 -79 -60 -107 -31
-67 -30 -48 1 50 30 96 31 124 4 141 -27 17 -108 24 -136 13z m118 -31 c26
-15 24 -28 -6 -36 -20 -5 -24 -11 -19 -30 4 -14 2 -24 -5 -24 -12 0 -27 -52
-37 -126 l-6 -52 32 -7 c37 -8 32 -12 54 45 22 58 85 170 94 170 5 0 13 -5 20
-12 9 -9 16 -7 32 7 12 11 20 13 20 6 0 -7 5 -9 10 -6 12 7 40 -12 40 -26 0
-5 -11 -9 -25 -9 -22 0 -25 -3 -19 -27 6 -21 4 -25 -9 -20 -11 4 -25 -12 -51
-63 -39 -74 -43 -90 -22 -90 18 0 90 -79 114 -127 19 -36 55 -144 49 -148 -5
-5 -201 -35 -226 -35 -19 0 -34 9 -50 31 -54 73 -183 89 -275 35 -111 -65
-159 -311 -96 -490 l22 -61 -19 -128 -18 -128 -52 68 c-119 157 -153 245 -153
394 0 197 93 407 228 511 19 15 20 21 11 45 -37 99 -104 157 -159 136 -22 -8
-31 -5 -59 18 l-34 28 39 16 c21 9 49 26 62 38 15 14 26 18 30 11 4 -6 26 -21
50 -34 43 -24 51 -35 31 -42 -14 -5 28 -90 68 -136 l28 -32 68 24 c37 13 70
26 72 28 2 2 9 46 15 98 15 129 18 142 40 135 13 -4 25 4 40 25 23 32 39 36
71 20z m-997 -139 c49 -28 91 -51 93 -51 3 0 4 10 2 23 -1 12 7 42 17 65 17
42 19 44 52 38 61 -10 64 -18 29 -102 -22 -52 -35 -73 -45 -69 -7 3 -12 2 -10
-2 24 -48 70 -146 83 -178 l16 -40 15 27 c40 75 204 218 250 218 13 0 38 -13
56 -29 l32 -28 -56 -64 c-160 -184 -221 -330 -222 -534 -1 -133 5 -157 43
-181 l29 -19 -86 0 c-89 -1 -122 -10 -189 -55 l-32 -21 2 290 c1 160 -1 291
-4 291 -3 0 -9 37 -11 83 -8 129 -69 227 -179 288 -37 21 -44 29 -42 53 1 16
12 39 24 52 18 20 24 21 33 10 6 -8 51 -37 100 -65z m1666 -451 c16 -9 18 -15
10 -36 -15 -37 -13 -42 20 -49 39 -9 44 -18 17 -35 -21 -12 -21 -12 -7 6 14
17 14 18 -2 6 -9 -8 -14 -20 -11 -28 3 -7 -2 -16 -10 -20 -9 -3 -13 -12 -10
-21 4 -11 2 -14 -5 -9 -8 5 -12 -5 -12 -32 l0 -38 -72 19 c-58 16 -109 20
-248 21 -163 1 -179 -1 -235 -23 -33 -13 -79 -43 -102 -65 -37 -35 -46 -52
-63 -118 -10 -43 -22 -122 -26 -176 -8 -122 4 -355 18 -346 7 4 8 42 3 107
l-7 100 60 -54 c56 -50 64 -54 101 -51 23 2 41 8 41 12 0 4 -21 25 -47 46
-108 87 -153 136 -153 165 0 41 21 174 29 188 4 6 79 36 168 66 145 49 163 53
198 44 84 -23 226 -208 245 -316 8 -47 8 -47 9 -10 1 44 -31 114 -94 203 -67
94 -132 137 -231 153 -71 11 -160 -1 -216 -30 -55 -28 -59 -17 -7 20 25 19 54
31 73 31 22 0 27 3 17 9 -11 7 -8 10 10 16 14 5 25 3 27 -4 2 -6 16 -11 30
-10 l27 1 -25 8 c-18 6 -5 8 45 9 58 1 81 -4 133 -29 138 -65 185 -115 250
-264 19 -44 48 -97 63 -116 15 -19 34 -57 41 -85 8 -32 28 -69 56 -102 47 -56
39 -72 -12 -25 -29 25 -29 25 -8 1 12 -14 22 -28 22 -32 0 -3 14 -21 31 -39
l32 -33 -22 33 c-19 27 -20 32 -6 32 35 0 164 -255 152 -302 -3 -10 -1 -18 3
-18 10 0 25 -68 51 -235 24 -152 22 -351 -5 -450 -30 -107 -84 -211 -126 -239
-113 -75 -251 -102 -510 -100 -193 1 -277 16 -530 94 -282 87 -441 166 -562
277 -32 29 -63 53 -70 53 -15 0 -78 60 -78 74 0 6 -13 24 -29 41 -80 83 -196
304 -172 328 8 8 11 7 11 -3 0 -13 2 -13 10 0 5 8 5 17 0 20 -5 3 -15 39 -23
80 -8 41 -16 65 -16 53 -1 -12 4 -45 10 -73 7 -33 8 -55 2 -61 -21 -21 -47
149 -47 301 0 208 41 352 122 428 20 20 31 33 25 28 -18 -10 -16 -1 3 14 8 8
14 9 13 4 -1 -5 0 -18 1 -29 1 -16 4 -14 15 11 31 69 136 124 239 124 77 0 95
-8 118 -54 25 -51 101 -158 147 -209 18 -21 31 -40 29 -43 -3 -3 -36 36 -74
85 -38 50 -70 88 -72 86 -5 -5 49 -80 107 -150 36 -43 38 -49 30 -88 -4 -23
-8 -73 -7 -112 l1 -70 7 75 c4 41 12 100 18 130 7 30 21 117 32 193 11 76 27
168 35 203 8 36 15 109 15 162 0 119 10 157 54 208 38 44 51 46 213 29 63 -6
101 -4 173 10 102 20 256 16 383 -9 l68 -13 20 28 c22 31 39 35 69 19z m-1608
-57 c0 -27 2 -75 3 -109 l3 -61 -82 -12 c-44 -7 -93 -15 -107 -18 -54 -10
-103 114 -69 177 10 20 74 44 155 59 95 17 95 17 97 -36z m1710 -138 c3 -13 2
-22 -2 -20 -5 3 -10 -2 -14 -10 -6 -17 10 -30 19 -15 4 6 11 7 17 4 8 -5 6
-11 -3 -18 -16 -12 -21 -96 -6 -96 4 0 5 -6 1 -12 -4 -7 -3 -9 2 -5 4 4 7 23
5 42 -3 37 15 53 67 60 27 3 28 1 27 -38 0 -24 -7 -48 -15 -57 -14 -14 -14
-14 0 -5 13 8 13 7 2 -5 -14 -16 -62 -21 -62 -7 0 4 -5 5 -10 2 -6 -4 -58 -8
-116 -10 l-105 -5 -35 36 c-20 19 -56 48 -81 63 l-45 28 39 6 c66 11 126 7
183 -13 64 -22 80 -24 80 -9 0 6 -8 9 -18 7 -15 -4 -19 2 -20 29 -4 59 5 73
48 73 32 0 38 -4 42 -25z m-1933 -69 c8 -10 22 -11 54 -5 23 5 72 6 110 2 l67
-6 0 -68 0 -69 -120 0 c-115 0 -122 1 -145 25 -29 28 -33 79 -9 113 18 25 27
27 43 8z m2029 -146 c14 0 16 -48 3 -68 -7 -11 -9 -11 -14 2 -8 21 -35 20 -61
-1 -20 -18 -20 -17 -6 2 14 18 14 19 -1 7 -21 -16 -13 -56 8 -48 8 4 26 9 39
12 21 6 24 3 24 -24 0 -17 3 -38 7 -48 4 -11 3 -15 -4 -11 -6 4 -14 0 -17 -9
-4 -10 -2 -13 7 -8 6 4 3 -2 -7 -14 -21 -24 -51 -29 -62 -10 -5 7 -3 8 6 3 9
-5 11 -4 6 4 -5 7 -12 9 -19 3 -15 -12 -83 -3 -96 12 -6 6 -26 49 -46 95 l-36
84 98 -7 c54 -4 99 -11 101 -15 2 -5 12 -7 23 -4 10 3 26 0 34 -7 8 -7 15 -8
15 -4 0 20 -48 37 -113 42 -101 7 -92 22 10 17 48 -3 94 -5 101 -5z m-1804
-108 c-5 -32 -11 -42 -25 -42 -10 0 -30 -15 -44 -34 -26 -35 -114 -76 -161
-76 -32 0 -64 52 -64 105 0 49 8 62 41 70 50 12 244 32 252 25 4 -4 5 -25 1
-48z m1 -1178 c77 -102 115 -143 138 -150 12 -3 39 -22 60 -42 l37 -36 0 -162
0 -162 -50 -7 c-54 -7 -143 1 -175 17 -11 6 -30 20 -42 31 -23 20 -23 23 -23
299 0 153 1 278 3 278 1 0 25 -30 52 -66z m850 -504 c72 -21 120 -39 108 -40
-19 0 -23 -6 -23 -34 0 -19 -7 -42 -16 -50 -28 -28 -161 -17 -207 17 -16 11
-17 22 -11 80 4 37 10 67 13 67 4 0 65 -18 136 -40z"/>
<path d="M1024 2074 c-80 -29 -154 -112 -154 -175 0 -11 16 -37 35 -56 35 -35
36 -35 109 -31 41 2 77 6 80 9 3 3 -3 57 -14 119 -12 62 -19 119 -16 127 4 8
23 13 53 13 84 0 143 -55 128 -120 l-5 -25 14 24 c12 21 11 28 -3 55 -40 71
-129 95 -227 60z"/>
<path d="M842 1900 c-15 -25 -15 -33 0 -24 7 4 8 3 4 -5 -4 -6 -11 -9 -16 -6
-12 8 -44 -58 -61 -125 -28 -112 -7 -387 42 -547 12 -37 34 -94 51 -125 34
-65 33 -104 -2 -45 -29 48 -36 48 -11 -1 16 -32 70 -87 129 -133 6 -5 12 -19
12 -30 0 -31 44 -22 48 10 3 21 0 23 -22 19 -18 -4 -26 -1 -26 8 0 8 -7 14
-15 14 -16 0 -85 57 -85 71 0 15 30 10 36 -6 10 -26 71 -57 106 -53 28 3 37
11 61 53 15 27 40 63 55 80 24 27 23 26 -9 -3 -20 -19 -45 -49 -55 -68 -10
-19 -22 -34 -25 -34 -4 0 -14 17 -22 38 -14 33 -13 39 2 53 9 9 18 15 19 14 7
-7 62 17 62 27 0 5 4 7 9 4 15 -9 43 5 37 19 -2 7 6 28 20 46 35 48 29 49 -11
2 -18 -22 -49 -47 -67 -56 l-33 -16 -17 102 c-9 57 -12 103 -7 105 16 6 9 23
-8 20 -15 -3 -17 4 -15 41 l4 43 -52 -3 c-58 -5 -52 -16 -75 131 -21 136 -20
150 10 150 20 0 25 5 26 28 2 23 2 24 6 5 2 -13 9 -23 14 -23 5 0 10 10 10 23
1 20 2 20 6 2 9 -36 23 -41 23 -7 0 31 -2 32 -40 32 -37 0 -40 -2 -41 -27 -1
-23 -3 -20 -9 11 -4 21 -15 43 -24 48 -12 7 -16 23 -16 63 0 30 -4 56 -10 60
-5 3 -7 12 -3 20 8 21 0 18 -15 -5z"/>
<path d="M2400 1802 c0 -13 15 -52 34 -86 43 -78 99 -260 131 -421 8 -44 20
-103 26 -131 7 -29 9 -64 5 -79 -4 -15 -3 -32 2 -38 9 -12 24 -87 17 -87 -2 0
-20 29 -40 63 -22 41 -35 77 -35 100 0 21 -4 37 -10 37 -5 0 -10 -8 -10 -17 0
-15 -2 -16 -9 -3 -6 8 -7 18 -5 22 3 4 1 8 -4 8 -4 0 -18 18 -31 40 -12 22
-24 40 -26 40 -6 0 6 -32 21 -55 9 -14 11 -31 6 -50 l-8 -29 -22 35 c-11 19
-26 46 -32 60 l-11 24 6 -25 c2 -14 5 -47 6 -75 1 -43 2 -46 9 -20 6 27 8 28
15 10 4 -11 18 -42 30 -70 93 -204 125 -289 115 -299 -5 -5 -10 -23 -10 -38 0
-37 -27 -79 -46 -71 -8 3 -20 0 -28 -6 -14 -12 -27 -2 -39 32 -4 9 -13 17 -21
17 -9 0 -20 20 -30 53 -8 28 -27 94 -41 145 -15 50 -25 100 -23 110 2 9 -3 22
-10 28 -18 13 -30 114 -14 114 6 0 13 -12 15 -27 4 -26 4 -26 6 5 1 27 -2 32
-23 32 -13 0 -30 9 -37 21 -13 18 -14 15 -10 -33 2 -34 6 -46 10 -34 6 15 10
10 19 -21 15 -49 15 -56 2 -48 -6 4 -10 -8 -10 -29 0 -42 19 -59 21 -19 2 27
2 27 6 3 3 -14 8 -29 13 -35 4 -5 25 -72 46 -148 28 -99 42 -136 52 -132 7 2
16 -6 22 -19 10 -27 39 -41 53 -27 5 5 15 7 22 5 20 -8 55 45 55 82 0 19 5 34
10 34 18 0 10 26 -51 166 -82 186 -81 184 -63 177 10 -4 12 0 8 11 -3 9 -1 16
6 16 6 0 8 -5 5 -11 -4 -6 2 -13 12 -15 11 -3 38 -39 63 -85 24 -43 47 -79 52
-79 11 0 10 36 -3 85 -5 22 -12 65 -13 95 -7 103 -52 311 -100 460 -23 72 -31
107 -23 112 6 4 15 4 19 2 4 -3 8 0 8 6 0 6 -10 10 -22 8 -25 -3 -51 29 -74
92 -11 28 -13 31 -14 12z"/>
<path d="M1853 1706 c-58 -28 -103 -90 -103 -144 0 -18 -2 -32 -4 -32 -2 0
-22 18 -44 40 -22 22 -46 40 -53 40 -8 0 0 -9 18 -20 37 -22 59 -53 68 -95 5
-23 4 -26 -4 -15 -9 12 -11 10 -11 -12 0 -16 -6 -28 -12 -28 -10 0 -9 -3 1 -9
19 -12 5 -31 -22 -31 -26 1 -50 17 -65 47 -19 36 -14 37 23 4 20 -17 39 -31
43 -31 4 0 -8 12 -25 26 -24 19 -33 34 -34 57 l-1 32 -14 -32 c-16 -38 -7 -73
28 -97 39 -28 87 -15 89 24 0 8 9 33 20 55 10 22 16 29 13 16 -5 -17 -3 -21 6
-16 8 5 11 4 7 -2 -4 -6 5 -21 19 -34 13 -12 23 -28 20 -34 -6 -16 41 -71 150
-180 80 -80 97 -104 153 -215 83 -163 189 -308 167 -227 -7 24 -31 176 -40
250 -3 28 -2 47 4 47 14 0 12 36 -2 52 -7 7 -15 24 -16 38 -6 38 -12 37 -13
-1 0 -19 -3 -46 -5 -61 -3 -16 0 -28 5 -28 5 0 13 -26 16 -57 4 -32 13 -94 21
-138 7 -43 12 -81 10 -82 -6 -7 -85 117 -135 212 -68 129 -128 212 -186 260
-44 35 -105 109 -105 125 0 4 22 10 48 14 27 3 57 12 67 20 18 13 18 14 -3 48
l-22 36 35 6 c48 9 42 34 -7 28 -3 -1 -12 5 -18 13 -10 13 -8 15 14 15 27 0
66 31 66 53 1 7 6 5 14 -5 7 -10 17 -18 22 -18 4 0 3 5 -3 11 -6 6 -9 17 -7
23 3 7 -6 21 -18 32 l-23 19 20 -24 20 -24 -22 12 c-12 6 -25 16 -28 21 -3 6
-30 10 -59 10 -66 0 -123 -37 -154 -101 -12 -24 -22 -36 -22 -26 0 77 115 159
198 141 20 -4 51 -7 69 -5 17 1 42 -3 55 -9 22 -11 22 -10 4 4 -11 9 -34 16
-50 16 -17 0 -53 3 -81 6 -40 4 -60 0 -102 -20z"/>
<path d="M1490 1572 c-46 -25 -86 -97 -70 -127 14 -26 1 -61 -34 -94 -14 -14
-26 -28 -26 -33 0 -4 16 9 35 31 19 21 35 43 35 49 0 7 21 -2 47 -18 26 -17
50 -30 53 -30 3 0 7 15 8 33 2 19 11 39 25 49 12 10 17 18 10 18 -7 0 -10 7
-7 15 4 9 0 30 -7 48 l-13 32 -8 -45 c-9 -51 -37 -81 -70 -72 -14 3 -19 2 -14
-6 9 -16 39 -15 55 1 11 10 13 9 9 -3 -6 -20 -52 -25 -67 -6 -11 13 -5 23 33
64 31 33 46 58 46 76 0 25 3 26 51 26 28 0 60 -5 72 -11 21 -10 21 -10 3 5
-28 23 -122 21 -166 -2z"/>
<path d="M1781 1337 c18 -34 32 -80 39 -128 15 -110 47 -202 87 -248 21 -26
31 -45 27 -53 -5 -7 -8 -26 -7 -43 1 -26 1 -26 -4 -5 -3 14 -10 28 -17 32 -7
5 -6 8 4 8 22 1 -23 25 -114 60 -102 40 -109 33 -8 -8 103 -43 104 -44 94 -72
-7 -19 -10 -21 -15 -7 -4 10 -13 17 -22 17 -8 0 -15 6 -15 13 0 9 -3 8 -9 -2
-5 -7 -13 -11 -19 -7 -24 14 -42 -6 -42 -48 0 -22 4 -36 8 -30 4 6 15 13 25
17 9 3 17 14 18 24 1 12 3 10 9 -7 5 -16 8 -19 9 -8 1 19 -9 23 200 -90 121
-66 301 -256 222 -235 -12 3 -20 -2 -23 -15 -5 -17 -13 -19 -86 -17 -52 2 -89
9 -103 18 -33 24 -348 319 -347 326 4 37 -4 61 -22 61 -14 0 -20 -7 -21 -22
l0 -23 -9 23 c-5 12 -16 22 -24 22 -8 0 -17 6 -19 13 -3 6 -5 -8 -5 -33 1 -28
3 -34 5 -17 5 31 23 36 30 7 3 -10 13 -22 23 -25 9 -3 75 -60 146 -126 258
-242 246 -232 322 -234 37 0 72 -4 79 -8 7 -5 21 1 33 13 11 11 27 20 35 20
10 0 15 10 15 26 0 47 -136 175 -257 242 -74 41 -98 59 -88 65 8 4 15 17 15
28 0 17 3 18 20 9 33 -17 23 4 -26 62 -25 29 -52 64 -59 78 -20 39 -44 127
-55 208 -9 66 -53 172 -71 172 -4 0 6 -24 22 -53z"/>
<path d="M2796 1160 c15 -145 16 -319 0 -406 -31 -178 -74 -251 -178 -302
-177 -86 -445 -100 -707 -37 -57 14 -106 24 -108 21 -6 -6 201 -54 287 -66 74
-11 320 -10 320 0 0 4 28 12 61 19 73 15 152 48 213 90 91 63 143 263 132 506
-4 77 -11 158 -16 180 l-9 40 5 -45z"/>
<path d="M1232 1065 c-41 -18 -78 -58 -108 -116 -32 -64 -20 -86 76 -142 175
-104 445 -220 491 -210 18 3 46 -6 90 -30 112 -61 122 -58 54 14 -139 149
-227 240 -224 230 2 -6 57 -67 122 -136 65 -69 115 -125 110 -125 -4 0 -32 14
-62 30 -33 18 -67 30 -85 29 -45 -3 -86 12 -241 88 -82 40 -79 38 -207 175
l-99 106 32 36 c19 23 48 41 78 50 25 8 37 15 26 15 -11 0 -35 -6 -53 -14z"/>
<path d="M2558 2608 c-9 -58 13 -83 52 -58 10 6 20 4 32 -7 17 -15 19 -15 33
3 8 11 15 14 15 7 0 -25 19 -13 23 15 l4 27 2 -27 c0 -18 7 -28 16 -28 8 0 15
-5 15 -11 0 -6 10 -9 23 -7 18 2 23 10 25 46 3 39 1 42 -22 42 -13 0 -27 -6
-29 -12 -4 -10 -6 -10 -6 0 -1 6 -12 12 -26 12 -14 0 -25 -6 -26 -12 0 -7 -4
-3 -9 10 -11 26 -25 28 -38 6 -8 -14 -10 -14 -21 0 -21 25 -59 20 -63 -6z"/>
<path d="M3020 2617 c0 -10 -14 -13 -49 -10 -45 2 -50 0 -54 -20 l-4 -22 -2
23 c-1 19 -7 22 -41 22 -39 0 -40 -1 -40 -35 0 -41 17 -47 23 -7 l4 27 2 -27
c0 -16 5 -28 10 -28 5 0 12 12 14 28 l4 27 2 -29 c1 -20 5 -27 16 -23 8 4 17
2 21 -4 3 -5 14 -7 24 -4 9 3 34 6 54 7 27 1 36 5 36 19 0 10 5 21 10 24 6 4
10 -5 10 -19 0 -14 5 -26 10 -26 6 0 10 14 10 31 0 22 -5 32 -20 36 -11 3 -20
9 -20 14 0 5 -4 9 -10 9 -5 0 -10 -6 -10 -13z"/>
<path d="M3130 1445 c-30 -32 -23 -60 16 -61 16 0 36 -4 43 -8 7 -5 17 -4 23
2 6 6 16 8 23 5 9 -3 15 6 18 24 l4 28 2 -27 c1 -29 15 -38 24 -15 3 6 6 2 6
-11 1 -18 6 -23 24 -20 17 2 23 10 25 39 3 39 -19 59 -43 39 -7 -6 -15 -6 -22
1 -8 8 -17 8 -31 0 -17 -9 -21 -8 -24 6 -5 27 -62 26 -88 -2z"/>
<path d="M3100 1327 c0 -10 -14 -13 -49 -10 -45 2 -50 0 -54 -20 l-4 -22 -2
23 c-1 19 -7 22 -41 22 -39 0 -40 -1 -40 -35 0 -41 17 -47 23 -7 l4 27 2 -27
c0 -16 5 -28 10 -28 5 0 12 12 14 28 l4 27 2 -29 c1 -19 5 -27 15 -23 7 3 17
2 22 -2 5 -4 33 -6 62 -3 42 3 52 7 52 22 0 11 5 22 10 25 6 4 10 -5 10 -19 0
-14 5 -26 10 -26 6 0 10 14 10 31 0 22 -5 32 -20 36 -11 3 -20 9 -20 14 0 5
-4 9 -10 9 -5 0 -10 -6 -10 -13z"/>
<path d="M372 1274 c-36 -25 -26 -58 18 -62 19 -2 38 -9 43 -15 5 -9 10 -7 17
5 6 9 17 15 24 12 9 -4 16 3 19 18 l4 23 2 -24 c1 -16 5 -21 16 -17 8 3 14 0
12 -7 -1 -7 9 -12 23 -12 22 0 25 5 28 38 l3 37 -60 -2 c-42 -2 -62 1 -66 9
-6 17 -32 17 -38 1 -4 -10 -6 -10 -6 0 -1 16 -12 15 -39 -4z"/>
</g>
</svg>
