<svg width="65" height="65" viewBox="0 0 65 65" fill="none" xmlns="http://www.w3.org/2000/svg">
<g clip-path="url(#clip0_5565_22756)">
<path d="M62.5845 0.239746H2.41549C1.3576 0.239746 0.5 1.09734 0.5 2.15524V62.3243C0.5 63.3822 1.3576 64.2397 2.41549 64.2397H62.5845C63.6424 64.2397 64.5 63.3822 64.5 62.3243V2.15524C64.5 1.09734 63.6424 0.239746 62.5845 0.239746Z" fill="#00BBFF"/>
<path d="M24.6843 22.0423V55.2855H13.9087V11.6761C13.9087 11.1991 14.4683 10.9475 14.8251 11.2592L23.0392 18.4291C24.0833 19.3418 24.6843 20.6601 24.6843 22.046V22.0423Z" fill="#D1D1D1"/>
<path d="M51.0916 24.6452C51.0916 27.2592 50.4568 29.7494 49.1911 32.1156C47.9254 34.4818 46.0024 36.4273 43.4296 37.9372C40.8568 39.4583 37.638 40.2095 33.777 40.2095H26.6296C26.0587 40.2095 25.5967 39.7475 25.5967 39.1766V31.9052C25.5967 31.3344 26.0587 30.8724 26.6296 30.8724H33.7169C35.9179 30.8724 37.5554 30.2301 38.6333 28.9419C39.715 27.6536 40.2559 26.2414 40.2559 24.7052C40.2559 23.1691 39.715 21.7719 38.6333 20.5062C37.5554 19.2405 35.9179 18.602 33.7169 18.602H26.4831C25.3225 18.602 24.2033 18.1813 23.3282 17.4189L15.0202 10.17C14.6333 9.83201 14.8737 9.19727 15.3845 9.19727H33.777C37.6418 9.19727 40.8568 9.94468 43.4296 11.4395C46.0024 12.9381 47.9254 14.8686 49.1911 17.2348C50.4568 19.601 51.0916 22.0724 51.0916 24.6452Z" fill="#FAFAFA"/>
</g>
<defs>
<clipPath id="clip0_5565_22756">
<path d="M0.5 12.2397C0.5 5.61233 5.87258 0.239746 12.5 0.239746H52.5C59.1274 0.239746 64.5 5.61233 64.5 12.2397V52.2397C64.5 58.8672 59.1274 64.2397 52.5 64.2397H12.5C5.87258 64.2397 0.5 58.8672 0.5 52.2397V12.2397Z" fill="white"/>
</clipPath>
</defs>
</svg>
