<svg width="124" height="54" viewBox="0 0 124 54" fill="none" xmlns="http://www.w3.org/2000/svg">
<g clip-path="url(#clip0_4022_8339)">
<path d="M35.84 0V35.34H28.92V13.39H28.82L20.21 28.62H15.68L7.07 13.39H6.97V35.34H0V0H7.07L17.92 20.11H18.02L28.82 0H35.84Z" fill="#37278E"/>
<path d="M60.3308 0L57.0508 8.41L61.7708 22.3L63.8108 28.27L66.2008 35.34H73.5208L60.3308 0Z" fill="#00AEE8"/>
<path d="M60.3295 0L57.0495 8.41H56.9395L52.2595 22.3L50.2195 28.27L47.8295 35.34H40.5195L53.6095 0H60.3295Z" fill="#37278E"/>
<path d="M78.4492 0H85.4692V35.34H78.4492V0Z" fill="#37278E"/>
<path d="M123.289 0V35.34H116.119L100.539 11.9H100.439V35.34H93.4688V0H100.439L116.219 23.89H116.269V0H123.289Z" fill="#37278E"/>
<path d="M-0.00195312 46.5105C-0.00195312 42.7505 2.40805 39.7305 6.69805 39.7305C8.50805 39.7305 10.488 40.4905 11.938 42.2505L10.028 43.8805C9.24805 42.9705 8.06805 42.2105 6.69805 42.2105C4.41805 42.2105 2.71805 43.8805 2.71805 46.5005C2.71805 48.9405 4.34805 50.7005 6.69805 50.7005C8.06805 50.7005 9.24805 50.0005 10.028 49.0305L11.938 50.6805C10.808 52.0905 9.02805 53.1605 6.69805 53.1605C3.10805 53.1605 -0.00195312 50.8305 -0.00195312 46.5005L-0.00195312 46.5105Z" fill="#37278E"/>
<path d="M25.2479 50.4104H20.1979L19.3079 53.0404H16.5879L21.4579 39.9004H23.9579L28.8679 53.0404H26.1479L25.2579 50.4104H25.2479ZM24.4879 48.1904L22.7279 43.0304H22.6879L20.9479 48.1904H24.4879Z" fill="#37278E"/>
<path d="M47.6384 39.9004V53.0404H45.0684V44.8804H45.0284L41.8284 50.5404H40.1484L36.9484 44.8804H36.9084V53.0404H34.3184V39.9004H36.9484L40.9884 47.3804H41.0284L45.0484 39.9004H47.6584H47.6384Z" fill="#37278E"/>
<path d="M54.2285 39.9004H59.0985C62.2785 39.9004 63.6685 41.7504 63.6685 44.2704C63.6685 47.1604 61.7385 48.5504 58.8585 48.5504H56.8085V53.0504H54.2385V39.9104L54.2285 39.9004ZM58.5285 46.2304C60.1585 46.2304 60.9685 45.4304 60.9685 44.2104C60.9685 42.9904 60.1585 42.2104 58.6385 42.2104H56.8085V46.2304H58.5285Z" fill="#37278E"/>
<path d="M76.119 50.4104H71.069L70.179 53.0404H67.459L72.329 39.9004H74.829L79.739 53.0404H77.019L76.129 50.4104H76.119ZM75.359 48.1904L73.599 43.0304H73.559L71.819 48.1904H75.359Z" fill="#37278E"/>
<path d="M85.2578 39.9004H87.8678V53.0404H85.2578V39.9004Z" fill="#37278E"/>
<path d="M94.0176 46.4905C94.0176 42.6405 96.5176 39.7305 100.628 39.7305C102.478 39.7305 104.498 40.4505 105.848 41.9905L103.998 43.5405C103.188 42.7605 102.068 42.1905 100.628 42.1905C98.4576 42.1905 96.7376 43.8005 96.7376 46.4805C96.7376 48.8905 98.2576 50.7705 100.738 50.7705C101.678 50.7705 102.548 50.5505 103.408 50.0305V48.0905H100.448V45.8705H105.908V51.5305C104.728 52.4905 102.758 53.1605 100.748 53.1605C96.9576 53.1605 94.0276 50.7005 94.0276 46.4805L94.0176 46.4905Z" fill="#37278E"/>
<path d="M123.287 39.9004V53.0404H120.617L114.827 44.3204H114.787V53.0404H112.197V39.9004H114.787L120.657 48.7904H120.677V39.9004H123.287Z" fill="#37278E"/>
</g>
<defs>
<clipPath id="clip0_4022_8339">
<rect width="123.29" height="53.17" fill="white"/>
</clipPath>
</defs>
</svg>
