<svg width="210" height="53" viewBox="0 0 210 53" fill="none" xmlns="http://www.w3.org/2000/svg">
<path d="M39.88 0.439453V39.1695H30.82V17.7895H30.71L22.85 32.0795H17.01L9.15 17.8395H9.04V39.1695H0V0.439453H9.16L19.91 20.9495H20.02L30.71 0.439453H39.87H39.88Z" fill="#37278E"/>
<path d="M60.7795 12.5L55.6495 26.95H55.4795L51.6595 37.37L47.0195 49.97H55.4795L69.4995 12.5H60.7795Z" fill="#37278E"/>
<path d="M55.48 26.95L51.66 37.37L41.25 12.5H50.08L55.48 26.95Z" fill="#00AEE8"/>
<path d="M71.0605 19.91C71.0605 8.89 78.0405 0 90.5905 0C95.8805 0 101.611 2.18 105.861 7.42L101.001 11.51C98.4905 8.46 94.7306 6.22 90.5806 6.22C83.0506 6.22 77.9205 11.73 77.9205 19.91C77.9205 28.09 83.2106 33.33 90.5806 33.33C94.9406 33.33 98.5406 31.09 101.001 28.04L105.861 32.19C102.531 36.34 97.4005 39.5 90.5905 39.5C80.0605 39.5 71.0605 32.63 71.0605 19.92V19.91Z" fill="#37278E"/>
<path d="M133.139 12.5502V39.1702H127.299V35.6202H127.189C125.279 38.1802 122.389 39.6002 118.729 39.6002C111.369 39.6002 105.859 34.2002 105.859 25.9602C105.859 17.7202 111.369 12.1602 118.679 12.1602C122.059 12.1602 124.949 13.4202 126.919 15.7602H127.029V12.5402H133.139V12.5502ZM127.299 26.0202C127.299 21.2702 124.079 17.6702 119.719 17.6702C115.359 17.6702 112.079 20.8902 112.079 26.0202C112.079 30.7102 115.189 34.0402 119.719 34.0402C123.869 34.0402 127.299 30.8202 127.299 26.0202Z" fill="#37278E"/>
<path d="M178.15 23.7899V39.1699H172.04V25.3099C172.04 20.5099 170.46 17.6699 166.86 17.6699C163.26 17.6699 160.64 20.6699 160.64 25.9099V39.1699H154.53V25.3099C154.53 20.5099 152.84 17.6699 149.24 17.6699C145.64 17.6699 142.86 20.6699 142.86 25.9099V39.1699H136.75V12.5499H142.86V16.2599H142.91C145.09 13.5899 148.15 12.1699 151.2 12.1699C154.8 12.1699 157.58 13.5899 159.16 16.5899H159.27C161.51 13.6999 164.89 12.1699 168.82 12.1699C174.66 12.1699 178.15 15.8299 178.15 23.7899Z" fill="#37278E"/>
<path d="M209.08 25.9702C209.08 34.2102 203.57 39.6102 196.15 39.6102C192.55 39.6102 189.71 38.3002 187.75 35.9002H187.7V52.1902H181.59V12.5502H187.7V15.8202C189.72 13.4202 192.66 12.1602 196.21 12.1602C203.57 12.1602 209.08 17.9402 209.08 25.9602V25.9702ZM202.86 26.0202C202.86 20.8902 199.42 17.6702 195.17 17.6702C190.59 17.6702 187.42 21.2702 187.42 26.0202C187.42 30.7702 190.86 34.0402 195.22 34.0402C199.58 34.0402 202.86 30.7102 202.86 26.0202Z" fill="#37278E"/>
<path d="M91.0898 47.6094C91.0898 44.9794 92.7798 42.8594 95.7898 42.8594C97.0598 42.8594 98.4498 43.3894 99.4598 44.6194L98.1199 45.7594C97.5799 45.1194 96.7398 44.5894 95.7798 44.5894C94.1798 44.5894 92.9898 45.7594 92.9898 47.5994C92.9898 49.3094 94.1298 50.5494 95.7798 50.5494C96.7398 50.5494 97.5698 50.0594 98.1199 49.3794L99.4598 50.5294C98.6698 51.5194 97.4198 52.2694 95.7898 52.2694C93.2698 52.2694 91.0898 50.6394 91.0898 47.5994V47.6094Z" fill="#37278E"/>
<path d="M108.789 50.3485H105.249L104.629 52.1885H102.719L106.129 42.9785H107.879L111.319 52.1885H109.409L108.789 50.3485ZM108.259 48.7885L107.029 45.1685H106.999L105.779 48.7885H108.259Z" fill="#37278E"/>
<path d="M124.481 42.9785V52.1885H122.681V46.4685H122.651L120.411 50.4385H119.231L116.991 46.4685H116.961V52.1885H115.141V42.9785H116.981L119.811 48.2185H119.841L122.661 42.9785H124.491H124.481Z" fill="#37278E"/>
<path d="M129.1 42.9785H132.51C134.74 42.9785 135.71 44.2785 135.71 46.0385C135.71 48.0585 134.36 49.0385 132.34 49.0385H130.9V52.1885H129.1V42.9785ZM132.11 47.4085C133.25 47.4085 133.82 46.8485 133.82 45.9985C133.82 45.1485 133.25 44.5985 132.19 44.5985H130.91V47.4185H132.12L132.11 47.4085Z" fill="#37278E"/>
<path d="M144.439 50.3485H140.899L140.279 52.1885H138.369L141.779 42.9785H143.529L146.969 52.1885H145.059L144.439 50.3485ZM143.909 48.7885L142.679 45.1685H142.649L141.429 48.7885H143.909Z" fill="#37278E"/>
<path d="M150.85 42.9785H152.68V52.1885H150.85V42.9785Z" fill="#37278E"/>
<path d="M156.99 47.5994C156.99 44.8994 158.74 42.8594 161.62 42.8594C162.92 42.8594 164.33 43.3694 165.28 44.4394L163.98 45.5294C163.41 44.9894 162.63 44.5794 161.62 44.5794C160.1 44.5794 158.9 45.7094 158.9 47.5894C158.9 49.2794 159.96 50.5994 161.7 50.5994C162.36 50.5994 162.97 50.4394 163.57 50.0794V48.7194H161.49V47.1594H165.32V51.1294C164.49 51.7994 163.11 52.2694 161.7 52.2694C159.04 52.2694 156.99 50.5394 156.99 47.5894V47.5994Z" fill="#37278E"/>
<path d="M177.499 42.9785V52.1885H175.629L171.569 46.0785H171.539V52.1885H169.719V42.9785H171.539L175.649 49.2085H175.659V42.9785H177.489H177.499Z" fill="#37278E"/>
</svg>
