<svg width="169" height="53" viewBox="0 0 169 53" fill="none" xmlns="http://www.w3.org/2000/svg">
<path d="M0 0H13.75C22.66 0 26.63 5.3 26.63 12.48C26.63 20.53 21.23 24.5 13.09 24.5H8.41V36.16H0V0ZM11.97 17.01C15.69 17.01 17.83 15.23 17.83 12.27C17.83 9.57 15.95 7.48 12.08 7.48H8.41V17H11.97V17.01Z" fill="#37278E"/>
<path d="M51.8101 36.15H41.8301L34.3901 24.49H28.0801V17.06H35.3601C38.9801 17.06 41.2201 15.23 41.2201 12.27C41.2201 9.57 39.2901 7.48 35.5101 7.48H28.0801V0H37.1401C46.0501 0 50.0701 5.3 50.0701 12.47C50.0701 17.97 47.5301 21.58 43.3501 23.32V23.42L51.8001 36.15H51.8101Z" fill="#37278E"/>
<path d="M53.9202 0H77.5002L75.2702 7.59H62.2702V14.51H74.2902L72.0602 22H62.2702V28.57H78.5602L76.3302 36.16H53.9102V0H53.9202Z" fill="#37278E"/>
<path d="M106.87 18.13C106.87 28.77 99.9902 36.15 88.2802 36.15H79.4902L81.7702 28.56H87.7302C93.9402 28.56 98.0102 23.98 98.0102 18.13C98.0102 12.28 93.8802 7.59 88.3302 7.59H79.4902L81.7702 0H88.1402C99.5902 0 106.87 7.43 106.87 18.13Z" fill="#37278E"/>
<path d="M109.901 0H133.481L131.251 7.59H118.251V14.51H130.271L128.041 22H118.251V28.57H134.541L132.311 36.16H109.891V0H109.901Z" fill="#37278E"/>
<path d="M151.601 24.08H151.551L143.761 0H134.551L147.891 36.15H155.381L151.611 24.08H151.601Z" fill="#37278E"/>
<path d="M168.61 0L155.37 36.15L151.6 24.08L159.45 0H168.61Z" fill="#00AEE8"/>
<path d="M34.9395 47.0491C34.9395 44.0391 36.8695 41.6191 40.3095 41.6191C41.7595 41.6191 43.3495 42.2291 44.4995 43.6391L42.9695 44.9391C42.3495 44.2091 41.3995 43.6091 40.2995 43.6091C38.4795 43.6091 37.1095 44.9391 37.1095 47.0491C37.1095 49.0091 38.4095 50.4091 40.2995 50.4091C41.3995 50.4091 42.3495 49.8491 42.9695 49.0791L44.4995 50.3991C43.5995 51.5291 42.1695 52.3891 40.3095 52.3891C37.4295 52.3891 34.9395 50.5191 34.9395 47.0491Z" fill="#37278E"/>
<path d="M55.1587 50.1798H51.1087L50.3988 52.2798H48.2188L52.1187 41.7598H54.1187L58.0487 52.2798H55.8687L55.1587 50.1798ZM54.5588 48.3998L53.1488 44.2598H53.1187L51.7287 48.3998H54.5588Z" fill="#37278E"/>
<path d="M73.0899 41.7598V52.2798H71.0299V45.7398H70.9999L68.4399 50.2798H67.0899L64.5299 45.7398H64.4999V52.2798H62.4199V41.7598H64.5199L67.7499 47.7498H67.7799L70.9999 41.7598H73.0899Z" fill="#37278E"/>
<path d="M78.3711 41.7598H82.2711C84.8211 41.7598 85.9311 43.2398 85.9311 45.2598C85.9311 47.5698 84.3911 48.6798 82.0811 48.6798H80.4311V52.2798H78.3711V41.7598ZM81.8111 46.8298C83.1111 46.8298 83.7711 46.1898 83.7711 45.2098C83.7711 44.2298 83.1211 43.6098 81.9011 43.6098H80.4311V46.8298H81.8111Z" fill="#37278E"/>
<path d="M95.8892 50.1798H91.8392L91.1292 52.2798H88.9492L92.8492 41.7598H94.8492L98.7792 52.2798H96.5992L95.8892 50.1798ZM95.2792 48.3998L93.8692 44.2598H93.8392L92.4492 48.3998H95.2792Z" fill="#37278E"/>
<path d="M103.219 41.7598H105.309V52.2798H103.219V41.7598Z" fill="#37278E"/>
<path d="M110.229 47.0291C110.229 43.9491 112.229 41.6191 115.519 41.6191C116.999 41.6191 118.619 42.1991 119.699 43.4291L118.219 44.6791C117.569 44.0591 116.679 43.5991 115.519 43.5991C113.789 43.5991 112.409 44.8891 112.409 47.0391C112.409 48.9691 113.629 50.4791 115.609 50.4791C116.369 50.4791 117.059 50.2991 117.739 49.8891V48.3291H115.369V46.5491H119.739V51.0891C118.789 51.8591 117.219 52.3891 115.599 52.3891C112.559 52.3891 110.219 50.4191 110.219 47.0391L110.229 47.0291Z" fill="#37278E"/>
<path d="M133.669 41.7598V52.2798H131.539L126.899 45.2998H126.869V52.2798H124.789V41.7598H126.869L131.569 48.8698H131.579V41.7598H133.669Z" fill="#37278E"/>
</svg>
