<svg width="124" height="54" viewBox="0 0 124 54" fill="none" xmlns="http://www.w3.org/2000/svg">
<path d="M1.08594 0.580078H15.3359C24.6559 0.580078 28.7159 6.00008 28.7159 13.3701C28.7159 21.8201 23.0859 25.8801 14.6359 25.8801H8.62594V39.0401H1.08594V0.580078ZM13.6559 19.1101C18.4259 19.1101 20.8059 16.7801 20.8059 13.2101C20.8059 9.64008 18.4259 7.36008 13.9759 7.36008H8.61594V19.1201H13.6559V19.1101Z" fill="#37278E"/>
<path d="M52.556 0.580078V3.51008L47.196 7.41008H41.896V39.0501H34.316V7.40008H30.726C30.486 7.40008 30.266 7.25008 30.186 7.02008C29.386 4.89008 28.136 3.05008 26.406 1.61008C25.986 1.26008 26.236 0.580078 26.786 0.580078H52.576H52.556Z" fill="#37278E"/>
<path d="M58.8748 0.449219L53.6948 4.15922L49.1648 7.39922L47.2148 8.79922L50.8548 14.4692L57.3048 9.64922V38.9792H64.9848V0.449219H58.8748Z" fill="#00AEE8"/>
<path d="M67.4453 19.74C67.4453 7.96 73.1053 0 82.4153 0C91.7253 0 97.4453 7.29 97.4453 19.74C97.4453 31.52 91.7853 39.42 82.4153 39.42C73.5553 39.42 67.4453 32.19 67.4453 19.74ZM89.6453 19.74C89.6453 11.94 87.0053 7.12 82.4653 7.12C77.9253 7.12 75.2353 11.55 75.2353 19.74C75.2353 27.47 77.9253 32.36 82.4653 32.36C87.0053 32.36 89.6453 27.87 89.6453 19.74Z" fill="#00AEE8"/>
<path d="M0.666016 47.8909C0.666016 44.9809 2.53602 42.6309 5.86602 42.6309C7.27602 42.6309 8.80602 43.2209 9.92602 44.5809L8.44602 45.8409C7.84602 45.1409 6.92602 44.5509 5.86602 44.5509C4.09602 44.5509 2.77602 45.8409 2.77602 47.8809C2.77602 49.7809 4.03602 51.1409 5.86602 51.1409C6.92602 51.1409 7.84602 50.5909 8.44602 49.8509L9.92602 51.1309C9.04602 52.2209 7.67602 53.0509 5.86602 53.0509C3.07602 53.0509 0.666016 51.2409 0.666016 47.8809V47.8909Z" fill="#37278E"/>
<path d="M20.2552 50.9215H16.3352L15.6452 52.9615H13.5352L17.3152 42.7715H19.2552L23.0652 52.9615H20.9552L20.2652 50.9215H20.2552ZM19.6652 49.2015L18.3052 45.1915H18.2752L16.9252 49.2015H19.6652Z" fill="#37278E"/>
<path d="M37.6154 42.7715V52.9615H35.6154V46.6315H35.5854L33.1054 51.0215H31.7954L29.3154 46.6315H29.2854V52.9615H27.2754V42.7715H29.3154L32.4454 48.5715H32.4754L35.5954 42.7715H37.6154Z" fill="#37278E"/>
<path d="M42.7363 42.7715H46.5163C48.9863 42.7715 50.0663 44.2115 50.0663 46.1615C50.0663 48.4015 48.5763 49.4815 46.3363 49.4815H44.7463V52.9715H42.7463V42.7815L42.7363 42.7715ZM46.0663 47.6815C47.3263 47.6815 47.9663 47.0615 47.9663 46.1115C47.9663 45.1615 47.3363 44.5615 46.1563 44.5615H44.7363V47.6815H46.0763H46.0663Z" fill="#37278E"/>
<path d="M59.7063 50.9215H55.7863L55.0963 52.9615H52.9863L56.7663 42.7715H58.7063L62.5163 52.9615H60.4063L59.7163 50.9215H59.7063ZM59.1163 49.2015L57.7563 45.1915H57.7263L56.3763 49.2015H59.1163Z" fill="#37278E"/>
<path d="M66.8066 42.7715H68.8266V52.9615H66.8066V42.7715Z" fill="#37278E"/>
<path d="M73.5957 47.8806C73.5957 44.8906 75.5357 42.6406 78.7257 42.6406C80.1657 42.6406 81.7257 43.2006 82.7757 44.3906L81.3357 45.6006C80.7057 45.0006 79.8457 44.5506 78.7257 44.5506C77.0457 44.5506 75.7057 45.8006 75.7057 47.8806C75.7057 49.7506 76.8857 51.2106 78.8057 51.2106C79.5357 51.2106 80.2157 51.0406 80.8757 50.6406V49.1306H78.5757V47.4106H82.8157V51.8006C81.8957 52.5506 80.3757 53.0606 78.8057 53.0606C75.8657 53.0606 73.5957 51.1506 73.5957 47.8806Z" fill="#37278E"/>
<path d="M96.2953 42.7715V52.9615H94.2253L89.7353 46.2015H89.7053V52.9615H87.6953V42.7715H89.7053L94.2553 49.6615H94.2653V42.7715H96.2853H96.2953Z" fill="#37278E"/>
</svg>
