<svg width="124" height="54" viewBox="0 0 124 54" fill="none" xmlns="http://www.w3.org/2000/svg">
<path d="M1.67383 0H15.3538C24.3038 0 28.2038 5.2 28.2038 12.27C28.2038 20.38 22.7938 24.28 14.6838 24.28H8.91383V36.92H1.67383V0ZM13.7438 17.79C18.3238 17.79 20.6138 15.55 20.6138 12.12C20.6138 8.69 18.3238 6.5 14.0638 6.5H8.91383V17.79H13.7538H13.7438Z" fill="#37278E"/>
<path d="M51.0738 0V6.55H40.8337V36.93H33.5538V6.55H30.1038C29.8738 6.55 29.6637 6.4 29.5838 6.18C28.8138 4.14 27.6138 2.37 25.9538 0.99C25.5538 0.65 25.7937 0 26.3237 0H51.0837H51.0738Z" fill="#37278E"/>
<path d="M75.9342 27.1993C75.9342 33.3893 70.7842 37.3393 63.8642 37.3393C57.5142 37.3393 52.7842 34.0093 51.0742 29.4893L57.2142 26.9393C58.1542 29.4893 60.1242 30.9993 63.3542 30.9993C66.2142 30.9993 68.6542 29.2293 68.6542 26.2093C68.6542 23.6593 66.6742 21.4793 62.7742 21.4793H60.1742V15.7093H63.3442C66.5142 15.7093 67.9742 13.8393 67.9742 11.4993C67.9742 8.8993 65.8942 7.1793 63.2442 7.1793C60.5942 7.1793 59.0842 8.3193 58.0442 10.1393L52.3742 7.1193C54.0342 3.4293 58.1442 0.779297 63.4042 0.779297C69.7542 0.779297 74.8942 4.2093 74.8942 10.3493C74.8942 13.7793 73.1242 16.6893 70.2642 18.3593V18.4593C73.6942 20.0693 75.9342 23.0393 75.9342 27.1993Z" fill="#00AEE8"/>
<path d="M77.7344 19.0893C77.7344 8.1693 82.9844 0.779297 91.6244 0.779297C100.264 0.779297 105.564 7.5393 105.564 19.0893C105.564 30.0093 100.314 37.3493 91.6244 37.3493C83.4044 37.3493 77.7344 30.6393 77.7344 19.0893ZM98.3244 19.0893C98.3244 11.8593 95.8844 7.3893 91.6644 7.3893C87.4444 7.3893 84.9544 11.4993 84.9544 19.0893C84.9544 26.2693 87.4544 30.7893 91.6644 30.7893C95.8744 30.7893 98.3244 26.6293 98.3244 19.0893Z" fill="#00AEE8"/>
<path d="M0.333984 47.5501C0.333984 44.3801 2.36398 41.8301 5.98398 41.8301C7.51398 41.8301 9.18398 42.4701 10.404 43.9501L8.79398 45.3201C8.13398 44.5501 7.13398 43.9101 5.98398 43.9101C4.06398 43.9101 2.62398 45.3201 2.62398 47.5301C2.62398 49.5901 3.99398 51.0801 5.98398 51.0801C7.14398 51.0801 8.14398 50.4901 8.79398 49.6701L10.404 51.0601C9.45398 52.2501 7.95398 53.1501 5.98398 53.1501C2.95398 53.1501 0.333984 51.1801 0.333984 47.5301V47.5501Z" fill="#37278E"/>
<path d="M21.644 50.8505H17.384L16.634 53.0705H14.334L18.444 41.9805H20.554L24.694 53.0705H22.394L21.644 50.8505ZM21.004 48.9705L19.524 44.6105H19.494L18.024 48.9705H21.004Z" fill="#37278E"/>
<path d="M40.533 41.9707V53.0607H38.363V46.1707H38.333L35.633 50.9507H34.213L31.513 46.1707H31.483V53.0607H29.293V41.9707H31.513L34.923 48.2807H34.953L38.343 41.9707H40.543H40.533Z" fill="#37278E"/>
<path d="M46.0938 41.9707H50.2038C52.8938 41.9707 54.0638 43.5307 54.0638 45.6607C54.0638 48.1007 52.4437 49.2707 50.0037 49.2707H48.2738V53.0707H46.1038V41.9807L46.0938 41.9707ZM49.7238 47.3107C51.0938 47.3107 51.7838 46.6407 51.7838 45.6107C51.7838 44.5807 51.0938 43.9207 49.8138 43.9207H48.2638V47.3107H49.7138H49.7238Z" fill="#37278E"/>
<path d="M64.5639 50.8505H60.3039L59.5539 53.0705H57.2539L61.3639 41.9805H63.4739L67.6139 53.0705H65.3139L64.5639 50.8505ZM63.9239 48.9705L62.4439 44.6105H62.4139L60.9439 48.9705H63.9239Z" fill="#37278E"/>
<path d="M72.2852 41.9707H74.4852V53.0607H72.2852V41.9707Z" fill="#37278E"/>
<path d="M79.6738 47.5301C79.6738 44.2801 81.7838 41.8301 85.2538 41.8301C86.8138 41.8301 88.5138 42.4401 89.6638 43.7401L88.1038 45.0501C87.4138 44.3901 86.4838 43.9101 85.2638 43.9101C83.4338 43.9101 81.9838 45.2701 81.9838 47.5301C81.9838 49.5601 83.2638 51.1501 85.3538 51.1501C86.1538 51.1501 86.8838 50.9601 87.6038 50.5301V48.8901H85.1038V47.0201H89.7138V51.8001C88.7138 52.6101 87.0538 53.1701 85.3538 53.1701C82.1538 53.1701 79.6838 51.0901 79.6838 47.5301H79.6738Z" fill="#37278E"/>
<path d="M104.374 41.9707V53.0607H102.124L97.2337 45.7007H97.2037V53.0607H95.0137V41.9707H97.2037L102.154 49.4707H102.174V41.9707H104.374Z" fill="#37278E"/>
</svg>
