<svg width="31" height="30" viewBox="0 0 31 30" fill="none" xmlns="http://www.w3.org/2000/svg">
<g clip-path="url(#clip0_4932_10024)">
<path d="M15.75 0C7.4658 0 0.75 6.7158 0.75 15C0.75 22.0344 5.5932 27.9372 12.1266 29.5584V19.584H9.0336V15H12.1266V13.0248C12.1266 7.9194 14.4372 5.553 19.4496 5.553C20.4 5.553 22.0398 5.7396 22.7106 5.9256V10.0806C22.3566 10.0434 21.7416 10.0248 20.9778 10.0248C18.5184 10.0248 17.568 10.9566 17.568 13.3788V15H22.4676L21.6258 19.584H17.568V29.8902C24.9954 28.9932 30.7506 22.6692 30.7506 15C30.75 6.7158 24.0342 0 15.75 0Z" fill="#475467"/>
</g>
<defs>
<clipPath id="clip0_4932_10024">
<rect width="30" height="30" fill="white" transform="translate(0.75)"/>
</clipPath>
</defs>
</svg>
