<svg width="31" height="30" viewBox="0 0 31 30" fill="none" xmlns="http://www.w3.org/2000/svg">
<g clip-path="url(#clip0_4932_10026)">
<path d="M28.0293 0H2.46484C1.24023 0 0.25 0.966797 0.25 2.16211V27.832C0.25 29.0273 1.24023 30 2.46484 30H28.0293C29.2539 30 30.25 29.0273 30.25 27.8379V2.16211C30.25 0.966797 29.2539 0 28.0293 0ZM9.15039 25.5645H4.69727V11.2441H9.15039V25.5645ZM6.92383 9.29297C5.49414 9.29297 4.33984 8.13867 4.33984 6.71484C4.33984 5.29102 5.49414 4.13672 6.92383 4.13672C8.34766 4.13672 9.50195 5.29102 9.50195 6.71484C9.50195 8.13281 8.34766 9.29297 6.92383 9.29297ZM25.8145 25.5645H21.3672V18.6035C21.3672 16.9453 21.3379 14.8066 19.0527 14.8066C16.7383 14.8066 16.3867 16.6172 16.3867 18.4863V25.5645H11.9453V11.2441H16.2109V13.2012H16.2695C16.8613 12.0762 18.3145 10.8867 20.4766 10.8867C24.9824 10.8867 25.8145 13.8516 25.8145 17.707V25.5645Z" fill="#475467"/>
</g>
<defs>
<clipPath id="clip0_4932_10026">
<rect width="30" height="30" fill="white" transform="translate(0.25)"/>
</clipPath>
</defs>
</svg>
