<svg width="36" height="36" viewBox="0 0 36 36" fill="none" xmlns="http://www.w3.org/2000/svg">
<path d="M26.5382 16.6853C26.3831 16.611 26.2256 16.5394 26.0661 16.471C25.7882 11.3509 22.9905 8.41969 18.2929 8.38969C18.2716 8.38956 18.2504 8.38956 18.2291 8.38956C15.4193 8.38956 13.0825 9.58892 11.6441 11.7714L14.2277 13.5437C15.3022 11.9134 16.9885 11.5659 18.2304 11.5659C18.2447 11.5659 18.2591 11.5659 18.2733 11.566C19.8201 11.5759 20.9872 12.0256 21.7427 12.9026C22.2924 13.5411 22.6601 14.4234 22.8422 15.537C21.4708 15.3039 19.9877 15.2322 18.4022 15.3231C13.9359 15.5804 11.0646 18.1852 11.2574 21.8048C11.3553 23.6408 12.2699 25.2203 13.8328 26.2521C15.1542 27.1243 16.8561 27.5509 18.6248 27.4543C20.9606 27.3263 22.7931 26.4351 24.0714 24.8055C25.0423 23.568 25.6564 21.9643 25.9275 19.9436C27.0407 20.6154 27.8657 21.4995 28.3213 22.5623C29.0961 24.3688 29.1413 27.3375 26.7189 29.7577C24.5966 31.878 22.0455 32.7952 18.19 32.8236C13.9133 32.7919 10.6788 31.4203 8.57589 28.7469C6.60666 26.2436 5.58894 22.6279 5.55097 18C5.58894 13.3721 6.60666 9.7563 8.57589 7.25301C10.6788 4.57967 13.9132 3.20813 18.19 3.17634C22.4977 3.20837 25.7886 4.58651 27.972 7.27275C29.0426 8.59005 29.8498 10.2467 30.3819 12.1782L33.4095 11.3704C32.7645 8.99291 31.7496 6.94419 30.3684 5.24513C27.5693 1.80125 23.4754 0.0365903 18.2005 0H18.1794C12.9153 0.0364631 8.86727 1.80784 6.14781 5.26487C3.72786 8.3412 2.47958 12.6217 2.43763 17.9873L2.4375 18L2.43763 18.0127C2.47958 23.3783 3.72786 27.6589 6.14781 30.7352C8.86727 34.1921 12.9153 35.9636 18.1794 36H18.2005C22.8806 35.9676 26.1795 34.7423 28.8971 32.0271C32.4527 28.4749 32.3456 24.0223 31.1737 21.2889C30.333 19.3288 28.7301 17.7368 26.5382 16.6853ZM18.4576 24.2826C16.5001 24.3928 14.4664 23.5142 14.3662 21.6322C14.2919 20.2369 15.3592 18.6799 18.5777 18.4944C18.9463 18.4731 19.308 18.4627 19.6633 18.4627C20.8324 18.4627 21.9261 18.5763 22.9204 18.7937C22.5495 23.4253 20.3741 24.1774 18.4576 24.2826Z" fill="#4F4E50"/>
</svg>
