<svg width="36" height="36" viewBox="0 0 36 36" fill="none" xmlns="http://www.w3.org/2000/svg">
<path d="M0 36L2.5305 26.7555C0.969 24.0495 0.1485 20.982 0.15 17.8365C0.1545 8.0025 8.157 0 17.9895 0C22.761 0.0015 27.24 1.86 30.609 5.232C33.9765 8.604 35.8305 13.086 35.829 17.853C35.8245 27.6885 27.822 35.691 17.9895 35.691C15.0045 35.6895 12.063 34.941 9.4575 33.519L0 36ZM9.8955 30.2895C12.4095 31.782 14.8095 32.676 17.9835 32.6775C26.1555 32.6775 32.8125 26.0265 32.817 17.85C32.82 9.657 26.1945 3.015 17.9955 3.012C9.8175 3.012 3.165 9.663 3.162 17.838C3.1605 21.1755 4.1385 23.6745 5.781 26.289L4.2825 31.761L9.8955 30.2895ZM26.976 22.0935C26.865 21.9075 26.568 21.7965 26.121 21.573C25.6755 21.3495 23.484 20.271 23.0745 20.1225C22.6665 19.974 22.3695 19.899 22.071 20.346C21.774 20.7915 20.919 21.7965 20.6595 22.0935C20.4 22.3905 20.139 22.428 19.6935 22.2045C19.248 21.981 17.811 21.5115 16.1085 19.992C14.784 18.81 13.8885 17.3505 13.629 16.9035C13.3695 16.458 13.602 16.2165 13.824 15.9945C14.025 15.795 14.2695 15.474 14.493 15.213C14.7195 14.955 14.793 14.769 14.943 14.4705C15.0915 14.1735 15.018 13.9125 14.9055 13.689C14.793 13.467 13.902 11.2725 13.5315 10.38C13.1685 9.5115 12.801 9.6285 12.528 9.615L11.673 9.6C11.376 9.6 10.893 9.711 10.485 10.158C10.077 10.605 8.925 11.682 8.925 13.8765C8.925 16.071 10.5225 18.1905 10.7445 18.4875C10.968 18.7845 13.887 23.2875 18.3585 25.218C19.422 25.677 20.253 25.9515 20.8995 26.157C21.9675 26.496 22.9395 26.448 23.7075 26.334C24.564 26.2065 26.3445 25.2555 26.7165 24.2145C27.0885 23.172 27.0885 22.2795 26.976 22.0935Z" fill="#4F4E50"/>
</svg>
