<svg width="31" height="30" viewBox="0 0 31 30" fill="none" xmlns="http://www.w3.org/2000/svg">
<g clip-path="url(#clip0_4932_10022)">
<path d="M29.9512 9C29.9512 9 29.6582 6.93164 28.7559 6.02344C27.6133 4.82813 26.3359 4.82227 25.75 4.75195C21.5547 4.44727 15.2559 4.44727 15.2559 4.44727H15.2441C15.2441 4.44727 8.94531 4.44727 4.75 4.75195C4.16406 4.82227 2.88672 4.82813 1.74414 6.02344C0.841797 6.93164 0.554688 9 0.554688 9C0.554688 9 0.25 11.4316 0.25 13.8574V16.1309C0.25 18.5566 0.548828 20.9883 0.548828 20.9883C0.548828 20.9883 0.841797 23.0566 1.73828 23.9648C2.88086 25.1602 4.38086 25.1191 5.04883 25.248C7.45117 25.4766 15.25 25.5469 15.25 25.5469C15.25 25.5469 21.5547 25.5352 25.75 25.2363C26.3359 25.166 27.6133 25.1602 28.7559 23.9648C29.6582 23.0566 29.9512 20.9883 29.9512 20.9883C29.9512 20.9883 30.25 18.5625 30.25 16.1309V13.8574C30.25 11.4316 29.9512 9 29.9512 9ZM12.1504 18.8906V10.459L20.2539 14.6895L12.1504 18.8906Z" fill="#475467"/>
</g>
<defs>
<clipPath id="clip0_4932_10022">
<rect width="30" height="30" fill="white" transform="translate(0.25)"/>
</clipPath>
</defs>
</svg>
