<svg width="450" height="160" viewBox="0 0 450 160" fill="none" xmlns="http://www.w3.org/2000/svg">
<path d="M10.0508 133.347V108.101L75.0714 8.37451H97.4294V43.3194H84.1971L43.2075 106.472V107.656H135.605V133.347H10.0508ZM84.8055 160V125.647L85.4139 114.468V8.37451H116.289V160H84.8055Z" fill="#D1D1D1"/>
<path d="M0.625 124.972V99.7262L65.6456 0H88.0036V34.9449H74.7713L33.7817 98.0974V99.282H126.179V124.972H0.625ZM75.3797 151.625V117.273L75.9881 106.093V0H106.863V151.625H75.3797Z" fill="#4460FF"/>
<path d="M229.56 160C216.907 159.952 206.02 156.921 196.898 150.905C187.825 144.889 180.837 136.176 175.933 124.765C171.077 113.354 168.674 99.6275 168.723 83.5854C168.723 67.591 171.151 53.96 176.006 42.6923C180.91 31.4247 187.899 22.8546 196.971 16.982C206.093 11.0617 216.956 8.10156 229.56 8.10156C242.163 8.10156 253.002 11.0617 262.074 16.982C271.196 22.9023 278.209 31.4963 283.113 42.764C288.017 53.9839 290.445 67.591 290.396 83.5854C290.396 99.6752 287.944 113.426 283.04 124.836C278.184 136.247 271.221 144.961 262.148 150.977C253.075 156.992 242.212 160 229.56 160ZM229.56 134.29C238.191 134.29 245.081 130.064 250.231 121.614C255.38 113.163 257.93 100.487 257.881 83.5854C257.881 72.4609 256.704 63.1985 254.35 55.7982C252.045 48.3978 248.759 42.8356 244.493 39.1115C240.275 35.3875 235.298 33.5254 229.56 33.5254C220.977 33.5254 214.111 37.7031 208.962 46.0583C203.813 54.4136 201.214 66.9226 201.164 83.5854C201.164 94.853 202.317 104.259 204.622 111.802C206.976 119.298 210.286 124.932 214.553 128.704C218.819 132.428 223.822 134.29 229.56 134.29Z" fill="#D1D1D1"/>
<path d="M220.442 151.899C207.79 151.851 196.902 148.819 187.781 142.803C178.708 136.788 171.72 128.074 166.815 116.663C161.96 105.252 159.557 91.5259 159.606 75.4838C159.606 59.4894 162.034 45.8584 166.889 34.5908C171.793 23.3231 178.782 14.753 187.854 8.88046C196.976 2.96015 207.839 0 220.442 0C233.046 0 243.884 2.96015 252.957 8.88046C262.079 14.8007 269.092 23.3947 273.996 34.6624C278.9 45.8823 281.328 59.4894 281.279 75.4838C281.279 91.5736 278.827 105.324 273.922 116.735C269.067 128.146 262.103 136.859 253.031 142.875C243.958 148.891 233.095 151.899 220.442 151.899ZM220.442 126.188C229.074 126.188 235.964 121.963 241.114 113.512C246.263 105.061 248.813 92.3853 248.764 75.4838C248.764 64.3594 247.587 55.097 245.233 47.6966C242.928 40.2962 239.642 34.734 235.376 31.0099C231.158 27.2859 226.18 25.4239 220.442 25.4239C211.86 25.4239 204.994 29.6015 199.845 37.9568C194.696 46.312 192.096 58.821 192.047 75.4838C192.047 86.7515 193.2 96.1571 195.505 103.701C197.859 111.197 201.169 116.83 205.436 120.602C209.702 124.326 214.705 126.188 220.442 126.188Z" fill="#4460FF"/>
<path d="M323.82 133.347V108.101L388.841 8.37451H411.199V43.3194H397.967L356.977 106.472V107.656H449.375V133.347H323.82ZM398.575 160V125.647L399.183 114.468V8.37451H430.059V160H398.575Z" fill="#D1D1D1"/>
<path d="M314.395 124.972V99.7262L379.415 0H401.773V34.9449H388.541L347.551 98.0974V99.282H439.949V124.972H314.395ZM389.149 151.625V117.273L389.758 106.093V0H420.633V151.625H389.149Z" fill="#4460FF"/>
</svg>
