<svg width="54" height="54" viewBox="0 0 54 54" fill="none" xmlns="http://www.w3.org/2000/svg">
<path d="M0 24C0 10.7452 10.7452 0 24 0H30C43.2548 0 54 10.7452 54 24V30C54 43.2548 43.2548 54 30 54H24C10.7452 54 0 43.2548 0 30V24Z" fill="#4460FF"/>
<path d="M32 20.75C32 19.5875 32 19.0063 31.8722 18.5294C31.5255 17.2353 30.5147 16.2245 29.2206 15.8778C28.7437 15.75 28.1625 15.75 27 15.75C25.8375 15.75 25.2563 15.75 24.7794 15.8778C23.4853 16.2245 22.4745 17.2353 22.1278 18.5294C22 19.0063 22 19.5875 22 20.75M18.5 38.25H35.5C36.9001 38.25 37.6002 38.25 38.135 37.9775C38.6054 37.7378 38.9878 37.3554 39.2275 36.885C39.5 36.3502 39.5 35.6501 39.5 34.25V24.75C39.5 23.3499 39.5 22.6498 39.2275 22.115C38.9878 21.6446 38.6054 21.2622 38.135 21.0225C37.6002 20.75 36.9001 20.75 35.5 20.75H18.5C17.0999 20.75 16.3998 20.75 15.865 21.0225C15.3946 21.2622 15.0122 21.6446 14.7725 22.115C14.5 22.6498 14.5 23.3499 14.5 24.75V34.25C14.5 35.6501 14.5 36.3502 14.7725 36.885C15.0122 37.3554 15.3946 37.7378 15.865 37.9775C16.3998 38.25 17.0999 38.25 18.5 38.25Z" stroke="#FAFAFA" stroke-width="1.6" stroke-linecap="round" stroke-linejoin="round"/>
</svg>
