<svg width="55" height="54" viewBox="0 0 55 54" fill="none" xmlns="http://www.w3.org/2000/svg">
<path d="M0.666992 24C0.666992 10.7452 11.4122 0 24.667 0H30.667C43.9218 0 54.667 10.7452 54.667 24V30C54.667 43.2548 43.9218 54 30.667 54H24.667C11.4122 54 0.666992 43.2548 0.666992 30V24Z" fill="#12C4B9"/>
<path d="M20.792 37H18.917C17.5363 37 16.417 35.8807 16.417 34.5V17C16.417 15.6193 17.5363 14.5 18.917 14.5H36.417C37.7977 14.5 38.917 15.6193 38.917 17V34.5C38.917 35.8807 37.7977 37 36.417 37H34.542M27.667 35.75C29.7381 35.75 31.417 34.0711 31.417 32C31.417 29.9289 29.7381 28.25 27.667 28.25C25.5959 28.25 23.917 29.9289 23.917 32C23.917 34.0711 25.5959 35.75 27.667 35.75ZM27.667 35.75L27.6938 35.7497L23.7028 39.7407L20.1673 36.2052L23.9416 32.4309M27.667 35.75L31.658 39.7407L35.1935 36.2052L31.4193 32.4309M23.917 19.5H31.417M21.417 23.875H33.917" stroke="#FAFAFA" stroke-width="1.6" stroke-linecap="round" stroke-linejoin="round"/>
</svg>
