<svg width="55" height="54" viewBox="0 0 55 54" fill="none" xmlns="http://www.w3.org/2000/svg">
<path d="M0.333008 24C0.333008 10.7452 11.0782 0 24.333 0H30.333C43.5878 0 54.333 10.7452 54.333 24V30C54.333 43.2548 43.5878 54 30.333 54H24.333C11.0782 54 0.333008 43.2548 0.333008 30V24Z" fill="#00ADEE"/>
<path d="M33.583 30.125V26.368C33.583 26.1436 33.583 26.0315 33.5488 25.9324C33.5186 25.8449 33.4693 25.7651 33.4045 25.6989C33.3312 25.6241 33.2309 25.5739 33.0302 25.4736L27.333 22.625M17.333 23.875V32.3832C17.333 32.8481 17.333 33.0806 17.4055 33.2841C17.4696 33.464 17.5741 33.6268 17.711 33.7601C17.8658 33.9108 18.0771 34.0077 18.4997 34.2014L26.4997 37.868C26.8062 38.0085 26.9595 38.0788 27.1192 38.1065C27.2607 38.1311 27.4053 38.1311 27.5468 38.1065C27.7065 38.0788 27.8598 38.0085 28.1663 37.868L36.1663 34.2014C36.5889 34.0077 36.8002 33.9108 36.955 33.7601C37.0919 33.6268 37.1964 33.464 37.2605 33.2841C37.333 33.0806 37.333 32.8481 37.333 32.3832V23.875M14.833 22.625L26.8858 16.5986C27.0498 16.5166 27.1318 16.4756 27.2178 16.4594C27.2939 16.4452 27.3721 16.4452 27.4483 16.4594C27.5343 16.4756 27.6162 16.5166 27.7802 16.5986L39.833 22.625L27.7802 28.6514C27.6162 28.7333 27.5343 28.7743 27.4483 28.7905C27.3721 28.8048 27.2939 28.8048 27.2178 28.7905C27.1318 28.7743 27.0498 28.7333 26.8858 28.6514L14.833 22.625Z" stroke="#FAFAFA" stroke-width="1.6" stroke-linecap="round" stroke-linejoin="round"/>
</svg>
