<svg width="54" height="54" viewBox="0 0 54 54" fill="none" xmlns="http://www.w3.org/2000/svg">
<path d="M0 24C0 10.7452 10.7452 0 24 0H30C43.2548 0 54 10.7452 54 24V30C54 43.2548 43.2548 54 30 54H24C10.7452 54 0 43.2548 0 30V24Z" fill="#DC50F4"/>
<path d="M38.25 32V21C38.25 19.5999 38.25 18.8998 37.9775 18.365C37.7378 17.8946 37.3554 17.5122 36.885 17.2725C36.3502 17 35.6501 17 34.25 17H19.75C18.3499 17 17.6498 17 17.115 17.2725C16.6446 17.5122 16.2622 17.8946 16.0225 18.365C15.75 18.8998 15.75 19.5999 15.75 21V32M17.8333 37H36.1667C36.9416 37 37.3291 37 37.647 36.9148C38.5098 36.6836 39.1836 36.0098 39.4148 35.147C39.5 34.8291 39.5 34.4416 39.5 33.6667C39.5 33.2792 39.5 33.0854 39.4574 32.9265C39.3418 32.4951 39.0049 32.1582 38.5735 32.0426C38.4146 32 38.2208 32 37.8333 32H16.1667C15.7792 32 15.5854 32 15.4265 32.0426C14.9951 32.1582 14.6582 32.4951 14.5426 32.9265C14.5 33.0854 14.5 33.2792 14.5 33.6667C14.5 34.4416 14.5 34.8291 14.5852 35.147C14.8164 36.0098 15.4902 36.6836 16.353 36.9148C16.6709 37 17.0584 37 17.8333 37Z" stroke="#FAFAFA" stroke-width="2" stroke-linecap="round" stroke-linejoin="round"/>
</svg>
