<svg width="54" height="54" viewBox="0 0 54 54" fill="none" xmlns="http://www.w3.org/2000/svg">
<path d="M0 24C0 10.7452 10.7452 0 24 0H30C43.2548 0 54 10.7452 54 24V30C54 43.2548 43.2548 54 30 54H24C10.7452 54 0 43.2548 0 30V24Z" fill="#00ADEE"/>
<path d="M23.25 33.25L17 39.5M30.75 33.25L37 39.5M27 14.5V17M27 39.5V33.25M18.5 33.25H35.5C36.9001 33.25 37.6002 33.25 38.135 32.9775C38.6054 32.7378 38.9878 32.3554 39.2275 31.885C39.5 31.3502 39.5 30.6501 39.5 29.25V21C39.5 19.5999 39.5 18.8998 39.2275 18.365C38.9878 17.8946 38.6054 17.5122 38.135 17.2725C37.6002 17 36.9001 17 35.5 17H18.5C17.0999 17 16.3998 17 15.865 17.2725C15.3946 17.5122 15.0122 17.8946 14.7725 18.365C14.5 18.8998 14.5 19.5999 14.5 21V29.25C14.5 30.6501 14.5 31.3502 14.7725 31.885C15.0122 32.3554 15.3946 32.7378 15.865 32.9775C16.3998 33.25 17.0999 33.25 18.5 33.25Z" stroke="#FAFAFA" stroke-width="1.6" stroke-linecap="round" stroke-linejoin="round"/>
</svg>
